<svg xmlns="http://www.w3.org/2000/svg" width="5.331478966666666in" height="3.887067540277778in" viewBox="0 0 383.8664856 279.8688629"><g/><g/><g/><g/><g/><g/><g/><g/><g/><g/><g/><g/><g/><g/><g/><g/><g/><g/><g/><g/><g/><g/><g/><g/><g/><g/><g/><g/><g/><g/><g/><g/><g/><g/><g/><g/><g/><g/><g/><g/><g/><g/><g/><g/><g/><g/><g/><g/><g/><g/><g/><g/><g/><g/><g/><g/><g/><g/><g/><g/><g/><g/><g/><g/><g/><g/><g/><g/><g/><g/><g/><g/><g/><g/><g/><g/><g/><g/><g/><g/><g/><g/><g/><g/><g/><g/><g/><g/><g/><g/><g/><g/><g/><g/><g/><g/><g/><g/><g/><g/><g/><g/><g/><g/><g/><g/><g/><g/><g/><g/><g/><g/><g/><g/><g/><g/><g/><g/><g/><g/><g/><g/><g/><g/><g/><g/><g/><g/><g/><g/><g/><g/><g/><g/><g/><g/><g/><g/><g/><g/><g/><g/><g/><g/><g/><g/><g/><g/><g/><g/><g/><g/><g/><g/><g/><path fill="none" stroke="#000000" d="M 6.297000899999944 135.097796 C 6.354750899999885 136.831046 5.083500899999876 138.217796 3.062250899999981 138.217796 C 1.2705008999998881 138.217796 8.99999918146932e-7 136.831046 8.99999918146932e-7 135.097796 C 8.99999918146932e-7 133.306796 1.3282508999999436 131.920796 3.177000899999939 131.920796 C 5.082750899999837 131.92004599999999 6.297000899999944 133.306796 6.297000899999944 135.097796 z"/><path fill="none" stroke="#000000" d="M 3.1770002 154.85796900000003 C 4.910250200000002 154.80021900000008 6.297000200000003 156.07071900000005 6.297000200000003 158.0927190000001 C 6.297000200000003 159.88371900000004 4.910250200000004 161.154219 3.177000200000002 161.154219 C 1.3860002000000033 161.154219 2.0000000233721948e-7 159.8259690000001 2.0000000233721948e-7 157.977219 C -0.0007497999999985794 156.07071900000017 1.3860001999999998 154.85796900000003 3.1770002 154.85796900000003 z"/><line x1="227.26797485351562" x2="227.26797485351562" y1="105.41459655761719" y2="122.62860107421875" fill="none" stroke="#000000"/><line x1="242.85897827148438" x2="220.10299682617188" y1="122.62786865234375" y2="150.01187133789062" fill="none" stroke="#000000"/><line x1="61.63071060180664" x2="61.63071060180664" y1="35.927825927734375" y2="66.22280883789062" fill="none" stroke="#000000"/><line x1="279.4317626953125" x2="283.12677001953125" y1="74.84529876708984" y2="67.17830657958984" fill="none" stroke="#000000"/><path fill="none" stroke="#000000" d="M 234.33123049999995 58.813649000000005 L 239.4147304999999 58.813649000000005 L 239.4147304999999 58.813649000000005 L 239.4147304999999 41.944649 L 239.4147304999999 41.944649 C 239.4147304999999 40.962149 239.47248049999996 40.211399 239.7612305 39.518399 C 240.68598050000003 36.745649 243.28548049999995 34.434899 246.57798049999997 34.434899 C 251.37348050000003 34.434899 253.04823049999993 38.247899 253.04823049999993 42.753899 L 253.04823049999993 42.753899 L 253.04823049999993 58.814399 L 253.04823049999993 58.814399 L 258.1317305 58.814399 L 258.1317305 58.814399 L 258.1317305 42.176399 L 258.1317305 42.176399 C 258.1317305 32.529149000000004 252.1234804999999 30.218398999999998 248.36823049999998 30.218398999999998 C 246.46248049999986 30.218398999999998 244.67073049999988 30.795899000000002 243.1692304999999 31.662899000000003 C 241.60848050000004 32.529149000000004 240.33798049999996 33.799649 239.52948049999998 35.244149 L 239.52948049999998 35.244149 L 239.41398049999998 35.244149 L 239.41398049999998 35.244149 L 239.41398049999998 17.797649 L 239.41398049999998 17.797649 L 234.33048050000002 17.797649 L 234.33048050000002 17.797649 L 234.33123049999995 17.797649 L 234.33123049999995 17.797649 L 234.33123049999995 122.62811279296875"/><path fill="none" stroke="#000000" d="M 214.7971776999999 2.3652483999999987 C 212.8321777 1.209498399999994 210.00167769999996 0.45874839999999756 206.94017769999994 0.45874839999999756 C 200.29667769999992 0.45874839999999756 196.48442769999986 3.925248400000001 196.48442769999986 8.835498399999992 C 196.48442769999986 12.994998399999993 198.96767769999997 15.421248399999996 203.82092769999997 17.269998399999995 C 207.46067770000002 18.656748399999994 209.13542769999992 19.69624839999999 209.13542769999992 22.006998399999997 C 209.13542769999992 24.086748399999994 207.4606776999999 25.819998399999996 204.4561776999999 25.819998399999996 C 201.85667769999998 25.8199984 199.83467769999993 24.8952484 198.7374276999999 24.2022484 L 198.7374276999999 24.2022484 L 197.4661776999999 27.8997484 L 197.4661776999999 27.8997484 C 199.02617769999995 28.8244984 201.5109276999999 29.632998399999998 204.3406776999999 29.632998399999995 C 210.3489277 29.632998399999995 213.98867769999993 25.935498399999993 213.98867769999993 21.429498399999993 C 213.98867769999993 18.078498399999997 211.6201777 15.305748399999999 206.59442769999998 13.514748400000002 C 202.83917769999994 12.1287484 201.3946777 10.799748399999999 201.3946777 8.373498400000003 C 201.3946777 6.062748400000004 203.12717769999995 4.213998400000001 206.82467769999994 4.213998400000001 C 209.36717769999996 4.213998400000001 212.02442769999993 5.253498399999998 213.52667769999994 6.2359984 L 213.52667769999994 6.2359984 L 214.7971776999999 2.3652483999999987 z"/><path fill="none" stroke="#000000" d="M 251.5442252 117.08395710000002 L 261.1914752 125.28745709999998 L 261.1914752 125.28745709999998 C 262.17397520000003 126.0967071 263.3867252 127.07845710000004 264.3692252 127.77145710000002 L 264.3692252 127.77145710000002 L 264.3692252 127.88695710000002 L 264.3692252 127.88695710000002 L 238.4889752 127.88695710000002 L 238.4889752 127.88695710000002 L 238.4889752 132.91270710000003 L 238.4889752 132.91270710000003 L 285.7520446777344 132.91270710000003"/><path fill="none" stroke="#000000" d="M 286.4652157 134.00995710000007 C 287.4469657 136.03270710000004 288.0829657 139.1519571 288.0829657 142.21345710000003 C 288.0829657 151.6882071000001 281.9592157 157.17595710000012 272.4274657 157.17595710000012 C 262.2019657 157.17595710000012 256.36696570000004 151.10995709999997 256.36696570000004 141.98245710000003 C 256.36696570000004 138.74695710000003 257.0607157 136.0319571000001 257.9847157 134.12545710000006 L 257.9847157 134.12545710000006 L 253.8829657 132.91270710000003 L 253.8829657 132.91270710000003 C 253.18996570000002 134.24095710000006 252.1497157 137.30245709999997 252.1497157 142.1557071000001 C 252.1497157 154.22845710000013 260.4117157 162.49045710000007 272.6007157 162.49045710000007 C 285.3679657 162.49045710000007 292.3002157 154.22920710000005 292.3002157 143.25295710000012 C 292.3002157 138.51595710000004 291.3754657 134.81845710000005 290.4514657 132.96970710000005 L 290.4514657 132.96970710000005 L 286.4652157 134.00995710000007 z"/><path fill="none" stroke="#000000" d="M 274.07257550000014 238.40990979999998 C 272.62957550000016 239.0459098 270.7230755000001 239.7966598 267.8340755000001 239.7966598 C 262.28857550000015 239.7966598 258.12907550000006 235.8104098 258.12907550000006 229.34015979999998 C 258.12907550000006 223.5051598 261.59557550000017 218.7681598 268.0080755000001 218.7681598 C 270.78082550000005 218.7681598 272.6873255000001 219.4034098 273.9000755000001 220.0964098 L 273.9000755000001 220.0964098 L 275.05582550000014 216.1679098 L 275.05582550000014 216.1679098 C 273.66907550000013 215.4749098 271.01182550000004 214.7241598 268.0080755000001 214.7241598 C 258.8798255000001 214.7241598 252.98782550000004 220.96265979999998 252.98782550000004 229.5704098 C 252.98782550000004 238.1204098 258.47557550000005 243.8399098 266.9100755 243.8399098 C 270.66532550000005 243.8399098 273.6120755000001 242.91590979999998 274.94032550000003 242.2221598 L 274.94032550000003 242.2221598 L 274.07257550000014 238.40990979999998 z"/><path d="M 37.734493255615234 23.674257278442383 L 23.730497360229492 55.99525451660156 L 23.730497360229492 55.99525451660156 L 5.056485652923584 114.42825317382812 L 5.056485652923584 114.42825317382812 L 0.00048602640163153415 20.711244583129883 L 0.00048602640163153415 20.711244583129883 L 21.006498336791992 0.00024592279805801825 L 21.006498336791992 0.0002459227980580181 L 37.734493255615234 23.674257278442383 z" fill="none" stroke="#000000"/><path d="M 12.621986389160156 90.7547607421875 L 26.625953674316406 58.43374252319336 L 26.625953674316406 58.43374252319336 L 45.301002502441406 -0.0002466648293193431 L 45.301002502441406 -0.0002466648293193431 L 50.355995178222656 93.71774291992188 L 50.355995178222656 93.71774291992188 L 29.349952697753906 114.42974853515625 L 29.349952697753906 114.42974853515625 L 12.621986389160156 90.7547607421875 z" fill="none" stroke="#000000"/><path d="M 23.675479888916016 111.9713363647461 L 55.995487213134766 125.97432708740234 L 55.995487213134766 125.97432708740234 L 114.42950439453125 144.64930725097656 L 114.42950439453125 144.64930725097656 L 20.711490631103516 149.7042999267578 L 20.711490631103516 149.7042999267578 L 0.0004918304621241988 128.6983184814453 L 0.0004918304621241987 128.6983184814453 L 23.675479888916016 111.9713363647461 z" fill="none" stroke="#000000"/><path d="M 84.06996154785156 43.870849609375 L 84.06996154785156 88.41586303710938 L 84.06996154785156 88.41586303710938 L 100.56996154785156 88.41586303710938 L 100.56996154785156 88.41586303710938 L 75.32046508789062 132.15084838867188 L 75.32046508789062 132.15084838867188 L 50.07026290893555 88.41586303710938 L 50.07026290893555 88.41586303710938 L 66.57025909423828 88.41586303710938 L 66.57025909423828 88.41586303710938 L 66.57025909423828 43.870849609375 L 66.57025909423828 43.870849609375 L 84.06996154785156 43.870849609375 z" fill="none" stroke="#000000"/><path d="M 79.83243560791016 -0.00024425782612524927 L 110.76143646240234 3.1107177734375 L 110.76143646240234 3.1107177734375 L 109.40042877197266 22.36676025390625 L 109.40042877197266 22.36676025390625 L 116.92142486572266 26.938720703125 L 116.92142486572266 26.938720703125 L 111.73343658447266 43.76171875 L 111.73343658447266 43.76171875 L 93.83942413330078 53.875732421875 L 93.83942413330078 53.875732421875 L 71.8094253540039 31.31573486328125 L 71.8094253540039 31.31573486328125 L 79.83243560791016 -0.00024425782612524927 z" fill="none" stroke="#000000"/><path d="M 136.34249877929688 105.7658920288086 L 133.23150634765625 136.69488525390625 L 133.23150634765625 136.69488525390625 L 113.97650146484375 135.3328857421875 L 113.97650146484375 135.3328857421875 L 109.40350341796875 142.8538818359375 L 109.40350341796875 142.8538818359375 L 92.58050537109375 137.6658935546875 L 92.58050537109375 137.6658935546875 L 82.46650695800781 119.7718734741211 L 82.46650695800781 119.7718734741211 L 105.02751159667969 97.74288177490234 L 105.02751159667969 97.74288177490234 L 136.34249877929688 105.7658920288086 z" fill="none" stroke="#000000"/><path d="M 138.0869903564453 54.58934783935547 L 134.9759979248047 85.51732635498047 L 134.9759979248047 85.51732635498047 L 115.72002410888672 84.15630340576172 L 115.72002410888672 84.15630340576172 L 111.14800262451172 91.67833709716797 L 111.14800262451172 91.67833709716797 L 94.32500457763672 86.49034881591797 L 94.32500457763672 86.49034881591797 L 84.21102142333984 68.59532928466797 L 84.21102142333984 68.59532928466797 L 106.77202606201172 46.56633758544922 L 106.77202606201172 46.56633758544922 L 138.0869903564453 54.58934783935547 z" fill="none" stroke="#000000"/><path d="M 53.875736236572266 157.62767028808594 L 50.764774322509766 188.55467224121094 L 50.764774322509766 188.55467224121094 L 31.508729934692383 187.19468688964844 L 31.508729934692383 187.19468688964844 L 26.936769485473633 194.71568298339844 L 26.936769485473633 194.71568298339844 L 10.11377239227295 189.5276641845703 L 10.11377239227295 189.5276641845703 L -0.00024168827803805479 171.63368225097656 L -0.00024168827803805479 171.63368225097656 L 22.559755325317383 149.6046905517578 L 22.559755325317383 149.6046905517578 L 53.875736236572266 157.62767028808594 z" fill="none" stroke="#000000"/><path d="M 59.757110595703125 147.5977783203125 L 90.68510437011719 150.70877075195312 L 90.68510437011719 150.70877075195312 L 89.32411193847656 169.96478271484375 L 89.32411193847656 169.96478271484375 L 96.84510803222656 174.53677368164062 L 96.84510803222656 174.53677368164062 L 91.6571044921875 191.35977172851562 L 91.6571044921875 191.35977172851562 L 73.76310729980469 201.4737548828125 L 73.76310729980469 201.4737548828125 L 51.73411560058594 178.91375732421875 L 51.73411560058594 178.91375732421875 L 59.757110595703125 147.5977783203125 z" fill="none" stroke="#000000"/><path d="M 135.29104614257812 148.302734375 L 133.93099975585938 167.5587158203125 L 133.93099975585938 167.5587158203125 L 141.45205688476562 172.1307373046875 L 141.45205688476562 172.1307373046875 L 136.26400756835938 188.9537353515625 L 136.26400756835938 188.9537353515625 L 118.37002563476562 199.0677490234375 L 118.37002563476562 199.0677490234375 L 96.34103393554688 176.5067138671875 L 96.34103393554688 176.5067138671875 L 104.36404418945312 145.19171142578125 L 104.36404418945312 145.19171142578125 L 180.87831927716667 152.888469944486" fill="none" stroke="#000000"/><path d="M 31.63751220703125 241.29769897460938 L 11.969512939453125 217.22869873046875 L 11.969512939453125 217.22869873046875 L 26.548507690429688 204.57571411132812 L 26.548507690429688 204.57571411132812 L 24.461502075195312 196.02371215820312 L 24.461502075195312 196.02371215820312 L 40.02650451660156 187.79571533203125 L 40.02650451660156 187.79571533203125 L 59.83052062988281 193.2987060546875 L 59.83052062988281 193.2987060546875 L 59.45249938964844 224.8297119140625 L 59.45249938964844 224.8297119140625 L 31.63751220703125 241.29769897460938 z" fill="none" stroke="#000000"/><path d="M 103.81538391113281 184.16172790527344 L 123.48338317871094 208.22972106933594 L 123.48338317871094 208.22972106933594 L 108.90437316894531 220.8827362060547 L 108.90437316894531 220.8827362060547 L 110.99339294433594 229.4347381591797 L 110.99339294433594 229.4347381591797 L 95.42839050292969 237.66172790527344 L 95.42839050292969 237.66172790527344 L 75.62239074707031 232.16172790527344 L 75.62239074707031 232.16172790527344 L 76.00138854980469 200.62974548339844 L 76.00138854980469 200.62974548339844 L 103.81538391113281 184.16172790527344 z" fill="none" stroke="#000000"/><path d="M 144.85336303710938 0.6726831197738647 L 164.52037048339844 24.741714477539062 L 164.52037048339844 24.741714477539062 L 149.94337463378906 37.39472961425781 L 149.94337463378906 37.39472961425781 L 152.03036499023438 45.94673156738281 L 152.03036499023438 45.94673156738281 L 136.4653778076172 54.17469787597656 L 136.4653778076172 54.17469787597656 L 116.66136169433594 48.67170715332031 L 116.66136169433594 48.67170715332031 L 117.03935241699219 17.140701293945312 L 117.03935241699219 17.140701293945312 L 144.85336303710938 0.6726831197738647 z" fill="none" stroke="#000000"/><path d="M 107.06037139892578 236.52200317382812 L 119.05634307861328 214.9010009765625 L 119.05634307861328 214.9010009765625 L 168.911376953125 219.91098022460938 L 168.911376953125 219.91098022460938 L 162.09832763671875 254.42599487304688 L 162.09832763671875 254.42599487304688 L 107.06037139892578 236.52200317382812 z" fill="none" stroke="#000000"/><path d="M 168.12461853027344 169.4727783203125 L 146.5026092529297 157.477783203125 L 146.5026092529297 157.477783203125 L 128.59959411621094 212.51577758789062 L 128.59959411621094 212.51577758789062 L 163.1136016845703 219.3287811279297 L 163.1136016845703 219.3287811279297 L 168.37513346839438 166.98033540046532" fill="none" stroke="#000000"/><path d="M 131.02481079101562 147.87355041503906 L 137.83883666992188 113.35855102539062 L 137.83883666992188 113.35855102539062 L 192.87484741210938 131.2615509033203 L 192.87484741210938 131.2615509033203 L 180.87881469726562 152.883544921875" fill="none" stroke="#000000"/><path d="M 168.37554931640625 166.98037719726562 L 202.8895263671875 173.79238891601562 L 202.8895263671875 173.79238891601562 L 184.986572265625 228.83041381835938 L 184.986572265625 228.83041381835938 L 163.36553955078125 216.83438110351562" fill="none" stroke="#000000"/><path d="M 146.90386962890625 48.84772491455078 L 168.52587890625 60.84375762939453 L 168.52587890625 60.84375762939453 L 163.51487731933594 110.69776153564453 L 163.51487731933594 110.69776153564453 L 129.00086975097656 103.8847427368164 L 129.00086975097656 103.8847427368164 L 146.90386962890625 48.84772491455078 z" fill="none" stroke="#000000"/><path d="M 220.3438262939453 38.66651153564453 L 208.34779357910156 60.28754425048828 L 208.34779357910156 60.28754425048828 L 158.49378967285156 55.27753448486328 L 158.49378967285156 55.27753448486328 L 165.30580139160156 20.76251983642578 L 165.30580139160156 20.76251983642578 L 220.3438262939453 38.66651153564453 z" fill="none" stroke="#000000"/><path d="M 166.33297729492188 122.62860107421875 L 166.33297729492188 82.65959167480469 L 166.33297729492188 82.65959167480469 L 193.71701049804688 105.41459655761719 L 193.71701049804688 105.41459655761719 L 234.33071899414062 105.41459655761719" fill="none" stroke="#000000"/><path d="M 196.4818878173828 193.49172973632812 L 196.4818878173828 254.42672729492188 L 196.4818878173828 254.42672729492188 L 213.6958770751953 254.42672729492188 L 213.6958770751953 254.42672729492188 L 213.6958770751953 220.875732421875 L 213.6958770751953 220.875732421875 L 236.4508819580078 193.49172973632812 L 236.4508819580078 193.49172973632812 L 196.4818878173828 193.49172973632812 z" fill="none" stroke="#000000"/><path d="M 202.88998413085938 122.62786865234375 L 202.88998413085938 183.5628662109375 L 202.88998413085938 183.5628662109375 L 220.10299682617188 183.5628662109375 L 220.10299682617188 183.5628662109375 L 220.10299682617188 150.01162719726562" fill="none" stroke="#000000"/><path d="M 194.36172485351562 105.41484069824219 L 217.11770629882812 78.03084564208984 L 217.11770629882812 78.03084564208984 L 217.11770629882812 44.480342864990234 L 217.11770629882812 44.480342864990234 L 234.33071899414062 44.480342864990234" fill="none" stroke="#000000"/><path d="M 251.54446411132812 89.078125 L 274.2994689941406 61.694156646728516 L 274.2994689941406 61.694156646728516 L 234.33145141601562 61.694156646728516" fill="none" stroke="#000000"/><path d="M 69.5194320678711 226.41574096679688 L 71.6494369506836 243.53375244140625 L 71.6494369506836 243.53375244140625 L 109.5094223022461 241.19973754882812 L 109.5094223022461 241.19973754882812 L 80.49144744873047 254.42575073242188 L 80.49144744873047 254.42575073242188 L 39.362449645996094 252.09173583984375 L 39.362449645996094 252.09173583984375 L 54.14342498779297 227.97274780273438 L 54.14342498779297 227.97274780273438 L 69.5194320678711 226.41574096679688 z" fill="none" stroke="#000000"/><path d="M 257.1513977050781 166.48451232910156 L 240.03439331054688 168.6138153076172 L 240.03439331054688 168.6138153076172 L 242.36837768554688 206.47300720214844 L 242.36837768554688 206.47300720214844 L 229.14138793945312 177.45550537109375 L 229.14138793945312 177.45550537109375 L 231.47540283203125 136.32701110839844 L 231.47540283203125 136.32701110839844 L 255.59439086914062 151.10800170898438 L 255.59439086914062 151.10800170898438 L 257.1513977050781 166.48451232910156 z" fill="none" stroke="#000000"/><path d="M 269.3035888671875 214.43753051757812 L 252.18658447265625 216.56552124023438 L 252.18658447265625 216.56552124023438 L 254.52056884765625 254.42648315429688 L 254.52056884765625 254.42648315429688 L 241.29461669921875 225.40750122070312 L 241.29461669921875 225.40750122070312 L 243.6265869140625 184.27853393554688 L 243.6265869140625 184.27853393554688 L 267.74658203125 199.06051635742188 L 267.74658203125 199.06051635742188 L 269.3035888671875 214.43753051757812 z" fill="none" stroke="#000000"/><path d="M 66.64039611816406 0.0004887468530796467 L 47.23939895629883 0.0004887468530796467 L 47.23939895629883 0.0004887468530796467 L 47.23939895629883 35.928466796875 L 47.23939895629883 35.928466796875 L 66.64039611816406 35.928466796875 L 66.64039611816406 35.928466796875 L 66.64039611816406 0.0000028000000007466497 z" fill="none" stroke="#000000"/><path d="M 196.0849151611328 -0.0004884820082224905 L 160.1569061279297 -0.0004884820082224905 L 160.1569061279297 -0.0004884820082224905 L 160.1569061279297 19.4005126953125 L 160.1569061279297 19.4005126953125 L 196.0849151611328 19.4005126953125 L 196.0849151611328 19.4005126953125 L 196.0849151611328 -0.0004884820082224905 z" fill="none" stroke="#000000"/><path d="M 168.1328582763672 84.15457153320312 L 204.0608367919922 84.15457153320312 L 204.0608367919922 84.15457153320312 L 204.0608367919922 64.75357055664062 L 204.0608367919922 64.75357055664062 L 168.1328582763672 64.75357055664062 L 168.1328582763672 64.75357055664062 L 168.1328582763672 84.15457153320312 z" fill="none" stroke="#000000"/><path d="M 25.933141708374023 242.70997619628906 L 20.942113876342773 246.5029754638672 L 20.942113876342773 246.5029754638672 L 18.347143173217773 250.9199676513672 L 18.347143173217773 250.9199676513672 L 12.20511531829834 250.9199676513672 L 12.20511531829834 250.9199676513672 L 8.59213924407959 246.5029754638672 L 8.59213924407959 246.5029754638672 L 5.283117771148682 244.07395935058594 L 5.283117771148682 244.07395935058594 L 5.283117771148682 237.6549530029297 L 5.283117771148682 237.6549530029297 L 9.85513973236084 234.83396911621094 L 9.85513973236084 234.83396911621094 L 12.22110652923584 227.73497009277344 L 12.22110652923584 227.73497009277344 L 18.347143173217773 227.73497009277344 L 18.347143173217773 227.73497009277344 L 20.358129501342773 234.83396911621094 L 20.358129501342773 234.83396911621094 L 25.933141708374023 237.6549530029297 L 25.933141708374023 237.6549530029297 L 25.933141708374023 242.70997619628906 z" fill="none" stroke="#000000"/><path d="M 251.5442252 110.96095709999997 L 263.0402252 121.76320709999993 L 263.0402252 121.76320709999993 L 279.5049752 109.45870709999997 L 279.5049752 109.45870709999997 L 279.5049752 115.63945709999996 L 279.5049752 115.63945709999996 L 266.1024752 125.28745709999998 L 266.1024752 125.28745709999998 L 268.9914752 127.88695710000002 L 268.9914752 127.88695710000002 L 279.50572520000003 127.88695710000002 L 279.50572520000003 127.88695710000002 L 279.50572520000003 132.91270710000003" fill="none" stroke="#000000"/><path d="M 191.51312255859375 152.88380432128906 L 191.51312255859375 165.6417999267578 L 191.51312255859375 165.6417999267578 L 161.2191162109375 165.6417999267578 L 161.2191162109375 165.6417999267578 L 161.2191162109375 152.88380432128906 L 161.2191162109375 152.88380432128906 L 194.59255981445312 152.88380432128906 L 194.59255981445312 152.88380432128906 L 191.80654907226562 136.45130920410156 L 191.80654907226562 136.45130920410156 L 189.19656372070312 139.71380615234375 L 189.19656372070312 139.71380615234375 L 180.87954711914062 152.88380432128906" fill="none" stroke="#000000"/><path d="M 48.87369155883789 35.927825927734375 L 48.87369155883789 66.22280883789062 L 48.87369155883789 66.22280883789062 L 62.33982467651367 66.22280883789062" fill="none" stroke="#000000"/><path d="M 213.6958770751953 254.42623901367188 L 226.45289611816406 254.42623901367188 L 226.45289611816406 254.42623901367188 L 226.45289611816406 224.13223266601562 L 226.45289611816406 224.13223266601562 L 213.6958770751953 224.13223266601562" fill="none" stroke="#000000"/><path d="M 16.921234130859375 212.4168701171875 L 4.287230968475342 214.36386108398438 L 4.287230968475342 214.36386108398438 L 0.000243626956944354 204.44436645507812 L 0.000243626956944354 204.44436645507812 L 1.5572504997253418 191.4116668701172 L 1.5572504997253418 191.4116668701172 L 21.89923095703125 193.1620635986328 L 21.89923095703125 193.1620635986328 L 16.921234130859375 212.4168701171875 z" fill="none" stroke="#000000"/><path d="M 182.81475830078125 248.32672119140625 L 170.17974853515625 250.272705078125 L 170.17974853515625 250.272705078125 L 165.89175415039062 240.35369873046875 L 165.89175415039062 240.35369873046875 L 167.44876098632812 227.32070922851562 L 167.44876098632812 227.32070922851562 L 187.790771484375 229.07168579101562 L 187.790771484375 229.07168579101562 L 182.81475830078125 248.32672119140625 z" fill="none" stroke="#000000"/><path d="M 216.7084503173828 16.610597610473633 L 229.3434295654297 14.66357707977295 L 229.3434295654297 14.66357707977295 L 233.6304473876953 24.582582473754883 L 233.6304473876953 24.582582473754883 L 232.0734405517578 37.615604400634766 L 232.0734405517578 37.615604400634766 L 211.73143005371094 35.864566802978516 L 211.73143005371094 35.864566802978516 L 216.7084503173828 16.610597610473633 z" fill="none" stroke="#000000"/><path d="M 239.4137420654297 17.797649383544922 L 237.4667205810547 5.163646221160889 L 237.4667205810547 5.163646221160889 L 247.38572692871094 0.8756519556045534 L 247.38572692871094 0.8756519556045534 L 260.4187316894531 2.432643413543701 L 260.4187316894531 2.432643413543701 L 258.6676940917969 22.775646209716797 L 258.6676940917969 22.775646209716797 L 239.4137420654297 17.797649383544922 z" fill="none" stroke="#000000"/><path d="M 252.22569274902344 167.24351501464844 L 264.8606872558594 165.2975311279297 L 264.8606872558594 165.2975311279297 L 269.1476745605469 175.2155303955078 L 269.1476745605469 175.2155303955078 L 267.5906982421875 188.24851989746094 L 267.5906982421875 188.24851989746094 L 247.2487030029297 186.49851989746094 L 247.2487030029297 186.49851989746094 L 252.22569274902344 167.24351501464844 z" fill="none" stroke="#000000"/><path d="M 59.7114143371582 203.23126220703125 L 59.7114143371582 226.4159698486328 L 59.7114143371582 226.4159698486328 L 73.3274154663086 226.4159698486328 L 73.3274154663086 226.4159698486328 L 73.3274154663086 203.23126220703125 L 73.3274154663086 203.23126220703125 L 59.7114143371582 203.23126220703125 z" fill="none" stroke="#000000"/><path d="M 251.54440307617188 89.077880859375 L 274.7284240722656 89.077880859375 L 274.7284240722656 89.077880859375 L 274.7284240722656 102.69488525390625" fill="none" stroke="#000000"/><path d="M 257.4685974121094 36.39115524291992 L 280.652587890625 36.39115524291992 L 280.652587890625 36.39115524291992 L 280.652587890625 22.775157928466797 L 280.652587890625 22.775157928466797 L 257.4685974121094 22.775157928466797 L 257.4685974121094 22.775157928466797 L 257.4685974121094 36.39115524291992 z" fill="none" stroke="#000000"/><path d="M 251.54422519999997 107.77939470000001 L 286.2062252 107.77939470000001 L 286.2062252 107.77939470000001 L 286.2062252 119.67964470000004 L 286.2062252 119.67964470000004 L 290.4812252 119.67964470000004 L 290.4812252 119.67964470000004 L 290.4812252 90.8518947 L 290.4812252 90.8518947 L 286.2062252 90.8518947 L 286.2062252 90.8518947 L 286.2062252 102.69514470000001 L 286.2062252 102.69514470000001 L 251.54422519999997 102.69514470000001" fill="none" stroke="#000000"/><path d="M 55.11558532714844 107.18717956542969 L 48.45759582519531 101.87919616699219 L 48.45759582519531 101.87919616699219 L 40.15858459472656 103.77317810058594 L 40.15858459472656 103.77317810058594 L 36.46357727050781 111.44322204589844 L 36.46357727050781 111.44322204589844 L 40.15858459472656 119.11320495605469 L 40.15858459472656 119.11320495605469 L 48.45759582519531 121.00718688964844 L 48.45759582519531 121.00718688964844 L 55.11558532714844 115.70018005371094 L 55.11558532714844 115.70018005371094 L 55.11558532714844 107.18717956542969 z" fill="none" stroke="#000000"/><path d="M 239.1251678466797 211.68772888183594 L 232.4671630859375 206.3767547607422 L 232.4671630859375 206.3767547607422 L 224.1681671142578 208.2737274169922 L 224.1681671142578 208.2737274169922 L 220.47315979003906 215.9407196044922 L 220.47315979003906 215.9407196044922 L 224.1681671142578 223.60972595214844 L 224.1681671142578 223.60972595214844 L 232.4671630859375 225.5067596435547 L 232.4671630859375 225.5067596435547 L 239.1251678466797 220.19773864746094 L 239.1251678466797 220.19773864746094 L 239.1251678466797 211.68772888183594 z" fill="none" stroke="#000000"/><path d="M 240.2723388671875 245.61294555664062 L 245.5806427001953 238.95596313476562 L 245.5806427001953 238.95596313476562 L 243.6871337890625 230.65695190429688 L 243.6871337890625 230.65695190429688 L 236.01693725585938 226.96298217773438 L 236.01693725585938 226.96298217773438 L 228.3466339111328 230.65695190429688 L 228.3466339111328 230.65695190429688 L 226.45294189453125 238.95596313476562 L 226.45294189453125 238.95596313476562 L 231.75914001464844 245.61294555664062 L 231.75914001464844 245.61294555664062 L 240.2723388671875 245.61294555664062 z" fill="none" stroke="#000000"/><path d="M 259.6264343261719 50.21110153198242 L 266.283447265625 55.52213668823242 L 266.283447265625 55.52213668823242 L 274.58343505859375 53.62510299682617 L 274.58343505859375 53.62510299682617 L 278.2774353027344 45.95811080932617 L 278.2774353027344 45.95811080932617 L 274.58343505859375 38.28812789916992 L 274.58343505859375 38.28812789916992 L 266.283447265625 36.39213180541992 L 266.283447265625 36.39213180541992 L 259.6264343261719 41.70011520385742 L 259.6264343261719 41.70011520385742 L 259.6264343261719 50.21110153198242 z" fill="none" stroke="#000000"/><path d="M 272.5499267578125 132.91273498535156 L 277.85894775390625 139.5707244873047 L 277.85894775390625 139.5707244873047 L 275.9629211425781 147.86973571777344 L 275.9629211425781 147.86973571777344 L 268.2929382324219 151.56471252441406 L 268.2929382324219 151.56471252441406 L 260.62493896484375 147.86973571777344 L 260.62493896484375 147.86973571777344 L 258.72894287109375 139.5707244873047 L 258.72894287109375 139.5707244873047 L 264.0389404296875 132.91273498535156" fill="none" stroke="#000000"/><path d="M 278.14227294921875 8.956493377685547 L 271.4852600097656 3.6474721431732178 L 271.4852600097656 3.6474721431732178 L 263.1852722167969 5.541453838348389 L 263.1852722167969 5.541453838348389 L 259.49127197265625 13.211498260498047 L 259.49127197265625 13.211498260498047 L 263.1852722167969 20.880504608154297 L 263.1852722167969 20.880504608154297 L 271.4852600097656 22.775463104248047 L 271.4852600097656 22.775463104248047 L 278.14227294921875 17.468456268310547 L 278.14227294921875 17.468456268310547 L 278.14227294921875 8.956493377685547 z" fill="none" stroke="#000000"/><path d="M 281.68060302734375 79.514404296875 L 277.9866027832031 87.18438720703125 L 277.9866027832031 87.18438720703125 L 269.6875915527344 89.07843017578125 L 269.6875915527344 89.07843017578125 L 263.02960205078125 83.7694091796875 L 263.02960205078125 83.7694091796875 L 263.02960205078125 75.25640869140625 L 263.02960205078125 75.25640869140625 L 269.6875915527344 69.950439453125 L 269.6875915527344 69.950439453125 L 277.9866027832031 71.84442138671875 L 277.9866027832031 71.84442138671875 L 283.12566496352275 82.51483732938243" fill="none" stroke="#000000"/><path d="M 282.4283752441406 224.97830200195312 L 275.7704162597656 219.6693115234375 L 275.7704162597656 219.6693115234375 L 267.4723815917969 221.56332397460938 L 267.4723815917969 221.56332397460938 L 263.7773742675781 229.23330688476562 L 263.7773742675781 229.23330688476562 L 267.4723815917969 236.9033203125 L 267.4723815917969 236.9033203125 L 275.7704162597656 238.79730224609375 L 275.7704162597656 238.79730224609375 L 282.4283752441406 233.49130249023438 L 282.4283752441406 233.49130249023438 L 282.4283752441406 224.97830200195312 z" fill="none" stroke="#000000"/><path d="M 271.0144958496094 203.15902709960938 L 265.70550537109375 196.50204467773438 L 265.70550537109375 196.50204467773438 L 267.60150146484375 188.20101928710938 L 267.60150146484375 188.20101928710938 L 275.2705078125 184.50802612304688 L 275.2705078125 184.50802612304688 L 282.9375 188.20101928710938 L 282.9375 188.20101928710938 L 284.8345031738281 196.50204467773438 L 284.8345031738281 196.50204467773438 L 279.5245056152344 203.15902709960938 L 279.5245056152344 203.15902709960938 L 268.9745178222656 203.15902709960938" fill="none" stroke="#000000"/><path d="M 269.1063537597656 175.12026977539062 L 275.7643737792969 180.4312744140625 L 275.7643737792969 180.4312744140625 L 284.0633544921875 178.53427124023438 L 284.0633544921875 178.53427124023438 L 287.75836181640625 170.86727905273438 L 287.75836181640625 170.86727905273438 L 284.0633544921875 163.19827270507812 L 284.0633544921875 163.19827270507812 L 275.7643737792969 161.30126953125 L 275.7643737792969 161.30126953125 L 269.1063537597656 166.61026000976562 L 269.1063537597656 166.61026000976562 L 269.1063537597656 175.12026977539062 z" fill="none" stroke="#000000"/><path d="M 290.3657008539909 50.69419436882674 L 280.9579772949219 48.54261016845703 L 280.9579772949219 48.54261016845703 L 274.2999572753906 53.85059356689453 L 274.2999572753906 53.85059356689453 L 274.2999572753906 62.36261749267578 L 274.2999572753906 62.36261749267578 L 280.9579772949219 67.67359161376953 L 280.9579772949219 67.67359161376953 L 291.42569406207565 65.28089145363819" fill="none" stroke="#000000"/><path d="M 289.2569580078125 50.44062042236328 L 292.9509582519531 58.10962677001953 L 292.9509582519531 58.10962677001953 L 289.2569580078125 65.77661895751953" fill="none" stroke="#000000"/><path d="M 282.66131591796875 233.19956970214844 L 277.350341796875 239.85755920410156 L 277.350341796875 239.85755920410156 L 279.247314453125 248.1555633544922 L 279.247314453125 248.1555633544922 L 286.9143371582031 251.85057067871094 L 286.9143371582031 251.85057067871094 L 294.5843200683594 248.1555633544922 L 294.5843200683594 248.1555633544922 L 296.4803161621094 239.85755920410156 L 296.4803161621094 239.85755920410156 L 291.17333984375 233.19956970214844 L 291.17333984375 233.19956970214844 L 282.66131591796875 233.19956970214844 z" fill="none" stroke="#000000"/><path d="M 291.4659423828125 225.6373748779297 L 296.77691650390625 218.9793701171875 L 296.77691650390625 218.9793701171875 L 294.87994384765625 210.68138122558594 L 294.87994384765625 210.68138122558594 L 287.21295166015625 206.9863739013672 L 287.21295166015625 206.9863739013672 L 279.5439453125 210.68138122558594 L 279.5439453125 210.68138122558594 L 277.64593505859375 218.9793701171875 L 277.64593505859375 218.9793701171875 L 282.95391845703125 225.6373748779297 L 282.95391845703125 225.6373748779297 L 291.4659423828125 225.6373748779297 z" fill="none" stroke="#000000"/><path d="M 282.927978515625 -0.000490302743855864 L 277.616943359375 6.657499313354492 L 277.616943359375 6.657499313354492 L 279.51397705078125 14.956510543823242 L 279.51397705078125 14.956510543823242 L 287.18096923828125 18.651517868041992 L 287.18096923828125 18.651517868041992 L 294.8499755859375 14.956510543823242 L 294.8499755859375 14.956510543823242 L 296.7459716796875 6.657499313354492 L 296.7459716796875 6.657499313354492 L 291.43798828125 -0.000490302743855864 L 291.43798828125 -0.0004903027438558638 L 282.927978515625 -0.0004903027438558638 z" fill="none" stroke="#000000"/><path d="M 290.3658752441406 50.69343185424805 L 297.0218200683594 45.3844108581543 L 297.0218200683594 45.3844108581543 L 297.0218200683594 36.8744010925293 L 297.0218200683594 36.8744010925293 L 290.3658752441406 31.563426971435547 L 290.3658752441406 31.563426971435547 L 282.0658264160156 33.45942306518555 L 282.0658264160156 33.45942306518555 L 278.3718566894531 41.12641525268555 L 278.3718566894531 41.12641525268555 L 282.0658264160156 48.79645919799805" fill="none" stroke="#000000"/><path d="M 283.12677001953125 82.5143051147461 L 291.42578125 84.4103012084961 L 291.42578125 84.4103012084961 L 298.083740234375 79.10128021240234 L 298.083740234375 79.10128021240234 L 298.083740234375 70.59127044677734 L 298.083740234375 70.59127044677734 L 290.63786399968683 64.6528763051834" fill="none" stroke="#000000"/><path d="M 278.1383361816406 179.8886260986328 L 290.4433288574219 201.2006378173828 L 290.4433288574219 201.2006378173828 L 302.7483215332031 179.8886260986328 L 302.7483215332031 179.8886260986328 L 278.1383361816406 179.8886260986328 z" fill="none" stroke="#000000"/><path d="M 300.2685852050781 114.02789306640625 L 278.95758056640625 126.33389282226562 L 278.95758056640625 126.33389282226562 L 300.2685852050781 138.63787841796875 L 300.2685852050781 138.63787841796875 L 300.2685852050781 114.02789306640625 z" fill="none" stroke="#000000"/><path d="M 301.5838623046875 148.703857421875 L 280.2728576660156 161.0098876953125 L 280.2728576660156 161.0098876953125 L 301.5838623046875 173.31390380859375 L 301.5838623046875 173.31390380859375 L 301.5838623046875 148.703857421875 z" fill="none" stroke="#000000"/><path d="M 286.5003356933594 18.652250289916992 L 298.8053283691406 39.96322250366211 L 298.8053283691406 39.96322250366211 L 311.1103210449219 18.652250289916992 L 311.1103210449219 18.652250289916992 L 286.5003356933594 18.652250289916992 z" fill="none" stroke="#000000"/><path d="M 286.76202392578125 84.4100570678711 L 299.0670166015625 105.72106170654297 L 299.0670166015625 105.72106170654297 L 311.37103271484375 84.4100570678711 L 311.37103271484375 84.4100570678711 L 286.76202392578125 84.4100570678711 z" fill="none" stroke="#000000"/><path d="M 235.92987060546875 1.4362820386886597 L 216.4578857421875 1.4362820386886597 L 216.4578857421875 1.4362820386886597 L 216.4578857421875 14.6632719039917 L 216.4578857421875 14.6632719039917 L 235.92987060546875 14.6632719039917 L 235.92987060546875 14.6632719039917 L 235.92987060546875 1.4362820386886597 z" fill="none" stroke="#000000"/><path d="M 292.95147705078125 61.85885238647461 L 312.4234619140625 61.85885238647461 L 312.4234619140625 61.85885238647461 L 312.4234619140625 48.631832122802734 L 312.4234619140625 48.631832122802734 L 292.95147705078125 48.631832122802734 L 292.95147705078125 48.631832122802734 L 292.95147705078125 61.85885238647461 z" fill="none" stroke="#000000"/><path d="M 293.1015319824219 209.82382202148438 L 312.5735168457031 209.82382202148438 L 312.5735168457031 209.82382202148438 L 312.5735168457031 196.59683227539062 L 312.5735168457031 196.59683227539062 L 293.1015319824219 196.59683227539062 L 293.1015319824219 196.59683227539062 L 293.1015319824219 209.82382202148438 z" fill="none" stroke="#000000"/><path d="M 132.6594685 254.42623579999997 L 132.6594685 249.3427358 L 132.6594685 249.3427358 L 91.64346850000001 249.3427358 L 91.64346850000001 249.3427358 L 91.64346850000001 254.42623579999997 L 91.64346850000001 254.42623579999997 L 132.6594685 254.42623579999997 z" fill="none" stroke="#000000"/><path d="M 0.00027829804457724105 154.85821533203125 L 12.75326919555664 154.85821533203125 L 12.75326919555664 154.85821533203125 L 12.75326919555664 141.6322021484375 L 12.75326919555664 141.6322021484375 L 0.00027829804457724105 141.6322021484375 L 0.00027829804457724094 141.6322021484375 L 0.00027829804457724094 154.85821533203125 z" fill="none" stroke="#000000"/><path d="M 49.58683395385742 66.22332763671875 L 49.58683395385742 79.44732666015625 L 49.58683395385742 79.44732666015625 L 62.33982467651367 79.44732666015625 L 62.33982467651367 79.44732666015625 L 62.33982467651367 66.22332763671875" fill="none" stroke="#000000"/><path d="M 110.76116180419922 13.225008010864258 L 123.51416778564453 13.225008010864258 L 123.51416778564453 13.225008010864258 L 123.51416778564453 0.0000016730468814785133 L 123.51416778564453 0.0000016730468814785133 L 110.76116180419922 0.0000016730468814785133 L 110.76116180419922 0.0000016730468814785127 L 110.76116180419922 13.225008010864258 z" fill="none" stroke="#000000"/><path d="M 66.64012380000008 0.0000028000000007466497 L 71.72362380000004 0.0000028000000007466497 L 71.72362380000004 0.0000028000000007466497 L 71.72362380000004 27.9607528 L 71.72362380000004 27.9607528 L 66.64012380000008 27.9607528" fill="none" stroke="#000000"/><path d="M 126.0802463 92.66040839999994 L 98.1194963 92.66040839999994 L 98.1194963 92.66040839999994 L 98.1194963 97.74315839999997 L 98.1194963 97.74315839999997 L 126.0802463 97.74315839999997 L 126.0802463 97.74315839999997 L 126.0802463 92.66040839999994 z" fill="none" stroke="#000000"/><path d="M 37.98870849609375 13.714506149291992 L 37.98870849609375 0.00048676953883841655 L 37.98870849609375 0.00048676953883841655 L 23.732696533203125 0.3875106871128084 L 23.732696533203125 0.3875106871128084 L 24.820709228515625 5.39749002456665 L 24.820709228515625 5.39749002456665 L 37.98870849609375 13.714506149291992 z" fill="none" stroke="#000000"/><path d="M 3.9069790840148926 116.24931335449219 L 17.619991302490234 116.24931335449219 L 17.619991302490234 116.24931335449219 L 17.232967376708984 101.99333190917969 L 17.232967376708984 101.99333190917969 L 12.222989082336426 103.08134460449219 L 12.222989082336426 103.08134460449219 L 3.9069790840148926 116.24931335449219 z" fill="none" stroke="#000000"/><path d="M 23.387699127197266 254.42648315429688 L 37.1006965637207 254.42648315429688 L 37.1006965637207 254.42648315429688 L 36.713687896728516 240.17147827148438 L 36.713687896728516 240.17147827148438 L 31.703693389892578 241.25845336914062 L 31.703693389892578 241.25845336914062 L 23.387699127197266 254.42648315429688 z" fill="none" stroke="#000000"/><path d="M 13.713468551635742 1.5507811212955858e-7 L 0.0004862593777943404 1.5507816897297744e-7 L 0.0004862593777943404 1.5507816897297744e-7 L 0.3874796628952028 14.2550048828125 L 0.3874796628952028 14.2550048828125 L 5.396482467651367 13.167999267578125 L 5.396482467651367 13.167999267578125 L 13.713468551635742 1.5507811212955858e-7 z" fill="none" stroke="#000000"/><path d="M 178.9612579345703 254.42623901367188 L 192.67527770996094 254.42623901367188 L 192.67527770996094 254.42623901367188 L 192.2872772216797 240.17173767089844 L 192.2872772216797 240.17173767089844 L 187.2782745361328 241.25843811035156 L 187.2782745361328 241.25843811035156 L 178.9612579345703 254.42623901367188 z" fill="none" stroke="#000000"/><path d="M 158.97499084472656 164.3960723876953 L 158.97499084472656 150.6820831298828 L 158.97499084472656 150.6820831298828 L 144.71998596191406 151.07008361816406 L 144.71998596191406 151.07008361816406 L 145.80702209472656 156.07911682128906 L 145.80702209472656 156.07911682128906 L 158.97499084472656 164.3960723876953 z" fill="none" stroke="#000000"/><path d="M 187.92323303222656 97.86807250976562 L 187.92323303222656 84.15408325195312 L 187.92323303222656 84.15408325195312 L 171.49124145507812 86.945068359375 L 171.49124145507812 86.945068359375 L 174.75523376464844 89.55508422851562 L 174.75523376464844 89.55508422851562 L 187.92323303222656 97.86807250976562 z" fill="none" stroke="#000000"/><path d="M 200.92083740234375 136.34085083007812 L 200.92083740234375 122.62786865234375 L 200.92083740234375 122.62786865234375 L 184.4898681640625 125.41787719726562 L 184.4898681640625 125.41787719726562 L 187.75286865234375 128.02886962890625 L 187.75286865234375 128.02886962890625 L 200.92083740234375 136.34085083007812 z" fill="none" stroke="#000000"/><path d="M 188.19827270507812 170.89285278320312 L 201.9112548828125 170.89285278320312 L 201.9112548828125 170.89285278320312 L 199.12127685546875 154.46185302734375 L 199.12127685546875 154.46185302734375 L 196.51126098632812 157.724853515625 L 196.51126098632812 157.724853515625 L 188.19827270507812 170.89285278320312 z" fill="none" stroke="#000000"/><path d="M 216.5110321044922 72.61732482910156 L 216.5110321044922 58.90431594848633 L 216.5110321044922 58.90431594848633 L 200.0790252685547 61.68935012817383 L 200.0790252685547 61.68935012817383 L 203.34202575683594 64.29933166503906 L 203.34202575683594 64.29933166503906 L 216.5110321044922 72.61732482910156 z" fill="none" stroke="#000000"/><path d="M 9.804687124415068e-7 211.7649688720703 L 9.804687124415068e-7 225.47695922851562 L 9.804687124415068e-7 225.47695922851562 L 16.431032180786133 222.68795776367188 L 16.431032180786133 222.68795776367188 L 13.168030738830566 220.07696533203125 L 13.168030738830566 220.07696533203125 L 9.804687124415068e-7 211.7649688720703 z" fill="none" stroke="#000000"/><path d="M 227.5474853515625 193.49148559570312 L 224.7574462890625 177.05947875976562 L 224.7574462890625 177.05947875976562 L 222.1474609375 180.32345581054688 L 222.1474609375 180.32345581054688 L 213.83544921875 193.49148559570312" fill="none" stroke="#000000"/><path d="M 235.4324951171875 254.42599487304688 L 249.14450073242188 254.42599487304688 L 249.14450073242188 254.42599487304688 L 246.3544921875 237.9949951171875 L 246.3544921875 237.9949951171875 L 243.7445068359375 241.25799560546875 L 243.7445068359375 241.25799560546875 L 235.4324951171875 254.42599487304688 z" fill="none" stroke="#000000"/><path d="M 248.37889099121094 146.68577575683594 L 248.37889099121094 132.97377014160156 L 248.37889099121094 132.97377014160156 L 231.94688415527344 135.75877380371094 L 231.94688415527344 135.75877380371094 L 235.2098846435547 138.36875915527344 L 235.2098846435547 138.36875915527344 L 248.37889099121094 146.68577575683594 z" fill="none" stroke="#000000"/><path d="M 298.9121398925781 238.08734130859375 L 298.9121398925781 224.37533569335938 L 298.9121398925781 224.37533569335938 L 282.4801330566406 227.16134643554688 L 282.4801330566406 227.16134643554688 L 285.7431335449219 229.77035522460938 L 285.7431335449219 229.77035522460938 L 298.9121398925781 238.08734130859375 z" fill="none" stroke="#000000"/><path d="M 306.9129943847656 118.10350799560547 L 306.9129943847656 104.39049530029297 L 306.9129943847656 104.39049530029297 L 290.4809875488281 107.17650604248047 L 290.4809875488281 107.17650604248047 L 293.7439880371094 109.78551483154297 L 293.7439880371094 109.78551483154297 L 306.9129943847656 118.10350799560547 z" fill="none" stroke="#000000"/><path d="M 103.59246063232422 145.97325134277344 L 89.88045501708984 145.97325134277344 L 89.88045501708984 145.97325134277344 L 92.67046356201172 162.40414428710938 L 92.67046356201172 162.40414428710938 L 95.28047943115234 159.1402587890625 L 95.28047943115234 159.1402587890625 L 103.59246063232422 145.97325134277344 z" fill="none" stroke="#000000"/><path d="M 251.3082275390625 61.69412612915039 L 248.51922607421875 45.263126373291016 L 248.51922607421875 45.263126373291016 L 245.9092254638672 48.52713394165039 L 245.9092254638672 48.52713394165039 L 237.5962371826172 61.69412612915039" fill="none" stroke="#000000"/><path d="M 201.63548278808594 86.48760223388672 L 187.92250061035156 86.48760223388672 L 187.92250061035156 86.48760223388672 L 190.7124786376953 102.91857147216797 L 190.7124786376953 102.91857147216797 L 193.32249450683594 99.65459442138672 L 193.32249450683594 99.65459442138672 L 201.63548278808594 86.48760223388672 z" fill="none" stroke="#000000"/><path d="M 309.3280029296875 -0.0004861171764787288 L 295.615966796875 -0.0004861171764787288 L 295.615966796875 -0.0004861171764787288 L 298.406005859375 16.430513381958008 L 298.406005859375 16.430513381958008 L 301.01495361328125 13.166505813598633 L 301.01495361328125 13.166505813598633 L 309.3280029296875 -0.00048611717647872865 z" fill="none" stroke="#000000"/><path d="M 290.6407165527344 64.64929962158203 L 307.0707092285156 61.859310150146484 L 307.0707092285156 61.859310150146484 L 307.0707092285156 75.57129669189453 L 307.0707092285156 75.57129669189453 L 293.9046936035156 67.25830841064453" fill="none" stroke="#000000"/><path d="M 59.337318420410156 126.9371337890625 L 64.29730987548828 122.7071533203125 L 64.29730987548828 122.7071533203125 L 63.111305236816406 116.29913330078125 L 63.111305236816406 116.29913330078125 L 56.96930694580078 114.1181640625 L 56.96930694580078 114.1181640625 L 52.009315490722656 118.35113525390625 L 52.009315490722656 118.35113525390625 L 53.192298889160156 124.76019287109375 L 53.192298889160156 124.76019287109375 L 59.337318420410156 126.9371337890625 z" fill="none" stroke="#000000"/><path d="M 209.02134704589844 69.59048461914062 L 204.0603485107422 73.82148742675781 L 204.0603485107422 73.82148742675781 L 205.24534606933594 80.22848510742188 L 205.24534606933594 80.22848510742188 L 211.3893585205078 82.40948486328125 L 211.3893585205078 82.40948486328125 L 216.34934997558594 78.17649841308594 L 216.34934997558594 78.17649841308594 L 215.1663360595703 71.76748657226562 L 215.1663360595703 71.76748657226562 L 209.02134704589844 69.59048461914062 z" fill="none" stroke="#000000"/><path d="M 132.30874633789062 200.9752960205078 L 128.07974243164062 196.01629638671875 L 128.07974243164062 196.01629638671875 L 121.67269897460938 197.20030212402344 L 121.67269897460938 197.20030212402344 L 119.49069213867188 203.34429931640625 L 119.49069213867188 203.34429931640625 L 123.72372436523438 208.3032989501953 L 123.72372436523438 208.3032989501953 L 130.13272094726562 207.1212921142578 L 130.13272094726562 207.1212921142578 L 132.30874633789062 200.9752960205078 z" fill="none" stroke="#000000"/><path d="M 300.07373046875 241.60848999023438 L 295.11370849609375 245.83749389648438 L 295.11370849609375 245.83749389648438 L 296.2997131347656 252.24551391601562 L 296.2997131347656 252.24551391601562 L 302.4427185058594 254.42648315429688 L 302.4427185058594 254.42648315429688 L 307.4017028808594 250.19448852539062 L 307.4017028808594 250.19448852539062 L 306.2187194824219 243.78445434570312 L 306.2187194824219 243.78445434570312 L 300.07373046875 241.60848999023438 z" fill="none" stroke="#000000"/><path d="M 308.8704528808594 218.65501403808594 L 304.6394348144531 213.69602966308594 L 304.6394348144531 213.69602966308594 L 298.2324523925781 214.8810272216797 L 298.2324523925781 214.8810272216797 L 296.0514221191406 221.0229949951172 L 296.0514221191406 221.0229949951172 L 300.2844543457031 225.98301696777344 L 300.2844543457031 225.98301696777344 L 306.6934509277344 224.80003356933594 L 306.6934509277344 224.80003356933594 L 308.8704528808594 218.65501403808594 z" fill="none" stroke="#000000"/><path d="M 297.3313293457031 191.63607788085938 L 301.5620422363281 196.59707641601562 L 301.5620422363281 196.59707641601562 L 307.9715576171875 195.41708374023438 L 307.9715576171875 195.41708374023438 L 310.15032958984375 189.27108764648438 L 310.15032958984375 189.27108764648438 L 305.9195556640625 184.31106567382812 L 305.9195556640625 184.31106567382812 L 299.5100402832031 185.49710083007812 L 299.5100402832031 185.49710083007812 L 297.3313293457031 191.63607788085938 z" fill="none" stroke="#000000"/><path d="M 304.607421875 149.77374267578125 L 309.56744384765625 145.54473876953125 L 309.56744384765625 145.54473876953125 L 308.38140869140625 139.13772583007812 L 308.38140869140625 139.13772583007812 L 302.23944091796875 136.95672607421875 L 302.23944091796875 136.95672607421875 L 297.2794189453125 141.187744140625 L 297.2794189453125 141.187744140625 L 298.46142578125 147.59872436523438 L 298.46142578125 147.59872436523438 L 304.607421875 149.77374267578125 z" fill="none" stroke="#000000"/><path d="M 298.03558349609375 43.671321868896484 L 302.26458740234375 48.63131332397461 L 302.26458740234375 48.63131332397461 L 308.671630859375 47.4453239440918 L 308.671630859375 47.4453239440918 L 310.8536376953125 41.30332565307617 L 310.8536376953125 41.30332565307617 L 306.62060546875 36.343318939208984 L 306.62060546875 36.343318939208984 L 300.21160888671875 37.52631759643555 L 300.21160888671875 37.52631759643555 L 298.03558349609375 43.671321868896484 z" fill="none" stroke="#000000"/><path d="M 303.8728332519531 225.32127380371094 L 298.9118347167969 229.55027770996094 L 298.9118347167969 229.55027770996094 L 300.0988464355469 235.95726013183594 L 300.0988464355469 235.95726013183594 L 306.2408752441406 238.1382293701172 L 306.2408752441406 238.1382293701172 L 311.1998596191406 233.90623474121094 L 311.1998596191406 233.90623474121094 L 310.0178527832031 227.4962615966797 L 310.0178527832031 227.4962615966797 L 303.8728332519531 225.32127380371094 z" fill="none" stroke="#000000"/><path d="M 307.5960693359375 130.3233642578125 L 312.55609130859375 126.09339141845703 L 312.55609130859375 126.09339141845703 L 311.3710632324219 119.68640899658203 L 311.3710632324219 119.68640899658203 L 305.22808837890625 117.50537872314453 L 305.22808837890625 117.50537872314453 L 300.2690734863281 121.73737335205078 L 300.2690734863281 121.73737335205078 L 301.45208740234375 128.1463623046875 L 301.45208740234375 128.1463623046875 L 307.5960693359375 130.3233642578125 z" fill="none" stroke="#000000"/><path d="M 313.09490966796875 174.62489318847656 L 308.86590576171875 169.6658935546875 L 308.86590576171875 169.6658935546875 L 302.4578857421875 170.8518829345703 L 302.4578857421875 170.8518829345703 L 300.27789306640625 176.99288940429688 L 300.27789306640625 176.99288940429688 L 304.5089111328125 181.95388793945312 L 304.5089111328125 181.95388793945312 L 310.91888427734375 180.77088928222656 L 310.91888427734375 180.77088928222656 L 313.09490966796875 174.62489318847656 z" fill="none" stroke="#000000"/><path d="M 301.5840759277344 156.0756072998047 L 305.8140869140625 161.0346221923828 L 305.8140869140625 161.0346221923828 L 312.2210998535156 159.84962463378906 L 312.2210998535156 159.84962463378906 L 314.40240478515625 153.70762634277344 L 314.40240478515625 153.70762634277344 L 310.1690979003906 148.7476043701172 L 310.1690979003906 148.7476043701172 L 303.7601013183594 149.9306182861328 L 303.7601013183594 149.9306182861328 L 301.5840759277344 156.0756072998047 z" fill="none" stroke="#000000"/><path d="M 307.933837890625 5.833036422729492 L 302.974853515625 10.064023971557617 L 302.974853515625 10.064023971557617 L 304.15484619140625 16.473020553588867 L 304.15484619140625 16.473020553588867 L 310.2998352050781 18.652036666870117 L 310.2998352050781 18.652036666870117 L 315.2598571777344 14.422025680541992 L 315.2598571777344 14.422025680541992 L 314.0738525390625 8.012022018432617 L 314.0738525390625 8.012022018432617 L 307.933837890625 5.833036422729492 z" fill="none" stroke="#000000"/><path d="M 316.3265380859375 98.03374481201172 L 312.0965270996094 93.07372283935547 L 312.0965270996094 93.07372283935547 L 305.6875305175781 94.25371551513672 L 305.6875305175781 94.25371551513672 L 303.5085144042969 100.39873504638672 L 303.5085144042969 100.39873504638672 L 307.738525390625 105.35875701904297 L 307.738525390625 105.35875701904297 L 314.1485290527344 104.17272186279297 L 314.1485290527344 104.17272186279297 L 316.3265380859375 98.03374481201172 z" fill="none" stroke="#000000"/><path d="M 309.69915771484375 25.455982208251953 L 304.7391662597656 29.684986114501953 L 304.7391662597656 29.684986114501953 L 305.920166015625 36.0949592590332 L 305.920166015625 36.0949592590332 L 312.0641784667969 38.27397537231445 L 312.0641784667969 38.27397537231445 L 317.024169921875 34.04399490356445 L 317.024169921875 34.04399490356445 L 315.8381652832031 27.633960723876953 L 315.8381652832031 27.633960723876953 L 309.69915771484375 25.455982208251953 z" fill="none" stroke="#000000"/><path d="M 312.6451416015625 247.51129150390625 L 317.6051330566406 243.28131103515625 L 317.6051330566406 243.28131103515625 L 316.4251403808594 236.872314453125 L 316.4251403808594 236.872314453125 L 310.2801513671875 234.69329833984375 L 310.2801513671875 234.69329833984375 L 305.31915283203125 238.92327880859375 L 305.31915283203125 238.92327880859375 L 306.5061340332031 245.33331298828125 L 306.5061340332031 245.33331298828125 L 312.6451416015625 247.51129150390625 z" fill="none" stroke="#000000"/><path d="M 318.5119934082031 77.08403778076172 L 314.2839660644531 72.12505340576172 L 314.2839660644531 72.12505340576172 L 307.8739929199219 73.30803680419922 L 307.8739929199219 73.30803680419922 L 305.6959533691406 79.45003509521484 L 305.6959533691406 79.45003509521484 L 309.9259338378906 84.4100570678711 L 309.9259338378906 84.4100570678711 L 316.3359680175781 83.22704315185547 L 316.3359680175781 83.22704315185547 L 318.5119934082031 77.08403778076172 z" fill="none" stroke="#000000"/><path d="M 312.8154296875 140.7059783935547 L 317.7744445800781 136.47898864746094 L 317.7744445800781 136.47898864746094 L 316.5914306640625 130.06898498535156 L 316.5914306640625 130.06898498535156 L 310.4494323730469 127.8909683227539 L 310.4494323730469 127.8909683227539 L 305.48944091796875 132.12098693847656 L 305.48944091796875 132.12098693847656 L 306.67144775390625 138.53099060058594 L 306.67144775390625 138.53099060058594 L 312.8154296875 140.7059783935547 z" fill="none" stroke="#000000"/><path d="M 314.2382507324219 117.40962982177734 L 319.1982727050781 113.1826400756836 L 319.1982727050781 113.1826400756836 L 318.0152893066406 106.77364349365234 L 318.0152893066406 106.77364349365234 L 311.8722839355469 104.5936508178711 L 311.8722839355469 104.5936508178711 L 306.9132385253906 108.82466888427734 L 306.9132385253906 108.82466888427734 L 308.0962829589844 115.23567962646484 L 308.0962829589844 115.23567962646484 L 314.2382507324219 117.40962982177734 z" fill="none" stroke="#000000"/><path d="M 306.32208251953125 166.68121337890625 L 310.549072265625 171.6402130126953 L 310.549072265625 171.6402130126953 L 316.9591064453125 170.45721435546875 L 316.9591064453125 170.45721435546875 L 319.1370849609375 164.3162078857422 L 319.1370849609375 164.3162078857422 L 314.9071044921875 159.35520935058594 L 314.9071044921875 159.35520935058594 L 308.49908447265625 160.5382080078125 L 308.49908447265625 160.5382080078125 L 306.32208251953125 166.68121337890625 z" fill="none" stroke="#000000"/><path d="M 312.9239501953125 209.52481079101562 L 307.9649353027344 213.75262451171875 L 307.9649353027344 213.75262451171875 L 309.14794921875 220.16212463378906 L 309.14794921875 220.16212463378906 L 315.2899475097656 222.3408203125 L 315.2899475097656 222.3408203125 L 320.24993896484375 218.1109161376953 L 320.24993896484375 218.1109161376953 L 319.06695556640625 211.701416015625 L 319.06695556640625 211.701416015625 L 312.9239501953125 209.52481079101562 z" fill="none" stroke="#000000"/><path d="M 316.08221435546875 191.19969177246094 L 321.0412292480469 186.9727020263672 L 321.0412292480469 186.9727020263672 L 319.85821533203125 180.5626983642578 L 319.85821533203125 180.5626983642578 L 313.7162170410156 178.3837127685547 L 313.7162170410156 178.3837127685547 L 308.7582092285156 182.6147003173828 L 308.7582092285156 182.6147003173828 L 309.9402160644531 189.0247039794922 L 309.9402160644531 189.0247039794922 L 316.08221435546875 191.19969177246094 z" fill="none" stroke="#000000"/><path d="M 35.10633850097656 152.81842041015625 L 57.27937316894531 152.81842041015625 L 57.27937316894531 152.81842041015625 L 57.27937316894531 148.92742919921875 L 57.27937316894531 148.92742919921875 L 35.10633850097656 148.92742919921875 L 35.10633850097656 148.92742919921875 L 35.10633850097656 152.81842041015625 z" fill="none" stroke="#000000"/><path d="M 3.890780448913574 125.95008087158203 L 3.890780448913574 103.77606964111328 L 3.890780448913574 103.77606964111328 L -0.0002108371118083597 103.77606964111328 L -0.0002108371118083597 103.77606964111328 L -0.0002108371118083597 125.95008087158203 L -0.00021083711180835962 125.95008087158203 L 3.890780448913574 125.95008087158203 z" fill="none" stroke="#000000"/><path d="M 65.5219497680664 35.9278564453125 L 65.5219497680664 58.10035705566406 L 65.5219497680664 58.10035705566406 L 61.63095474243164 58.10035705566406" fill="none" stroke="#000000"/><path d="M 59.940101623535156 80.32284545898438 L 59.509132385253906 87.70083618164062 L 59.509132385253906 87.70083618164062 L 50.019142150878906 87.47286987304688 L 50.019142150878906 87.47286987304688 L 50.019142150878906 79.44784545898438 L 50.019142150878906 79.44784545898438 L 59.940101623535156 80.32284545898438 z" fill="none" stroke="#000000"/><path d="M 66.22725677490234 42.995849609375 L 66.65825653076172 35.61785888671875 L 66.65825653076172 35.61785888671875 L 76.14824676513672 35.845855712890625 L 76.14824676513672 35.845855712890625 L 76.14824676513672 43.870849609375 L 76.14824676513672 43.870849609375 L 66.22725677490234 42.995849609375 z" fill="none" stroke="#000000"/><path d="M 71.31837463378906 240.872314453125 L 71.74940490722656 233.49432373046875 L 71.74940490722656 233.49432373046875 L 81.23838806152344 233.7213134765625 L 81.23838806152344 233.7213134765625 L 81.23838806152344 241.747314453125 L 81.23838806152344 241.747314453125 L 71.31837463378906 240.872314453125 z" fill="none" stroke="#000000"/><path d="M 119.4288558959961 240.54580688476562 L 118.99788665771484 247.92379760742188 L 118.99788665771484 247.92379760742188 L 109.50887298583984 247.69580078125 L 109.50887298583984 247.69580078125 L 109.50887298583984 239.67080688476562 L 109.50887298583984 239.67080688476562 L 119.4288558959961 240.54580688476562 z" fill="none" stroke="#000000"/><path d="M 112.70343017578125 144.0972137451172 L 113.1334228515625 136.71920776367188 L 113.1334228515625 136.71920776367188 L 122.6234130859375 136.94821166992188 L 122.6234130859375 136.94821166992188 L 122.6234130859375 144.97320556640625 L 122.6234130859375 144.97320556640625 L 112.70343017578125 144.0972137451172 z" fill="none" stroke="#000000"/><path d="M 134.3000946044922 163.61997985839844 L 134.73008728027344 156.2419891357422 L 134.73008728027344 156.2419891357422 L 144.22007751464844 156.46998596191406 L 144.22007751464844 156.46998596191406 L 144.22007751464844 164.49497985839844 L 144.22007751464844 164.49497985839844 L 134.3000946044922 163.61997985839844 z" fill="none" stroke="#000000"/><path d="M 148.61813354492188 116.86509704589844 L 149.04812622070312 109.48808288574219 L 149.04812622070312 109.48808288574219 L 158.53811645507812 109.71507263183594 L 158.53811645507812 109.71507263183594 L 158.53811645507812 117.74107360839844 L 158.53811645507812 117.74107360839844 L 148.61813354492188 116.86509704589844 z" fill="none" stroke="#000000"/><path d="M 183.8017120361328 26.779754638671875 L 184.23268127441406 19.4007568359375 L 184.23268127441406 19.4007568359375 L 193.72169494628906 19.628753662109375 L 193.72169494628906 19.628753662109375 L 193.72169494628906 27.65374755859375 L 193.72169494628906 27.65374755859375 L 183.8017120361328 26.779754638671875 z" fill="none" stroke="#000000"/><path d="M 129.95213317871094 147.4547882080078 L 122.57415008544922 147.0237579345703 L 122.57415008544922 147.0237579345703 L 122.8021469116211 137.53480529785156 L 122.8021469116211 137.53480529785156 L 130.82713317871094 137.53480529785156 L 130.82713317871094 137.53480529785156 L 129.95213317871094 147.4547882080078 z" fill="none" stroke="#000000"/><path d="M 125.48746490478516 85.28241729736328 L 125.05615997314453 92.66043853759766 L 125.05615997314453 92.66043853759766 L 115.56796264648438 92.43143463134766 L 115.56796264648438 92.43143463134766 L 115.56796264648438 84.40644073486328 L 115.56796264648438 84.40644073486328 L 125.48746490478516 85.28241729736328 z" fill="none" stroke="#000000"/><path d="M 159.1917266845703 45.492801666259766 L 151.8147430419922 45.06180191040039 L 151.8147430419922 45.06180191040039 L 152.04173278808594 35.57278823852539 L 152.04173278808594 35.57278823852539 L 160.0667266845703 35.57278823852539 L 160.0667266845703 35.57278823852539 L 159.1917266845703 45.492801666259766 z" fill="none" stroke="#000000"/><path d="M 196.45159912109375 232.51840209960938 L 186.96060180664062 232.28640747070312 L 186.96060180664062 232.28640747070312 L 186.53158569335938 239.66439819335938 L 186.53158569335938 239.66439819335938 L 196.45159912109375 240.53939819335938" fill="none" stroke="#000000"/><path d="M 195.0958709716797 232.4849395751953 L 187.71788024902344 232.0569610595703 L 187.71788024902344 232.0569610595703 L 187.9508819580078 222.5659942626953 L 187.9508819580078 222.5659942626953 L 195.9708709716797 222.5659942626953 L 195.9708709716797 222.5659942626953 L 195.0958709716797 232.4849395751953 z" fill="none" stroke="#000000"/><path d="M 194.27940368652344 135.95443725585938 L 201.65740966796875 136.38345336914062 L 201.65740966796875 136.38345336914062 L 201.42440795898438 145.87448120117188 L 201.42440795898438 145.87448120117188 L 193.40440368652344 145.87448120117188 L 193.40440368652344 145.87448120117188 L 194.27940368652344 135.95443725585938 z" fill="none" stroke="#000000"/><path d="M 206.8546142578125 193.49148559570312 L 207.0855712890625 184.00048828125 L 207.0855712890625 184.00048828125 L 199.7086181640625 183.57247924804688 L 199.7086181640625 183.57247924804688 L 198.8345947265625 193.49148559570312" fill="none" stroke="#000000"/><path d="M 178.44541931152344 57.28215026855469 L 178.01632690429688 64.65916442871094 L 178.01632690429688 64.65916442871094 L 168.5259246826172 64.42716979980469 L 168.5259246826172 64.42716979980469 L 168.5259246826172 56.40715026855469 L 168.5259246826172 56.40715026855469 L 178.44541931152344 57.28215026855469 z" fill="none" stroke="#000000"/><path d="M 220.10293579101562 158.03561401367188 L 230.02297973632812 157.84463500976562 L 230.02297973632812 157.84463500976562 L 230.02297973632812 150.88763427734375 L 230.02297973632812 150.88763427734375 L 220.10293579101562 150.01162719726562" fill="none" stroke="#000000"/><path d="M 150.1449432373047 7.14773416519165 L 150.1449432373047 0.1917250603437424 L 150.1449432373047 0.1917250603437424 L 160.06394958496094 -0.0002610302763059736 L 160.06394958496094 -0.0002610302763059736 L 160.06394958496094 8.023725509643555 L 160.06394958496094 8.023725509643555 L 150.1449432373047 7.14773416519165 z" fill="none" stroke="#000000"/><path d="M 227.25076293945312 167.95486450195312 L 220.29476928710938 167.95486450195312 L 220.29476928710938 167.95486450195312 L 220.10275268554688 158.03585815429688 L 220.10275268554688 158.03585815429688 L 228.12576293945312 158.03585815429688 L 228.12576293945312 158.03585815429688 L 227.25076293945312 167.95486450195312 z" fill="none" stroke="#000000"/><path d="M 264.2230224609375 250.71725463867188 L 254.3030242919922 250.90924072265625 L 254.3030242919922 250.90924072265625 L 254.3030242919922 242.88626098632812 L 254.3030242919922 242.88626098632812 L 264.2230224609375 243.76126098632812 L 264.2230224609375 243.76126098632812 L 264.2230224609375 252.17091369628906" fill="none" stroke="#000000"/><path d="M 241.5098419189453 168.4307098388672 L 248.46583557128906 168.4307098388672 L 248.46583557128906 168.4307098388672 L 248.65785217285156 178.34971618652344 L 248.65785217285156 178.34971618652344 L 240.6348419189453 178.34971618652344 L 240.6348419189453 178.34971618652344 L 241.5098419189453 168.4307098388672 z" fill="none" stroke="#000000"/><path d="M 266.5461120605469 107.7789077758789 L 266.73712158203125 117.69889068603516 L 266.73712158203125 117.69889068603516 L 258.7151184082031 117.69889068603516 L 258.7151184082031 117.69889068603516 L 259.5901184082031 107.7789077758789" fill="none" stroke="#000000"/><path d="M 268.9745178222656 203.15927124023438 L 269.16552734375 213.07876586914062 L 269.16552734375 213.07876586914062 L 276.12152099609375 213.07876586914062 L 276.12152099609375 213.07876586914062 L 276.9975280761719 203.15927124023438" fill="none" stroke="#000000"/><path d="M 264.2225646972656 252.17091369628906 L 274.142578125 251.97889709472656 L 274.142578125 251.97889709472656 L 274.142578125 245.02391052246094 L 274.142578125 245.02391052246094 L 264.2225646972656 244.1479034423828" fill="none" stroke="#000000"/><path d="M 282.7507019042969 102.69447326660156 L 282.5606994628906 92.77546691894531 L 282.5606994628906 92.77546691894531 L 275.60369873046875 92.77546691894531 L 275.60369873046875 92.77546691894531 L 274.7276916503906 102.69447326660156" fill="none" stroke="#000000"/><path d="M 297.19610595703125 172.74087524414062 L 297.19610595703125 179.69686889648438 L 297.19610595703125 179.69686889648438 L 287.277099609375 179.8888702392578 L 287.277099609375 179.8888702392578 L 287.277099609375 171.86587524414062 L 287.277099609375 171.86587524414062 L 297.19610595703125 172.74087524414062 z" fill="none" stroke="#000000"/><path d="M 277.7300720214844 132.91294860839844 L 277.9220275878906 142.8319549560547 L 277.9220275878906 142.8319549560547 L 284.8770446777344 142.8319549560547 L 284.8770446777344 142.8319549560547 L 285.7520446777344 132.91294860839844" fill="none" stroke="#000000"/><path d="M 251.54446411132812 89.077880859375 L 251.54446411132812 122.62811279296875 L 251.54446411132812 122.62811279296875 L 166.33297729492188 122.62811279296876" fill="none" stroke="#000000"/></svg>