<svg xmlns="http://www.w3.org/2000/svg" width="5.331478966666666in" height="3.887067540277778in" viewBox="0 0 383.8664856 279.8688629"><g/><g/><g/><g/><g/><g/><g/><g/><g/><g/><g/><g/><g/><g/><g/><g/><g/><g/><g/><g/><g/><g/><g/><g/><g/><g/><g/><g/><g/><g/><g/><g/><g/><g/><g/><g/><g/><g/><g/><g/><g/><g/><g/><g/><g/><g/><g/><g/><g/><g/><g/><g/><g/><g/><g/><g/><g/><g/><g/><g/><g/><g/><g/><g/><g/><g/><g/><g/><g/><g/><g/><g/><g/><g/><g/><g/><g/><g/><g/><g/><g/><g/><g/><g/><g/><g/><g/><g/><g/><g/><g/><g/><g/><g/><g/><g/><g/><g/><g/><g/><g/><g/><g/><g/><g/><g/><g/><g/><g/><g/><g/><g/><g/><g/><g/><g/><g/><g/><g/><g/><g/><g/><g/><g/><g/><g/><g/><g/><g/><g/><g/><g/><g/><g/><g/><g/><g/><g/><g/><g/><g/><g/><g/><g/><g/><g/><g/><g/><g/><g/><g/><g/><g/><g/><g/><path fill="none" stroke="#000000" d="M 3.2531403 79.03332779999994 C 1.5198902999999984 79.09107779999988 0.1331402999999991 77.81982779999987 0.1331402999999991 75.79857779999998 C 0.1331402999999991 74.00682779999988 1.5198902999999984 72.73632779999991 3.2531403 72.73632779999991 C 5.044140299999999 72.73632779999991 6.430140299999999 74.06457779999994 6.4301403 75.91332779999993 C 6.4308903 77.81907779999983 5.0441403000000005 79.03332779999994 3.2531403 79.03332779999994 z"/><path fill="none" stroke="#000000" d="M 3.1770002 96.43090400000006 C 4.910250200000002 96.37315400000011 6.297000200000003 97.64365400000008 6.297000200000003 99.66565400000013 C 6.297000200000003 101.45665400000007 4.910250200000004 102.72715400000004 3.177000200000002 102.72715400000004 C 1.3860002000000033 102.72715400000004 2.0000000233721948e-7 101.39890400000013 2.0000000233721948e-7 99.55015400000002 C -0.0007497999999985794 97.6436540000002 1.3860001999999998 96.43090400000006 3.1770002 96.43090400000006 z"/><line x1="231.3480224609375" x2="231.3480224609375" y1="185.41864013671875" y2="202.6326446533203" fill="none" stroke="#000000"/><line x1="49.483375549316406" x2="49.483375549316406" y1="35.928466796875" y2="59.112457275390625" fill="none" stroke="#000000"/><line x1="54.01772689819336" y1="35.927978515625" x2="54.01772689819336" y2="-0.00024232344003394243" fill="none" stroke="#000000"/><path fill="none" stroke="#000000" d="M 208.35726969999996 94.55891619999998 L 203.2737697 94.55891619999998 L 203.2737697 94.55891619999998 L 203.2737697 77.11241619999998 L 203.2737697 77.11241619999998 L 203.1582697 77.11241619999998 L 203.1582697 77.11241619999998 C 202.34976970000002 78.55691619999999 201.07926969999994 79.82741619999999 199.51851970000007 80.69366619999998 C 198.0170197000001 81.56066619999999 196.22526970000013 82.13816619999999 194.3195197 82.13816619999999 C 190.56426970000007 82.13816619999999 184.55601969999998 79.82741619999999 184.55601969999998 70.18016619999997 L 184.55601969999998 70.18016619999997 L 184.55601969999998 53.54216619999998 L 184.55601969999998 53.54216619999998 L 189.63951970000005 53.54216619999998 L 189.63951970000005 53.54216619999998 L 189.63951970000005 69.60266619999999 L 189.63951970000005 69.60266619999999 C 189.63951970000005 74.10866619999999 191.31426969999995 77.92166619999998 196.10976970000002 77.92166619999998 C 199.40226970000003 77.92166619999998 202.00176969999995 75.61091619999999 202.92651969999997 72.83816619999999 C 203.21526970000002 72.14516619999998 203.27301970000008 71.3944162 203.27301970000008 70.41191619999998 L 203.27301970000008 70.41191619999998 L 203.27301970000008 53.54291619999998 L 203.27301970000008 53.54291619999998 L 208.35651970000004 53.54291619999998"/><path fill="none" stroke="#000000" d="M 174.68473059999997 87.83833700000014 C 173.52898059999998 89.80333700000006 172.77823059999997 92.63383700000009 172.77823059999997 95.69533700000011 C 172.77823059999997 102.33883700000013 176.24473059999997 106.15108700000019 181.1549806 106.15108700000019 C 185.31448059999997 106.15108700000019 187.74073059999998 103.66783700000008 189.58948059999997 98.81458700000007 C 190.97623059999998 95.17483700000003 192.01573059999998 93.50008700000012 194.3264806 93.50008700000012 C 196.4062306 93.50008700000012 198.13948059999998 95.17483700000014 198.13948059999998 98.17933700000015 C 198.13948059999998 100.77883700000007 197.2147306 102.80083700000012 196.52173059999998 103.89808700000015 L 196.52173059999998 103.89808700000015 L 200.21923059999997 105.16933700000016 L 200.21923059999997 105.16933700000016 C 201.1439806 103.6093370000001 201.95248059999997 101.12458700000013 201.95248059999997 98.29483700000014 C 201.95248059999997 92.28658700000005 198.25498059999998 88.64683700000012 193.74898059999998 88.64683700000012 C 190.39798059999998 88.64683700000012 187.62523059999998 91.01533700000005 185.83423059999998 96.04108700000006 C 184.4482306 99.79633700000011 183.11923059999998 101.24083700000006 180.6929806 101.24083700000006 C 178.38223059999999 101.24083700000006 176.5334806 99.5083370000001 176.5334806 95.8108370000001 C 176.5334806 93.26833700000009 177.5729806 90.61108700000011 178.55548059999998 89.10883700000011 L 178.55548059999998 89.10883700000011 L 174.68473059999997 87.83833700000014 z"/><path fill="none" stroke="#000000" d="M 240.3335565 208.87288480000007 L 256.7983065 196.5683848000001 L 256.7983065 196.5683848000001 L 268.2943065 207.37063480000006 L 268.2943065 207.37063480000006 L 268.2943065 201.24763480000001 L 268.2943065 201.24763480000001 L 258.6470565 193.04413480000005 L 258.6470565 193.04413480000005 C 257.6645565 192.23488480000003 256.45180650000003 191.2531348 255.46930650000002 190.56013480000001 L 255.46930650000002 190.56013480000001 L 255.46930650000002 190.44463480000002 L 255.46930650000002 190.44463480000002 L 281.3495565 190.44463480000002 L 281.3495565 190.44463480000002 L 281.3495565 185.4188848 L 281.3495565 185.4188848 L 197.79705810546875 185.4188848"/><path fill="none" stroke="#000000" d="M 255.5750274 94.5238409000001 C 254.9390274 93.08084090000011 254.1882774 91.17434090000006 254.1882774 88.28534090000005 C 254.1882774 82.7398409000001 258.1745274 78.58034090000001 264.6447774 78.58034090000001 C 270.4797774 78.58034090000001 275.2167774 82.04684090000012 275.2167774 88.45934090000003 C 275.2167774 91.2320909 274.5815274 93.13859090000005 273.8885274 94.35134090000008 L 273.8885274 94.35134090000008 L 277.81702740000003 95.5070909000001 L 277.81702740000003 95.5070909000001 C 278.5100274 94.12034090000009 279.2607774 91.4630909 279.2607774 88.45934090000003 C 279.2607774 79.33109090000005 273.0222774 73.4390909 264.4145274 73.4390909 C 255.8645274 73.4390909 250.1450274 78.9268409 250.1450274 87.36134089999996 C 250.1450274 91.1165909 251.0690274 94.06334090000007 251.7627774 95.39159089999998 L 251.7627774 95.39159089999998 L 255.5750274 94.5238409000001 z"/><path fill="none" stroke="#000000" d="M 255.32800910000003 71.55581129999996 C 254.34625910000003 69.53306129999999 253.71025910000003 66.41381130000002 253.71025910000003 63.3523113 C 253.71025910000003 53.87756129999991 259.8340091 48.389811299999906 269.36575910000005 48.389811299999906 C 279.5912591 48.389811299999906 285.42625910000004 54.45581130000005 285.42625910000004 63.58331129999999 C 285.42625910000004 66.8188113 284.7325091 69.53381129999991 283.80850910000004 71.44031129999996 L 283.80850910000004 71.44031129999996 L 287.9102591 72.65306129999999 L 287.9102591 72.65306129999999 C 288.6032591 71.32481129999996 289.6435091 68.26331130000005 289.6435091 63.41006129999994 C 289.6435091 51.3373112999999 281.3815091 43.07531129999995 269.19250910000005 43.07531129999995 C 256.42525910000006 43.07531129999995 249.49300910000002 51.33656129999997 249.49300910000002 62.31281129999991 C 249.49300910000002 67.04981129999999 250.41775910000004 70.74731129999998 251.34175910000005 72.59606129999997 L 251.34175910000005 72.59606129999997 L 255.32800910000003 71.55581129999996 z"/><path d="M 0.00024615193251520395 90.75399780273438 L 14.004243850708008 58.4329948425293 L 14.004243850708008 58.4329948425293 L 32.67825698852539 -0.0000023754121230012983 L 32.67825698852539 -0.0000023754121230012983 L 37.734256744384766 93.71701049804688 L 37.734256744384766 93.71701049804688 L 16.728242874145508 114.42800903320312 L 16.728242874145508 114.42800903320312 L 0.00024615193251520395 90.75399780273438 z" fill="none" stroke="#000000"/><path d="M 20.711490631103516 147.25306701660156 L 0.0004918304621241987 126.2470932006836 L 0.0004918304621241987 126.2470932006836 L 23.675479888916016 109.52010345458984 L 23.675479888916016 109.52010345458984 L 55.995487213134766 123.5230941772461 L 55.995487213134766 123.5230941772461 L 114.42950439453125 142.1980743408203 L 114.42950439453125 142.1980743408203 L -0.00024751595972105633 148.37022347811592" fill="none" stroke="#000000"/><path d="M 93.71774291992188 143.31524658203125 L 114.42974853515625 164.3212890625 L 114.42974853515625 164.3212890625 L 90.7547607421875 181.04925537109375 L 90.7547607421875 181.04925537109375 L 58.43374252319336 167.0452880859375 L 58.43374252319336 167.0452880859375 L -0.00024666482931934297 148.3702392578125" fill="none" stroke="#000000"/><path d="M 39.49578094482422 78.97881317138672 L 64.74527740478516 35.24382400512695 L 64.74527740478516 35.24382400512695 L 89.99547576904297 78.97881317138672 L 89.99547576904297 78.97881317138672 L 73.49547576904297 78.97881317138672 L 73.49547576904297 78.97881317138672 L 73.49547576904297 123.5238265991211 L 73.49547576904297 123.5238265991211 L 55.99578094482422 123.5238265991211 L 55.99578094482422 123.5238265991211 L 55.99578094482422 78.97881317138672 L 55.99578094482422 78.97881317138672 L 37.62738800048828 78.97881317138672" fill="none" stroke="#000000"/><path d="M 72.76773834228516 3.928334951400757 L 103.69673919677734 7.039296627044678 L 103.69673919677734 7.039296627044678 L 102.33573150634766 26.295339584350586 L 102.33573150634766 26.295339584350586 L 109.85672760009766 30.867300033569336 L 109.85672760009766 30.867300033569336 L 104.66873931884766 47.6902961730957 L 104.66873931884766 47.6902961730957 L 86.77472686767578 57.8043098449707 L 86.77472686767578 57.8043098449707 L 64.7447280883789 35.24431228637695 L 64.7447280883789 35.24431228637695 L 72.76773834228516 3.928334951400757 z" fill="none" stroke="#000000"/><path d="M 53.87549591064453 165.58822631835938 L 50.764503479003906 196.5172119140625 L 50.764503479003906 196.5172119140625 L 31.50950050354004 195.15521240234375 L 31.50950050354004 195.15521240234375 L 26.93650245666504 202.67620849609375 L 26.93650245666504 202.67620849609375 L 10.113504409790039 197.48822021484375 L 10.113504409790039 197.48822021484375 L -0.000494289619382471 179.59420776367188 L -0.000494289619382471 179.59420776367188 L 22.560510635375977 157.56521606445312 L 22.560510635375977 157.56521606445312 L 53.87549591064453 165.58822631835938 z" fill="none" stroke="#000000"/><path d="M 102.94017028808594 184.1709442138672 L 99.82917785644531 215.0989227294922 L 99.82917785644531 215.0989227294922 L 80.57319641113281 213.73789978027344 L 80.57319641113281 213.73789978027344 L 76.00117492675781 221.2599334716797 L 76.00117492675781 221.2599334716797 L 59.17818069458008 216.0719451904297 L 59.17818069458008 216.0719451904297 L 49.0641975402832 198.1769256591797 L 49.0641975402832 198.1769256591797 L 71.62519836425781 176.14793395996094 L 71.62519836425781 176.14793395996094 L 102.94017028808594 184.1709442138672 z" fill="none" stroke="#000000"/><path d="M 81.51822662353516 78.97856903076172 L 112.44622039794922 82.08956146240234 L 112.44622039794922 82.08956146240234 L 111.0852279663086 101.34557342529297 L 111.0852279663086 101.34557342529297 L 118.6062240600586 105.91756439208984 L 118.6062240600586 105.91756439208984 L 113.41822052001953 122.74056243896484 L 113.41822052001953 122.74056243896484 L 95.52422332763672 132.8545379638672 L 95.52422332763672 132.8545379638672 L 73.49523162841797 110.29454803466797 L 73.49523162841797 110.29454803466797 L 81.51822662353516 78.97856903076172 z" fill="none" stroke="#000000"/><path d="M 53.277931213378906 249.5800018310547 L 22.35093116760254 246.4690399169922 L 22.35093116760254 246.4690399169922 L 23.71091651916504 227.21299743652344 L 23.71091651916504 227.21299743652344 L 16.18992042541504 222.6410369873047 L 16.18992042541504 222.6410369873047 L 21.377939224243164 205.8180389404297 L 21.377939224243164 205.8180389404297 L 39.27191925048828 195.7040252685547 L 39.27191925048828 195.7040252685547 L 61.30091094970703 218.26402282714844 L 61.30091094970703 218.26402282714844 L 53.277931213378906 249.5800018310547 z" fill="none" stroke="#000000"/><path d="M 103.55662536621094 200.55050659179688 L 134.48362731933594 203.66152954101562 L 134.48362731933594 203.66152954101562 L 133.1235809326172 222.91751098632812 L 133.1235809326172 222.91751098632812 L 140.64463806152344 227.48953247070312 L 140.64463806152344 227.48953247070312 L 135.4565887451172 244.31253051757812 L 135.4565887451172 244.31253051757812 L 117.56260681152344 254.42654418945312 L 117.56260681152344 254.42654418945312 L 95.53361511230469 231.86550903320312 L 95.53361511230469 231.86550903320312 L 103.55662536621094 200.55050659179688 z" fill="none" stroke="#000000"/><path d="M 131.7917022705078 31.632375717163086 L 151.45970153808594 55.701377868652344 L 151.45970153808594 55.701377868652344 L 136.88070678710938 68.35436248779297 L 136.88070678710938 68.35436248779297 L 138.96771240234375 76.90636444091797 L 138.96771240234375 76.90636444091797 L 123.4027099609375 85.13436126708984 L 123.4027099609375 85.13436126708984 L 103.59869384765625 79.6313705444336 L 103.59869384765625 79.6313705444336 L 103.97671508789062 48.100364685058594 L 103.97671508789062 48.100364685058594 L 131.7917022705078 31.632375717163086 z" fill="none" stroke="#000000"/><path d="M 139.46290588378906 149.81845092773438 L 159.1309051513672 173.88644409179688 L 159.1309051513672 173.88644409179688 L 144.55189514160156 186.53945922851562 L 144.55189514160156 186.53945922851562 L 146.6409149169922 195.09146118164062 L 146.6409149169922 195.09146118164062 L 131.07591247558594 203.31845092773438 L 131.07591247558594 203.31845092773438 L 111.26991271972656 197.81845092773438 L 111.26991271972656 197.81845092773438 L 111.64891052246094 166.28646850585938 L 111.64891052246094 166.28646850585938 L 139.46290588378906 149.81845092773438 z" fill="none" stroke="#000000"/><path d="M 124.6863021850586 154.74993896484375 L 105.01929473876953 130.680908203125 L 105.01929473876953 130.680908203125 L 119.5962905883789 118.02790069580078 L 119.5962905883789 118.02790069580078 L 117.5093002319336 109.47589874267578 L 117.5093002319336 109.47589874267578 L 133.0742950439453 101.24793243408203 L 133.0742950439453 101.24793243408203 L 152.87831115722656 106.75092315673828 L 152.87831115722656 106.75092315673828 L 152.5003204345703 138.28192138671875 L 152.5003204345703 138.28192138671875 L 124.6863021850586 154.74993896484375 z" fill="none" stroke="#000000"/><path d="M 152.28709411621094 192.57498168945312 L 173.90809631347656 204.57095336914062 L 173.90809631347656 204.57095336914062 L 168.8981170654297 254.42599487304688 L 168.8981170654297 254.42599487304688 L 134.3831024169922 247.61294555664062 L 134.3831024169922 247.61294555664062 L 152.28709411621094 192.57498168945312 z" fill="none" stroke="#000000"/><path d="M 154.25051879882812 47.12009048461914 L 175.87252807617188 59.11508560180664 L 175.87252807617188 59.11508560180664 L 170.86151123046875 108.9710922241211 L 170.86151123046875 108.9710922241211 L 136.34750366210938 102.15808868408203 L 136.34750366210938 102.15808868408203 L 154.25051879882812 47.12009048461914 z" fill="none" stroke="#000000"/><path d="M 157.666259765625 40.04890060424805 L 102.62823486328125 22.145946502685547 L 102.62823486328125 22.145946502685547 L 114.624267578125 0.5249130725860596 L 114.624267578125 0.5249130725860596 L 164.478271484375 5.5349225997924805 L 164.478271484375 5.534922599792473 L 156.07142568851594 48.129342994943016" fill="none" stroke="#000000"/><path d="M 209.9796905517578 143.81155395507812 L 197.98365783691406 165.4335479736328 L 197.98365783691406 165.4335479736328 L 148.12965393066406 160.42355346679688 L 148.12965393066406 160.42355346679688 L 154.9436798095703 125.9085464477539 L 154.9436798095703 125.9085464477539 L 215.50515213384645 145.60896584688402" fill="none" stroke="#000000"/><path d="M 156.07102966308594 48.12926483154297 L 205.92503356933594 53.14026641845703 L 205.92503356933594 53.14026641845703 L 217.9210662841797 31.51825714111328 L 217.9210662841797 31.51825714111328 L 162.88404846191406 13.615263938903809" fill="none" stroke="#000000"/><path d="M 215.50497436523438 145.60951232910156 L 222.31698608398438 111.09449005126953 L 222.31698608398438 111.09449005126953 L 172.46298217773438 106.08448028564453 L 172.46298217773438 106.08448028564453 L 160.46694946289062 127.70551300048828" fill="none" stroke="#000000"/><path d="M 197.79705810546875 185.41864013671875 L 170.41302490234375 162.66363525390625 L 170.41302490234375 162.66363525390625 L 170.41302490234375 202.6326446533203 L 170.41302490234375 202.6326446533203 L 240.33355712890625 202.6326446533203" fill="none" stroke="#000000"/><path d="M 172.9149932861328 254.42648315429688 L 233.84999084472656 254.42648315429688 L 233.84999084472656 254.42648315429688 L 233.84999084472656 237.21249389648438 L 233.84999084472656 237.21249389648438 L 200.2989959716797 237.21249389648438 L 200.2989959716797 237.21249389648438 L 172.9149932861328 214.45748901367188 L 172.9149932861328 214.45748901367188 L 172.9149932861328 254.42648315429688 z" fill="none" stroke="#000000"/><path d="M 225.57025146484375 109.69183349609375 L 208.35723876953125 109.69183349609375 L 208.35723876953125 109.69183349609375 L 208.35723876953125 48.7568359375 L 208.35723876953125 48.7568359375 L 248.32623291015625 48.7568359375 L 248.32623291015625 48.7568359375 L 225.57025146484375 76.14083862304688 L 225.57025146484375 76.14083862304688 L 225.57025146484375 119.78681182861328" fill="none" stroke="#000000"/><path d="M 179.3990478515625 202.6324005126953 L 179.3990478515625 219.8454132080078 L 179.3990478515625 219.8454132080078 L 212.94955444335938 219.8454132080078 L 212.94955444335938 219.8454132080078 L 240.33355712890625 242.6013946533203 L 240.33355712890625 242.6013946533203 L 240.33355712890625 202.6324005126953" fill="none" stroke="#000000"/><path d="M 270.0047302246094 185.41839599609375 L 270.0047302246094 168.20538330078125 L 270.0047302246094 168.20538330078125 L 236.4547576904297 168.20538330078125 L 236.4547576904297 168.20538330078125 L 209.07078552246094 145.45037841796875 L 209.07078552246094 145.45037841796875 L 209.07078552246094 185.41839599609375" fill="none" stroke="#000000"/><path d="M 245.0227508544922 126.9953842163086 L 231.79673767089844 97.97740936279297 L 231.79673767089844 97.97740936279297 L 234.13075256347656 135.83740234375 L 234.13075256347656 135.83740234375 L 217.0127410888672 137.9674072265625 L 217.0127410888672 137.9674072265625 L 218.5697479248047 153.34341430664062 L 218.5697479248047 153.34341430664062 L 242.68873596191406 168.1243896484375 L 242.68873596191406 168.1243896484375 L 246.66481701305665 98.05960142834472" fill="none" stroke="#000000"/><path d="M 246.66534423828125 98.05963134765625 L 270.7843322753906 112.84063720703125 L 270.7843322753906 112.84063720703125 L 272.3413391113281 128.21713256835938 L 272.3413391113281 128.21713256835938 L 255.22433471679688 130.346435546875 L 255.22433471679688 130.346435546875 L 257.5583190917969 168.2056427001953 L 257.5583190917969 168.2056427001953 L 244.33132934570312 139.18814086914062" fill="none" stroke="#000000"/><path d="M 230.119873046875 -0.00023989375040400776 L 232.24786376953125 17.116764068603516 L 232.24786376953125 17.116764068603516 L 270.10882568359375 14.782779693603516 L 270.10882568359375 14.782779693603516 L 241.08984375 28.008731842041016 L 241.08984375 28.008731842041016 L 199.96087646484375 25.676761627197266 L 199.96087646484375 25.676761627197266 L 214.74285888671875 1.5567669868469236 L 214.74285888671875 1.5567669868469238 L 230.119873046875 -0.00023989375040400773 z" fill="none" stroke="#000000"/><path d="M 92.9346923828125 235.0255126953125 L 57.0067138671875 235.0255126953125 L 57.0067138671875 235.0255126953125 L 57.0067138671875 254.426513671875 L 57.0067138671875 254.426513671875 L 92.9346923828125 254.426513671875 L 92.9346923828125 254.426513671875 L 92.9346923828125 235.0255126953125 z" fill="none" stroke="#000000"/><path d="M -0.0004901820211671293 41.54533767700195 L 19.400510787963867 41.54533767700195 L 19.40051078796387 41.54533767700195 L 19.400510787963867 5.617082595825195" fill="none" stroke="#000000"/><path d="M 54.01772689819336 0.0000018054688553093005 L 34.61672592163086 0.0000018054688553093005 L 34.61672592163086 0.0000018054688553093005 L 34.61672592163086 35.927978515625 L 34.61672592163086 35.927978515625 L 63.19611358642578 35.927978515625" fill="none" stroke="#000000"/><path d="M 228.15200805664062 75.49906158447266 L 233.14303588867188 71.70606231689453 L 233.14303588867188 71.70606231689453 L 235.73800659179688 67.28907012939453 L 235.73800659179688 67.28907012939453 L 241.88003540039062 67.28907012939453 L 241.88003540039062 67.28907012939453 L 245.49301147460938 71.70606231689453 L 245.49301147460938 71.70606231689453 L 248.80203247070312 74.13507843017578 L 248.80203247070312 74.13507843017578 L 248.80203247070312 80.55408477783203 L 248.80203247070312 80.55408477783203 L 244.23001098632812 83.37506866455078 L 244.23001098632812 83.37506866455078 L 241.86404418945312 90.47406768798828 L 241.86404418945312 90.47406768798828 L 235.73800659179688 90.47406768798828 L 235.73800659179688 90.47406768798828 L 233.72702026367188 83.37506866455078 L 233.72702026367188 83.37506866455078 L 228.15200805664062 80.55408477783203 L 228.15200805664062 80.55408477783203 L 228.15200805664062 75.49906158447266 z" fill="none" stroke="#000000"/><path d="M 90.56961822509766 235.0257568359375 L 90.56961822509766 222.26776123046875 L 90.56961822509766 222.26776123046875 L 60.27560806274414 222.26776123046875 L 60.27560806274414 222.26776123046875 L 60.27560806274414 235.0257568359375" fill="none" stroke="#000000"/><path d="M 240.3335565 202.69213480000008 L 253.7360565 193.04413480000005 L 253.7360565 193.04413480000005 L 250.8470565 190.44463480000002 L 250.8470565 190.44463480000002 L 240.3328065 190.44463480000002 L 240.3328065 190.44463480000002 L 240.3328065 185.4188848" fill="none" stroke="#000000"/><path d="M 194.77346801757812 12.757018089294434 L 194.77346801757812 -0.0000014187500028128858 L 194.77346801757812 -0.0000014187500028128858 L 164.47848510742188 -0.0000014187500028128858 L 164.47848510742188 -0.0000014187500028128858 L 164.47848510742188 12.757018089294434 L 164.47848510742188 12.757018089294434 L 194.77346801757812 12.757018089294434 z" fill="none" stroke="#000000"/><path d="M 215.4350128173828 48.757080078125 L 215.4350128173828 36.00006103515625 L 215.4350128173828 36.00006103515625 L 245.72901916503906 36.00006103515625 L 245.72901916503906 36.00006103515625 L 245.72901916503906 48.757080078125" fill="none" stroke="#000000"/><path d="M 261.33880615234375 227.2368927001953 L 263.2857971191406 239.8708953857422 L 263.2857971191406 239.8708953857422 L 253.36630249023438 244.1578826904297 L 253.36630249023438 244.1578826904297 L 240.33360290527344 242.6008758544922 L 240.33360290527344 242.6008758544922 L 242.08399963378906 222.25889587402344 L 242.08399963378906 222.25889587402344 L 261.33880615234375 227.2368927001953 z" fill="none" stroke="#000000"/><path d="M 1.9457378387451172 242.1171112060547 L -0.00024607108207419525 229.4821014404297 L -0.00024607108207419525 229.4821014404297 L 9.918760299682617 225.19410705566406 L 9.918760299682617 225.19410705566406 L 22.951749801635742 226.75111389160156 L 22.951749801635742 226.75111389160156 L 21.200773239135742 247.09312438964844 L 21.200773239135742 247.09312438964844 L 1.9457378387451172 242.1171112060547 z" fill="none" stroke="#000000"/><path d="M 266.7337951660156 30.074304580688477 L 268.6808166503906 42.708309173583984 L 268.6808166503906 42.708309173583984 L 258.7618103027344 46.99630355834961 L 258.7618103027344 46.99630355834961 L 245.72877502441406 45.43931198120117 L 245.72877502441406 45.43931198120117 L 247.4798126220703 25.0963077545166 L 247.4798126220703 25.0963077545166 L 266.7337951660156 30.074304580688477 z" fill="none" stroke="#000000"/><path d="M 37.39426040649414 94.05317687988281 L 50.029239654541016 92.10615539550781 L 50.029239654541016 92.10615539550781 L 54.31625747680664 102.02516174316406 L 54.31625747680664 102.02516174316406 L 52.75925064086914 115.05818176269531 L 52.75925064086914 115.05818176269531 L 32.417240142822266 113.30714416503906 L 32.417240142822266 113.30714416503906 L 37.39426040649414 94.05317687988281 z" fill="none" stroke="#000000"/><path d="M 242.280029296875 221.5076141357422 L 240.33404541015625 208.8726043701172 L 240.33404541015625 208.8726043701172 L 250.25204467773438 204.5856170654297 L 250.25204467773438 204.5856170654297 L 263.2850341796875 206.14259338378906 L 263.2850341796875 206.14259338378906 L 261.5350341796875 226.48460388183594 L 261.5350341796875 226.48460388183594 L 242.280029296875 221.5076141357422 z" fill="none" stroke="#000000"/><path d="M 2.573404312133789 199.4563446044922 L 2.573404312133789 222.64036560058594 L 2.573404312133789 222.64036560058594 L 16.19040870666504 222.64036560058594 L 16.19040870666504 222.64036560058594 L 16.19040870666504 199.4563446044922 L 16.19040870666504 199.4563446044922 L 2.573404312133789 199.4563446044922 z" fill="none" stroke="#000000"/><path d="M 35.86737823486328 35.928466796875 L 35.86737823486328 59.112457275390625 L 35.86737823486328 59.112457275390625 L 49.580848693847656 59.112457275390625" fill="none" stroke="#000000"/><path d="M 112.05438232421875 101.24842071533203 L 135.23907470703125 101.24842071533203 L 135.23907470703125 101.24842071533203 L 135.23907470703125 87.6324234008789 L 135.23907470703125 87.6324234008789 L 112.05438232421875 87.6324234008789 L 112.05438232421875 87.6324234008789 L 112.05438232421875 101.24842071533203 z" fill="none" stroke="#000000"/><path d="M 295.92501869999995 142.02724540000008 L 295.92501869999995 147.11149540000008 L 295.92501869999995 147.11149540000008 L 261.2630187 147.11149540000008 L 261.2630187 147.11149540000008 L 261.2630187 158.9547454000001 L 261.2630187 158.9547454000001 L 256.98801869999994 158.9547454000001 L 256.98801869999994 158.9547454000001 L 256.98801869999994 130.12699540000006 L 256.98801869999994 130.12699540000006 L 261.2630187 130.12699540000006 L 261.2630187 130.12699540000006 L 261.2630187 142.02724540000008 L 261.2630187 142.02724540000008 L 296.4105529785156 142.02724540000008" fill="none" stroke="#000000"/><path d="M 84.36322784423828 69.22296905517578 L 91.02123260498047 74.53394317626953 L 91.02123260498047 74.53394317626953 L 99.32022857666016 72.63697052001953 L 99.32022857666016 72.63697052001953 L 103.01522827148438 64.96997833251953 L 103.01522827148438 64.96997833251953 L 99.32022857666016 57.30097198486328 L 99.32022857666016 57.30097198486328 L 91.02123260498047 55.40393829345703 L 91.02123260498047 55.40393829345703 L 84.36322784423828 60.71295928955078 L 84.36322784423828 60.71295928955078 L 84.36322784423828 69.22296905517578 z" fill="none" stroke="#000000"/><path d="M 164.43362426757812 194.59071350097656 L 169.74192810058594 187.93373107910156 L 169.74192810058594 187.93373107910156 L 167.84841918945312 179.6347198486328 L 167.84841918945312 179.6347198486328 L 160.17822265625 175.9407501220703 L 160.17822265625 175.9407501220703 L 152.50791931152344 179.6347198486328 L 152.50791931152344 179.6347198486328 L 150.61422729492188 187.93373107910156 L 150.61422729492188 187.93373107910156 L 155.92042541503906 194.59071350097656 L 155.92042541503906 194.59071350097656 L 164.43362426757812 194.59071350097656 z" fill="none" stroke="#000000"/><path d="M 190.24720764160156 179.14535522460938 L 196.9051971435547 184.45333862304688 L 196.9051971435547 184.45333862304688 L 205.20420837402344 182.55935668945312 L 205.20420837402344 182.55935668945312 L 208.8992156982422 174.88931274414062 L 208.8992156982422 174.88931274414062 L 205.20420837402344 167.21932983398438 L 205.20420837402344 167.21932983398438 L 196.9051971435547 165.32534790039062 L 196.9051971435547 165.32534790039062 L 190.24720764160156 170.63235473632812 L 190.24720764160156 170.63235473632812 L 190.24720764160156 179.14535522460938 z" fill="none" stroke="#000000"/><path d="M 268.2736511230469 106.0855712890625 L 273.5846862792969 99.42855834960938 L 273.5846862792969 99.42855834960938 L 271.6876525878906 91.12857055664062 L 271.6876525878906 91.12857055664062 L 264.0206604003906 87.4345703125 L 264.0206604003906 87.4345703125 L 256.3506774902344 91.12857055664062 L 256.3506774902344 91.12857055664062 L 254.4546661376953 99.42855834960938 L 254.4546661376953 99.42855834960938 L 259.7626647949219 106.0855712890625 L 259.7626647949219 106.0855712890625 L 268.2736511230469 106.0855712890625 z" fill="none" stroke="#000000"/><path d="M 261.9725341796875 55.15049743652344 L 256.66351318359375 61.80751037597656 L 256.66351318359375 61.80751037597656 L 258.5574951171875 70.10749816894531 L 258.5574951171875 70.10749816894531 L 266.2275390625 73.80149841308594 L 266.2275390625 73.80149841308594 L 273.89654541015625 70.10749816894531 L 273.89654541015625 70.10749816894531 L 275.79150390625 61.80751037597656 L 275.79150390625 61.80751037597656 L 270.4844970703125 55.15049743652344 L 270.4844970703125 55.15049743652344 L 261.9725341796875 55.15049743652344 z" fill="none" stroke="#000000"/><path d="M 266.5530090332031 235.77447509765625 L 261.2430114746094 242.43246459960938 L 261.2430114746094 242.43246459960938 L 263.1390075683594 250.73147583007812 L 263.1390075683594 250.73147583007812 L 270.8070068359375 254.42645263671875 L 270.8070068359375 254.42645263671875 L 278.4770202636719 250.73147583007812 L 278.4770202636719 250.73147583007812 L 280.3730163574219 242.43246459960938 L 280.3730163574219 242.43246459960938 L 275.06402587890625 235.77447509765625 L 275.06402587890625 235.77447509765625 L 266.5530090332031 235.77447509765625 z" fill="none" stroke="#000000"/><path d="M 274.4900207519531 168.20587158203125 L 279.7990417480469 161.54788208007812 L 279.7990417480469 161.54788208007812 L 277.9049987792969 153.24887084960938 L 277.9049987792969 153.24887084960938 L 270.2350158691406 149.55487060546875 L 270.2350158691406 149.55487060546875 L 262.5650329589844 153.24887084960938 L 262.5650329589844 153.24887084960938 L 260.6710510253906 161.54788208007812 L 260.6710510253906 161.54788208007812 L 265.9770202636719 168.20587158203125 L 265.9770202636719 168.20587158203125 L 274.4900207519531 168.20587158203125 z" fill="none" stroke="#000000"/><path d="M 267.0759582519531 217.12350463867188 L 261.7669677734375 223.78146362304688 L 261.7669677734375 223.78146362304688 L 263.6609802246094 232.07949829101562 L 263.6609802246094 232.07949829101562 L 271.3309631347656 235.77450561523438 L 271.3309631347656 235.77450561523438 L 279.0009765625 232.07949829101562 L 279.0009765625 232.07949829101562 L 280.89495849609375 223.78146362304688 L 280.89495849609375 223.78146362304688 L 275.5889587402344 217.12350463867188 L 275.5889587402344 217.12350463867188 L 267.0759582519531 217.12350463867188 z" fill="none" stroke="#000000"/><path d="M 275.6597595214844 14.139813423156738 L 267.3587341308594 16.03681755065918 L 267.3587341308594 16.03681755065918 L 263.6657409667969 23.70380973815918 L 263.6657409667969 23.70380973815918 L 267.3587341308594 31.37281608581543 L 267.3587341308594 31.37281608581543 L 275.6597595214844 33.2688102722168 L 275.6597595214844 33.2688102722168 L 282.3167419433594 27.959821701049805 L 282.3167419433594 27.959821701049805 L 282.3167419433594 19.449811935424805 L 282.3167419433594 19.449811935424805 L 275.25713997896275 13.818660528900233" fill="none" stroke="#000000"/><path d="M 273.1269226074219 192.49569702148438 L 267.81591796875 199.15370178222656 L 267.81591796875 199.15370178222656 L 269.7129211425781 207.45269775390625 L 269.7129211425781 207.45269775390625 L 277.3799133300781 211.147705078125 L 277.3799133300781 211.147705078125 L 285.0489196777344 207.45269775390625 L 285.0489196777344 207.45269775390625 L 286.9459228515625 199.15370178222656 L 286.9459228515625 199.15370178222656 L 281.6369323730469 192.49569702148438 L 281.6369323730469 192.49569702148438 L 273.1269226074219 192.49569702148438 z" fill="none" stroke="#000000"/><path d="M 283.0164794921875 117.50698852539062 L 288.32745361328125 110.84898376464844 L 288.32745361328125 110.84898376464844 L 286.43048095703125 102.54998779296875 L 286.43048095703125 102.54998779296875 L 278.76348876953125 98.85598754882812 L 278.76348876953125 98.85598754882812 L 271.094482421875 102.54998779296875 L 271.094482421875 102.54998779296875 L 269.19647216796875 110.84898376464844 L 269.19647216796875 110.84898376464844 L 274.50445556640625 117.50698852539062 L 274.50445556640625 117.50698852539062 L 283.0164794921875 117.50698852539062 z" fill="none" stroke="#000000"/><path d="M 288.7701110839844 171.7745819091797 L 282.11212158203125 166.46359252929688 L 282.11212158203125 166.46359252929688 L 273.8141174316406 168.36058044433594 L 273.8141174316406 168.36058044433594 L 270.1191101074219 176.027587890625 L 270.1191101074219 176.027587890625 L 273.8141174316406 183.6975860595703 L 273.8141174316406 183.6975860595703 L 282.11212158203125 185.5935821533203 L 282.11212158203125 185.5935821533203 L 288.7701110839844 180.28659057617188 L 288.7701110839844 180.28659057617188 L 288.7701110839844 171.7745819091797 z" fill="none" stroke="#000000"/><path d="M 272.34185791015625 131.32650756835938 L 278.9998474121094 136.63748168945312 L 278.9998474121094 136.63748168945312 L 287.2978515625 134.74050903320312 L 287.2978515625 134.74050903320312 L 290.99285888671875 127.07351684570312 L 290.99285888671875 127.07351684570312 L 287.2978515625 119.40451049804688 L 287.2978515625 119.40451049804688 L 278.9998474121094 117.50650024414062 L 278.9998474121094 117.50650024414062 L 272.34185791015625 122.81448364257812 L 272.34185791015625 122.81448364257812 L 272.34185791015625 131.32650756835938 z" fill="none" stroke="#000000"/><path d="M 293.21575927734375 34.60953903198242 L 286.559814453125 29.298564910888672 L 286.559814453125 29.298564910888672 L 278.259765625 31.194561004638672 L 278.259765625 31.194561004638672 L 274.5657958984375 38.86155319213867 L 274.5657958984375 38.86155319213867 L 278.259765625 46.53159713745117 L 278.259765625 46.53159713745117 L 286.559814453125 48.42856979370117 L 286.559814453125 48.42856979370117 L 293.21575927734375 43.11954879760742 L 293.21575927734375 43.11954879760742 L 293.21575927734375 34.60953903198242 z" fill="none" stroke="#000000"/><path d="M 281.91546630859375 19.1292724609375 L 290.2144775390625 17.23223876953125 L 290.2144775390625 17.23223876953125 L 293.90948486328125 9.565247535705566 L 293.90948486328125 9.565247535705566 L 290.2144775390625 1.8962409496307373 L 290.2144775390625 1.8962409496307373 L 281.91546630859375 0.0002448703162372113 L 281.91546630859375 0.0002448703162372113 L 275.2574768066406 5.308228492736816 L 275.2574768066406 5.308228492736816 L 275.2574768066406 13.818238258361816" fill="none" stroke="#000000"/><path d="M 291.4475402832031 72.65257263183594 L 296.7565612792969 79.31053161621094 L 296.7565612792969 79.31053161621094 L 294.8605651855469 87.60954284667969 L 294.8605651855469 87.60954284667969 L 287.1915588378906 91.30455017089844 L 287.1915588378906 91.30455017089844 L 279.5245666503906 87.60954284667969 L 279.5245666503906 87.60954284667969 L 277.6275329589844 79.31053161621094 L 277.6275329589844 79.31053161621094 L 282.9375305175781 72.65257263183594 L 282.9375305175781 72.65257263183594 L 301.62249755859375 72.65257263183594" fill="none" stroke="#000000"/><path d="M 273.6003723144531 211.147216796875 L 285.9053649902344 232.459228515625 L 285.9053649902344 232.459228515625 L 298.2103576660156 211.147216796875 L 298.2103576660156 211.147216796875 L 273.6003723144531 211.147216796875 z" fill="none" stroke="#000000"/><path d="M 300.95306396484375 254.42599487304688 L 288.6470642089844 233.114990234375 L 288.6470642089844 233.114990234375 L 276.34307861328125 254.42599487304688 L 276.34307861328125 254.42599487304688 L 300.95306396484375 254.42599487304688 z" fill="none" stroke="#000000"/><path d="M 286.9461975097656 206.34988403320312 L 308.2572021484375 194.04385375976562 L 308.2572021484375 194.04385375976562 L 286.9461975097656 181.73983764648438 L 286.9461975097656 181.73983764648438 L 286.9461975097656 206.34988403320312 z" fill="none" stroke="#000000"/><path d="M 299.1551513671875 151.69473266601562 L 277.84417724609375 163.99972534179688 L 277.84417724609375 163.99972534179688 L 299.1551513671875 176.30471801757812 L 299.1551513671875 176.30471801757812 L 299.1551513671875 151.69473266601562 z" fill="none" stroke="#000000"/><path d="M 67.2450180053711 19.471742630004883 L 67.2450180053711 -0.00024232344003394246 L 67.2450180053711 -0.00024232344003394246 L 54.01803207397461 -0.00024232344003394246" fill="none" stroke="#000000"/><path d="M 279.9381103515625 91.30503845214844 L 292.24310302734375 112.61604309082031 L 292.24310302734375 112.61604309082031 L 304.547119140625 91.30503845214844 L 304.547119140625 91.30503845214844 L 279.9381103515625 91.30503845214844 z" fill="none" stroke="#000000"/><path d="M 231.7647247314453 13.227265357971191 L 251.23672485351562 13.227265357971191 L 251.23672485351562 13.227265357971191 L 251.23672485351562 0.00024512890377081936 L 251.23672485351562 0.00024512890377081936 L 231.7647247314453 0.00024512890377081936 L 231.7647247314453 0.0002451289037708193 L 231.7647247314453 13.227265357971191 z" fill="none" stroke="#000000"/><path d="M 251.2367401123047 -0.00024251718423329294 L 270.7087097167969 -0.00024251718423329294 L 270.7087097167969 -0.00024251718423329294 L 270.7087097167969 13.226747512817383 L 270.7087097167969 13.226747512817383 L 251.2367401123047 13.226747512817383" fill="none" stroke="#000000"/><path d="M -8.000000093488779e-7 248.3463408 L -8.000000093488779e-7 253.42984079999997 L -8.000000093488779e-7 253.42984079999997 L 41.015999199999996 253.42984079999997 L 41.015999199999996 253.42984079999997 L 41.015999199999996 248.3463408 L 41.015999199999996 248.3463408 L -8.000000093488779e-7 248.3463408 z" fill="none" stroke="#000000"/><path d="M 12.75326919555664 41.54533767700195 L 12.75326919555664 54.7713508605957 L 12.75326919555664 54.7713508605957 L 0.00027829804457724094 54.7713508605957" fill="none" stroke="#000000"/><path d="M 1.0277719497680664 152.9246063232422 L 1.0277719497680664 165.67759704589844 L 1.0277719497680664 165.67759704589844 L 14.251770973205566 165.67759704589844 L 14.251770973205566 165.67759704589844 L 14.251770973205566 152.9246063232422 L 14.251770973205566 152.9246063232422 L 1.0277719497680664 152.9246063232422 z" fill="none" stroke="#000000"/><path d="M 50.852394104003906 78.97879791259766 L 50.852394104003906 91.73180389404297 L 50.852394104003906 91.73180389404297 L 37.62738800048828 91.73180389404297 L 37.62738800048828 91.73180389404297 L 37.62738800048828 78.97879791259766" fill="none" stroke="#000000"/><path d="M 108.02345939999998 200.5508085 L 108.02345939999998 172.59005849999997 L 108.02345939999998 172.59005849999997 L 102.93995940000002 172.59005849999997 L 102.93995940000002 172.59005849999997 L 102.93995940000002 200.5508085 L 102.93995940000002 200.5508085 L 108.02345939999998 200.5508085 z" fill="none" stroke="#000000"/><path d="M 30.882948600000002 5.617571100000077 L 30.882948600000002 0.5348211000000447 L 30.882948600000002 0.5348211000000447 L 2.9221986000000015 0.5348211000000447 L 2.9221986000000015 0.5348211000000447 L 2.9221986000000015 5.617571100000077" fill="none" stroke="#000000"/><path d="M -0.00024122695322148507 101.07283782958984 L -0.00024122695322148507 114.78685760498047 L -0.00024122695322148507 114.78685760498047 L 14.255770683288574 114.39983367919922 L 14.255770683288574 114.39983367919922 L 13.167757987976074 109.38985443115234 L 13.167757987976074 109.38985443115234 L -0.00024122695322148502 101.07283782958984 z" fill="none" stroke="#000000"/><path d="M -0.00024120937450788923 131.28550720214844 L -0.00024120937450788923 144.99851989746094 L -0.00024120937450788923 144.99851989746094 L 14.25574016571045 144.6114959716797 L 14.25574016571045 144.6114959716797 L 13.16772747039795 139.6015167236328 L 13.16772747039795 139.6015167236328 L -0.00024120937450788915 131.28550720214844 z" fill="none" stroke="#000000"/><path d="M 111.63111114501953 156.44390869140625 L 111.63111114501953 142.7309112548828 L 111.63111114501953 142.7309112548828 L 97.37610626220703 143.117919921875 L 97.37610626220703 143.117919921875 L 98.46308135986328 148.12791442871094 L 98.46308135986328 148.12791442871094 L 111.63111114501953 156.44390869140625 z" fill="none" stroke="#000000"/><path d="M 13.713468551635742 59.103153228759766 L 0.0004862593777943404 59.103153228759766 L 0.0004862593777943404 59.103153228759766 L 0.3874796628952028 73.358154296875 L 0.3874796628952028 73.358154296875 L 5.396482467651367 72.27114868164062 L 5.396482467651367 72.27114868164062 L 13.713468551635742 59.103153228759766 z" fill="none" stroke="#000000"/><path d="M 167.28009033203125 176.0623321533203 L 167.28009033203125 162.3483123779297 L 167.28009033203125 162.3483123779297 L 153.0255889892578 162.73631286621094 L 153.0255889892578 162.73631286621094 L 154.11228942871094 167.7453155517578 L 154.11228942871094 167.7453155517578 L 167.28009033203125 176.0623321533203 z" fill="none" stroke="#000000"/><path d="M 196.5530548095703 234.1001434326172 L 210.2670440673828 234.1001434326172 L 210.2670440673828 234.1001434326172 L 209.87904357910156 219.8451385498047 L 209.87904357910156 219.8451385498047 L 204.87001037597656 220.9321746826172 L 204.87001037597656 220.9321746826172 L 196.5530548095703 234.1001434326172 z" fill="none" stroke="#000000"/><path d="M 199.78909301757812 25.620067596435547 L 199.78909301757812 11.90705394744873 L 199.78909301757812 11.90705394744873 L 183.35658264160156 14.69306468963623 L 183.35658264160156 14.69306468963623 L 186.61907958984375 17.303050994873047 L 186.61907958984375 17.303050994873047 L 199.78909301757812 25.620067596435547 z" fill="none" stroke="#000000"/><path d="M 217.35850524902344 136.2183074951172 L 231.07249450683594 136.2183074951172 L 231.07249450683594 136.2183074951172 L 228.28150939941406 119.78632354736328 L 228.28150939941406 119.78632354736328 L 225.67149353027344 123.0503158569336 L 225.67149353027344 123.0503158569336 L 217.35850524902344 136.2183074951172 z" fill="none" stroke="#000000"/><path d="M 282.5984191894531 29.298076629638672 L 296.3114013671875 29.298076629638672 L 296.3114013671875 29.298076629638672 L 293.5213928222656 12.867107391357422 L 293.5213928222656 12.867107391357422 L 290.910400390625 16.130107879638672 L 290.910400390625 16.130107879638672 L 282.5984191894531 29.298076629638672 z" fill="none" stroke="#000000"/><path d="M 53.77324676513672 166.60691833496094 L 53.77324676513672 180.31993103027344 L 53.77324676513672 180.31993103027344 L 70.20525360107422 177.53489685058594 L 70.20525360107422 177.53489685058594 L 66.94225311279297 174.92491149902344 L 66.94225311279297 174.92491149902344 L 53.77324676513672 166.60691833496094 z" fill="none" stroke="#000000"/><path d="M 35.86786651611328 59.11199951171875 L 38.65784454345703 75.54299926757812 L 38.65784454345703 75.54299926757812 L 41.267860412597656 72.27999877929688 L 41.267860412597656 72.27999877929688 L 49.580848693847656 59.11199951171875" fill="none" stroke="#000000"/><path d="M 296.4105529785156 142.02725219726562 L 293.6215515136719 125.5962142944336 L 293.6215515136719 125.5962142944336 L 291.01055908203125 128.85922241210938 L 291.01055908203125 128.85922241210938 L 282.69854736328125 142.02725219726562" fill="none" stroke="#000000"/><path d="M 244.68019104003906 106.11089324951172 L 244.68019104003906 92.39885711669922 L 244.68019104003906 92.39885711669922 L 228.24818420410156 95.18889617919922 L 228.24818420410156 95.18889617919922 L 231.5121612548828 97.79888153076172 L 231.5121612548828 97.79888153076172 L 244.68019104003906 106.11089324951172 z" fill="none" stroke="#000000"/><path d="M 49.484107971191406 35.92822265625 L 52.27411651611328 52.359222412109375 L 52.27411651611328 52.359222412109375 L 54.88410186767578 49.096221923828125 L 54.88410186767578 49.096221923828125 L 63.19611358642578 35.92822265625" fill="none" stroke="#000000"/><path d="M 285.49139404296875 233.11492919921875 L 299.2033996582031 233.11492919921875 L 299.2033996582031 233.11492919921875 L 296.41839599609375 216.68292236328125 L 296.41839599609375 216.68292236328125 L 293.80841064453125 219.9459228515625 L 293.80841064453125 219.9459228515625 L 285.49139404296875 233.11492919921875 z" fill="none" stroke="#000000"/><path d="M 92.9351806640625 248.81851196289062 L 109.3671875 246.03250122070312 L 109.3671875 246.03250122070312 L 106.10418701171875 243.42349243164062 L 106.10418701171875 243.42349243164062 L 92.9351806640625 235.10650634765625" fill="none" stroke="#000000"/><path d="M 300.1672058105469 127.53265380859375 L 300.1672058105469 113.81964111328125 L 300.1672058105469 113.81964111328125 L 283.7351989746094 116.60565185546875 L 283.7351989746094 116.60565185546875 L 286.9981994628906 119.21466064453125 L 286.9981994628906 119.21466064453125 L 300.1672058105469 127.53265380859375 z" fill="none" stroke="#000000"/><path d="M 286.1458435058594 54.31938552856445 L 299.85784912109375 54.31938552856445 L 299.85784912109375 54.31938552856445 L 297.0678405761719 37.888492584228516 L 297.0678405761719 37.888492584228516 L 294.45782470703125 41.15238571166992 L 294.45782470703125 41.15238571166992 L 286.1458435058594 54.31938552856445 z" fill="none" stroke="#000000"/><path d="M 301.62249755859375 72.65278625488281 L 298.83349609375 56.22178649902344 L 298.83349609375 56.22178649902344 L 296.2235107421875 59.48579406738281 L 296.2235107421875 59.48579406738281 L 287.9105224609375 72.65278625488281" fill="none" stroke="#000000"/><path d="M 291.4824523925781 113.81982421875 L 305.1954345703125 113.81982421875 L 305.1954345703125 113.81982421875 L 302.40545654296875 97.38885498046875 L 302.40545654296875 97.38885498046875 L 299.7954406738281 100.65283203125 L 299.7954406738281 100.65283203125 L 291.4824523925781 113.81982421875 z" fill="none" stroke="#000000"/><path d="M 67.7300033569336 19.496522903442383 L 54.01797103881836 19.496522903442383 L 54.01797103881836 19.496522903442383 L 56.80801010131836 35.927520751953125 L 56.80801010131836 35.927520751953125 L 59.41695785522461 32.66351318359375 L 59.41695785522461 32.66351318359375 L 67.7300033569336 19.496522903442383 z" fill="none" stroke="#000000"/><path d="M 292.5278625488281 91.30430603027344 L 306.2398376464844 91.30430603027344 L 306.2398376464844 91.30430603027344 L 303.4498596191406 74.87431335449219 L 303.4498596191406 74.87431335449219 L 300.8408508300781 78.13829040527344 L 300.8408508300781 78.13829040527344 L 292.5278625488281 91.30430603027344 z" fill="none" stroke="#000000"/><path d="M 114.50635528564453 27.645492553710938 L 109.5463638305664 31.875473022460938 L 109.5463638305664 31.875473022460938 L 110.73236846923828 38.28349304199219 L 110.73236846923828 38.28349304199219 L 116.8743667602539 40.46446228027344 L 116.8743667602539 40.46446228027344 L 121.83435821533203 36.23149108886719 L 121.83435821533203 36.23149108886719 L 120.65137481689453 29.822433471679688 L 120.65137481689453 29.822433471679688 L 114.50635528564453 27.645492553710938 z" fill="none" stroke="#000000"/><path d="M 141.67494201660156 214.1785430908203 L 146.6359405517578 209.94754028320312 L 146.6359405517578 209.94754028320312 L 145.45094299316406 203.54054260253906 L 145.45094299316406 203.54054260253906 L 139.3069305419922 201.3595428466797 L 139.3069305419922 201.3595428466797 L 134.34693908691406 205.592529296875 L 134.34693908691406 205.592529296875 L 135.5299530029297 212.0015411376953 L 135.5299530029297 212.0015411376953 L 141.67494201660156 214.1785430908203 z" fill="none" stroke="#000000"/><path d="M 160.107421875 123.64449310302734 L 165.06642150878906 119.41548919677734 L 165.06642150878906 119.41548919677734 L 163.88241577148438 113.0084457397461 L 163.88241577148438 113.0084457397461 L 157.73841857910156 110.8264389038086 L 157.73841857910156 110.8264389038086 L 152.7794189453125 115.0594711303711 L 152.7794189453125 115.0594711303711 L 153.96142578125 121.46846771240234 L 153.96142578125 121.46846771240234 L 160.107421875 123.64449310302734 z" fill="none" stroke="#000000"/><path d="M 202.86343383789062 57.367156982421875 L 198.63442993164062 52.407135009765625 L 198.63442993164062 52.407135009765625 L 192.22640991210938 53.5931396484375 L 192.22640991210938 53.5931396484375 L 190.04544067382812 59.73614501953125 L 190.04544067382812 59.73614501953125 L 194.27743530273438 64.69512939453125 L 194.27743530273438 64.69512939453125 L 200.68746948242188 63.51214599609375 L 200.68746948242188 63.51214599609375 L 202.86343383789062 57.367156982421875 z" fill="none" stroke="#000000"/><path d="M 208.69960021972656 4.959232330322266 L 204.4685821533203 0.00024814842618070543 L 204.4685821533203 0.00024814842618070543 L 198.0615997314453 1.1852457523345947 L 198.0615997314453 1.1852457523345947 L 195.8805694580078 7.327213287353516 L 195.8805694580078 7.327213287353516 L 200.1136016845703 12.287235260009766 L 200.1136016845703 12.287235260009766 L 206.52259826660156 11.104251861572266 L 206.52259826660156 11.104251861572266 L 208.69960021972656 4.959232330322266 z" fill="none" stroke="#000000"/><path d="M 223.0292510986328 229.66680908203125 L 218.7985382080078 224.705810546875 L 218.7985382080078 224.705810546875 L 212.3890380859375 225.88580322265625 L 212.3890380859375 225.88580322265625 L 210.2102508544922 232.03179931640625 L 210.2102508544922 232.03179931640625 L 214.4410400390625 236.9918212890625 L 214.4410400390625 236.9918212890625 L 220.8505401611328 235.8057861328125 L 220.8505401611328 235.8057861328125 L 223.0292510986328 229.66680908203125 z" fill="none" stroke="#000000"/><path d="M 181.05426025390625 89.05754089355469 L 186.0142822265625 84.82853698730469 L 186.0142822265625 84.82853698730469 L 184.8282470703125 78.42152404785156 L 184.8282470703125 78.42152404785156 L 178.686279296875 76.24052429199219 L 178.686279296875 76.24052429199219 L 173.72625732421875 80.47154235839844 L 173.72625732421875 80.47154235839844 L 174.90826416015625 86.88252258300781 L 174.90826416015625 86.88252258300781 L 181.05426025390625 89.05754089355469 z" fill="none" stroke="#000000"/><path d="M 236.30804443359375 189.81410217285156 L 231.34805297851562 194.04310607910156 L 231.34805297851562 194.04310607910156 L 232.53404235839844 200.4501495361328 L 232.53404235839844 200.4501495361328 L 238.67604064941406 202.6321563720703 L 238.67604064941406 202.6321563720703 L 243.63604736328125 198.3991241455078 L 243.63604736328125 198.3991241455078 L 242.4530487060547 191.99012756347656 L 242.4530487060547 191.99012756347656 L 236.30804443359375 189.81410217285156 z" fill="none" stroke="#000000"/><path d="M 261.2635192871094 135.85446166992188 L 265.4925231933594 140.81546020507812 L 265.4925231933594 140.81546020507812 L 271.8995056152344 139.62844848632812 L 271.8995056152344 139.62844848632812 L 274.0804748535156 133.48641967773438 L 274.0804748535156 133.48641967773438 L 269.8484802246094 128.52743530273438 L 269.8484802246094 128.52743530273438 L 263.4385070800781 129.70944213867188 L 263.4385070800781 129.70944213867188 L 261.2635192871094 135.85446166992188 z" fill="none" stroke="#000000"/><path d="M 300.252685546875 12.818239212036133 L 305.21270751953125 8.588258743286133 L 305.21270751953125 8.588258743286133 L 304.0276794433594 2.181276321411133 L 304.0276794433594 2.181276321411133 L 297.88470458984375 0.0002461468684487046 L 297.88470458984375 0.0002461468684487046 L 292.9256896972656 4.232240676879883 L 292.9256896972656 4.232240676879883 L 294.10870361328125 10.641237258911133 L 294.10870361328125 10.641237258911133 L 300.252685546875 12.818239212036133 z" fill="none" stroke="#000000"/><path d="M 298.56256103515625 233.11474609375 L 293.60357666015625 237.34375 L 293.60357666015625 237.34375 L 294.78955078125 243.75177001953125 L 294.78955078125 243.75177001953125 L 300.9305725097656 245.9317626953125 L 300.9305725097656 245.9317626953125 L 305.8915710449219 241.70074462890625 L 305.8915710449219 241.70074462890625 L 304.70855712890625 235.290771484375 L 304.70855712890625 235.290771484375 L 298.56256103515625 233.11474609375 z" fill="none" stroke="#000000"/><path d="M 301.3058166503906 212.24351501464844 L 306.26483154296875 208.01351928710938 L 306.26483154296875 208.01351928710938 L 305.079833984375 201.6065216064453 L 305.079833984375 201.6065216064453 L 298.9378356933594 199.4252166748047 L 298.9378356933594 199.4252166748047 L 293.9778137207031 203.65850830078125 L 293.9778137207031 203.65850830078125 L 295.16082763671875 210.06752014160156 L 295.16082763671875 210.06752014160156 L 301.3058166503906 212.24351501464844 z" fill="none" stroke="#000000"/><path d="M 299.1236877441406 12.41834831237793 L 294.1636657714844 16.648359298706055 L 294.1636657714844 16.648359298706055 L 295.3436584472656 23.057355880737305 L 295.3436584472656 23.057355880737305 L 301.4886779785156 25.236371994018555 L 301.4886779785156 25.236371994018555 L 306.4486999511719 21.00636100769043 L 306.4486999511719 21.00636100769043 L 305.2626647949219 14.596357345581055 L 305.2626647949219 14.596357345581055 L 299.1236877441406 12.41834831237793 z" fill="none" stroke="#000000"/><path d="M 299.3399353027344 26.714231491088867 L 294.3809509277344 30.945219039916992 L 294.3809509277344 30.945219039916992 L 295.5609436035156 37.354217529296875 L 295.5609436035156 37.354217529296875 L 301.7059326171875 39.533233642578125 L 301.7059326171875 39.533233642578125 L 306.66595458984375 35.30322265625 L 306.66595458984375 35.30322265625 L 305.4799499511719 28.893217086791992 L 305.4799499511719 28.893217086791992 L 299.3399353027344 26.714231491088867 z" fill="none" stroke="#000000"/><path d="M 301.7541809082031 188.9232635498047 L 306.71417236328125 184.6932830810547 L 306.71417236328125 184.6932830810547 L 305.5341796875 178.28428649902344 L 305.5341796875 178.28428649902344 L 299.3891906738281 176.1052703857422 L 299.3891906738281 176.1052703857422 L 294.4281921386719 180.3352508544922 L 294.4281921386719 180.3352508544922 L 295.61517333984375 186.7452850341797 L 295.61517333984375 186.7452850341797 L 301.7541809082031 188.9232635498047 z" fill="none" stroke="#000000"/><path d="M 307.90234375 131.84669494628906 L 303.67333984375 126.88670349121094 L 303.67333984375 126.88670349121094 L 297.26336669921875 128.0677032470703 L 297.26336669921875 128.0677032470703 L 295.0843505859375 134.2117156982422 L 295.0843505859375 134.2117156982422 L 299.3143310546875 139.1717071533203 L 299.3143310546875 139.1717071533203 L 305.724365234375 137.98570251464844 L 305.724365234375 137.98570251464844 L 307.90234375 131.84669494628906 z" fill="none" stroke="#000000"/><path d="M 300.8842468261719 138.88088989257812 L 295.9252624511719 143.10891723632812 L 295.9252624511719 143.10891723632812 L 297.1082458496094 149.51889038085938 L 297.1082458496094 149.51889038085938 L 303.250244140625 151.69692993164062 L 303.250244140625 151.69692993164062 L 308.21026611328125 147.46694946289062 L 308.21026611328125 147.46694946289062 L 307.0272521972656 141.05691528320312 L 307.0272521972656 141.05691528320312 L 300.8842468261719 138.88088989257812 z" fill="none" stroke="#000000"/><path d="M 296.78057861328125 218.81968688964844 L 301.007568359375 223.7797088623047 L 301.007568359375 223.7797088623047 L 307.41656494140625 222.5967254638672 L 307.41656494140625 222.5967254638672 L 309.5965576171875 216.45372009277344 L 309.5965576171875 216.45372009277344 L 305.36553955078125 211.4946746826172 L 305.36553955078125 211.4946746826172 L 298.95452880859375 212.67771911621094 L 298.95452880859375 212.67771911621094 L 296.78057861328125 218.81968688964844 z" fill="none" stroke="#000000"/><path d="M 311.2398681640625 43.51240921020508 L 307.01287841796875 38.55339431762695 L 307.01287841796875 38.55339431762695 L 300.6028747558594 39.73640823364258 L 300.6028747558594 39.73640823364258 L 298.42486572265625 45.8784065246582 L 298.42486572265625 45.8784065246582 L 302.6548767089844 50.83839797973633 L 302.6548767089844 50.83839797973633 L 309.06488037109375 49.65639114379883 L 309.06488037109375 49.65639114379883 L 311.2398681640625 43.51240921020508 z" fill="none" stroke="#000000"/><path d="M 305.99493408203125 63.91779327392578 L 310.95391845703125 59.69080352783203 L 310.95391845703125 59.69080352783203 L 309.77093505859375 53.28076934814453 L 309.77093505859375 53.28076934814453 L 303.6299133300781 51.10279083251953 L 303.6299133300781 51.10279083251953 L 298.6689147949219 55.33277130126953 L 298.6689147949219 55.33277130126953 L 299.8519287109375 61.74079132080078 L 299.8519287109375 61.74079132080078 L 305.99493408203125 63.91779327392578 z" fill="none" stroke="#000000"/><path d="M 299.1546630859375 229.8627471923828 L 303.3824768066406 234.82176208496094 L 303.3824768066406 234.82176208496094 L 309.7919616699219 233.6387481689453 L 309.7919616699219 233.6387481689453 L 311.9706726074219 227.4967498779297 L 311.9706726074219 227.4967498779297 L 307.7407531738281 222.53675842285156 L 307.7407531738281 222.53675842285156 L 301.3312683105469 223.71974182128906 L 301.3312683105469 223.71974182128906 L 299.1546630859375 229.8627471923828 z" fill="none" stroke="#000000"/><path d="M 306.4801330566406 163.7758331298828 L 311.43914794921875 159.54884338378906 L 311.43914794921875 159.54884338378906 L 310.2561340332031 153.1388397216797 L 310.2561340332031 153.1388397216797 L 304.1141357421875 150.95985412597656 L 304.1141357421875 150.95985412597656 L 299.1561279296875 155.1908416748047 L 299.1561279296875 155.1908416748047 L 300.338134765625 161.60084533691406 L 300.338134765625 161.60084533691406 L 306.4801330566406 163.7758331298828 z" fill="none" stroke="#000000"/><path d="M 19.400754928588867 5.617082595825195 L 23.291746139526367 5.617082595825195 L 23.291746139526367 5.617082595825195 L 23.291746139526367 27.790117263793945 L 23.291746139526367 27.790117263793945 L 19.400754928588867 27.790117263793945" fill="none" stroke="#000000"/><path d="M 175.87225341796875 50.51078796386719 L 175.87225341796875 72.68328857421875 L 175.87225341796875 72.68328857421875 L 179.76324462890625 72.68328857421875 L 179.76324462890625 72.68328857421875 L 179.76324462890625 50.51078796386719 L 179.76324462890625 50.51078796386719 L 175.87225341796875 50.51078796386719 z" fill="none" stroke="#000000"/><path d="M 225.57028198242188 97.61280059814453 L 229.46127319335938 97.61280059814453 L 229.46127319335938 97.61280059814453 L 229.46127319335938 119.78681182861328 L 229.46127319335938 119.78681182861328 L 225.57028198242188 119.78681182861328" fill="none" stroke="#000000"/><path d="M 80.7402114868164 129.5043487548828 L 73.36222076416016 129.07337951660156 L 73.36222076416016 129.07337951660156 L 73.5901870727539 119.5833969116211 L 73.5901870727539 119.5833969116211 L 81.6152114868164 119.5833969116211 L 81.6152114868164 119.5833969116211 L 80.7402114868164 129.5043487548828 z" fill="none" stroke="#000000"/><path d="M 90.32623291015625 214.8892822265625 L 89.89523315429688 222.26727294921875 L 89.89523315429688 222.26727294921875 L 80.40524291992188 222.03927612304688 L 80.40524291992188 222.03927612304688 L 80.40524291992188 214.0142822265625 L 80.40524291992188 214.0142822265625 L 90.32623291015625 214.8892822265625 z" fill="none" stroke="#000000"/><path d="M 111.4432144165039 159.6597137451172 L 111.8742446899414 152.28172302246094 L 111.8742446899414 152.28172302246094 L 121.36322784423828 152.5087127685547 L 121.36322784423828 152.5087127685547 L 121.36322784423828 160.5347137451172 L 121.36322784423828 160.5347137451172 L 111.4432144165039 159.6597137451172 z" fill="none" stroke="#000000"/><path d="M 143.3407745361328 45.7666130065918 L 143.77174377441406 38.38862228393555 L 143.77174377441406 38.38862228393555 L 153.26075744628906 38.61661911010742 L 153.26075744628906 38.61661911010742 L 153.26075744628906 46.6416130065918 L 153.26075744628906 46.6416130065918 L 143.3407745361328 45.7666130065918 z" fill="none" stroke="#000000"/><path d="M 141.73619079589844 224.0977783203125 L 134.3582000732422 223.66778564453125 L 134.3582000732422 223.66778564453125 L 134.58718872070312 214.17779541015625 L 134.58718872070312 214.17779541015625 L 142.61219787597656 214.17779541015625 L 142.61219787597656 214.17779541015625 L 141.73619079589844 224.0977783203125 z" fill="none" stroke="#000000"/><path d="M 191.04664611816406 219.8453826904297 L 190.8186492919922 229.3353729248047 L 190.8186492919922 229.3353729248047 L 198.19664001464844 229.76536560058594 L 198.19664001464844 229.76536560058594 L 199.07164001464844 219.8453826904297" fill="none" stroke="#000000"/><path d="M 198.37196350097656 74.61508178710938 L 190.9929656982422 74.18411254882812 L 190.9929656982422 74.18411254882812 L 191.22096252441406 64.69509887695312 L 191.22096252441406 64.69509887695312 L 199.24595642089844 64.69509887695312 L 199.24595642089844 64.69509887695312 L 198.37196350097656 74.61508178710938 z" fill="none" stroke="#000000"/><path d="M 217.7109375 35.12408447265625 L 218.14093017578125 27.747068405151367 L 218.14093017578125 27.747068405151367 L 227.63092041015625 27.974058151245117 L 227.63092041015625 27.974058151245117 L 227.63092041015625 36.00006103515625 L 227.63092041015625 36.00006103515625 L 217.7109375 35.12408447265625 z" fill="none" stroke="#000000"/><path d="M 241.22775268554688 252.73252868652344 L 233.84976196289062 252.30149841308594 L 233.84976196289062 252.30149841308594 L 234.0777587890625 242.8125457763672 L 234.0777587890625 242.8125457763672 L 242.10275268554688 242.8125457763672 L 242.10275268554688 242.8125457763672 L 241.22775268554688 252.73252868652344 z" fill="none" stroke="#000000"/><path d="M 237.55039978027344 28.12124252319336 L 237.1190948486328 35.499263763427734 L 237.1190948486328 35.499263763427734 L 227.63088989257812 35.270259857177734 L 227.63088989257812 35.270259857177734 L 227.63088989257812 27.24526596069336 L 227.63088989257812 27.24526596069336 L 237.55039978027344 28.12124252319336 z" fill="none" stroke="#000000"/><path d="M 241.37518310546875 253.55123901367188 L 241.80618286132812 246.17425537109375 L 241.80618286132812 246.17425537109375 L 251.29519653320312 246.4012451171875 L 251.29519653320312 246.4012451171875 L 251.29519653320312 254.42623901367188 L 251.29519653320312 254.42623901367188 L 241.37518310546875 253.55123901367188 z" fill="none" stroke="#000000"/><path d="M 253.07298278808594 160.82736206054688 L 252.6439666748047 168.20535278320312 L 252.6439666748047 168.20535278320312 L 243.15296936035156 167.97335815429688 L 243.15296936035156 167.97335815429688 L 243.15296936035156 159.95236206054688 L 243.15296936035156 159.95236206054688 L 253.07298278808594 160.82736206054688 z" fill="none" stroke="#000000"/><path d="M 261.2138977050781 244.85060119628906 L 260.7859191894531 252.2285919189453 L 260.7859191894531 252.2285919189453 L 251.29495239257812 251.99559020996094 L 251.29495239257812 251.99559020996094 L 251.29495239257812 243.97560119628906 L 251.29495239257812 243.97560119628906 L 261.2138977050781 244.85060119628906 z" fill="none" stroke="#000000"/><path d="M 278.9018859863281 147.1121063232422 L 278.6709289550781 156.6031036376953 L 278.6709289550781 156.6031036376953 L 286.0478820800781 157.03111267089844 L 286.0478820800781 157.03111267089844 L 286.9219055175781 147.1121063232422" fill="none" stroke="#000000"/><path d="M 272.9698181152344 209.74673461914062 L 272.54071044921875 217.12374877929688 L 272.54071044921875 217.12374877929688 L 263.0503234863281 216.89175415039062 L 263.0503234863281 216.89175415039062 L 263.0503234863281 208.87173461914062 L 263.0503234863281 208.87173461914062 L 272.9698181152344 209.74673461914062 z" fill="none" stroke="#000000"/><path d="M 299.1551513671875 170.98492431640625 L 299.58416748046875 163.60691833496094 L 299.58416748046875 163.60691833496094 L 309.0751953125 163.8399200439453 L 309.0751953125 163.8399200439453 L 309.0751953125 171.85992431640625 L 309.0751953125 171.85992431640625 L 299.1551513671875 170.98492431640625 z" fill="none" stroke="#000000"/><path d="M 307.315185546875 123.7398681640625 L 300.3581848144531 123.7398681640625 L 300.3581848144531 123.7398681640625 L 300.1672058105469 113.81982421875 L 300.1672058105469 113.81982421875 L 308.1911926269531 113.81982421875 L 308.1911926269531 113.81982421875 L 307.315185546875 123.7398681640625 z" fill="none" stroke="#000000"/><path d="M 308.6011962890625 73.83753204345703 L 301.64520263671875 73.83753204345703 L 301.64520263671875 73.83753204345703 L 301.4532165527344 63.91852569580078 L 301.4532165527344 63.91852569580078 L 309.4772033691406 63.91852569580078 L 309.4772033691406 63.91852569580078 L 308.6011962890625 73.83753204345703 z" fill="none" stroke="#000000"/><path d="M 310.5865478515625 246.78375244140625 L 310.5865478515625 253.73974609375 L 310.5865478515625 253.73974609375 L 300.66754150390625 253.9317626953125 L 300.66754150390625 253.9317626953125 L 300.66754150390625 245.90875244140625 L 300.66754150390625 245.90875244140625 L 310.5865478515625 246.78375244140625 z" fill="none" stroke="#000000"/><path d="M 275.49609375 63.10157775878906 L 282.45208740234375 63.10157775878906 L 282.45208740234375 63.10157775878906 L 282.6440734863281 73.02159118652344 L 282.6440734863281 73.02159118652344 L 274.62109375 73.02159118652344 L 274.62109375 73.02159118652344 L 275.49609375 63.10157775878906 z" fill="none" stroke="#000000"/><path d="M 313.0650634765625 94.60594177246094 L 313.0650634765625 101.56193542480469 L 313.0650634765625 101.56193542480469 L 303.14605712890625 101.75395202636719 L 303.14605712890625 101.75395202636719 L 303.14605712890625 93.73094177246094 L 303.14605712890625 93.73094177246094 L 313.0650634765625 94.60594177246094 z" fill="none" stroke="#000000"/><path d="M 311.78173828125 111.64478302001953 L 304.82574462890625 111.64478302001953 L 304.82574462890625 111.64478302001953 L 304.6347351074219 101.72480010986328 L 304.6347351074219 101.72480010986328 L 312.65673828125 101.72480010986328 L 312.65673828125 101.72480010986328 L 311.78173828125 111.64478302001953 z" fill="none" stroke="#000000"/><path d="M 304.4685363769531 80.87318420410156 L 304.4685363769531 73.91719055175781 L 304.4685363769531 73.91719055175781 L 314.3880310058594 73.72618103027344 L 314.3880310058594 73.72618103027344 L 314.3880310058594 81.74919128417969 L 314.3880310058594 81.74919128417969 L 304.4685363769531 80.87318420410156 z" fill="none" stroke="#000000"/><path d="M 315.02783203125 0.8760378360748293 L 315.02783203125 7.831024169921875 L 315.02783203125 7.831024169921875 L 305.10784912109375 8.023040771484375 L 305.10784912109375 8.023040771484375 L 305.10784912109375 0.00003074960841331632 L 305.10784912109375 0.00003074960841331631 L 315.02783203125 0.8760378360748291 z" fill="none" stroke="#000000"/><path d="M 305.2847900390625 202.71685791015625 L 305.2847900390625 195.75985717773438 L 305.2847900390625 195.75985717773438 L 315.20379638671875 195.56985473632812 L 315.20379638671875 195.56985473632812 L 315.20379638671875 203.59286499023438 L 315.20379638671875 203.59286499023438 L 305.2847900390625 202.71685791015625 z" fill="none" stroke="#000000"/><path d="M 305.3331604003906 14.974469184875488 L 305.3331604003906 8.018475532531738 L 305.3331604003906 8.018475532531738 L 315.2521667480469 7.826474189758301 L 315.2521667480469 7.826474189758301 L 315.2521667480469 15.849469184875488 L 315.2521667480469 15.849469184875488 L 305.3331604003906 14.974469184875488 z" fill="none" stroke="#000000"/><path d="M 305.39324951171875 28.862180709838867 L 305.39324951171875 21.907163619995117 L 305.39324951171875 21.907163619995117 L 315.312255859375 21.715208053588867 L 315.312255859375 21.715208053588867 L 315.312255859375 29.737180709838867 L 315.312255859375 29.737180709838867 L 305.39324951171875 28.862180709838867 z" fill="none" stroke="#000000"/><path d="M -0.0004901820211679392 54.7713508605957 L -0.0004901820211649293 5.617326736450195 L -0.0004901820211671293 5.617326736450195 L 30.882948600000002 5.617326736450195" fill="none" stroke="#000000"/></svg>