<svg xmlns="http://www.w3.org/2000/svg" width="5.331478966666666in" height="3.887067540277778in" viewBox="0 0 383.8664856 279.8688629"><g/><g/><g/><g/><g/><g/><g/><g/><g/><g/><g/><g/><g/><g/><g/><g/><g/><g/><g/><g/><g/><g/><g/><g/><g/><g/><g/><g/><g/><g/><g/><g/><g/><g/><g/><g/><g/><g/><g/><g/><g/><g/><g/><g/><g/><g/><g/><g/><g/><g/><g/><g/><g/><g/><g/><g/><g/><g/><g/><g/><g/><g/><g/><g/><g/><g/><g/><g/><g/><g/><g/><g/><g/><g/><g/><g/><g/><g/><g/><g/><g/><g/><g/><g/><g/><g/><g/><g/><g/><g/><g/><g/><g/><g/><g/><g/><g/><g/><g/><g/><g/><g/><g/><g/><g/><g/><g/><g/><g/><g/><g/><g/><g/><g/><g/><g/><g/><g/><g/><g/><g/><g/><g/><g/><g/><g/><g/><g/><g/><g/><g/><g/><g/><g/><g/><g/><g/><g/><g/><g/><g/><g/><g/><g/><g/><g/><g/><g/><g/><g/><g/><g/><g/><g/><g/><path fill="none" stroke="#000000" d="M 0.9278424000000314 181.4146323 C 0.8700924000000896 179.68138229999997 2.1405924000000596 178.2946323 4.162592400000108 178.2946323 C 5.953592400000048 178.2946323 7.224092400000018 179.68138229999997 7.224092400000018 181.4146323 C 7.224092400000018 183.2056323 5.895842400000106 184.5916323 4.047092399999997 184.5916323 C 2.1405924000001733 184.59238229999997 0.9278424000000314 183.2056323 0.9278424000000314 181.4146323 z"/><path fill="none" stroke="#000000" d="M 7.632852599999978 101.5572953 C 7.69060259999992 103.2905453 6.419352599999911 104.67729530000001 4.398102600000016 104.67729530000001 C 2.606352599999923 104.67729530000001 1.3358525999999529 103.2905453 1.3358525999999529 101.5572953 C 1.3358525999999529 99.76629530000001 2.6641025999999783 98.3802953 4.512852599999974 98.3802953 C 6.418602599999872 98.3795453 7.632852599999978 99.76629530000001 7.632852599999978 101.5572953 z"/><line x1="77.21139526367188" x2="77.21139526367188" y1="250.23301696777344" y2="254.12400817871094" fill="none" stroke="#000000"/><path fill="none" stroke="#000000" d="M 282.0679474 108.04719030000001 L 282.0679474 102.96369030000005 L 282.0679474 102.96369030000005 L 265.1989474 102.96369030000005 L 265.1989474 102.96369030000005 C 264.2164474 102.96369030000005 263.4656974 102.9059403 262.77269739999997 102.61719029999995 C 259.9999474 101.69244029999993 257.6891974 99.09294030000001 257.6891974 95.80044029999999 C 257.6891974 91.00494029999993 261.5021974 89.33019030000003 266.0081974 89.33019030000003 L 266.0081974 89.33019030000003 L 282.0686974 89.33019030000003 L 282.0686974 89.33019030000003 L 282.0686974 84.24669029999995 L 282.0686974 84.24669029999995 L 265.4306974 84.24669029999995 L 265.4306974 84.24669029999995 C 255.7834474 84.24669029999995 253.4726974 90.25494030000004 253.4726974 94.01019029999998 C 253.4726974 95.9159403000001 254.0501974 97.70769030000008 254.9171974 99.20919030000005 C 255.7834474 100.76994029999992 257.05394739999997 102.0404403 258.4984474 102.84894029999998 L 258.4984474 102.84894029999998 L 258.4984474 102.96444029999998 L 258.4984474 102.96444029999998 L 241.0519474 102.96444029999998 L 241.0519474 102.96444029999998 L 241.0519474 108.04794029999994 L 241.0519474 108.04794029999994 L 241.0519474 108.04719030000001"/><path fill="none" stroke="#000000" d="M 158.43444369999997 226.64929889999996 C 156.46944370000006 225.49354889999995 153.63894370000003 224.74279889999997 150.5774437 224.74279889999997 C 143.9339437 224.74279889999997 140.12169369999992 228.20929889999996 140.12169369999992 233.11954889999996 C 140.12169369999992 237.27904889999996 142.60494370000004 239.70529889999997 147.45819370000004 241.55404889999997 C 151.0979437000001 242.94079889999998 152.7726937 243.98029889999995 152.7726937 246.29104889999996 C 152.7726937 248.37079889999995 151.09794369999997 250.10404889999995 148.09344369999997 250.10404889999995 C 145.49394370000005 250.10404889999998 143.4719437 249.17929889999996 142.37469369999997 248.48629889999998 L 142.37469369999997 248.48629889999998 L 141.10344369999996 252.18379889999997 L 141.10344369999996 252.18379889999997 C 142.66344370000002 253.10854889999996 145.14819369999998 253.91704889999997 147.97794369999997 253.91704889999997 C 153.98619370000006 253.91704889999997 157.6259437 250.21954889999995 157.6259437 245.71354889999998 C 157.6259437 242.36254889999998 155.25744370000007 239.58979889999998 150.23169370000005 237.79879889999998 C 146.4764437 236.41279889999998 145.03194370000006 235.08379889999998 145.03194370000006 232.65754889999997 C 145.03194370000006 230.34679889999998 146.76444370000002 228.49804889999996 150.4619437 228.49804889999996 C 153.00444370000002 228.49804889999996 155.6616937 229.53754889999996 157.1639437 230.52004889999998 L 157.1639437 230.52004889999998 L 158.43444369999997 226.64929889999996 z"/><path fill="none" stroke="#000000" d="M 249.53662519999997 248.02265510000007 L 290.5533752 248.02265510000007 L 290.5533752 248.02265510000007 L 290.5533752 242.99690510000005 L 290.5533752 242.99690510000005 L 280.0391252 242.99690510000005 L 280.0391252 242.99690510000005 L 277.1501252 240.39740510000001 L 277.1501252 240.39740510000001 L 290.55262519999997 230.7494051 L 290.55262519999997 230.7494051 L 290.55262519999997 224.5686551 L 290.55262519999997 224.5686551 L 274.0878752 236.87315509999996 L 274.0878752 236.87315509999996 L 262.5918752 226.0709051 L 262.5918752 226.0709051 L 262.5918752 232.19390510000005 L 262.5918752 232.19390510000005 L 272.2391252 240.39740510000001 L 272.2391252 240.39740510000001 C 273.2216252 241.20665510000003 274.4343752 242.18840510000007 275.4168752 242.88140510000005 L 275.4168752 242.88140510000005 L 275.4168752 242.99690510000005 L 275.4168752 242.99690510000005 L 249.53662519999997 242.99690510000005"/><path fill="none" stroke="#000000" d="M 251.40296950000004 32.73383189999999 C 253.4257195 31.752081899999993 256.5449695 31.116081899999998 259.6064695 31.11608189999999 C 269.0812195000001 31.11608189999999 274.5689695000001 37.23983189999998 274.5689695000001 46.77158189999999 C 274.5689695000001 56.99708189999998 268.50296949999995 62.832081899999984 259.3754695 62.832081899999984 C 256.1399695 62.832081899999984 253.4249695000001 62.13833189999998 251.51846950000004 61.21433189999999 L 251.51846950000004 61.21433189999999 L 250.3057195 65.31608189999999 L 250.3057195 65.31608189999999 C 251.63396950000003 66.00908189999998 254.69546949999994 67.04933189999998 259.54871950000006 67.04933189999998 C 271.6214695000001 67.04933189999998 279.88346950000005 58.787331899999984 279.88346950000005 46.598331899999984 C 279.88346950000005 33.83108189999999 271.6222195 26.898831899999983 260.6459695000001 26.898831899999983 C 255.9089695 26.89883189999999 252.21146950000002 27.823581899999994 250.36271950000003 28.747581899999993 L 250.36271950000003 28.747581899999993 L 251.40296950000004 32.73383189999999 z"/><path fill="none" stroke="#000000" d="M 278.95314920000015 221.5483949 C 277.51014920000017 222.1843949 275.6036492000001 222.93514489999998 272.7146492000001 222.93514489999998 C 267.16914920000016 222.93514489999998 263.00964920000007 218.9488949 263.00964920000007 212.4786449 C 263.00964920000007 206.6436449 266.4761492000002 201.9066449 272.8886492000001 201.9066449 C 275.66139920000006 201.9066449 277.5678992000001 202.5418949 278.78064920000014 203.2348949 L 278.78064920000014 203.2348949 L 279.93639920000015 199.3063949 L 279.93639920000015 199.3063949 C 278.54964920000015 198.6133949 275.89239920000006 197.8626449 272.8886492000001 197.8626449 C 263.7603992000001 197.8626449 257.86839920000006 204.10114489999998 257.86839920000006 212.7088949 C 257.86839920000006 221.2588949 263.35614920000006 226.97839489999998 271.7906492 226.97839489999998 C 275.54589920000006 226.97839489999998 278.49264920000013 226.05439489999998 279.82089920000004 225.36064489999998 L 279.82089920000004 225.36064489999998 L 278.95314920000015 221.5483949 z"/><path d="M -0.00024161297187674796 90.7547607421875 L 14.0037260055542 58.43374252319336 L 14.0037260055542 58.43374252319336 L 32.678775787353516 -0.0002466819423716516 L 32.678775787353516 -0.0002466819423716516 L 37.733768463134766 93.71774291992188 L 37.733768463134766 93.71774291992188 L 16.727724075317383 114.42974853515625 L 16.727724075317383 114.42974853515625 L -0.0002416129718767479 90.7547607421875 z" fill="none" stroke="#000000"/><path d="M 75.30838775634766 93.71701049804688 L 54.30237579345703 114.42800903320312 L 54.30237579345703 114.42800903320312 L 37.574378967285156 90.75399780273438 L 37.574378967285156 90.75399780273438 L 51.57837677001953 58.4329948425293 L 51.57837677001953 58.4329948425293 L 70.25238800048828 -0.0000024062501324806362 L 70.25238800048828 -0.000002406250146691491 L 76.42581955489341 114.4295056208209" fill="none" stroke="#000000"/><path d="M 71.370849609375 20.711488723754883 L 92.3768310546875 0.0004911304567940533 L 92.3768310546875 0.0004911304567940533 L 109.10382080078125 23.675477981567383 L 109.10382080078125 23.675477981567383 L 95.100830078125 55.995487213134766 L 95.100830078125 55.995487213134766 L 76.42584228515625 114.42950439453125" fill="none" stroke="#000000"/><path d="M 29.85441780090332 180.4908447265625 L 29.85441780090332 135.94583129882812 L 29.85441780090332 135.94583129882812 L 13.354418754577637 135.94583129882812 L 13.354418754577637 135.94583129882812 L 38.60391616821289 92.21084594726562 L 38.60391616821289 92.21084594726562 L 63.85411834716797 135.94583129882812 L 63.85411834716797 135.94583129882812 L 47.35411834716797 135.94583129882812 L 47.35411834716797 135.94583129882812 L 47.35411834716797 180.4908447265625 L 47.35411834716797 180.4908447265625 L 29.85441780090332 180.4908447265625 z" fill="none" stroke="#000000"/><path d="M 100.47247314453125 116.84812927246094 L 99.11146545410156 136.1041717529297 L 99.11146545410156 136.1041717529297 L 106.63246154785156 140.67613220214844 L 106.63246154785156 140.67613220214844 L 101.44447326660156 157.49913024902344 L 101.44447326660156 157.49913024902344 L 83.55046081542969 167.61314392089844 L 83.55046081542969 167.61314392089844 L 61.52046203613281 145.0531463623047 L 61.52046203613281 145.0531463623047 L 69.54347229003906 113.73716735839844 L 69.54347229003906 113.73716735839844 L 120.8828931919317 118.90109049536635" fill="none" stroke="#000000"/><path d="M 76.5855941772461 209.2272186279297 L 99.14659881591797 187.19822692871094 L 99.14659881591797 187.19822692871094 L 89.03260040283203 169.30421447753906 L 89.03260040283203 169.30421447753906 L 72.20960235595703 164.11622619628906 L 72.20960235595703 164.11622619628906 L 67.63660430908203 171.63722229003906 L 67.63660430908203 171.63722229003906 L 48.38159942626953 170.2752227783203 L 48.38159942626953 170.2752227783203 L 45.270606994628906 201.20420837402344 L 45.270606994628906 201.20420837402344 L 89.26760737314214 212.47639517452998" fill="none" stroke="#000000"/><path d="M 8.023258209228516 178.29441833496094 L 38.951236724853516 181.40541076660156 L 38.951236724853516 181.40541076660156 L 37.590213775634766 200.66139221191406 L 37.590213775634766 200.66139221191406 L 45.112247467041016 205.23341369628906 L 45.112247467041016 205.23341369628906 L 39.924259185791016 222.05641174316406 L 39.924259185791016 222.05641174316406 L 22.029239654541016 232.17039489746094 L 22.029239654541016 232.17039489746094 L 0.0002474945213180036 209.60939025878906 L 0.00024749452131800354 209.60939025878906 L 8.023258209228516 178.29441833496094 z" fill="none" stroke="#000000"/><path d="M 57.95167922973633 204.45323181152344 L 35.39168167114258 226.4822235107422 L 35.39168167114258 226.4822235107422 L 45.50569534301758 244.37620544433594 L 45.50569534301758 244.37620544433594 L 62.32869338989258 249.56422424316406 L 62.32869338989258 249.56422424316406 L 66.90065002441406 242.04322814941406 L 66.90065002441406 242.04322814941406 L 86.15669250488281 243.40321350097656 L 86.15669250488281 243.40321350097656 L 89.26765441894531 212.47621154785156" fill="none" stroke="#000000"/><path d="M 89.954833984375 115.7907485961914 L 91.31582641601562 96.53473663330078 L 91.31582641601562 96.53473663330078 L 83.79483032226562 91.9627456665039 L 83.79483032226562 91.9627456665039 L 88.98283386230469 75.1397476196289 L 88.98283386230469 75.1397476196289 L 106.8768310546875 65.02576446533203 L 106.8768310546875 65.02576446533203 L 128.90582275390625 87.58576202392578 L 128.90582275390625 87.58576202392578 L 120.88282775878906 118.90174102783203" fill="none" stroke="#000000"/><path d="M 89.26722717285156 212.47596740722656 L 108.52320861816406 213.8360137939453 L 108.52320861816406 213.8360137939453 L 113.09523010253906 206.31495666503906 L 113.09523010253906 206.31495666503906 L 129.91822814941406 211.5030059814453 L 129.91822814941406 211.5030059814453 L 140.03224182128906 229.39698791503906 L 140.03224182128906 229.39698791503906 L 117.47120666503906 251.4259796142578 L 117.47120666503906 251.4259796142578 L 86.15620422363281 243.40296936035156" fill="none" stroke="#000000"/><path d="M 127.15696716308594 154.38995361328125 L 146.82496643066406 178.45895385742188 L 146.82496643066406 178.45895385742188 L 132.2459716796875 191.1119384765625 L 132.2459716796875 191.1119384765625 L 134.33297729492188 199.6639404296875 L 134.33297729492188 199.6639404296875 L 118.76797485351562 207.89193725585938 L 118.76797485351562 207.89193725585938 L 98.96395874023438 202.38894653320312 L 98.96395874023438 202.38894653320312 L 99.34197998046875 170.85794067382812 L 99.34197998046875 170.85794067382812 L 127.15696716308594 154.38995361328125 z" fill="none" stroke="#000000"/><path d="M 132.92286682128906 16.429941177368164 L 152.5908660888672 40.4979362487793 L 152.5908660888672 40.4979362487793 L 138.01185607910156 53.15095138549805 L 138.01185607910156 53.15095138549805 L 140.1008758544922 61.70295333862305 L 140.1008758544922 61.70295333862305 L 124.53587341308594 69.92993927001953 L 124.53587341308594 69.92993927001953 L 104.72987365722656 64.42993927001953 L 104.72987365722656 64.42993927001953 L 105.10887145996094 32.8979606628418 L 105.10887145996094 32.8979606628418 L 132.92286682128906 16.429941177368164 z" fill="none" stroke="#000000"/><path d="M 146.27230834960938 103.86907196044922 L 165.93931579589844 127.93810272216797 L 165.93931579589844 127.93810272216797 L 151.36231994628906 140.5911102294922 L 151.36231994628906 140.5911102294922 L 153.44931030273438 149.1431121826172 L 153.44931030273438 149.1431121826172 L 137.8843231201172 157.37107849121094 L 137.8843231201172 157.37107849121094 L 118.0802993774414 151.8680877685547 L 118.0802993774414 151.8680877685547 L 118.45829010009766 120.33708953857422 L 118.45829010009766 120.33708953857422 L 146.27230834960938 103.86907196044922 z" fill="none" stroke="#000000"/><path d="M 159.19129943847656 111.03728485107422 L 137.57029724121094 99.04131317138672 L 137.57029724121094 99.04131317138672 L 142.5802764892578 49.18627166748047 L 142.5802764892578 49.18627166748047 L 177.0952911376953 55.99932098388672 L 177.0952911376953 55.99932098388672 L 159.19129943847656 111.03728485107422 z" fill="none" stroke="#000000"/><path d="M 195.64820861816406 201.75526428222656 L 183.65321350097656 223.3772735595703 L 183.65321350097656 223.3772735595703 L 133.79721069335938 218.3662567138672 L 133.79721069335938 218.3662567138672 L 140.61021423339844 183.8522491455078 L 140.61021423339844 183.8522491455078 L 195.64820861816406 201.75526428222656 z" fill="none" stroke="#000000"/><path d="M 207.29940795898438 168.81398010253906 L 195.30337524414062 190.43597412109375 L 195.30337524414062 190.43597412109375 L 145.44937133789062 185.4259796142578 L 145.44937133789062 185.4259796142578 L 152.26339721679688 150.91098022460938 L 152.26339721679688 150.91098022460938 L 207.29940795898438 168.81398010253906 z" fill="none" stroke="#000000"/><path d="M 185.37576293945312 161.68313598632812 L 163.75473022460938 149.68710327148438 L 163.75473022460938 149.68710327148438 L 168.76473999023438 99.83309936523438 L 168.76473999023438 99.83309936523438 L 203.27871704101562 106.64511108398438 L 203.27871704101562 106.64511108398438 L 185.37576293945312 161.68313598632812 z" fill="none" stroke="#000000"/><path d="M 187.64259338378906 61.850284576416016 L 166.0205841064453 49.854251861572266 L 166.0205841064453 49.854251861572266 L 171.03158569335938 0.000246669544139877 L 171.03158569335938 0.000246669544139877 L 205.5455780029297 6.813265323638916 L 205.5455780029297 6.813265323638916 L 187.64259338378906 61.850284576416016 z" fill="none" stroke="#000000"/><path d="M 164.70191955566406 94.09651184082031 L 176.6979522705078 72.47547912597656 L 176.6979522705078 72.47547912597656 L 226.5519561767578 77.48548889160156 L 226.5519561767578 77.48548889160156 L 219.7399444580078 112.00050354003906 L 219.7399444580078 112.00050354003906 L 164.70191955566406 94.09651184082031 z" fill="none" stroke="#000000"/><path d="M 188.60186767578125 254.42672729492188 L 249.536865234375 254.42672729492188 L 249.536865234375 254.42672729492188 L 249.536865234375 237.2127227783203 L 249.536865234375 237.2127227783203 L 215.98590087890625 237.2127227783203 L 215.98590087890625 237.2127227783203 L 188.60186767578125 214.4577178955078 L 188.60186767578125 214.4577178955078 L 188.60186767578125 254.42672729492188 z" fill="none" stroke="#000000"/><path d="M 250.30572509765625 56.53520965576172 L 250.30572509765625 96.50420379638672 L 250.30572509765625 96.50420379638672 L 222.92172241210938 73.74919891357422 L 222.92172241210938 73.74919891357422 L 189.3707275390625 73.74919891357422 L 189.3707275390625 73.74919891357422 L 189.3707275390625 56.53520965576172 L 189.3707275390625 56.53520965576172 L 263.3065490722656 56.53520965576172" fill="none" stroke="#000000"/><path d="M 207.20619201660156 168.98219299316406 L 207.20619201660156 229.9171905517578 L 207.20619201660156 229.9171905517578 L 224.41920471191406 229.9171905517578 L 224.41920471191406 229.9171905517578 L 224.41920471191406 196.36619567871094 L 224.41920471191406 196.36619567871094 L 247.17518615722656 168.98219299316406 L 247.17518615722656 168.98219299316406 L 207.20619201660156 168.98219299316406 z" fill="none" stroke="#000000"/><path d="M 263.3065490722656 56.53496551513672 L 263.3065490722656 39.32195281982422 L 263.3065490722656 39.32195281982422 L 229.75657653808594 39.32195281982422 L 229.75657653808594 39.32195281982422 L 202.3726043701172 16.56694793701172 L 202.3726043701172 16.56694793701172 L 202.3726043701172 56.53496551513672" fill="none" stroke="#000000"/><path d="M 260.48883056640625 108.04794311523438 L 237.7328338623047 135.43194580078125 L 237.7328338623047 135.43194580078125 L 237.7328338623047 168.98243713378906" fill="none" stroke="#000000"/><path d="M 220.5198211669922 168.98243713378906 L 220.5198211669922 108.04794311523438 L 220.5198211669922 108.04794311523438 L 282.0679474 108.04794311523438" fill="none" stroke="#000000"/><path d="M 230.5680389404297 211.16676330566406 L 247.68605041503906 209.03675842285156 L 247.68605041503906 209.03675842285156 L 245.35203552246094 171.17677307128906 L 245.35203552246094 171.17677307128906 L 258.57806396484375 200.1947479248047 L 258.57806396484375 200.1947479248047 L 256.2440490722656 241.32374572753906 L 256.2440490722656 241.32374572753906 L 232.1250457763672 226.5427703857422 L 232.1250457763672 226.5427703857422 L 230.5680389404297 211.16676330566406 z" fill="none" stroke="#000000"/><path d="M 243.49293518066406 0.0002450406318530441 L 245.6222381591797 17.11724853515625 L 245.6222381591797 17.11724853515625 L 283.4814453125 14.783265113830566 L 283.4814453125 14.783265113830566 L 254.4639434814453 28.01025390625 L 254.4639434814453 28.01025390625 L 213.33543395996094 25.676239013671875 L 213.33543395996094 25.676239013671875 L 228.11643981933594 1.5572519302368164 L 228.11643981933594 1.5572519302368164 L 243.49293518066406 0.00024504063185304403 z" fill="none" stroke="#000000"/><path d="M 242.60963439941406 151.76173400878906 L 259.72662353515625 149.6337432861328 L 259.72662353515625 149.6337432861328 L 257.39263916015625 111.77278137207031 L 257.39263916015625 111.77278137207031 L 270.61859130859375 140.79176330566406 L 270.61859130859375 140.79176330566406 L 268.28662109375 181.9207305908203 L 268.28662109375 181.9207305908203 L 244.16664123535156 167.1387481689453 L 244.16664123535156 167.1387481689453 L 242.60963439941406 151.76173400878906 z" fill="none" stroke="#000000"/><path d="M 38.60635757446289 251.5713653564453 L 2.678377389907837 251.5713653564453 L 2.678377389907837 251.5713653564453 L 2.678377389907837 232.1703643798828 L 2.678377389907837 232.1703643798828 L 38.60635757446289 232.1703643798828 L 38.60635757446289 232.1703643798828 L 38.60635757446289 253.7333984375" fill="none" stroke="#000000"/><path d="M 1.7952160835266113 35.927764892578125 L 1.7952160835266113 -0.00024355312052648523 L 1.7952160835266113 -0.00024355312052648523 L 21.196216583251953 -0.00024355312052648523 L 21.196216583251953 -0.00024355312052648523 L 21.196216583251953 35.927764892578125 L 21.196216583251953 35.927764892578125 L 0.09362732619047165 35.927764892578125" fill="none" stroke="#000000"/><path d="M 19.401004791259766 178.2946319580078 L 0.0000041593748392188016 178.2946319580078 L 0.000004159374839218804 178.2946319580078 L 0.000004159374839218804 142.3666534423828 L 0.000004159374839218804 142.3666534423828 L 19.401004791259766 142.3666534423828 L 19.401004791259766 142.3666534423828 L 19.40100479125977 179.4390961" fill="none" stroke="#000000"/><path d="M 57.7784538269043 17.135007858276367 L 52.78742599487305 20.928007125854492 L 52.78742599487305 20.928007125854492 L 50.19245529174805 25.344999313354492 L 50.19245529174805 25.344999313354492 L 44.0504264831543 25.344999313354492 L 44.0504264831543 25.344999313354492 L 40.43745040893555 20.928007125854492 L 40.43745040893555 20.928007125854492 L 37.1284294128418 18.498991012573242 L 37.1284294128418 18.498991012573242 L 37.1284294128418 12.079985618591309 L 37.1284294128418 12.079985618591309 L 41.7004508972168 9.259001731872559 L 41.7004508972168 9.259001731872559 L 44.0664176940918 2.1600027084350586 L 44.0664176940918 2.1600027084350586 L 50.19245529174805 2.1600027084350586 L 50.19245529174805 2.1600027084350586 L 52.20344161987305 9.259001731872559 L 52.20344161987305 9.259001731872559 L 57.7784538269043 12.079985618591309 L 57.7784538269043 12.079985618591309 L 57.7784538269043 17.135007858276367 z" fill="none" stroke="#000000"/><path d="M 101.3905258178711 -4.414064846969268e-8 L 101.3905258178711 12.75799560546875 L 101.3905258178711 12.75799560546875 L 131.68453979492188 12.75799560546875 L 131.68453979492188 12.75799560546875 L 131.68453979492188 -4.414064846969268e-8 L 131.68453979492188 -4.414064846969268e-8 L 101.3905258178711 -4.414064846969268e-8 z" fill="none" stroke="#000000"/><path d="M 131.68505859375 12.757509231567383 L 161.98004150390625 12.757509231567383 L 161.98004150390625 12.757509231567383 L 161.98004150390625 0.0004904757952317595 L 161.98004150390625 0.0004904757952317595 L 131.68505859375 0.0004904757952317595" fill="none" stroke="#000000"/><path d="M 188.2367706298828 254.42623901367188 L 188.2367706298828 241.66921997070312 L 188.2367706298828 241.66921997070312 L 157.94276428222656 241.66921997070312 L 157.94276428222656 241.66921997070312 L 157.94276428222656 254.42623901367188 L 157.94276428222656 254.42623901367188 L 188.2367706298828 254.42623901367188 z" fill="none" stroke="#000000"/><path d="M 68.35936737060547 154.20318603515625 L 70.30636596679688 166.83718872070312 L 70.30636596679688 166.83718872070312 L 60.386863708496094 171.12417602539062 L 60.386863708496094 171.12417602539062 L 47.354164123535156 169.56716918945312 L 47.354164123535156 169.56716918945312 L 49.10456848144531 149.22518920898438 L 49.10456848144531 149.22518920898438 L 68.35936737060547 154.20318603515625 z" fill="none" stroke="#000000"/><path d="M 143.7498321533203 29.680238723754883 L 141.80384826660156 17.045228958129883 L 141.80384826660156 17.045228958129883 L 151.7228546142578 12.757234573364258 L 151.7228546142578 12.757234573364258 L 164.75584411621094 14.314241409301758 L 164.75584411621094 14.314241409301758 L 163.00486755371094 34.656253814697266 L 163.00486755371094 34.656253814697266 L 143.7498321533203 29.680238723754883 z" fill="none" stroke="#000000"/><path d="M 191.5163116455078 142.80703735351562 L 204.1512908935547 140.86001586914062 L 204.1512908935547 140.86001586914062 L 208.4383087158203 150.77902221679688 L 208.4383087158203 150.77902221679688 L 206.8813018798828 163.81204223632812 L 206.8813018798828 163.81204223632812 L 186.53929138183594 162.06100463867188 L 186.53929138183594 162.06100463867188 L 191.5163116455078 142.80703735351562 z" fill="none" stroke="#000000"/><path d="M 218.2879180908203 124.67483520507812 L 220.2349395751953 137.308837890625 L 220.2349395751953 137.308837890625 L 210.31593322753906 141.59683227539062 L 210.31593322753906 141.59683227539062 L 197.2829132080078 140.0398406982422 L 197.2829132080078 140.0398406982422 L 199.03395080566406 119.69683837890625 L 199.03395080566406 119.69683837890625 L 218.2879180908203 124.67483520507812 z" fill="none" stroke="#000000"/><path d="M 51.8272705078125 49.25075149536133 L 39.1922607421875 51.19673538208008 L 39.1922607421875 51.19673538208008 L 34.9052734375 41.27873611450195 L 34.9052734375 41.27873611450195 L 36.462249755859375 28.24574851989746 L 36.462249755859375 28.24574851989746 L 56.80426025390625 29.99574851989746 L 56.80426025390625 29.99574851989746 L 51.8272705078125 49.25075149536133 z" fill="none" stroke="#000000"/><path d="M 13.709624290466309 35.928009033203125 L 13.709624290466309 59.112709045410156 L 13.709624290466309 59.112709045410156 L 0.09362732619047165 59.112709045410156 L 0.09362732619047165 59.112709045410156 L 0.09362732619047165 35.928009033203125" fill="none" stroke="#000000"/><path d="M 181.85433959960938 241.66921997070312 L 181.85433959960938 228.05221557617188 L 181.85433959960938 228.05221557617188 L 158.67031860351562 228.05221557617188 L 158.67031860351562 228.05221557617188 L 158.67031860351562 241.66921997070312" fill="none" stroke="#000000"/><path d="M 245.1862030029297 13.615753173828125 L 268.3702087402344 13.615753173828125 L 268.3702087402344 13.615753173828125 L 268.3702087402344 -0.0002438207011437044 L 268.3702087402344 -0.0002438207011437044 L 245.1862030029297 -0.0002438207011437044 L 245.1862030029297 -0.00024382070114370435 L 245.1862030029297 13.615753173828125 z" fill="none" stroke="#000000"/><path d="M 289.24271949999996 55.20628190000002 L 284.9677195 55.20628190000002 L 284.9677195 55.20628190000002 L 284.9677195 67.04953190000003 L 284.9677195 67.04953190000003 L 250.30571949999995 67.04953190000003" fill="none" stroke="#000000"/><path d="M 250.30571949999995 72.13378190000003 L 284.9677195 72.13378190000003 L 284.9677195 72.13378190000003 L 284.9677195 84.03403190000006 L 284.9677195 84.03403190000006 L 289.24271949999996 84.03403190000006 L 289.24271949999996 84.03403190000006 L 289.24271949999996 52.93419647216797" fill="none" stroke="#000000"/><path d="M 1.7707850933074951 126.35528564453125 L 8.4287748336792 131.66326904296875 L 8.4287748336792 131.66326904296875 L 16.727785110473633 129.769287109375 L 16.727785110473633 129.769287109375 L 20.422792434692383 122.0992431640625 L 20.422792434692383 122.0992431640625 L 16.727785110473633 114.42926025390625 L 16.727785110473633 114.42926025390625 L 8.4287748336792 112.5352783203125 L 8.4287748336792 112.5352783203125 L 1.7707850933074951 117.84228515625 L 1.7707850933074951 117.84228515625 L 1.7707850933074951 126.35528564453125 z" fill="none" stroke="#000000"/><path d="M 227.14004516601562 108.04745483398438 L 221.83384704589844 101.39047241210938 L 221.83384704589844 101.39047241210938 L 223.72755432128906 93.09146118164062 L 223.72755432128906 93.09146118164062 L 231.39784240722656 89.39749145507812 L 231.39784240722656 89.39749145507812 L 239.06805419921875 93.09146118164062 L 239.06805419921875 93.09146118164062 L 240.9615478515625 101.39047241210938 L 240.9615478515625 101.39047241210938 L 235.6532440185547 108.04745483398438" fill="none" stroke="#000000"/><path d="M 229.7306671142578 192.08970642089844 L 224.41969299316406 198.74771118164062 L 224.41969299316406 198.74771118164062 L 226.31666564941406 207.0467071533203 L 226.31666564941406 207.0467071533203 L 233.98365783691406 210.74171447753906 L 233.98365783691406 210.74171447753906 L 241.6526641845703 207.0467071533203 L 241.6526641845703 207.0467071533203 L 243.54969787597656 198.74771118164062 L 243.54969787597656 198.74771118164062 L 238.2406768798828 192.08970642089844 L 238.2406768798828 192.08970642089844 L 229.7306671142578 192.08970642089844 z" fill="none" stroke="#000000"/><path d="M 251.55226135253906 150.64976501464844 L 256.8633117675781 143.9927520751953 L 256.8633117675781 143.9927520751953 L 254.9662628173828 135.69276428222656 L 254.9662628173828 135.69276428222656 L 247.2992706298828 131.99876403808594 L 247.2992706298828 131.99876403808594 L 239.62928771972656 135.69276428222656 L 239.62928771972656 135.69276428222656 L 237.73329162597656 143.9927520751953 L 237.73329162597656 143.9927520751953 L 243.04127502441406 150.64976501464844 L 243.04127502441406 150.64976501464844 L 251.55226135253906 150.64976501464844 z" fill="none" stroke="#000000"/><path d="M 261.99346923828125 121.86717987060547 L 268.6514587402344 127.17717742919922 L 268.6514587402344 127.17717742919922 L 276.9504699707031 125.28118133544922 L 276.9504699707031 125.28118133544922 L 280.64544677734375 117.6131820678711 L 280.64544677734375 117.6131820678711 L 276.9504699707031 109.94318389892578 L 276.9504699707031 109.94318389892578 L 268.6514587402344 108.04718017578125 L 268.6514587402344 108.04718017578125 L 261.99346923828125 113.3561782836914 L 261.99346923828125 113.3561782836914 L 261.99346923828125 121.86717987060547 z" fill="none" stroke="#000000"/><path d="M 265.5231018066406 192.6349639892578 L 272.18011474609375 197.94398498535156 L 272.18011474609375 197.94398498535156 L 280.4801025390625 196.0500030517578 L 280.4801025390625 196.0500030517578 L 284.1741027832031 188.3799591064453 L 284.1741027832031 188.3799591064453 L 280.4801025390625 180.71095275878906 L 280.4801025390625 180.71095275878906 L 272.18011474609375 178.8159942626953 L 272.18011474609375 178.8159942626953 L 265.5231018066406 184.1230010986328 L 265.5231018066406 184.1230010986328 L 265.5231018066406 192.6349639892578 z" fill="none" stroke="#000000"/><path d="M 278.3132629394531 144.59278869628906 L 270.6432800292969 140.89878845214844 L 270.6432800292969 140.89878845214844 L 268.7492370605469 132.5997772216797 L 268.7492370605469 132.5997772216797 L 274.0582580566406 125.9417953491211 L 274.0582580566406 125.9417953491211 L 282.5712585449219 125.9417953491211 L 282.5712585449219 125.9417953491211 L 287.8772277832031 132.5997772216797 L 287.8772277832031 132.5997772216797 L 285.9832458496094 140.89878845214844 L 285.9832458496094 140.89878845214844 L 275.5421187920996 145.92742102556295" fill="none" stroke="#000000"/><path d="M 282.6339111328125 179.25900268554688 L 287.9429016113281 172.60104370117188 L 287.9429016113281 172.60104370117188 L 286.04888916015625 164.30300903320312 L 286.04888916015625 164.30300903320312 L 278.37890625 160.60800170898438 L 278.37890625 160.60800170898438 L 270.7088928222656 164.30300903320312 L 270.7088928222656 164.30300903320312 L 268.8149108886719 172.60104370117188 L 268.8149108886719 172.60104370117188 L 274.12091064453125 179.25900268554688 L 274.12091064453125 179.25900268554688 L 282.6339111328125 179.25900268554688 z" fill="none" stroke="#000000"/><path d="M 272.5901794433594 30.53203773498535 L 279.2481994628906 35.843040466308594 L 279.2481994628906 35.843040466308594 L 287.54718017578125 33.94603729248047 L 287.54718017578125 33.94603729248047 L 291.2421875 26.2790470123291 L 291.2421875 26.2790470123291 L 287.54718017578125 18.61004066467285 L 287.54718017578125 18.61004066467285 L 279.2481994628906 16.713037490844727 L 279.2481994628906 16.713037490844727 L 272.5901794433594 22.02202796936035 L 272.5901794433594 22.02202796936035 L 272.5901794433594 30.53203773498535 z" fill="none" stroke="#000000"/><path d="M 276.1347351074219 203.58863830566406 L 270.8237609863281 210.24664306640625 L 270.8237609863281 210.24664306640625 L 272.7207336425781 218.54563903808594 L 272.7207336425781 218.54563903808594 L 280.3877258300781 222.23963928222656 L 280.3877258300781 222.23963928222656 L 288.0567321777344 218.54563903808594 L 288.0567321777344 218.54563903808594 L 289.9547424316406 210.24664306640625 L 289.9547424316406 210.24664306640625 L 284.6467590332031 203.58863830566406 L 284.6467590332031 203.58863830566406 L 276.1347351074219 203.58863830566406 z" fill="none" stroke="#000000"/><path d="M 275.5421447753906 145.92747497558594 L 273.6461486816406 154.22850036621094 L 273.6461486816406 154.22850036621094 L 278.95513916015625 160.88548278808594 L 278.95513916015625 160.88548278808594 L 287.46514892578125 160.88548278808594 L 287.46514892578125 160.88548278808594 L 292.775146484375 154.22850036621094 L 292.775146484375 154.22850036621094 L 290.8781433105469 145.92747497558594 L 290.8781433105469 145.92747497558594 L 283.2111511230469 142.23448181152344" fill="none" stroke="#000000"/><path d="M 118.12963104248047 126.6501693725586 L 111.47164154052734 121.33917999267578 L 111.47164154052734 121.33917999267578 L 103.17363739013672 123.23616790771484 L 103.17363739013672 123.23616790771484 L 99.47863006591797 130.90318298339844 L 99.47863006591797 130.90318298339844 L 103.17363739013672 138.57318115234375 L 103.17363739013672 138.57318115234375 L 111.47164154052734 140.46917724609375 L 111.47164154052734 140.46917724609375 L 118.12963104248047 135.1621856689453 L 118.12963104248047 135.1621856689453 L 118.12963104248047 126.6501693725586 z" fill="none" stroke="#000000"/><path d="M 292.28826904296875 105.10660552978516 L 297.5992431640625 98.44860076904297 L 297.5992431640625 98.44860076904297 L 295.7022705078125 90.1506118774414 L 295.7022705078125 90.1506118774414 L 288.0352783203125 86.45560455322266 L 288.0352783203125 86.45560455322266 L 280.36627197265625 90.1506118774414 L 280.36627197265625 90.1506118774414 L 278.46826171875 98.44860076904297 L 278.46826171875 98.44860076904297 L 283.7762451171875 105.10660552978516 L 283.7762451171875 105.10660552978516 L 292.28826904296875 105.10660552978516 z" fill="none" stroke="#000000"/><path d="M 284.0095520019531 34.75460433959961 L 278.6985168457031 41.412593841552734 L 278.6985168457031 41.412593841552734 L 280.5955505371094 49.711605072021484 L 280.5955505371094 49.711605072021484 L 288.2625427246094 53.406612396240234 L 288.2625427246094 53.406612396240234 L 295.9315490722656 49.711605072021484 L 295.9315490722656 49.711605072021484 L 297.8275451660156 41.412593841552734 L 297.8275451660156 41.412593841552734 L 292.5195617675781 34.75460433959961 L 292.5195617675781 34.75460433959961 L 284.0095520019531 34.75460433959961 z" fill="none" stroke="#000000"/><path d="M 280.6450500488281 118.92638397216797 L 287.3009948730469 124.23735809326172 L 287.3009948730469 124.23735809326172 L 295.6010437011719 122.34136199951172 L 295.6010437011719 122.34136199951172 L 299.2950134277344 114.67436981201172 L 299.2950134277344 114.67436981201172 L 295.6010437011719 107.00432586669922 L 295.6010437011719 107.00432586669922 L 287.3009948730469 105.10735321044922 L 287.3009948730469 105.10735321044922 L 280.6450500488281 110.41637420654297 L 280.6450500488281 110.41637420654297 L 280.6450500488281 118.92638397216797 z" fill="none" stroke="#000000"/><path d="M 286.9344787597656 -0.0004913578159175815 L 281.6244812011719 6.657467842102051 L 281.6244812011719 6.657467842102051 L 283.5215148925781 14.9564790725708 L 283.5215148925781 14.9564790725708 L 291.1885070800781 18.651485443115234 L 291.1885070800781 18.651485443115234 L 298.8575134277344 14.9564790725708 L 298.8575134277344 14.9564790725708 L 300.7535095214844 6.657467842102051 L 300.7535095214844 6.657467842102051 L 295.4444885253906 -0.0004913578159175815 L 295.4444885253906 -0.0004913578159175813 L 286.9344787597656 -0.0004913578159175813 z" fill="none" stroke="#000000"/><path d="M 284.17413330078125 201.93702697753906 L 305.48614501953125 189.6320343017578 L 305.48614501953125 189.6320343017578 L 284.17413330078125 177.32704162597656 L 284.17413330078125 177.32704162597656 L 284.17413330078125 201.93702697753906 z" fill="none" stroke="#000000"/><path d="M 289.2429504394531 52.93419647216797 L 310.553955078125 65.2381820678711 L 310.553955078125 65.2381820678711 L 289.2429504394531 77.54418182373047" fill="none" stroke="#000000"/><path d="M 308.8035583496094 241.7632598876953 L 296.4975280761719 220.45225524902344 L 296.4975280761719 220.45225524902344 L 284.1935119628906 241.7632598876953 L 284.1935119628906 241.7632598876953 L 308.8035583496094 241.7632598876953 z" fill="none" stroke="#000000"/><path d="M 201.61195373535156 0.0004877906176261606 L 213.9169464111328 21.31146240234375 L 213.9169464111328 21.31146240234375 L 226.22193908691406 0.0004877906176261606 L 226.22193908691406 0.0004877906176261604 L 201.61195373535156 0.0004877906176261604 z" fill="none" stroke="#000000"/><path d="M 138.0279541015625 62.79878616333008 L 116.71695709228516 75.10379791259766 L 116.71695709228516 75.10379791259766 L 138.0279541015625 87.40779876708984 L 138.0279541015625 87.40779876708984 L 138.0279541015625 62.79878616333008 z" fill="none" stroke="#000000"/><path d="M 307.3497009277344 124.10657501220703 L 287.8777160644531 124.10657501220703 L 287.8777160644531 124.10657501220703 L 287.8777160644531 137.3335723876953 L 287.8777160644531 137.3335723876953 L 307.3497009277344 137.3335723876953 L 307.3497009277344 137.3335723876953 L 307.3497009277344 124.10657501220703 z" fill="none" stroke="#000000"/><path d="M 307.4143981933594 160.2877655029297 L 287.9424133300781 160.2877655029297 L 287.9424133300781 160.2877655029297 L 287.9424133300781 173.51478576660156 L 287.9424133300781 173.51478576660156 L 307.4143981933594 173.51478576660156 L 307.4143981933594 173.51478576660156 L 307.4143981933594 160.2877655029297 z" fill="none" stroke="#000000"/><path d="M 289.95452880859375 211.8264617919922 L 309.426513671875 211.8264617919922 L 309.426513671875 211.8264617919922 L 309.426513671875 198.59947204589844 L 309.426513671875 198.59947204589844 L 289.95452880859375 198.59947204589844 L 289.95452880859375 198.59947204589844 L 289.95452880859375 211.8264617919922 z" fill="none" stroke="#000000"/><path d="M 29.854369099999985 138.96325109999998 L 24.770869100000027 138.96325109999998 L 24.770869100000027 138.96325109999998 L 24.770869100000027 179.9792511 L 24.770869100000027 179.9792511 L 29.854369099999985 179.9792511" fill="none" stroke="#000000"/><path d="M 36.15415573120117 64.4229965209961 L 48.90714645385742 64.4229965209961 L 48.90714645385742 64.4229965209961 L 48.90714645385742 51.19697952270508 L 48.90714645385742 51.19697952270508 L 36.15415573120117 51.19697952270508 L 36.15415573120117 51.19697952270508 L 36.15415573120117 64.4229965209961 z" fill="none" stroke="#000000"/><path d="M 47.35442352294922 149.22491455078125 L 60.10741424560547 149.22491455078125 L 60.10741424560547 149.22491455078125 L 60.10741424560547 136.00091552734375" fill="none" stroke="#000000"/><path d="M 104.71261596679688 160.12794494628906 L 117.46562194824219 160.12794494628906 L 117.46562194824219 160.12794494628906 L 117.46562194824219 146.90293884277344 L 117.46562194824219 146.90293884277344 L 104.71261596679688 146.90293884277344 L 104.71261596679688 146.90293884277344 L 104.71261596679688 160.12794494628906 z" fill="none" stroke="#000000"/><path d="M 92.9727451 250.2332606 L 92.9727451 245.14976060000004 L 92.9727451 245.14976060000004 L 65.01199510000001 245.14976060000004 L 65.01199510000001 245.14976060000004 L 65.01199510000001 250.2332606" fill="none" stroke="#000000"/><path d="M 19.401005099999907 179.4390961 L 24.48375509999994 179.4390961 L 24.48375509999994 179.4390961 L 24.48375509999994 151.4783461 L 24.48375509999994 151.4783461 L 19.401005099999907 151.4783461" fill="none" stroke="#000000"/><path d="M 84.34825897216797 -0.0002423269470455126 L 70.63423919677734 -0.0002423269470455126 L 70.63423919677734 -0.0002423269470455126 L 71.0212631225586 14.255769729614258 L 71.0212631225586 14.255769729614258 L 76.03124237060547 13.167757034301758 L 76.03124237060547 13.167757034301758 L 84.34825897216797 -0.0002423269470455125 z" fill="none" stroke="#000000"/><path d="M 108.80814361572266 12.75726318359375 L 109.1951675415039 27.01324462890625 L 109.1951675415039 27.01324462890625 L 114.20514678955078 25.92523193359375 L 114.20514678955078 25.92523193359375 L 122.52115631103516 12.75726318359375" fill="none" stroke="#000000"/><path d="M 166.1455535888672 34.656497955322266 L 152.43255615234375 34.656497955322266 L 152.43255615234375 34.656497955322266 L 152.81956481933594 48.911502838134766 L 152.81956481933594 48.911502838134766 L 157.82955932617188 47.824527740478516 L 157.82955932617188 47.824527740478516 L 166.1455535888672 34.656497955322266 z" fill="none" stroke="#000000"/><path d="M 146.9679412841797 170.83700561523438 L 146.9679412841797 157.1240234375 L 146.9679412841797 157.1240234375 L 132.7129364013672 157.51101684570312 L 132.7129364013672 157.51101684570312 L 133.79994201660156 162.52001953125 L 133.79994201660156 162.52001953125 L 146.9679412841797 170.83700561523438 z" fill="none" stroke="#000000"/><path d="M 54.300018310546875 119.39806365966797 L 68.0140380859375 119.39806365966797 L 68.0140380859375 119.39806365966797 L 67.62603759765625 105.14356231689453 L 67.62603759765625 105.14356231689453 L 62.617034912109375 106.23026275634766 L 62.617034912109375 106.23026275634766 L 54.300018310546875 119.39806365966797 z" fill="none" stroke="#000000"/><path d="M 80.68055725097656 210.2760467529297 L 94.39454650878906 210.2760467529297 L 94.39454650878906 210.2760467529297 L 94.00654602050781 196.0210418701172 L 94.00654602050781 196.0210418701172 L 88.99751281738281 197.1080780029297 L 88.99751281738281 197.1080780029297 L 80.68055725097656 210.2760467529297 z" fill="none" stroke="#000000"/><path d="M 0.000004226708824717207 128.6538848876953 L 0.000004226708824717207 142.3668975830078 L 0.000004226708824717207 142.3668975830078 L 16.432506561279297 139.5808868408203 L 16.432506561279297 139.5808868408203 L 13.170005798339844 136.9709014892578 L 13.170005798339844 136.9709014892578 L 0.000004226708824717207 128.6538848876953 z" fill="none" stroke="#000000"/><path d="M 198.564453125 203.5959930419922 L 198.564453125 189.8820037841797 L 198.564453125 189.8820037841797 L 182.13246154785156 192.67298889160156 L 182.13246154785156 192.67298889160156 L 185.39645385742188 195.2830047607422 L 185.39645385742188 195.2830047607422 L 198.564453125 203.5959930419922 z" fill="none" stroke="#000000"/><path d="M 205.0330810546875 225.3799591064453 L 205.0330810546875 211.66697692871094 L 205.0330810546875 211.66697692871094 L 188.60211181640625 214.4569854736328 L 188.60211181640625 214.4569854736328 L 191.8651123046875 217.06797790527344 L 191.8651123046875 217.06797790527344 L 205.0330810546875 225.3799591064453 z" fill="none" stroke="#000000"/><path d="M 219.89137268066406 125.68744659423828 L 219.89137268066406 111.9744644165039 L 219.89137268066406 111.9744644165039 L 203.4603729248047 114.76444244384766 L 203.4603729248047 114.76444244384766 L 206.72337341308594 117.37445831298828 L 206.72337341308594 117.37445831298828 L 219.89137268066406 125.68744659423828 z" fill="none" stroke="#000000"/><path d="M 289.8844909667969 137.3343048095703 L 292.6695251464844 153.7663116455078 L 292.6695251464844 153.7663116455078 L 295.2795104980469 150.50331115722656 L 295.2795104980469 150.50331115722656 L 303.5975036621094 137.3343048095703" fill="none" stroke="#000000"/><path d="M 303.70330810546875 18.651729583740234 L 289.9913330078125 18.651729583740234 L 289.9913330078125 18.651729583740234 L 292.78033447265625 35.082759857177734 L 292.78033447265625 35.082759857177734 L 295.3913269042969 31.819759368896484 L 295.3913269042969 31.819759368896484 L 303.70330810546875 18.651729583740234 z" fill="none" stroke="#000000"/><path d="M 301.389404296875 187.26687622070312 L 301.389404296875 173.55484008789062 L 301.389404296875 173.55484008789062 L 284.9573974609375 176.34487915039062 L 284.9573974609375 176.34487915039062 L 288.22137451171875 178.95486450195312 L 288.22137451171875 178.95486450195312 L 301.389404296875 187.26687622070312 z" fill="none" stroke="#000000"/><path d="M 303.815185546875 95.27184295654297 L 290.6471862792969 86.95983123779297 L 290.6471862792969 86.95983123779297 L 287.3841857910156 84.34984588623047 L 287.3841857910156 84.34984588623047 L 303.815185546875 81.5598373413086 L 303.815185546875 81.5598373413086 L 303.815185546875 97.2420654296875" fill="none" stroke="#000000"/><path d="M 305.2822570800781 212.28831481933594 L 288.8502502441406 215.0733184814453 L 288.8502502441406 215.0733184814453 L 292.1132507324219 217.6833038330078 L 292.1132507324219 217.6833038330078 L 305.2822570800781 226.0003204345703 L 305.2822570800781 226.0003204345703 L 305.2822570800781 211.9060516357422" fill="none" stroke="#000000"/><path d="M 307.0341491699219 63.20634078979492 L 307.0341491699219 49.49332809448242 L 307.0341491699219 49.49332809448242 L 290.6021423339844 52.27933883666992 L 290.6021423339844 52.27933883666992 L 293.8651428222656 54.88834762573242 L 293.8651428222656 54.88834762573242 L 307.0341491699219 63.20634078979492 z" fill="none" stroke="#000000"/><path d="M 309.7419738769531 30.80773162841797 L 296.02996826171875 30.80773162841797 L 296.02996826171875 30.80773162841797 L 298.81597900390625 47.23973846435547 L 298.81597900390625 47.23973846435547 L 301.42498779296875 43.97673797607422 L 301.42498779296875 43.97673797607422 L 309.7419738769531 30.80773162841797 z" fill="none" stroke="#000000"/><path d="M 310.43804931640625 99.54325866699219 L 296.7260437011719 99.54325866699219 L 296.7260437011719 99.54325866699219 L 299.51605224609375 115.97415161132812 L 299.51605224609375 115.97415161132812 L 302.1260681152344 112.71025848388672 L 302.1260681152344 112.71025848388672 L 310.43804931640625 99.54325866699219 z" fill="none" stroke="#000000"/><path d="M 2.679018259048462 218.45811462402344 L 2.679018259048462 232.17010498046875 L 2.679018259048462 232.17010498046875 L 19.110017776489258 229.381103515625 L 19.110017776489258 229.381103515625 L 15.846010208129883 226.77110290527344 L 15.846010208129883 226.77110290527344 L 2.679018259048462 218.45811462402344 z" fill="none" stroke="#000000"/><path d="M 38.60715103149414 253.7333984375 L 55.03812026977539 250.94342041015625 L 55.03812026977539 250.94342041015625 L 51.77414321899414 248.33340454101562 L 51.77414321899414 248.33340454101562 L 38.60715103149414 240.02041625976562" fill="none" stroke="#000000"/><path d="M 127.11869812011719 94.55889129638672 L 127.11869812011719 108.27092742919922 L 127.11869812011719 108.27092742919922 L 143.54969787597656 105.48088836669922 L 143.54969787597656 105.48088836669922 L 140.2856903076172 102.87194061279297 L 140.2856903076172 102.87194061279297 L 127.11869812011719 94.55889129638672 z" fill="none" stroke="#000000"/><path d="M 120.3036117553711 254.42575073242188 L 134.01560974121094 254.42575073242188 L 134.01560974121094 254.42575073242188 L 131.22561645507812 237.99575805664062 L 131.22561645507812 237.99575805664062 L 128.61660766601562 241.25973510742188 L 128.61660766601562 241.25973510742188 L 120.3036117553711 254.42575073242188 z" fill="none" stroke="#000000"/><path d="M 151.67666625976562 140.31800842285156 L 152.85964965820312 146.72706604003906 L 152.85964965820312 146.72706604003906 L 159.00466918945312 148.9040069580078 L 159.00466918945312 148.9040069580078 L 163.96466064453125 144.6740264892578 L 163.96466064453125 144.6740264892578 L 162.77865600585938 138.26600646972656 L 162.77865600585938 138.26600646972656 L 156.63665771484375 136.0850372314453" fill="none" stroke="#000000"/><path d="M 173.3211212158203 67.60023498535156 L 177.5521240234375 72.56123352050781 L 177.5521240234375 72.56123352050781 L 183.95912170410156 71.37623596191406 L 183.95912170410156 71.37623596191406 L 186.14012145996094 65.23222351074219 L 186.14012145996094 65.23222351074219 L 181.90713500976562 60.27223205566406 L 181.90713500976562 60.27223205566406 L 175.4981231689453 61.45524597167969 L 175.4981231689453 61.45524597167969 L 173.3211212158203 67.60023498535156 z" fill="none" stroke="#000000"/><path d="M 214.61798095703125 168.98219299316406 L 219.5769805908203 164.75318908691406 L 219.5769805908203 164.75318908691406 L 218.39297485351562 158.3461456298828 L 218.39297485351562 158.3461456298828 L 212.2489776611328 156.1641387939453 L 212.2489776611328 156.1641387939453 L 207.28997802734375 160.3971710205078 L 207.28997802734375 160.3971710205078 L 208.47198486328125 166.80616760253906 L 208.47198486328125 166.80616760253906 L 214.61798095703125 168.98219299316406 z" fill="none" stroke="#000000"/><path d="M 207.2002410888672 147.9154815673828 L 211.43125915527344 152.8744659423828 L 211.43125915527344 152.8744659423828 L 217.83824157714844 151.68946838378906 L 217.83824157714844 151.68946838378906 L 220.01927185058594 145.54750061035156 L 220.01927185058594 145.54750061035156 L 215.78623962402344 140.5874786376953 L 215.78623962402344 140.5874786376953 L 209.3772430419922 141.7704620361328 L 209.3772430419922 141.7704620361328 L 207.2002410888672 147.9154815673828 z" fill="none" stroke="#000000"/><path d="M 225.2963104248047 34.17047882080078 L 229.5253143310547 39.13050079345703 L 229.5253143310547 39.13050079345703 L 235.93333435058594 37.944496154785156 L 235.93333435058594 37.944496154785156 L 238.1143035888672 31.80149269104004 L 238.1143035888672 31.80149269104004 L 233.88230895996094 26.84250831604004 L 233.88230895996094 26.84250831604004 L 227.47227478027344 28.02549171447754 L 227.47227478027344 28.02549171447754 L 225.2963104248047 34.17047882080078 z" fill="none" stroke="#000000"/><path d="M 263.1246643066406 77.09477996826172 L 258.89398193359375 72.13378143310547 L 258.89398193359375 72.13378143310547 L 252.48446655273438 73.31377410888672 L 252.48446655273438 73.31377410888672 L 250.3056640625 79.45977020263672 L 250.3056640625 79.45977020263672 L 254.53646850585938 84.41979217529297 L 254.53646850585938 84.41979217529297 L 260.94598388671875 83.23375701904297 L 260.94598388671875 83.23375701904297 L 263.1246643066406 77.09477996826172 z" fill="none" stroke="#000000"/><path d="M 239.11363220214844 180.42344665527344 L 234.1536102294922 184.65245056152344 L 234.1536102294922 184.65245056152344 L 235.3396453857422 191.05946350097656 L 235.3396453857422 191.05946350097656 L 241.4816131591797 193.24046325683594 L 241.4816131591797 193.24046325683594 L 246.44163513183594 189.0094451904297 L 246.44163513183594 189.0094451904297 L 245.25962829589844 182.5984649658203 L 245.25962829589844 182.5984649658203 L 239.11363220214844 180.42344665527344 z" fill="none" stroke="#000000"/><path d="M 253.285888671875 134.1186981201172 L 258.2458801269531 129.8896942138672 L 258.2458801269531 129.8896942138672 L 257.0599060058594 123.48265075683594 L 257.0599060058594 123.48265075683594 L 250.9178924560547 121.30064392089844 L 250.9178924560547 121.30064392089844 L 245.9578857421875 125.53367614746094 L 245.9578857421875 125.53367614746094 L 247.14088439941406 131.9426727294922 L 247.14088439941406 131.9426727294922 L 253.285888671875 134.1186981201172 z" fill="none" stroke="#000000"/><path d="M 251.22000122070312 184.05026245117188 L 255.44900512695312 189.01126098632812 L 255.44900512695312 189.01126098632812 L 261.8559875488281 187.82424926757812 L 261.8559875488281 187.82424926757812 L 264.0369567871094 181.68222045898438 L 264.0369567871094 181.68222045898438 L 259.8049621582031 176.72323608398438 L 259.8049621582031 176.72323608398438 L 253.39498901367188 177.90524291992188 L 253.39498901367188 177.90524291992188 L 251.22000122070312 184.05026245117188 z" fill="none" stroke="#000000"/><path d="M 275.69793701171875 12.818239212036133 L 280.657958984375 8.588258743286133 L 280.657958984375 8.588258743286133 L 279.4729309082031 2.181276321411133 L 279.4729309082031 2.181276321411133 L 273.3299560546875 0.0002461468684487046 L 273.3299560546875 0.0002461468684487046 L 268.3709411621094 4.232240676879883 L 268.3709411621094 4.232240676879883 L 269.553955078125 10.641237258911133 L 269.553955078125 10.641237258911133 L 275.69793701171875 12.818239212036133 z" fill="none" stroke="#000000"/><path d="M 259.0350646972656 97.60545349121094 L 263.26507568359375 102.56446838378906 L 263.26507568359375 102.56446838378906 L 269.6720886230469 101.37947082519531 L 269.6720886230469 101.37947082519531 L 271.8533935546875 95.23747253417969 L 271.8533935546875 95.23747253417969 L 267.6200866699219 90.27745056152344 L 267.6200866699219 90.27745056152344 L 261.2110900878906 91.46046447753906 L 261.2110900878906 91.46046447753906 L 259.0350646972656 97.60545349121094 z" fill="none" stroke="#000000"/><path d="M 299.2818298339844 147.4702911376953 L 294.32281494140625 151.6992950439453 L 294.32281494140625 151.6992950439453 L 295.5088195800781 158.10731506347656 L 295.5088195800781 158.10731506347656 L 301.6498107910156 160.2873077392578 L 301.6498107910156 160.2873077392578 L 306.6108093261719 156.05628967285156 L 306.6108093261719 156.05628967285156 L 305.4278259277344 149.6463165283203 L 305.4278259277344 149.6463165283203 L 299.2818298339844 147.4702911376953 z" fill="none" stroke="#000000"/><path d="M 303.33154296875 69.40811920166016 L 298.37255859375 73.63910675048828 L 298.37255859375 73.63910675048828 L 299.55255126953125 80.04810333251953 L 299.55255126953125 80.04810333251953 L 305.6975402832031 82.22711944580078 L 305.6975402832031 82.22711944580078 L 310.6575622558594 77.99710845947266 L 310.6575622558594 77.99710845947266 L 309.4715576171875 71.58710479736328 L 309.4715576171875 71.58710479736328 L 303.33154296875 69.40811920166016 z" fill="none" stroke="#000000"/><path d="M 302.8595275878906 247.10073852539062 L 298.6295166015625 242.14071655273438 L 298.6295166015625 242.14071655273438 L 292.2195129394531 243.32675170898438 L 292.2195129394531 243.32675170898438 L 290.04150390625 249.46572875976562 L 290.04150390625 249.46572875976562 L 294.2715148925781 254.42575073242188 L 294.2715148925781 254.42575073242188 L 300.6805114746094 253.24575805664062 L 300.6805114746094 253.24575805664062 L 304.1986866270582 243.32419075184396" fill="none" stroke="#000000"/><path d="M 299.14697265625 13.691739082336426 L 303.3759765625 18.651729583740234 L 303.3759765625 18.651729583740234 L 309.78594970703125 17.47072982788086 L 309.78594970703125 17.47072982788086 L 311.9649658203125 11.3267183303833 L 311.9649658203125 11.3267183303833 L 307.7349853515625 6.366726398468018 L 307.7349853515625 6.366726398468018 L 301.324951171875 7.5527310371398935 L 301.324951171875 7.552731037139893 L 299.14697265625 13.691739082336426 z" fill="none" stroke="#000000"/><path d="M 307.206787109375 124.10578155517578 L 312.1667785644531 119.87580108642578 L 312.1667785644531 119.87580108642578 L 310.9867858886719 113.46680450439453 L 310.9867858886719 113.46680450439453 L 304.841796875 111.28778839111328 L 304.841796875 111.28778839111328 L 299.88079833984375 115.51776885986328 L 299.88079833984375 115.51776885986328 L 301.0677795410156 121.92780303955078 L 301.0677795410156 121.92780303955078 L 307.206787109375 124.10578155517578 z" fill="none" stroke="#000000"/><path d="M 300.75592041015625 144.530029296875 L 304.98394775390625 149.489013671875 L 304.98394775390625 149.489013671875 L 311.3939208984375 148.3060302734375 L 311.3939208984375 148.3060302734375 L 313.57196044921875 142.16403198242188 L 313.57196044921875 142.16403198242188 L 309.34197998046875 137.20401000976562 L 309.34197998046875 137.20401000976562 L 302.93194580078125 138.38702392578125 L 302.93194580078125 138.38702392578125 L 300.75592041015625 144.530029296875 z" fill="none" stroke="#000000"/><path d="M 313.6750793457031 23.48149871826172 L 309.4480895996094 18.522483825683594 L 309.4480895996094 18.522483825683594 L 303.0380859375 19.70549774169922 L 303.0380859375 19.70549774169922 L 300.8600769042969 25.847496032714844 L 300.8600769042969 25.847496032714844 L 305.090087890625 30.80748748779297 L 305.090087890625 30.80748748779297 L 311.5000915527344 29.62548065185547 L 311.5000915527344 29.62548065185547 L 313.6750793457031 23.48149871826172 z" fill="none" stroke="#000000"/><path d="M 306.34942626953125 173.51551818847656 L 301.389404296875 177.7425079345703 L 301.389404296875 177.7425079345703 L 302.5723876953125 184.15150451660156 L 302.5723876953125 184.15150451660156 L 308.71539306640625 186.3314971923828 L 308.71539306640625 186.3314971923828 L 313.6744384765625 182.10047912597656 L 313.6744384765625 182.10047912597656 L 312.49139404296875 175.68946838378906 L 312.49139404296875 175.68946838378906 L 306.34942626953125 173.51551818847656 z" fill="none" stroke="#000000"/><path d="M 304.1981201171875 243.32398986816406 L 310.60614013671875 242.1409912109375 L 310.60614013671875 242.1409912109375 L 314.83612060546875 247.10198974609375 L 314.83612060546875 247.10198974609375 L 312.65814208984375 253.2429962158203 L 312.65814208984375 253.2429962158203 L 306.24810791015625 254.42599487304688 L 306.24810791015625 254.42599487304688 L 302.0211181640625 249.4669952392578" fill="none" stroke="#000000"/><path d="M 315.5855407714844 42.17391586303711 L 311.3577575683594 37.214900970458984 L 311.3577575683594 37.214900970458984 L 304.9482421875 38.39791488647461 L 304.9482421875 38.39791488647461 L 302.7695617675781 44.539913177490234 L 302.7695617675781 44.539913177490234 L 306.99945068359375 49.49990463256836 L 306.99945068359375 49.49990463256836 L 313.408935546875 48.31692123413086 L 313.408935546875 48.31692123413086 L 315.5855407714844 42.17391586303711 z" fill="none" stroke="#000000"/><path d="M 310.5555419921875 236.33560180664062 L 315.5145568847656 232.10861206054688 L 315.5145568847656 232.10861206054688 L 314.33154296875 225.6986083984375 L 314.33154296875 225.6986083984375 L 308.1895446777344 223.51962280273438 L 308.1895446777344 223.51962280273438 L 303.2315368652344 227.7506103515625 L 303.2315368652344 227.7506103515625 L 304.4135437011719 234.16061401367188 L 304.4135437011719 234.16061401367188 L 310.5555419921875 236.33560180664062 z" fill="none" stroke="#000000"/><path d="M 99.38316345214844 250.23301696777344 L 99.38316345214844 254.12400817871094 L 99.38316345214844 254.12400817871094 L 55.03836441040039 254.12400817871094 L 55.03836441040039 254.12400817871094 L 55.03836441040039 250.23301696777344 L 55.03836441040039 250.23301696777344 L 99.38316345214844 250.23301696777344 z" fill="none" stroke="#000000"/><path d="M 0.21186073124408722 59.11227035522461 L 0.21186073124408722 81.28628540039062 L 0.21186073124408722 81.28628540039062 L 4.102851867675781 81.28628540039062 L 4.102851867675781 81.28628540039062 L 4.102851867675781 59.11227035522461 L 4.102851867675781 59.11227035522461 L 0.21186073124408722 59.11227035522461 z" fill="none" stroke="#000000"/><path d="M 55.6395378112793 7.378477096557617 L 56.07050704956055 0.00048654922284185897 L 56.07050704956055 0.00048654922284185897 L 65.56050109863281 0.2284528613090515 L 65.56050109863281 0.2284528613090515 L 65.56050109863281 8.253477096557617 L 65.56050109863281 8.253477096557617 L 55.6395378112793 7.378477096557617 z" fill="none" stroke="#000000"/><path d="M 10.199427604675293 105.18909454345703 L 9.768427848815918 112.56708526611328 L 9.768427848815918 112.56708526611328 L 0.278438001871109 112.3390884399414 L 0.278438001871109 112.3390884399414 L 0.278438001871109 104.31409454345703 L 0.278438001871109 104.31409454345703 L 10.199427604675293 105.18909454345703 z" fill="none" stroke="#000000"/><path d="M 22.071460723876953 0.0002427937433822081 L 29.449451446533203 0.4312730729579926 L 29.449451446533203 0.4312730729579926 L 29.222461700439453 9.920256614685059 L 29.222461700439453 9.920256614685059 L 21.196460723876953 9.920256614685059 L 21.196460723876953 9.920256614685059 L 22.071460723876953 0.00024279374338220805 z" fill="none" stroke="#000000"/><path d="M 36.89397430419922 64.42244720458984 L 36.665977478027344 73.91146087646484 L 36.665977478027344 73.91146087646484 L 44.043968200683594 74.3424301147461 L 44.043968200683594 74.3424301147461 L 44.918968200683594 64.42244720458984" fill="none" stroke="#000000"/><path d="M 88.83057403564453 107.5301284790039 L 88.40058135986328 114.90812683105469 L 88.40058135986328 114.90812683105469 L 78.91059112548828 114.67913055419922 L 78.91059112548828 114.67913055419922 L 78.91059112548828 106.65412902832031 L 78.91059112548828 106.65412902832031 L 88.83057403564453 107.5301284790039 z" fill="none" stroke="#000000"/><path d="M 93.86292266845703 65.89925384521484 L 94.29291534423828 58.521263122558594 L 94.29291534423828 58.521263122558594 L 103.78290557861328 58.74925994873047 L 103.78290557861328 58.74925994873047 L 103.78290557861328 66.77425384521484 L 103.78290557861328 66.77425384521484 L 93.86292266845703 65.89925384521484 z" fill="none" stroke="#000000"/><path d="M 94.2555923461914 212.65359497070312 L 94.68558502197266 205.27658081054688 L 94.68558502197266 205.27658081054688 L 104.17557525634766 205.50357055664062 L 104.17557525634766 205.50357055664062 L 104.17557525634766 213.52957153320312 L 104.17557525634766 213.52957153320312 L 94.2555923461914 212.65359497070312 z" fill="none" stroke="#000000"/><path d="M 191.6251220703125 55.661216735839844 L 192.05609130859375 48.28221893310547 L 192.05609130859375 48.28221893310547 L 201.54510498046875 48.510215759277344 L 201.54510498046875 48.510215759277344 L 201.54510498046875 56.53520965576172 L 201.54510498046875 56.53520965576172 L 191.6251220703125 55.661216735839844 z" fill="none" stroke="#000000"/><path d="M 39.150054931640625 181.04734802246094 L 46.528045654296875 181.47837829589844 L 46.528045654296875 181.47837829589844 L 46.300048828125 190.9673309326172 L 46.300048828125 190.9673309326172 L 38.275054931640625 190.9673309326172 L 38.275054931640625 190.9673309326172 L 39.150054931640625 181.04734802246094 z" fill="none" stroke="#000000"/><path d="M 194.21253967285156 210.94448852539062 L 194.6438446044922 203.56646728515625 L 194.6438446044922 203.56646728515625 L 204.1320343017578 203.79547119140625 L 204.1320343017578 203.79547119140625 L 204.1320343017578 211.82046508789062 L 204.1320343017578 211.82046508789062 L 194.21253967285156 210.94448852539062 z" fill="none" stroke="#000000"/><path d="M 82.01773071289062 96.9317855834961 L 89.39471435546875 97.36278533935547 L 89.39471435546875 97.36278533935547 L 89.167724609375 106.85179901123047 L 89.167724609375 106.85179901123047 L 81.14273071289062 106.85179901123047 L 81.14273071289062 106.85179901123047 L 82.01773071289062 96.9317855834961 z" fill="none" stroke="#000000"/><path d="M 224.0462646484375 236.3382110595703 L 224.47528076171875 228.96022033691406 L 224.47528076171875 228.96022033691406 L 233.96627807617188 229.1922149658203 L 233.96627807617188 229.1922149658203 L 233.96627807617188 237.2132110595703 L 233.96627807617188 237.2132110595703 L 224.0462646484375 236.3382110595703 z" fill="none" stroke="#000000"/><path d="M 248.0330047607422 27.95765495300293 L 247.6050262451172 35.33564376831055 L 247.6050262451172 35.33564376831055 L 238.1140594482422 35.10264205932617 L 238.1140594482422 35.10264205932617 L 238.1140594482422 27.08265495300293 L 238.1140594482422 27.08265495300293 L 248.0330047607422 27.95765495300293 z" fill="none" stroke="#000000"/><path d="M 98.36811065673828 173.1964569091797 L 90.99010467529297 172.76744079589844 L 90.99010467529297 172.76744079589844 L 91.22310638427734 163.2764129638672 L 91.22310638427734 163.2764129638672 L 99.24311065673828 163.2764129638672 L 99.24311065673828 163.2764129638672 L 98.36811065673828 173.1964569091797 z" fill="none" stroke="#000000"/><path d="M 162.85403442382812 0.00024129726807586857 L 170.23098754882812 0.42825034260749817 L 170.23098754882812 0.42825034260749817 L 170.00003051757812 9.9192476272583 L 170.00003051757812 9.9192476272583 L 161.98001098632812 9.9192476272583 L 161.98001098632812 9.9192476272583 L 162.85403442382812 0.0002412972680758685 z" fill="none" stroke="#000000"/><path d="M 262.8401184082031 81.98712921142578 L 263.26922607421875 74.61011505126953 L 263.26922607421875 74.61011505126953 L 272.7596435546875 74.84210968017578 L 272.7596435546875 74.84210968017578 L 272.7596435546875 82.86212921142578 L 272.7596435546875 82.86212921142578 L 262.8401184082031 81.98712921142578 z" fill="none" stroke="#000000"/><path d="M 263.3062438964844 50.0218505859375 L 273.2262878417969 49.83087158203125 L 273.2262878417969 49.83087158203125 L 273.2262878417969 42.873870849609375 L 273.2262878417969 42.873870849609375 L 263.3062438964844 41.99786376953125" fill="none" stroke="#000000"/><path d="M 282.6789245605469 73.0095443725586 L 282.6789245605469 79.9655532836914 L 282.6789245605469 79.9655532836914 L 272.7599182128906 80.15753936767578 L 272.7599182128906 80.15753936767578 L 272.7599182128906 72.13355255126953 L 272.7599182128906 72.13355255126953 L 282.6789245605469 73.0095443725586 z" fill="none" stroke="#000000"/><path d="M 302.9862060546875 198.03143310546875 L 302.9862060546875 191.075439453125 L 302.9862060546875 191.075439453125 L 312.90521240234375 190.8834228515625 L 312.90521240234375 190.8834228515625 L 312.90521240234375 198.90643310546875 L 312.90521240234375 198.90643310546875 L 302.9862060546875 198.03143310546875 z" fill="none" stroke="#000000"/><path d="M 68.63944244384766 100.29242706298828 L 75.5954360961914 100.29242706298828 L 75.5954360961914 100.29242706298828 L 75.78742218017578 110.21244049072266 L 75.78742218017578 110.21244049072266 L 67.76444244384766 110.21244049072266 L 67.76444244384766 110.21244049072266 L 68.63944244384766 100.29242706298828 z" fill="none" stroke="#000000"/><path d="M 199.43374633789062 193.74185180664062 L 206.38973999023438 193.74185180664062 L 206.38973999023438 193.74185180664062 L 206.58175659179688 203.66085815429688 L 206.58175659179688 203.66085815429688 L 198.55874633789062 203.66085815429688 L 198.55874633789062 203.66085815429688 L 199.43374633789062 193.74185180664062 z" fill="none" stroke="#000000"/><path d="M 303.8154296875 82.26284790039062 L 313.73492431640625 82.07183837890625 L 313.73492431640625 82.07183837890625 L 313.73492431640625 90.0948486328125 L 313.73492431640625 90.0948486328125 L 303.8154296875 89.21884155273438" fill="none" stroke="#000000"/><path d="M 303.81494140625 90.28607177734375 L 313.73492431640625 90.09506225585938 L 313.73492431640625 90.09506225585938 L 313.73492431640625 98.1170654296875 L 313.73492431640625 98.1170654296875 L 303.81494140625 97.2420654296875" fill="none" stroke="#000000"/><path d="M 199.44024658203125 182.98097229003906 L 206.39523315429688 182.98097229003906 L 206.39523315429688 182.98097229003906 L 206.58724975585938 192.90097045898438 L 206.58724975585938 192.90097045898438 L 198.56423950195312 192.90097045898438 L 198.56423950195312 192.90097045898438 L 199.44024658203125 182.98097229003906 z" fill="none" stroke="#000000"/><path d="M 166.58192443847656 120.2110824584961 L 159.6259307861328 120.2110824584961 L 159.6259307861328 120.2110824584961 L 159.43392944335938 110.29207611083984 L 159.43392944335938 110.29207611083984 L 167.45692443847656 110.29207611083984 L 167.45692443847656 110.29207611083984 L 166.58192443847656 120.2110824584961 z" fill="none" stroke="#000000"/><path d="M 305.2820739746094 211.9060516357422 L 315.2010803222656 211.71604919433594 L 315.2010803222656 211.71604919433594 L 315.2010803222656 219.7390594482422 L 315.2010803222656 219.7390594482422 L 305.2820739746094 218.86305236816406" fill="none" stroke="#000000"/><path d="M 316.5298156738281 150.06463623046875 L 316.5298156738281 157.0196533203125 L 316.5298156738281 157.0196533203125 L 306.6108093261719 157.21160888671875 L 306.6108093261719 157.21160888671875 L 306.6108093261719 149.18963623046875 L 306.6108093261719 149.18963623046875 L 316.5298156738281 150.06463623046875 z" fill="none" stroke="#000000"/></svg>