<svg xmlns="http://www.w3.org/2000/svg" width="5.331478966666666in" height="3.887067540277778in" viewBox="0 0 383.8664856 279.8688629"><g/><g/><g/><g/><g/><g/><g/><g/><g/><g/><g/><g/><g/><g/><g/><g/><g/><g/><g/><g/><g/><g/><g/><g/><g/><g/><g/><g/><g/><g/><g/><g/><g/><g/><g/><g/><g/><g/><g/><g/><g/><g/><g/><g/><g/><g/><g/><g/><g/><g/><g/><g/><g/><g/><g/><g/><g/><g/><g/><g/><g/><g/><g/><g/><g/><g/><g/><g/><g/><g/><g/><g/><g/><g/><g/><g/><g/><g/><g/><g/><g/><g/><g/><g/><g/><g/><g/><g/><g/><g/><g/><g/><g/><g/><g/><g/><g/><g/><g/><g/><g/><g/><g/><g/><g/><g/><g/><g/><g/><g/><g/><g/><g/><g/><g/><g/><g/><g/><g/><g/><g/><g/><g/><g/><g/><g/><g/><g/><g/><g/><g/><g/><g/><g/><g/><g/><g/><g/><g/><g/><g/><g/><g/><g/><g/><g/><g/><g/><g/><g/><g/><g/><g/><g/><g/><path fill="none" stroke="#000000" d="M 3.1770022000000004 19.950326399999994 C 4.910252200000002 19.892576400000053 6.297002200000001 21.16382640000006 6.297002200000003 23.185076399999957 C 6.297002200000003 24.97682640000005 4.910252200000004 26.24732640000002 3.177002200000002 26.24732640000002 C 1.3860022000000036 26.24732640000002 0.0000022000000026167754 24.919076399999994 0.000002200000001728597 23.0703264 C -0.0007477999999982998 21.1645764000001 1.3860022 19.950326399999994 3.1770022000000004 19.950326399999994 z"/><path fill="none" stroke="#000000" d="M -0.0000019999999949504854 46.0085256 C -0.05775199999993674 44.2752756 1.2127480000000332 42.888525599999994 3.2347480000000814 42.888525599999994 C 5.025748000000021 42.888525599999994 6.296247999999991 44.2752756 6.296247999999991 46.0085256 C 6.296247999999991 47.799525599999996 4.96799800000008 49.1855256 3.1192479999999705 49.1855256 C 1.212748000000147 49.1862756 -0.0000019999999949504854 47.799525599999996 -0.0000019999999949504854 46.0085256 z"/><line x1="239.41094970703125" x2="258.81195068359375" y1="188.05104064941406" y2="188.05104064941406" fill="none" stroke="#000000"/><line x1="271.1731831" x2="230.1571831" y1="248.68710880000003" y2="248.68710880000003" fill="none" stroke="#000000"/><line x1="271.5694580078125" x2="258.81146240234375" y1="210.25900268554688" y2="210.25900268554688" fill="none" stroke="#000000"/><line x1="100.3536148071289" x2="87.1296157836914" y1="251.09353637695312" y2="251.09353637695312" fill="none" stroke="#000000"/><path fill="none" stroke="#000000" d="M 230.1571831 248.68785879999996 L 230.1571831 243.6043588 L 230.1571831 243.6043588 L 247.6036831 243.6043588 L 247.6036831 243.6043588 L 247.6036831 243.4888588 L 247.6036831 243.4888588 C 246.1591831 242.68035880000002 244.8886831 241.40985879999994 244.0224331 239.84910880000007 C 243.1554331 238.3476088000001 242.5779331 236.55585880000012 242.5779331 234.6501088 C 242.5779331 230.89485880000007 244.88868309999998 224.88660879999998 254.5359331 224.88660879999998 L 254.5359331 224.88660879999998 L 271.1739331 224.88660879999998 L 271.1739331 224.88660879999998 L 271.1739331 229.97010880000005 L 271.1739331 229.97010880000005 L 255.1134331 229.97010880000005 L 255.1134331 229.97010880000005 C 250.60743309999998 229.97010880000005 246.7944331 231.64485879999995 246.7944331 236.4403588 C 246.7944331 239.73285880000003 249.1051831 242.33235879999995 251.8779331 243.25710879999997 C 252.5709331 243.54585880000002 253.3216831 243.60360880000007 254.3041831 243.60360880000007 L 254.3041831 243.60360880000007 L 271.1731831 243.60360880000007 L 271.1731831 243.60360880000007 L 271.1731831 254.07240295410156"/><path fill="none" stroke="#000000" d="M 251.1792114000001 129.6258274 C 253.14421140000002 130.7815774 255.97471140000005 131.5323274 259.03621140000007 131.5323274 C 265.6797114000001 131.5323274 269.49196140000015 128.0658274 269.49196140000015 123.15557740000001 C 269.49196140000015 118.99607740000002 267.00871140000004 116.56982740000001 262.15546140000004 114.72107740000001 C 258.5157114 113.3343274 256.8409614000001 112.2948274 256.8409614000001 109.9840774 C 256.8409614000001 107.9043274 258.5157114000001 106.1710774 261.5202114000001 106.1710774 C 264.1197114 106.1710774 266.1417114000001 107.0958274 267.2389614000001 107.7888274 L 267.2389614000001 107.7888274 L 268.5102114000001 104.09132740000001 L 268.5102114000001 104.09132740000001 C 266.95021140000006 103.16657740000001 264.4654614000001 102.35807740000001 261.6357114000001 102.35807740000001 C 255.62746140000002 102.35807740000001 251.98771140000008 106.0555774 251.98771140000008 110.5615774 C 251.98771140000008 113.9125774 254.3562114 116.6853274 259.3819614 118.4763274 C 263.13721140000007 119.8623274 264.5817114 121.1913274 264.5817114 123.6175774 C 264.5817114 125.9283274 262.84921140000006 127.7770774 259.15171140000007 127.7770774 C 256.60921140000005 127.7770774 253.95196140000007 126.7375774 252.44971140000007 125.7550774 L 252.44971140000007 125.7550774 L 251.1792114000001 129.6258274 z"/><path fill="none" stroke="#000000" d="M 272.05519530000004 181.91213729999998 L 277.08094530000005 181.91213729999998 L 277.08094530000005 181.91213729999998 L 277.08094530000005 140.89538729999998 L 277.08094530000005 140.89538729999998 L 272.05519530000004 140.89538729999998 L 272.05519530000004 140.89538729999998 L 272.05519530000004 151.40963729999999 L 272.05519530000004 151.40963729999999 L 269.4556953 154.2986373 L 269.4556953 154.2986373 L 259.8076953 140.8961373 L 259.8076953 140.8961373 L 253.6269453 140.8961373 L 253.6269453 140.8961373 L 265.93144529999995 157.3608873 L 265.93144529999995 157.3608873 L 255.1291953 168.85688729999998 L 255.1291953 168.85688729999998 L 261.25219530000004 168.85688729999998 L 261.25219530000004 168.85688729999998 L 269.4556953 159.2096373 L 269.4556953 159.2096373 C 270.2649453 158.22713729999998 271.24669530000006 157.0143873 271.93969530000004 156.0318873 L 271.93969530000004 156.0318873 L 272.05519530000004 156.0318873 L 272.05519530000004 156.0318873 L 272.05519530000004 181.91213729999998 z"/><path fill="none" stroke="#000000" d="M 302.0287586 1.097250000000031 C 303.0105086 3.1200000000000045 303.6465086 6.23924999999997 303.6465086 9.300749999999994 C 303.6465086 18.77550000000008 297.5227586 24.263250000000085 287.9910086 24.263250000000085 C 277.7655086 24.263250000000085 271.9305086 18.19724999999994 271.9305086 9.069749999999999 C 271.9305086 5.834249999999997 272.6242586 3.119250000000079 273.5482586 1.2127500000000282 L 273.5482586 1.2127500000000282 L 269.4465086 0 L 269.4465086 0 C 268.7535086 1.3282500000000255 267.7132586 4.389749999999935 267.7132586 9.243000000000052 C 267.7132586 21.315750000000094 275.9752586 29.577750000000037 288.1642586 29.577750000000037 C 300.9315086 29.577750000000037 307.8637586 21.31650000000002 307.8637586 10.340250000000083 C 307.8637586 5.603250000000003 306.93900859999997 1.9057500000000118 306.0150086 0.05700000000001638 L 306.0150086 0.05700000000001637 L 302.0287586 1.097250000000031 z"/><path fill="none" stroke="#000000" d="M 293.90944399999995 112.53127589999986 C 294.545444 113.97427589999984 295.29619399999996 115.88077589999989 295.29619399999996 118.7697758999999 C 295.29619399999996 124.31527589999985 291.309944 128.47477589999994 284.83969399999995 128.47477589999994 C 279.004694 128.47477589999994 274.26769399999995 125.00827589999983 274.26769399999995 118.59577589999992 C 274.26769399999995 115.82302589999995 274.902944 113.9165258999999 275.595944 112.70377589999987 L 275.595944 112.70377589999987 L 271.667444 111.54802589999986 L 271.667444 111.54802589999986 C 270.97444399999995 112.93477589999986 270.22369399999997 115.59202589999995 270.22369399999997 118.59577589999992 C 270.22369399999997 127.7240258999999 276.46219399999995 133.61602589999995 285.06994399999996 133.61602589999995 C 293.619944 133.61602589999995 299.33944399999996 128.12827589999995 299.33944399999996 119.69377589999999 C 299.33944399999996 115.93852589999995 298.415444 112.99177589999988 297.72169399999996 111.66352589999997 L 297.72169399999996 111.66352589999997 L 293.90944399999995 112.53127589999986 z"/><path d="M 23.674257278442383 0.00024637419846840224 L 55.99525451660156 14.004243850708008 L 55.99525451660156 14.004243850708008 L 114.42825317382812 32.67825698852539 L 114.42825317382812 32.67825698852539 L 20.711244583129883 37.734256744384766 L 20.711244583129883 37.734256744384766 L 0.0002451096079312266 16.728242874145508 L 0.0002451096079312265 16.728242874145508 L 23.674257278442383 0.00024637419846840203 z" fill="none" stroke="#000000"/><path d="M 37.734249114990234 61.393829345703125 L 23.730283737182617 93.71484375 L 23.730283737182617 93.71484375 L 5.055234432220459 152.14883422851562 L 5.055234432220459 152.14883422851562 L 0.0002416164061287419 58.43084716796875 L 0.0002416164061287419 58.43084716796875 L 21.006284713745117 37.718841552734375 L 21.006284713745117 37.718841552734375 L 37.734249114990234 61.393829345703125 z" fill="none" stroke="#000000"/><path d="M 23.675479888916016 138.99276733398438 L 55.995487213134766 152.99575805664062 L 55.995487213134766 152.99575805664062 L 114.42950439453125 171.67074584960938 L 114.42950439453125 171.67074584960938 L 20.711490631103516 176.72573852539062 L 20.711490631103516 176.72573852539062 L 0.0004918304621241988 155.71975708007812 L 0.0004918304621241987 155.71975708007812 L 23.675479888916016 138.99276733398438 z" fill="none" stroke="#000000"/><path d="M 21.234006881713867 101.52465057373047 L 46.48420715332031 145.2596435546875 L 46.48420715332031 145.2596435546875 L 71.73370361328125 101.52465057373047 L 71.73370361328125 101.52465057373047 L 55.23370361328125 101.52465057373047 L 55.23370361328125 101.52465057373047 L 55.23370361328125 56.97964096069336 L 55.23370361328125 56.97964096069336 L 37.734004974365234 56.97964096069336 L 37.734004974365234 56.97964096069336 L 37.734004974365234 101.52465057373047 L 37.734004974365234 101.52465057373047 L 21.234006881713867 101.52465057373047 z" fill="none" stroke="#000000"/><path d="M 68.27208709716797 107.51995086669922 L 99.20108795166016 110.63091278076172 L 99.20108795166016 110.63091278076172 L 97.84008026123047 129.886962890625 L 97.84008026123047 129.886962890625 L 105.36107635498047 134.45892333984375 L 105.36107635498047 134.45892333984375 L 100.17308807373047 151.28192138671875 L 100.17308807373047 151.28192138671875 L 82.2790756225586 161.39593505859375 L 82.2790756225586 161.39593505859375 L 60.24907684326172 138.8359375 L 60.24907684326172 138.8359375 L 68.27208709716797 107.51995086669922 z" fill="none" stroke="#000000"/><path d="M 96.49657440185547 98.44581604003906 L 78.6025619506836 108.559814453125 L 78.6025619506836 108.559814453125 L 56.573570251464844 85.99880981445312 L 56.573570251464844 85.99880981445312 L 64.5965805053711 54.68382263183594 L 64.5965805053711 54.68382263183594 L 95.52556610107422 57.79481506347656 L 95.52556610107422 57.79481506347656 L 94.16356658935547 77.04981994628906 L 94.16356658935547 77.04981994628906 L 101.68456268310547 81.62281799316406 L 101.68456268310547 81.62281799316406 L 93.7588254496128 107.32346625425954" fill="none" stroke="#000000"/><path d="M 98.94705200195312 90.50054168701172 L 116.84207153320312 80.38655853271484 L 116.84207153320312 80.38655853271484 L 138.87106323242188 102.94756317138672 L 138.87106323242188 102.94756317138672 L 130.84805297851562 134.2625274658203" fill="none" stroke="#000000"/><path d="M 93.75906372070312 107.32353973388672 L 101.28109741210938 111.89556121826172 L 101.28109741210938 111.89556121826172 L 99.92007446289062 131.1515350341797 L 99.92007446289062 131.1515350341797 L 145.86871689906633 135.77343034463092" fill="none" stroke="#000000"/><path d="M 94.33537292480469 74.62044525146484 L 97.44633483886719 43.69344711303711 L 97.44633483886719 43.69344711303711 L 116.70237731933594 45.05343246459961 L 116.70237731933594 45.05343246459961 L 121.27433776855469 37.53243637084961 L 121.27433776855469 37.53243637084961 L 138.0973358154297 42.720455169677734 L 138.0973358154297 42.720455169677734 L 148.2113494873047 60.614437103271484 L 148.2113494873047 60.614437103271484 L 125.65135192871094 82.64342498779297 L 125.65135192871094 82.64342498779297 L 94.33537292480469 74.62044525146484 z" fill="none" stroke="#000000"/><path d="M 145.86875915527344 135.77301025390625 L 144.5077667236328 155.02902221679688 L 144.5077667236328 155.02902221679688 L 152.0287628173828 159.60101318359375 L 152.0287628173828 159.60101318359375 L 146.84075927734375 176.42401123046875 L 146.84075927734375 176.42401123046875 L 128.94676208496094 186.53799438476562 L 128.94676208496094 186.53799438476562 L 106.91776275634766 163.97799682617188 L 106.91776275634766 163.97799682617188 L 114.94075775146484 132.66201782226562" fill="none" stroke="#000000"/><path d="M 134.9836883544922 -0.00030538983992300944 L 165.9106903076172 3.110717535018921 L 165.9106903076172 3.110717535018921 L 164.55064392089844 22.36669921875 L 164.55064392089844 22.36669921875 L 172.0717010498047 26.938720703125 L 172.0717010498047 26.938720703125 L 166.88365173339844 43.76171875 L 166.88365173339844 43.76171875 L 148.9896697998047 53.875732421875 L 148.9896697998047 53.875732421875 L 126.96067810058594 31.314697265625 L 126.96067810058594 31.314697265625 L 134.9836883544922 -0.0003053898399230093 z" fill="none" stroke="#000000"/><path d="M 185.82504272460938 98.9490966796875 L 161.75604248046875 118.61709594726562 L 161.75604248046875 118.61709594726562 L 149.10305786132812 104.03810119628906 L 149.10305786132812 104.03810119628906 L 140.55105590820312 106.12510681152344 L 140.55105590820312 106.12510681152344 L 132.32305908203125 90.56010437011719 L 132.32305908203125 90.56010437011719 L 137.8260498046875 70.75608825683594 L 137.8260498046875 70.75608825683594 L 169.3570556640625 71.13410949707031 L 169.3570556640625 71.13410949707031 L 185.82504272460938 98.9490966796875 z" fill="none" stroke="#000000"/><path d="M 164.47718811035156 174.83460998535156 L 144.80918884277344 150.76661682128906 L 144.80918884277344 150.76661682128906 L 159.38819885253906 138.1136016845703 L 159.38819885253906 138.1136016845703 L 157.29917907714844 129.5615997314453 L 157.29917907714844 129.5615997314453 L 172.8641815185547 121.33460235595703 L 172.8641815185547 121.33460235595703 L 192.67018127441406 126.83460235595703 L 192.67018127441406 126.83460235595703 L 192.2911834716797 158.36659240722656 L 192.2911834716797 158.36659240722656 L 164.47718811035156 174.83460998535156 z" fill="none" stroke="#000000"/><path d="M 132.8260040283203 201.45948791503906 L 108.75697326660156 221.12649536132812 L 108.75697326660156 221.12649536132812 L 96.10395812988281 206.54949951171875 L 96.10395812988281 206.54949951171875 L 87.55195617675781 208.63648986816406 L 87.55195617675781 208.63648986816406 L 79.32398986816406 193.07150268554688 L 79.32398986816406 193.07150268554688 L 84.82698059082031 173.26748657226562 L 84.82698059082031 173.26748657226562 L 116.35798645019531 173.64547729492188 L 116.35798645019531 173.64547729492188 L 132.8260040283203 201.45948791503906 z" fill="none" stroke="#000000"/><path d="M 164.92596435546875 233.49562072753906 L 143.30496215820312 221.49964904785156 L 143.30496215820312 221.49964904785156 L 148.31494140625 171.6446075439453 L 148.31494140625 171.6446075439453 L 182.8299560546875 178.45765686035156 L 182.8299560546875 178.45765686035156 L 164.92596435546875 233.49562072753906 z" fill="none" stroke="#000000"/><path d="M 49.85575866699219 211.72930908203125 L 61.85075378417969 190.1072998046875 L 61.85075378417969 190.1072998046875 L 6.812759876251221 172.20428466796875 L 6.812759876251221 172.20428466796875 L -0.00024347793078050028 206.71829223632812 L -0.00024347793078050017 206.71829223632812 L 61.84975435730929 212.93482320000572" fill="none" stroke="#000000"/><path d="M 164.9267120361328 233.4933624267578 L 199.44171142578125 240.30738830566406 L 199.44171142578125 240.30738830566406 L 204.4517059326172 190.45338439941406 L 204.4517059326172 190.45338439941406 L 182.8297119140625 178.4573516845703" fill="none" stroke="#000000"/><path d="M 61.849727630615234 212.93508911132812 L 55.037715911865234 247.44906616210938 L 55.037715911865234 247.44906616210938 L -0.0003073851694352925 229.54611206054688 L -0.0003073851694352925 229.54611206054688 L 11.995725631713867 207.92507934570312" fill="none" stroke="#000000"/><path d="M 189.34266662597656 82.2218017578125 L 167.7206573486328 70.22576904296875 L 167.7206573486328 70.22576904296875 L 172.73165893554688 20.371761322021484 L 172.73165893554688 20.371761322021484 L 207.24566650390625 27.18478012084961 L 207.24566650390625 27.18478012084961 L 189.34266662597656 82.2218017578125 z" fill="none" stroke="#000000"/><path d="M 173.7098388671875 120.66693878173828 L 185.70587158203125 99.04590606689453 L 185.70587158203125 99.04590606689453 L 235.55987548828125 104.05591583251953 L 235.55987548828125 104.05591583251953 L 228.74786376953125 138.5709228515625 L 228.74786376953125 138.5709228515625 L 173.7098388671875 120.66693878173828 z" fill="none" stroke="#000000"/><path d="M 220.3354949951172 67.24510955810547 L 243.0904998779297 39.86107635498047 L 243.0904998779297 39.86107635498047 L 203.12149047851562 39.86107635498047 L 203.12149047851562 39.86107635498047 L 203.12149047851562 100.79607391357422 L 203.12149047851562 100.79607391357422 L 220.3354949951172 100.79607391357422 L 220.3354949951172 100.79607391357422 L 220.3354949951172 67.24504852294922 z" fill="none" stroke="#000000"/><path d="M 61.850215911865234 238.34048461914062 L 61.850215911865234 198.37149047851562 L 61.850215911865234 198.37149047851562 L 89.23422241210938 221.12649536132812 L 89.23422241210938 221.12649536132812 L 122.78521728515625 221.12649536132812 L 122.78521728515625 221.12649536132812 L 122.78521728515625 238.34048461914062 L 122.78521728515625 238.34048461914062 L 56.83533477783203 238.34048461914062" fill="none" stroke="#000000"/><path d="M 222.19796752929688 179.37294006347656 L 222.19796752929688 212.92393493652344 L 222.19796752929688 212.92393493652344 L 199.44198608398438 240.3079376220703 L 199.44198608398438 240.3079376220703 L 239.41098022460938 240.3079376220703 L 239.41098022460938 240.3079376220703 L 239.41098022460938 179.37294006347656 L 239.41098022460938 179.37294006347656 L 221.6649627685547 179.37294006347656" fill="none" stroke="#000000"/><path d="M 204.45220947265625 138.5704345703125 L 204.45220947265625 199.50494384765625 L 204.45220947265625 199.50494384765625 L 221.66522216796875 199.50494384765625 L 221.66522216796875 199.50494384765625 L 221.66522216796875 165.95443725585938 L 221.66522216796875 165.95443725585938 L 244.42120361328125 138.5704345703125 L 244.42120361328125 138.5704345703125 L 204.45220947265625 138.5704345703125 z" fill="none" stroke="#000000"/><path d="M 258.9768981933594 41.458831787109375 L 241.76388549804688 41.458831787109375 L 241.76388549804688 41.458831787109375 L 241.76388549804688 75.00881958007812 L 241.76388549804688 75.00881958007812 L 219.00888061523438 102.39279174804688 L 219.00888061523438 102.39279174804688 L 258.9768981933594 102.39279174804688 L 258.9768981933594 102.39279174804688 L 258.9768981933594 19.693754196166992" fill="none" stroke="#000000"/><path d="M 146.4556884765625 223.2475128173828 L 148.585693359375 240.3655242919922 L 148.585693359375 240.3655242919922 L 186.4456787109375 238.03150939941406 L 186.4456787109375 238.03150939941406 L 157.42770385742188 251.2575225830078 L 157.42770385742188 251.2575225830078 L 116.29871368408203 248.9235076904297 L 116.29871368408203 248.9235076904297 L 131.07968139648438 224.8045196533203 L 131.07968139648438 224.8045196533203 L 146.4556884765625 223.2475128173828 z" fill="none" stroke="#000000"/><path d="M 228.3639373779297 157.89353942871094 L 245.48094177246094 155.7642364501953 L 245.48094177246094 155.7642364501953 L 243.14695739746094 117.90504455566406 L 243.14695739746094 117.90504455566406 L 256.37396240234375 146.92254638671875 L 256.37396240234375 146.92254638671875 L 254.03993225097656 188.05104064941406 L 254.03993225097656 188.05104064941406 L 229.9209442138672 173.27005004882812 L 229.9209442138672 173.27005004882812 L 228.3639373779297 157.89353942871094 z" fill="none" stroke="#000000"/><path d="M 229.76377868652344 -0.00023989375040400776 L 231.8917694091797 17.116764068603516 L 231.8917694091797 17.116764068603516 L 269.75274658203125 14.782779693603516 L 269.75274658203125 14.782779693603516 L 240.73374938964844 28.008731842041016 L 240.73374938964844 28.008731842041016 L 199.6047821044922 25.676761627197266 L 199.6047821044922 25.676761627197266 L 214.3867645263672 1.5567669868469236 L 214.3867645263672 1.5567669868469238 L 229.76377868652344 -0.00023989375040400773 z" fill="none" stroke="#000000"/><path d="M 128.40765380859375 6.263241291046143 L 92.47967529296875 6.263241291046143 L 92.47967529296875 6.263241291046143 L 92.47967529296875 25.664241790771484 L 92.47967529296875 25.664241790771484 L 128.40765380859375 25.664241790771484 L 128.40765380859375 25.664241790771484 L 128.40765380859375 6.263241291046143 z" fill="none" stroke="#000000"/><path d="M 201.8391876220703 -0.0004884820082224905 L 165.9111785888672 -0.0004884820082224905 L 165.9111785888672 -0.0004884820082224905 L 165.9111785888672 19.4005126953125 L 165.9111785888672 19.4005126953125 L 201.8391876220703 19.4005126953125 L 201.8391876220703 19.4005126953125 L 201.8391876220703 -0.0004884820082224905 z" fill="none" stroke="#000000"/><path d="M 239.41094970703125 223.97901916503906 L 258.81195068359375 223.97901916503906 L 258.81195068359375 223.97901916503906 L 258.81195068359375 179.96499633789062" fill="none" stroke="#000000"/><path d="M 157.08497619628906 123.74890899658203 L 152.0939483642578 127.54190826416016 L 152.0939483642578 127.54190826416016 L 149.4989776611328 131.95889282226562 L 149.4989776611328 131.95889282226562 L 143.35694885253906 131.95889282226562 L 143.35694885253906 131.95889282226562 L 139.7439727783203 127.54190826416016 L 139.7439727783203 127.54190826416016 L 136.43495178222656 125.1128921508789 L 136.43495178222656 125.1128921508789 L 136.43495178222656 118.69388580322266 L 136.43495178222656 118.69388580322266 L 141.00697326660156 115.8729019165039 L 141.00697326660156 115.8729019165039 L 143.37294006347656 108.7739028930664 L 143.37294006347656 108.7739028930664 L 149.4989776611328 108.7739028930664 L 149.4989776611328 108.7739028930664 L 151.5099639892578 115.8729019165039 L 151.5099639892578 115.8729019165039 L 157.08497619628906 118.69388580322266 L 157.08497619628906 118.69388580322266 L 157.08497619628906 123.74890899658203 z" fill="none" stroke="#000000"/><path d="M 258.9778747558594 19.693754196166992 L 271.7348937988281 19.693754196166992 L 271.7348937988281 19.693754196166992 L 271.7348937988281 49.98873519897461 L 271.7348937988281 49.98873519897461 L 258.9778747558594 49.98873519897461" fill="none" stroke="#000000"/><path d="M 56.83533477783203 238.34072875976562 L 56.83533477783203 251.09774780273438 L 56.83533477783203 251.09774780273438 L 87.12934112548828 251.09774780273438 L 87.12934112548828 251.09774780273438 L 87.12934112548828 238.34072875976562" fill="none" stroke="#000000"/><path d="M 94.60232543945312 39.97883605957031 L 96.54932403564453 52.61283874511719 L 96.54932403564453 52.61283874511719 L 86.62982177734375 56.89982604980469 L 86.62982177734375 56.89982604980469 L 73.59712219238281 55.34281921386719 L 73.59712219238281 55.34281921386719 L 75.34752655029297 35.00083923339844 L 75.34752655029297 35.00083923339844 L 94.60232543945312 39.97883605957031 z" fill="none" stroke="#000000"/><path d="M 15.767184257507324 118.62825775146484 L 28.402193069458008 116.6822738647461 L 28.402193069458008 116.6822738647461 L 32.690189361572266 126.60128021240234 L 32.690189361572266 126.60128021240234 L 31.133180618286133 139.63426208496094 L 31.133180618286133 139.63426208496094 L 10.791171073913574 137.88328552246094 L 10.791171073913574 137.88328552246094 L 15.767184257507324 118.62825775146484 z" fill="none" stroke="#000000"/><path d="M 21.004701614379883 236.37918090820312 L 22.951723098754883 249.01416015625 L 22.951723098754883 249.01416015625 L 13.032715797424316 253.30117797851562 L 13.032715797424316 253.30117797851562 L -0.00030399608658626686 251.74417114257812 L -0.00030399608658626686 251.74417114257812 L 1.7507336139678957 231.40216064453125 L 1.7507336139678955 231.40216064453125 L 21.004701614379883 236.37918090820312 z" fill="none" stroke="#000000"/><path d="M 279.9821472167969 54.96651840209961 L 281.9291687011719 67.60052490234375 L 281.9291687011719 67.60052490234375 L 272.0101623535156 71.88851928710938 L 272.0101623535156 71.88851928710938 L 258.9771423339844 70.33152770996094 L 258.9771423339844 70.33152770996094 L 260.7281799316406 49.988521575927734 L 260.7281799316406 49.988521575927734 L 279.9821472167969 54.96651840209961 z" fill="none" stroke="#000000"/><path d="M 279.982421875 75.51773071289062 L 281.92840576171875 88.15274047851562 L 281.92840576171875 88.15274047851562 L 272.0104064941406 92.43972778320312 L 272.0104064941406 92.43972778320312 L 258.9774169921875 90.88275146484375 L 258.9774169921875 90.88275146484375 L 260.7274169921875 70.54074096679688 L 260.7274169921875 70.54074096679688 L 279.982421875 75.51773071289062 z" fill="none" stroke="#000000"/><path d="M 61.85099792480469 174.5065155029297 L 61.85099792480469 197.6912078857422 L 61.85099792480469 197.6912078857422 L 75.46699523925781 197.6912078857422 L 75.46699523925781 197.6912078857422 L 75.46699523925781 174.5065155029297 L 75.46699523925781 174.5065155029297 L 61.85099792480469 174.5065155029297 z" fill="none" stroke="#000000"/><path d="M 204.02882385253906 182.66392517089844 L 204.02882385253906 159.4799041748047 L 204.02882385253906 159.4799041748047 L 190.4118194580078 159.4799041748047 L 190.4118194580078 159.4799041748047 L 190.4118194580078 182.66392517089844 L 190.4118194580078 182.66392517089844 L 204.02882385253906 182.66392517089844 z" fill="none" stroke="#000000"/><path d="M 53.45787048339844 50.83530044555664 L 53.45787048339844 37.219303131103516 L 53.45787048339844 37.219303131103516 L 30.273880004882812 37.219303131103516 L 30.273880004882812 37.219303131103516 L 30.273880004882812 50.83530044555664 L 30.273880004882812 50.83530044555664 L 55.19614028930664 50.83530044555664" fill="none" stroke="#000000"/><path d="M 271.5694634 216.5741373 L 259.6692134 216.5741373 L 259.6692134 216.5741373 L 259.6692134 220.8491373 L 259.6692134 220.8491373 L 288.4969634 220.8491373 L 288.4969634 220.8491373 L 288.4969634 216.5741373 L 288.4969634 216.5741373 L 276.6537134 216.5741373 L 276.6537134 216.5741373 L 276.6537134 181.91213729999998 L 276.6537134 181.91213729999998 L 271.5694634 181.91213729999998" fill="none" stroke="#000000"/><path d="M 53.45738220214844 40.915706634521484 L 60.11537170410156 35.608699798583984 L 60.11537170410156 35.608699798583984 L 68.41438293457031 37.502681732177734 L 68.41438293457031 37.502681732177734 L 72.10939025878906 45.172664642333984 L 72.10939025878906 45.172664642333984 L 68.41438293457031 52.842708587646484 L 68.41438293457031 52.842708587646484 L 60.11537170410156 54.736690521240234 L 60.11537170410156 54.736690521240234 L 53.45738220214844 49.428707122802734" fill="none" stroke="#000000"/><path d="M 65.37773132324219 13.8190336227417 L 72.03573608398438 19.130006790161133 L 72.03573608398438 19.130006790161133 L 80.33473205566406 17.233034133911133 L 80.33473205566406 17.233034133911133 L 84.02973175048828 9.56604290008545 L 84.02973175048828 9.56604290008545 L 80.33473205566406 1.8970364332199097 L 80.33473205566406 1.8970364332199097 L 72.03573608398438 0.0000027562500690692117 L 72.03573608398438 0.0000027562500690692117 L 65.37773132324219 5.309023857116699 L 65.37773132324219 5.309023857116699 L 65.37773132324219 13.8190336227417 z" fill="none" stroke="#000000"/><path d="M 120.95841979980469 219.6703643798828 L 127.61540222167969 224.97866821289062 L 127.61540222167969 224.97866821289062 L 135.91441345214844 223.08517456054688 L 135.91441345214844 223.08517456054688 L 139.60838317871094 215.4149627685547 L 139.60838317871094 215.4149627685547 L 135.91441345214844 207.7446746826172 L 135.91441345214844 207.7446746826172 L 127.61540222167969 205.85096740722656 L 127.61540222167969 205.85096740722656 L 120.95841979980469 211.15716552734375 L 120.95841979980469 211.15716552734375 L 120.95841979980469 219.6703643798828 z" fill="none" stroke="#000000"/><path d="M 152.98687744140625 51.616580963134766 L 147.67584228515625 58.27359390258789 L 147.67584228515625 58.27359390258789 L 149.5728759765625 66.57357788085938 L 149.5728759765625 66.57357788085938 L 157.2398681640625 70.267578125 L 157.2398681640625 70.267578125 L 164.90985107421875 66.57357788085938 L 164.90985107421875 66.57357788085938 L 166.80584716796875 58.27359390258789 L 166.80584716796875 58.27359390258789 L 161.49786376953125 51.616580963134766 L 161.49786376953125 51.616580963134766 L 152.98687744140625 51.616580963134766 z" fill="none" stroke="#000000"/><path d="M 201.89959716796875 86.18399047851562 L 195.24160766601562 80.87399291992188 L 195.24160766601562 80.87399291992188 L 186.94259643554688 82.76998901367188 L 186.94259643554688 82.76998901367188 L 183.24761962890625 90.43798828125 L 183.24761962890625 90.43798828125 L 186.94259643554688 98.10798645019531 L 186.94259643554688 98.10798645019531 L 195.24160766601562 100.00399017333984 L 195.24160766601562 100.00399017333984 L 201.89959716796875 94.69499206542969 L 201.89959716796875 94.69499206542969 L 201.89959716796875 86.18399047851562 z" fill="none" stroke="#000000"/><path d="M 208.0705108642578 200.61773681640625 L 202.76148986816406 207.27474975585938 L 202.76148986816406 207.27474975585938 L 204.6554718017578 215.57473754882812 L 204.6554718017578 215.57473754882812 L 212.3255157470703 219.26873779296875 L 212.3255157470703 219.26873779296875 L 219.99452209472656 215.57473754882812 L 219.99452209472656 215.57473754882812 L 221.8894805908203 207.27474975585938 L 221.8894805908203 207.27474975585938 L 216.5824737548828 200.61773681640625 L 216.5824737548828 200.61773681640625 L 208.0705108642578 200.61773681640625 z" fill="none" stroke="#000000"/><path d="M 220.3350067138672 67.24504852294922 L 226.9929962158203 61.93907928466797 L 226.9929962158203 61.93907928466797 L 235.29200744628906 63.83306121826172 L 235.29200744628906 63.83306121826172 L 238.9860076904297 71.50304412841797 L 238.9860076904297 71.50304412841797 L 235.29200744628906 79.17302703857422 L 235.29200744628906 79.17302703857422 L 226.9929962158203 81.06707000732422 L 226.9929962158203 81.06707000732422 L 220.3350067138672 75.75804901123047" fill="none" stroke="#000000"/><path d="M 267.9620361328125 241.04299926757812 L 274.6199951171875 246.35198974609375 L 274.6199951171875 246.35198974609375 L 282.91802978515625 244.45797729492188 L 282.91802978515625 244.45797729492188 L 286.613037109375 236.78799438476562 L 286.613037109375 236.78799438476562 L 282.91802978515625 229.11798095703125 L 282.91802978515625 229.11798095703125 L 274.6199951171875 227.2239990234375 L 274.6199951171875 227.2239990234375 L 267.9620361328125 232.52999877929688 L 267.9620361328125 232.52999877929688 L 267.9620361328125 241.04299926757812 z" fill="none" stroke="#000000"/><path d="M 283.52813720703125 107.95126342773438 L 288.838134765625 101.29428100585938 L 288.838134765625 101.29428100585938 L 286.9411315917969 92.99325561523438 L 286.9411315917969 92.99325561523438 L 279.2741394042969 89.30026245117188 L 279.2741394042969 89.30026245117188 L 271.6051330566406 92.99325561523438 L 271.6051330566406 92.99325561523438 L 269.7091369628906 101.29428100585938 L 269.7091369628906 101.29428100585938 L 275.01812744140625 107.95126342773438 L 275.01812744140625 107.95126342773438 L 283.52813720703125 107.95126342773438 z" fill="none" stroke="#000000"/><path d="M 271.7348937988281 32.428585052490234 L 278.39288330078125 27.11959457397461 L 278.39288330078125 27.11959457397461 L 286.69189453125 29.016597747802734 L 286.69189453125 29.016597747802734 L 290.38690185546875 36.685604095458984 L 290.38690185546875 36.685604095458984 L 286.69189453125 44.352596282958984 L 286.69189453125 44.352596282958984 L 278.39288330078125 46.24959945678711 L 278.39288330078125 46.24959945678711 L 271.7348937988281 40.938594818115234" fill="none" stroke="#000000"/><path d="M 288.8400573730469 18.6510009765625 L 294.1510314941406 11.992996215820312 L 294.1510314941406 11.992996215820312 L 292.2540588378906 3.694000482559204 L 292.2540588378906 3.694000482559204 L 284.5870666503906 1.4765623745915946e-7 L 284.5870666503906 1.4765623745915946e-7 L 276.9180603027344 3.694000482559204 L 276.9180603027344 3.694000482559204 L 275.0200500488281 11.992996215820312 L 275.0200500488281 11.992996215820312 L 280.3280334472656 18.6510009765625 L 280.3280334472656 18.6510009765625 L 288.8400573730469 18.6510009765625 z" fill="none" stroke="#000000"/><path d="M 276.65386962890625 182.2520294189453 L 283.3118591308594 176.94503784179688 L 283.3118591308594 176.94503784179688 L 291.60986328125 178.84103393554688 L 291.60986328125 178.84103393554688 L 295.30487060546875 186.5110321044922 L 295.30487060546875 186.5110321044922 L 291.60986328125 194.17803955078125 L 291.60986328125 194.17803955078125 L 283.3118591308594 196.0750274658203 L 283.3118591308594 196.0750274658203 L 276.65386962890625 190.7640380859375" fill="none" stroke="#000000"/><path d="M 290.4737854003906 214.0609588623047 L 295.7847595214844 207.4029541015625 L 295.7847595214844 207.4029541015625 L 293.8877868652344 199.10496520996094 L 293.8877868652344 199.10496520996094 L 286.2207946777344 195.4099578857422 L 286.2207946777344 195.4099578857422 L 278.5517883300781 199.10496520996094 L 278.5517883300781 199.10496520996094 L 276.6537780761719 207.4029541015625 L 276.6537780761719 207.4029541015625 L 281.9617614746094 214.0609588623047 L 281.9617614746094 214.0609588623047 L 290.4737854003906 214.0609588623047 z" fill="none" stroke="#000000"/><path d="M 290.899169921875 152.0619659423828 L 296.210205078125 145.4039764404297 L 296.210205078125 145.4039764404297 L 294.31317138671875 137.10496520996094 L 294.31317138671875 137.10496520996094 L 286.64617919921875 133.4099578857422 L 286.64617919921875 133.4099578857422 L 278.9771728515625 137.10496520996094 L 278.9771728515625 137.10496520996094 L 277.0811767578125 145.4039764404297 L 277.0811767578125 145.4039764404297 L 282.38916015625 152.0619659423828 L 282.38916015625 152.0619659423828 L 290.899169921875 152.0619659423828 z" fill="none" stroke="#000000"/><path d="M 290.90240478515625 152.06129455566406 L 296.21142578125 158.7172393798828 L 296.21142578125 158.7172393798828 L 294.314453125 167.0172882080078 L 294.314453125 167.0172882080078 L 286.6444091796875 170.7112579345703 L 286.6444091796875 170.7112579345703 L 278.9774169921875 167.0172882080078 L 278.9774169921875 167.0172882080078 L 277.0814208984375 158.7172393798828 L 277.0814208984375 158.7172393798828 L 282.39239501953125 152.06129455566406" fill="none" stroke="#000000"/><path d="M 280.2764892578125 77.42821502685547 L 286.9344482421875 82.73821258544922 L 286.9344482421875 82.73821258544922 L 295.23345947265625 80.84117889404297 L 295.23345947265625 80.84117889404297 L 298.928466796875 73.17418670654297 L 298.928466796875 73.17418670654297 L 295.23345947265625 65.50518035888672 L 295.23345947265625 65.50518035888672 L 286.9344482421875 63.60918426513672 L 286.9344482421875 63.60918426513672 L 280.2764892578125 68.91820526123047 L 280.2764892578125 68.91820526123047 L 280.2764892578125 77.42821502685547 z" fill="none" stroke="#000000"/><path d="M 307.52825927734375 244.45822143554688 L 295.2232666015625 223.14620971679688 L 295.2232666015625 223.14620971679688 L 282.91827392578125 244.45822143554688 L 282.91827392578125 244.45822143554688 L 307.52825927734375 244.45822143554688 z" fill="none" stroke="#000000"/><path d="M 288.838623046875 106.91305541992188 L 310.1496276855469 94.6070556640625 L 310.1496276855469 94.6070556640625 L 288.838623046875 82.30307006835938 L 288.838623046875 82.30307006835938 L 288.838623046875 106.91305541992188 z" fill="none" stroke="#000000"/><path d="M 292.4082336425781 34.450950622558594 L 280.1042175292969 55.76195526123047 L 280.1042175292969 55.76195526123047 L 304.7142639160156 55.76195526123047 L 304.7142639160156 55.76195526123047 L 289.33944603074116 29.136568520629304" fill="none" stroke="#000000"/><path d="M 295.30535888671875 187.294921875 L 316.6163330078125 174.98992919921875 L 316.6163330078125 174.98992919921875 L 295.30535888671875 162.6849365234375 L 295.30535888671875 162.6849365234375 L 295.30535888671875 187.294921875 z" fill="none" stroke="#000000"/><path d="M 301.6453552246094 50.447059631347656 L 313.9493408203125 29.136056900024414 L 313.9493408203125 29.136056900024414 L 289.34033203125 29.136056900024414" fill="none" stroke="#000000"/><path d="M 308.82745361328125 206.59616088867188 L 308.82745361328125 187.12417602539062 L 308.82745361328125 187.12417602539062 L 295.6004638671875 187.12417602539062 L 295.6004638671875 187.12417602539062 L 295.6004638671875 206.59616088867188 L 295.6004638671875 206.59616088867188 L 310.1370849609375 206.59616088867188" fill="none" stroke="#000000"/><path d="M 309.4377136230469 151.62985229492188 L 309.4377136230469 132.15785217285156 L 309.4377136230469 132.15785217285156 L 296.210693359375 132.15785217285156 L 296.210693359375 132.15785217285156 L 296.210693359375 151.62985229492188 L 296.210693359375 151.62985229492188 L 309.4377136230469 151.62985229492188 z" fill="none" stroke="#000000"/><path d="M 296.91009521484375 206.59664916992188 L 296.91009521484375 226.06863403320312 L 296.91009521484375 226.06863403320312 L 310.1370849609375 226.06863403320312 L 310.1370849609375 226.06863403320312 L 310.1370849609375 202.74742126464844" fill="none" stroke="#000000"/><path d="M 304.71426820000005 86.146988 L 309.7977682 86.146988 L 309.7977682 86.146988 L 309.7977682 45.130987999999995 L 309.7977682 45.130987999999995 L 304.71426820000005 45.130987999999995 L 304.71426820000005 45.130987999999995 L 304.71426820000005 86.146988 z" fill="none" stroke="#000000"/><path d="M 0.00027829804457724105 42.888771057128906 L 12.75326919555664 42.888771057128906 L 12.75326919555664 42.888771057128906 L 12.75326919555664 29.662755966186523 L 12.75326919555664 29.662755966186523 L 0.00027829804457724105 29.662755966186523 L 0.00027829804457724094 29.662755966186523 L 0.00027829804457724094 42.888771057128906 z" fill="none" stroke="#000000"/><path d="M 100.3541030883789 238.33999633789062 L 100.3541030883789 251.56500244140625 L 100.3541030883789 251.56500244140625 L 113.10710906982422 251.56500244140625 L 113.10710906982422 251.56500244140625 L 113.10710906982422 238.33999633789062" fill="none" stroke="#000000"/><path d="M 22.9515393 251.191235 L 50.9122893 251.191235 L 50.9122893 251.191235 L 50.9122893 246.10773500000005 L 50.9122893 246.10773500000005 L 22.9515393 246.10773500000005 L 22.9515393 246.10773500000005 L 22.9515393 251.191235 z" fill="none" stroke="#000000"/><path d="M 35.40522539999999 5.082753700000126 L 63.365975399999996 5.082753700000126 L 63.365975399999996 5.082753700000126 L 63.365975399999996 0.0000037000000929765532 L 63.365975399999996 0.0000037000000929765532 L 35.40522539999999 0.0000037000000929765532 L 35.40522539999999 0.000003700000092976552 L 35.40522539999999 5.082753700000126 z" fill="none" stroke="#000000"/><path d="M 34.94802474975586 101.52489471435547 L 34.56100082397461 87.26888275146484 L 34.56100082397461 87.26888275146484 L 29.551023483276367 88.35689544677734 L 29.551023483276367 88.35689544677734 L 21.234006881713867 101.52489471435547" fill="none" stroke="#000000"/><path d="M 114.23806762695312 25.66372299194336 L 114.62509155273438 39.91970443725586 L 114.62509155273438 39.91970443725586 L 119.63507080078125 38.83169174194336 L 119.63507080078125 38.83169174194336 L 127.95108032226562 25.66372299194336" fill="none" stroke="#000000"/><path d="M 44.69178009033203 148.0984344482422 L 58.40477752685547 148.0984344482422 L 58.40477752685547 148.0984344482422 L 58.01776885986328 133.8434295654297 L 58.01776885986328 133.8434295654297 L 53.007774353027344 134.93040466308594 L 53.007774353027344 134.93040466308594 L 44.69178009033203 148.0984344482422 z" fill="none" stroke="#000000"/><path d="M 57.879493713378906 188.8153839111328 L 57.879493713378906 175.10240173339844 L 57.879493713378906 175.10240173339844 L 43.624488830566406 175.48939514160156 L 43.624488830566406 175.48939514160156 L 44.71149444580078 180.49839782714844 L 44.71149444580078 180.49839782714844 L 57.879493713378906 188.8153839111328 z" fill="none" stroke="#000000"/><path d="M 131.31727600097656 185.19784545898438 L 131.31727600097656 198.911865234375 L 131.31727600097656 198.911865234375 L 145.57177734375 198.52386474609375 L 145.57177734375 198.52386474609375 L 144.48507690429688 193.51486206054688 L 144.48507690429688 193.51486206054688 L 131.31727600097656 185.19784545898438 z" fill="none" stroke="#000000"/><path d="M 148.28829956054688 224.26473999023438 L 148.28829956054688 237.97872924804688 L 148.28829956054688 237.97872924804688 L 162.54330444335938 237.59072875976562 L 162.54330444335938 237.59072875976562 L 161.45626831054688 232.58169555664062 L 161.45626831054688 232.58169555664062 L 148.28829956054688 224.26473999023438 z" fill="none" stroke="#000000"/><path d="M 96.12064361572266 0.0000013267090253066276 L 82.40763092041016 0.0000013267090253066276 L 82.40763092041016 0.0000013267090253066276 L 85.19364166259766 16.432504653930664 L 85.19364166259766 16.432504653930664 L 87.80362701416016 13.170002937316895 L 87.80362701416016 13.170002937316895 L 96.12064361572266 0.0000013267090253066272 z" fill="none" stroke="#000000"/><path d="M 206.2771759033203 135.67864990234375 L 192.5631866455078 135.67864990234375 L 192.5631866455078 135.67864990234375 L 195.3541717529297 152.1106414794922 L 195.3541717529297 152.1106414794922 L 197.9641876220703 148.84664916992188 L 197.9641876220703 148.84664916992188 L 206.2771759033203 135.67864990234375 z" fill="none" stroke="#000000"/><path d="M 186.4454345703125 237.7422332763672 L 186.4454345703125 251.45521545410156 L 186.4454345703125 251.45521545410156 L 202.87640380859375 248.6652069091797 L 202.87640380859375 248.6652069091797 L 199.6134033203125 246.05421447753906 L 199.6134033203125 246.05421447753906 L 186.4454345703125 237.7422332763672 z" fill="none" stroke="#000000"/><path d="M 91.85575103759766 164.45639038085938 L 105.56873321533203 164.45639038085938 L 105.56873321533203 164.45639038085938 L 102.77875518798828 148.025390625 L 102.77875518798828 148.025390625 L 100.16873931884766 151.28839111328125 L 100.16873931884766 151.28839111328125 L 91.85575103759766 164.45639038085938 z" fill="none" stroke="#000000"/><path d="M 227.39517211914062 62.03070068359375 L 241.10818481445312 62.03070068359375 L 241.10818481445312 62.03070068359375 L 238.32315063476562 45.59869384765625 L 238.32315063476562 45.59869384765625 L 235.71316528320312 48.8616943359375 L 235.71316528320312 48.8616943359375 L 227.39517211914062 62.03070068359375 z" fill="none" stroke="#000000"/><path d="M 79.91162872314453 210.64878845214844 L 79.91162872314453 196.93679809570312 L 79.91162872314453 196.93679809570312 L 63.4806022644043 199.72579956054688 L 63.4806022644043 199.72579956054688 L 66.74359893798828 202.3367919921875 L 66.74359893798828 202.3367919921875 L 79.91162872314453 210.64878845214844 z" fill="none" stroke="#000000"/><path d="M 242.45941162109375 138.5701904296875 L 239.66937255859375 122.13819122314453 L 239.66937255859375 122.13819122314453 L 237.05938720703125 125.40216827392578 L 237.05938720703125 125.40216827392578 L 228.74737548828125 138.5701904296875" fill="none" stroke="#000000"/><path d="M 96.3423843383789 220.8561248779297 L 96.3423843383789 207.1441192626953 L 96.3423843383789 207.1441192626953 L 79.91138458251953 209.9341278076172 L 79.91138458251953 209.9341278076172 L 83.17438507080078 212.5441131591797 L 83.17438507080078 212.5441131591797 L 96.3423843383789 220.8561248779297 z" fill="none" stroke="#000000"/><path d="M 239.85455322265625 39.86125946044922 L 253.56655883789062 39.86125946044922 L 253.56655883789062 39.86125946044922 L 250.78155517578125 23.42925262451172 L 250.78155517578125 23.42925262451172 L 248.17156982421875 26.69225311279297 L 248.17156982421875 26.69225311279297 L 239.85455322265625 39.86125946044922 z" fill="none" stroke="#000000"/><path d="M 299.9071960449219 151.63059997558594 L 299.9071960449219 165.3426055908203 L 299.9071960449219 165.3426055908203 L 316.3392028808594 162.5565948486328 L 316.3392028808594 162.5565948486328 L 313.0762023925781 159.9475860595703 L 313.0762023925781 159.9475860595703 L 299.9071960449219 151.63059997558594 z" fill="none" stroke="#000000"/><path d="M 243.47581481933594 9.828124802879756e-7 L 229.76280212402344 9.828124802879756e-7 L 229.76280212402344 9.828124802879756e-7 L 232.54881286621094 16.432008743286133 L 232.54881286621094 16.432008743286133 L 235.15782165527344 13.169007301330566 L 235.15782165527344 13.169007301330566 L 243.47581481933594 9.828124802879756e-7 z" fill="none" stroke="#000000"/><path d="M 248.4068145751953 108.43965911865234 L 234.69480895996094 108.43965911865234 L 234.69480895996094 108.43965911865234 L 237.4848175048828 124.87055206298828 L 237.4848175048828 124.87055206298828 L 240.09483337402344 121.60665893554688 L 240.09483337402344 121.60665893554688 L 248.4068145751953 108.43965911865234 z" fill="none" stroke="#000000"/><path d="M 188.20321655273438 181.43812561035156 L 188.20321655273438 167.72613525390625 L 188.20321655273438 167.72613525390625 L 171.772216796875 170.51513671875 L 171.772216796875 170.51513671875 L 175.03622436523438 173.12513732910156 L 175.03622436523438 173.12513732910156 L 188.20321655273438 181.43812561035156 z" fill="none" stroke="#000000"/><path d="M 276.14788818359375 131.9913787841797 L 262.4349060058594 131.9913787841797 L 262.4349060058594 131.9913787841797 L 265.2248840332031 148.42234802246094 L 265.2248840332031 148.42234802246094 L 267.83489990234375 145.1583709716797 L 267.83489990234375 145.1583709716797 L 276.14788818359375 131.9913787841797 z" fill="none" stroke="#000000"/><path d="M 268.5684814453125 179.96524047851562 L 265.7784423828125 163.53424072265625 L 265.7784423828125 163.53424072265625 L 263.16949462890625 166.79824829101562 L 263.16949462890625 166.79824829101562 L 254.8564453125 179.96524047851562" fill="none" stroke="#000000"/><path d="M 287.4269714355469 103.07064819335938 L 290.2169494628906 119.50064086914062 L 290.2169494628906 119.50064086914062 L 276.5049743652344 119.50064086914062 L 276.5049743652344 119.50064086914062 L 284.8179626464844 106.33462524414062" fill="none" stroke="#000000"/><path d="M 214.8170623779297 245.26795959472656 L 210.5870819091797 240.30796813964844 L 210.5870819091797 240.30796813964844 L 204.17906188964844 241.4939727783203 L 204.17906188964844 241.4939727783203 L 201.9980926513672 247.63597106933594 L 201.9980926513672 247.63597106933594 L 206.23106384277344 252.59596252441406 L 206.23106384277344 252.59596252441406 L 212.64012145996094 251.41297912597656 L 212.64012145996094 251.41297912597656 L 214.8170623779297 245.26795959472656 z" fill="none" stroke="#000000"/><path d="M 213.9781951904297 247.6352081298828 L 218.20919799804688 252.59620666503906 L 218.20919799804688 252.59620666503906 L 224.61619567871094 251.4112091064453 L 224.61619567871094 251.4112091064453 L 226.7971954345703 245.26719665527344 L 226.7971954345703 245.26719665527344 L 222.564208984375 240.3072052001953 L 222.564208984375 240.3072052001953 L 216.1551971435547 241.49021911621094 L 216.1551971435547 241.49021911621094 L 213.9781951904297 247.6352081298828 z" fill="none" stroke="#000000"/><path d="M 309.2006530761719 238.88690185546875 L 314.15966796875 234.65789794921875 L 314.15966796875 234.65789794921875 L 312.97564697265625 228.2508544921875 L 312.97564697265625 228.2508544921875 L 306.8316650390625 226.06884765625 L 306.8316650390625 226.06884765625 L 301.8726501464844 230.3018798828125 L 301.8726501464844 230.3018798828125 L 303.0546569824219 236.71087646484375 L 303.0546569824219 236.71087646484375 L 309.2006530761719 238.88690185546875 z" fill="none" stroke="#000000"/><path d="M 298.6480712890625 127.19837188720703 L 302.8770751953125 132.15838623046875 L 302.8770751953125 132.15838623046875 L 309.28509521484375 130.97238159179688 L 309.28509521484375 130.97238159179688 L 311.466064453125 124.82938385009766 L 311.466064453125 124.82938385009766 L 307.23406982421875 119.87039947509766 L 307.23406982421875 119.87039947509766 L 300.82403564453125 121.05338287353516 L 300.82403564453125 121.05338287353516 L 298.6480712890625 127.19837188720703 z" fill="none" stroke="#000000"/><path d="M 305.5995788574219 107.31153869628906 L 300.6405944824219 111.54255676269531 L 300.6405944824219 111.54255676269531 L 301.8255920410156 117.94953918457031 L 301.8255920410156 117.94953918457031 L 307.9675598144531 120.13056945800781 L 307.9675598144531 120.13056945800781 L 312.9275817871094 115.89753723144531 L 312.9275817871094 115.89753723144531 L 311.7445983886719 109.48854064941406 L 311.7445983886719 109.48854064941406 L 305.5995788574219 107.31153869628906 z" fill="none" stroke="#000000"/><path d="M 307.6431579589844 96.05472564697266 L 302.6821594238281 100.28543090820312 L 302.6821594238281 100.28543090820312 L 303.8621520996094 106.69493103027344 L 303.8621520996094 106.69493103027344 L 310.0081481933594 108.87372589111328 L 310.0081481933594 108.87372589111328 L 314.9681701660156 104.64292907714844 L 314.9681701660156 104.64292907714844 L 313.7821350097656 98.23342895507812 L 313.7821350097656 98.23342895507812 L 307.6431579589844 96.05472564697266 z" fill="none" stroke="#000000"/><path d="M 302.8542175292969 24.176034927368164 L 307.0832214355469 29.136056900024414 L 307.0832214355469 29.136056900024414 L 313.490234375 27.950021743774414 L 313.490234375 27.950021743774414 L 315.6712341308594 21.808053970336914 L 315.6712341308594 21.808053970336914 L 311.4402160644531 16.848031997680664 L 311.4402160644531 16.848031997680664 L 305.02923583984375 18.030038833618164 L 305.02923583984375 18.030038833618164 L 302.8542175292969 24.176034927368164 z" fill="none" stroke="#000000"/><path d="M 226.0724334716797 39.86107635498047 L 231.0324249267578 35.63207244873047 L 231.0324249267578 35.63207244873047 L 229.846435546875 29.22502899169922 L 229.846435546875 29.22502899169922 L 223.70443725585938 27.04302215576172 L 223.70443725585938 27.04302215576172 L 218.7444305419922 31.27605438232422 L 218.7444305419922 31.27605438232422 L 219.92742919921875 37.68505096435547 L 219.92742919921875 37.68505096435547 L 226.0724334716797 39.86107635498047 z" fill="none" stroke="#000000"/><path d="M 267.9615478515625 236.06448364257812 L 263.7325439453125 231.10348510742188 L 263.7325439453125 231.10348510742188 L 257.3255615234375 232.29049682617188 L 257.3255615234375 232.29049682617188 L 255.1446075439453 238.43252563476562 L 255.1446075439453 238.43252563476562 L 259.3765869140625 243.39151000976562 L 259.3765869140625 243.39151000976562 L 265.78656005859375 242.20950317382812 L 265.78656005859375 242.20950317382812 L 267.9615478515625 236.06448364257812 z" fill="none" stroke="#000000"/><path d="M 212.09933471679688 26.38484764099121 L 207.13931274414062 30.61482810974121 L 207.13931274414062 30.61482810974121 L 208.3243408203125 37.02180862426758 L 208.3243408203125 37.02180862426758 L 214.46731567382812 39.20283889770508 L 214.46731567382812 39.20283889770508 L 219.42633056640625 34.97084426879883 L 219.42633056640625 34.97084426879883 L 218.24331665039062 28.56184959411621 L 218.24331665039062 28.56184959411621 L 212.09933471679688 26.38484764099121 z" fill="none" stroke="#000000"/><path d="M 260.384521484375 0.6574897766113282 L 255.42550659179688 4.886493682861328 L 255.42550659179688 4.886493682861328 L 256.61151123046875 11.294513702392578 L 256.61151123046875 11.294513702392578 L 262.75250244140625 13.474506378173828 L 262.75250244140625 13.474506378173828 L 267.7135009765625 9.243488311767578 L 267.7135009765625 9.243488311767578 L 266.530517578125 2.833515167236328 L 266.530517578125 2.833515167236328 L 260.384521484375 0.6574897766113281 z" fill="none" stroke="#000000"/><path d="M 251.65150451660156 15.524272918701172 L 256.61053466796875 11.294269561767578 L 256.61053466796875 11.294269561767578 L 255.42552185058594 4.8872718811035165 L 255.42552185058594 4.8872718811035165 L 249.2835235595703 2.7059669494628906 L 249.2835235595703 2.7059669494628906 L 244.32350158691406 6.939266204833984 L 244.32350158691406 6.939266204833984 L 245.5065155029297 13.348270416259766 L 245.5065155029297 13.348270416259766 L 251.65150451660156 15.524272918701172 z" fill="none" stroke="#000000"/><path d="M 186.44589233398438 246.65968322753906 L 182.21490478515625 241.70069885253906 L 182.21490478515625 241.70069885253906 L 175.805908203125 242.8806915283203 L 175.805908203125 242.8806915283203 L 173.62689208984375 249.0256805419922 L 173.62689208984375 249.0256805419922 L 177.85690307617188 253.98570251464844 L 177.85690307617188 253.98570251464844 L 184.26690673828125 252.79969787597656 L 184.26690673828125 252.79969787597656 L 186.44589233398438 246.65968322753906 z" fill="none" stroke="#000000"/><path d="M 318.57061767578125 247.10104370117188 L 314.3406066894531 242.14102172851562 L 314.3406066894531 242.14102172851562 L 307.9316101074219 243.32101440429688 L 307.9316101074219 243.32101440429688 L 305.7525939941406 249.46603393554688 L 305.7525939941406 249.46603393554688 L 309.98260498046875 254.42605590820312 L 309.98260498046875 254.42605590820312 L 316.3926086425781 253.24002075195312 L 316.3926086425781 253.24002075195312 L 318.57061767578125 247.10104370117188 z" fill="none" stroke="#000000"/><path d="M 320.07415771484375 182.91595458984375 L 315.84515380859375 177.95596313476562 L 315.84515380859375 177.95596313476562 L 309.4351806640625 179.136962890625 L 309.4351806640625 179.136962890625 L 307.25616455078125 185.28097534179688 L 307.25616455078125 185.28097534179688 L 311.48614501953125 190.240966796875 L 311.48614501953125 190.240966796875 L 317.89617919921875 189.05496215820312 L 317.89617919921875 189.05496215820312 L 320.07415771484375 182.91595458984375 z" fill="none" stroke="#000000"/><path d="M 320.1019592285156 9.609415054321289 L 315.8719787597656 4.649424076080322 L 315.8719787597656 4.649424076080322 L 309.4629821777344 5.829416751861572 L 309.4629821777344 5.829416751861572 L 307.2839660644531 11.974405288696289 L 307.2839660644531 11.974405288696289 L 311.5139465332031 16.93540382385254 L 311.5139465332031 16.93540382385254 L 317.9239807128906 15.748422622680664 L 317.9239807128906 15.748422622680664 L 320.1019592285156 9.609415054321289 z" fill="none" stroke="#000000"/><path d="M 320.398193359375 40.1670036315918 L 316.170166015625 35.2080192565918 L 316.170166015625 35.2080192565918 L 309.76019287109375 36.3910026550293 L 309.76019287109375 36.3910026550293 L 307.5821533203125 42.53300094604492 L 307.5821533203125 42.53300094604492 L 311.8121337890625 47.49302291870117 L 311.8121337890625 47.49302291870117 L 318.22216796875 46.31000900268555 L 318.22216796875 46.31000900268555 L 320.398193359375 40.1670036315918 z" fill="none" stroke="#000000"/><path d="M 307.78466796875 91.83270263671875 L 312.01165771484375 96.79171752929688 L 312.01165771484375 96.79171752929688 L 318.4216613769531 95.60870361328125 L 318.4216613769531 95.60870361328125 L 320.59967041015625 89.46670532226562 L 320.59967041015625 89.46670532226562 L 316.3696594238281 84.5067138671875 L 316.3696594238281 84.5067138671875 L 309.95965576171875 85.688720703125 L 309.95965576171875 85.688720703125 L 307.78466796875 91.83270263671875 z" fill="none" stroke="#000000"/><path d="M 313.7877197265625 189.81573486328125 L 308.82769775390625 194.042724609375 L 308.82769775390625 194.042724609375 L 310.01068115234375 200.45172119140625 L 310.01068115234375 200.45172119140625 L 316.1536865234375 202.6317138671875 L 316.1536865234375 202.6317138671875 L 321.11273193359375 198.40069580078125 L 321.11273193359375 198.40069580078125 L 319.9296875 191.98968505859375 L 319.9296875 191.98968505859375 L 313.7877197265625 189.81573486328125 z" fill="none" stroke="#000000"/><path d="M 314.1567687988281 147.60824584960938 L 309.19775390625 151.83523559570312 L 309.19775390625 151.83523559570312 L 310.3807678222656 158.24526977539062 L 310.3807678222656 158.24526977539062 L 316.5217590332031 160.42324829101562 L 316.5217590332031 160.42324829101562 L 321.4827575683594 156.19326782226562 L 321.4827575683594 156.19326782226562 L 320.2997741699219 149.78524780273438 L 320.2997741699219 149.78524780273438 L 314.1567687988281 147.60824584960938 z" fill="none" stroke="#000000"/><path d="M 316.5540466308594 139.6066436767578 L 321.5130615234375 135.37884521484375 L 321.5130615234375 135.37884521484375 L 320.3300476074219 128.96934509277344 L 320.3300476074219 128.96934509277344 L 314.18804931640625 126.7906494140625 L 314.18804931640625 126.7906494140625 L 309.2280578613281 131.0205535888672 L 309.2280578613281 131.0205535888672 L 310.4110412597656 137.4300537109375 L 310.4110412597656 137.4300537109375 L 316.5540466308594 139.6066436767578 z" fill="none" stroke="#000000"/><path d="M 317.12225341796875 59.76518249511719 L 322.0812683105469 55.53819274902344 L 322.0812683105469 55.53819274902344 L 320.89825439453125 49.12818908691406 L 320.89825439453125 49.12818908691406 L 314.7562561035156 46.94920349121094 L 314.7562561035156 46.94920349121094 L 309.7982482910156 51.18019104003906 L 309.7982482910156 51.18019104003906 L 310.9802551269531 57.59019470214844 L 310.9802551269531 57.59019470214844 L 317.12225341796875 59.76518249511719 z" fill="none" stroke="#000000"/><path d="M 55.19614028930664 50.834815979003906 L 55.19614028930664 54.725807189941406 L 55.19614028930664 54.725807189941406 L 33.02310562133789 54.725807189941406 L 33.02310562133789 54.725807189941406 L 33.02310562133789 50.834815979003906" fill="none" stroke="#000000"/><path d="M 3.890780448913574 187.0075225830078 L 3.890780448913574 164.83351135253906 L 3.890780448913574 164.83351135253906 L -0.0002108371118083597 164.83351135253906 L -0.0002108371118083597 164.83351135253906 L -0.0002108371118083597 187.0075225830078 L -0.00021083711180835962 187.0075225830078 L 3.890780448913574 187.0075225830078 z" fill="none" stroke="#000000"/><path d="M 109.2871322631836 34.15167999267578 L 87.11463165283203 34.15167999267578 L 87.11463165283203 34.15167999267578 L 87.11463165283203 38.04267120361328 L 87.11463165283203 38.04267120361328 L 109.2871322631836 38.04267120361328 L 109.2871322631836 38.04267120361328 L 109.2871322631836 34.15167999267578 z" fill="none" stroke="#000000"/><path d="M 9.634778022766113 9.9207181930542 L 2.2567875385284424 9.48974895477295 L 2.2567875385284424 9.48974895477295 L 2.4847538471221924 -0.00024119140289258223 L 2.4847538471221924 -0.00024119140289258223 L 10.509778022766113 -0.00024119140289258223 L 10.509778022766113 -0.00024119140289258212 L 9.634778022766113 9.9207181930542 z" fill="none" stroke="#000000"/><path d="M 63.84723663330078 5.957997798919678 L 63.416236877441406 13.335988998413086 L 63.416236877441406 13.335988998413086 L 53.926246643066406 13.107992172241211 L 53.926246643066406 13.107992172241211 L 53.926246643066406 5.082997798919678 L 53.926246643066406 5.082997798919678 L 63.84723663330078 5.957997798919678 z" fill="none" stroke="#000000"/><path d="M 143.54226684570312 208.69387817382812 L 136.16427612304688 208.26284790039062 L 136.16427612304688 208.26284790039062 L 136.39126586914062 198.77386474609375 L 136.39126586914062 198.77386474609375 L 144.41726684570312 198.77386474609375 L 144.41726684570312 198.77386474609375 L 143.54226684570312 208.69387817382812 z" fill="none" stroke="#000000"/><path d="M 193.0079803466797 70.95381164550781 L 200.38597106933594 71.38478088378906 L 200.38597106933594 71.38478088378906 L 200.15797424316406 80.87379455566406 L 200.15797424316406 80.87379455566406 L 192.1329803466797 80.87379455566406 L 192.1329803466797 80.87379455566406 L 193.0079803466797 70.95381164550781 z" fill="none" stroke="#000000"/><path d="M 230.25498962402344 81.35507202148438 L 229.8249969482422 88.73307037353516 L 229.8249969482422 88.73307037353516 L 220.3350067138672 88.50407409667969 L 220.3350067138672 88.50407409667969 L 220.3350067138672 80.47907257080078 L 220.3350067138672 80.47907257080078 L 230.25498962402344 81.35507202148438 z" fill="none" stroke="#000000"/><path d="M 201.5596160888672 219.2354278564453 L 208.93760681152344 219.66542053222656 L 208.93760681152344 219.66542053222656 L 208.70960998535156 229.15541076660156 L 208.70960998535156 229.15541076660156 L 200.6846160888672 229.15541076660156 L 200.6846160888672 229.15541076660156 L 201.5596160888672 219.2354278564453 z" fill="none" stroke="#000000"/><path d="M 230.92919921875 37.41067123413086 L 231.35919189453125 30.033658981323242 L 231.35919189453125 30.033658981323242 L 240.84918212890625 30.260648727416992 L 240.84918212890625 30.260648727416992 L 240.84918212890625 38.28664779663086 L 240.84918212890625 38.28664779663086 L 230.92919921875 37.41067123413086 z" fill="none" stroke="#000000"/><path d="M 268.8970642089844 92.06730651855469 L 268.4660949707031 99.44630432128906 L 268.4660949707031 99.44630432128906 L 258.9770812988281 99.21830749511719 L 258.9770812988281 99.21830749511719 L 258.9770812988281 91.19331359863281 L 258.9770812988281 91.19331359863281 L 268.8970642089844 92.06730651855469 z" fill="none" stroke="#000000"/><path d="M 271.1732482910156 254.07240295410156 L 280.6622009277344 254.30039978027344 L 280.6622009277344 254.30039978027344 L 281.0932312011719 246.9224090576172 L 281.0932312011719 246.9224090576172 L 271.1732482910156 246.0474090576172" fill="none" stroke="#000000"/><path d="M 279.01715087890625 228.2271270751953 L 279.4484558105469 220.84910583496094 L 279.4484558105469 220.84910583496094 L 288.9366455078125 221.07810974121094 L 288.9366455078125 221.07810974121094 L 288.9366455078125 229.1031036376953 L 288.9366455078125 229.1031036376953 L 279.01715087890625 228.2271270751953 z" fill="none" stroke="#000000"/><path d="M 280.78387451171875 252.22406005859375 L 281.2148742675781 244.84707641601562 L 281.2148742675781 244.84707641601562 L 290.7038879394531 245.07406616210938 L 290.7038879394531 245.07406616210938 L 290.7038879394531 253.09906005859375 L 290.7038879394531 253.09906005859375 L 280.78387451171875 252.22406005859375 z" fill="none" stroke="#000000"/><path d="M 291.4613037109375 244.5062255859375 L 298.83929443359375 244.93524169921875 L 298.83929443359375 244.93524169921875 L 298.6072998046875 254.42623901367188 L 298.6072998046875 254.42623901367188 L 290.5863037109375 254.42623901367188 L 290.5863037109375 254.42623901367188 L 291.4613037109375 244.5062255859375 z" fill="none" stroke="#000000"/><path d="M 296.19378662109375 55.76268768310547 L 303.57177734375 56.19066619873047 L 303.57177734375 56.19066619873047 L 303.3387756347656 65.68163299560547 L 303.3387756347656 65.68163299560547 L 295.31878662109375 65.68163299560547 L 295.31878662109375 65.68163299560547 L 296.19378662109375 55.76268768310547 z" fill="none" stroke="#000000"/><path d="M 297.22088623046875 76.71749114990234 L 304.5989074707031 77.1465072631836 L 304.5989074707031 77.1465072631836 L 304.36590576171875 86.63753509521484 L 304.36590576171875 86.63753509521484 L 296.34588623046875 86.63753509521484 L 296.34588623046875 86.63753509521484 L 297.22088623046875 76.71749114990234 z" fill="none" stroke="#000000"/><path d="M 309.43841552734375 146.99957275390625 L 318.9294128417969 147.23052978515625 L 318.9294128417969 147.23052978515625 L 319.357421875 139.85357666015625 L 319.357421875 139.85357666015625 L 309.43841552734375 138.97955322265625" fill="none" stroke="#000000"/><path d="M 310.6732482910156 59.39036560058594 L 318.0502624511719 59.81946563720703 L 318.0502624511719 59.81946563720703 L 317.8182678222656 69.30986785888672 L 317.8182678222656 69.30986785888672 L 309.7982482910156 69.30986785888672 L 309.7982482910156 69.30986785888672 L 310.6732482910156 59.39036560058594 z" fill="none" stroke="#000000"/><path d="M 32.008872985839844 132.30401611328125 L 38.96587371826172 132.30401611328125 L 38.96587371826172 132.30401611328125 L 39.15685272216797 142.22406005859375 L 39.15685272216797 142.22406005859375 L 31.13286590576172 142.22406005859375 L 31.13286590576172 142.22406005859375 L 32.008872985839844 132.30401611328125 z" fill="none" stroke="#000000"/><path d="M 229.68894958496094 179.37290954589844 L 229.49696350097656 169.4539031982422 L 229.49696350097656 169.4539031982422 L 222.54095458984375 169.4539031982422 L 222.54095458984375 169.4539031982422 L 221.6649627685547 179.37290954589844" fill="none" stroke="#000000"/><path d="M 281.206298828125 62.90972137451172 L 281.206298828125 55.95372772216797 L 281.206298828125 55.95372772216797 L 291.12530517578125 55.76171112060547 L 291.12530517578125 55.76171112060547 L 291.12530517578125 63.78472137451172 L 291.12530517578125 63.78472137451172 L 281.206298828125 62.90972137451172 z" fill="none" stroke="#000000"/><path d="M 208.98643493652344 10.368867874145508 L 202.0304412841797 10.368867874145508 L 202.0304412841797 10.368867874145508 L 201.8384552001953 0.4488546550273896 L 201.8384552001953 0.4488546550273896 L 209.86143493652344 0.4488546550273896 L 209.86143493652344 0.4488546550273895 L 208.98643493652344 10.368867874145508 z" fill="none" stroke="#000000"/><path d="M 300.6330871582031 9.9190092086792 L 293.6770935058594 9.9190092086792 L 293.6770935058594 9.9190092086792 L 293.4850769042969 0.0000025414062747586294 L 293.4850769042969 0.0000025414062747586294 L 301.5080871582031 0.0000025414062747586294 L 301.5080871582031 0.0000025414062747586286 L 300.6330871582031 9.9190092086792 z" fill="none" stroke="#000000"/><path d="M 309.2198181152344 170.72006225585938 L 309.2198181152344 163.76406860351562 L 309.2198181152344 163.76406860351562 L 319.1398010253906 163.57305908203125 L 319.1398010253906 163.57305908203125 L 319.1398010253906 171.59506225585938 L 319.1398010253906 171.59506225585938 L 309.2198181152344 170.72006225585938 z" fill="none" stroke="#000000"/><path d="M 316.9447326660156 79.22941589355469 L 309.9887390136719 79.22941589355469 L 309.9887390136719 79.22941589355469 L 309.7977294921875 69.3099136352539 L 309.7977294921875 69.3099136352539 L 317.82073974609375 69.3099136352539 L 317.82073974609375 69.3099136352539 L 316.9447326660156 79.22941589355469 z" fill="none" stroke="#000000"/><path d="M 310.1378173828125 202.74742126464844 L 320.05780029296875 202.55540466308594 L 320.05780029296875 202.55540466308594 L 320.05780029296875 210.5784149169922 L 320.05780029296875 210.5784149169922 L 310.1378173828125 209.70240783691406" fill="none" stroke="#000000"/><path d="M 310.1370849609375 217.72555541992188 L 310.1370849609375 210.7685546875 L 310.1370849609375 210.7685546875 L 320.05609130859375 210.57855224609375 L 320.05609130859375 210.57855224609375 L 320.05609130859375 218.6015625 L 320.05609130859375 218.6015625 L 310.1370849609375 217.72555541992188 z" fill="none" stroke="#000000"/><path d="M 318.93511962890625 126.79035186767578 L 311.9791259765625 126.79035186767578 L 311.9791259765625 126.79035186767578 L 311.7871398925781 116.87134552001953 L 311.7871398925781 116.87134552001953 L 319.81011962890625 116.87134552001953 L 319.81011962890625 116.87134552001953 L 318.93511962890625 126.79035186767578 z" fill="none" stroke="#000000"/><path d="M 313.7171630859375 106.95185089111328 L 320.67218017578125 106.95185089111328 L 320.67218017578125 106.95185089111328 L 320.8641357421875 116.87085723876953 L 320.8641357421875 116.87085723876953 L 312.8421630859375 116.87085723876953 L 312.8421630859375 116.87085723876953 L 313.7171630859375 106.95185089111328 z" fill="none" stroke="#000000"/><path d="M 254.8564453125 179.96499633789062 L 271.5694580078125 179.96499633789062 L 271.5694580078125 179.96499633789062 L 271.5694580078125 216.5741373" fill="none" stroke="#000000"/></svg>