<svg xmlns="http://www.w3.org/2000/svg" width="5.331478966666666in" height="3.887067540277778in" viewBox="0 0 383.8664856 279.8688629"><g/><g/><g/><g/><g/><g/><g/><g/><g/><g/><g/><g/><g/><g/><g/><g/><g/><g/><g/><g/><g/><g/><g/><g/><g/><g/><g/><g/><g/><g/><g/><g/><g/><g/><g/><g/><g/><g/><g/><g/><g/><g/><g/><g/><g/><g/><g/><g/><g/><g/><g/><g/><g/><g/><g/><g/><g/><g/><g/><g/><g/><g/><g/><g/><g/><g/><g/><g/><g/><g/><g/><g/><g/><g/><g/><g/><g/><g/><g/><g/><g/><g/><g/><g/><g/><g/><g/><g/><g/><g/><g/><g/><g/><g/><g/><g/><g/><g/><g/><g/><g/><g/><g/><g/><g/><g/><g/><g/><g/><g/><g/><g/><g/><g/><g/><g/><g/><g/><g/><g/><g/><g/><g/><g/><g/><g/><g/><g/><g/><g/><g/><g/><g/><g/><g/><g/><g/><g/><g/><g/><g/><g/><g/><g/><g/><g/><g/><g/><g/><g/><g/><g/><g/><g/><g/><path fill="none" stroke="#000000" d="M 0.9270923999999923 181.4146596 C 0.8693424000000505 179.6814096 2.1405924000000596 178.2946596 4.161842399999955 178.2946596 C 5.953592400000048 178.2946596 7.224092400000018 179.6814096 7.224092400000018 181.4146596 C 7.224092400000018 183.2056596 5.895842399999992 184.59165959999999 4.047092399999997 184.59165959999999 C 2.1413424000000987 184.5924096 0.9270923999999923 183.2056596 0.9270923999999923 181.4146596 z"/><path fill="none" stroke="#000000" d="M 6.296253399999955 99.6645971 C 6.354003399999897 101.39784709999999 5.083503399999927 102.7845971 3.0615033999998786 102.7845971 C 1.2705033999999387 102.7845971 0.0000033999999686784577 101.39784709999999 0.0000033999999686784577 99.6645971 C 0.0000033999999686784577 97.8735971 1.3282533999998805 96.48759709999999 3.1770033999999896 96.48759709999999 C 5.083503399999813 96.48684709999999 6.296253399999955 97.8735971 6.296253399999955 99.6645971 z"/><line x1="124.02124510000002" x2="124.02124510000002" y1="254.42548490000013" y2="254.42623490000005" fill="none" stroke="#000000"/><line x1="271.95941162109375" x2="271.95941162109375" y1="150.640380859375" y2="164.25637817382812" fill="none" stroke="#000000"/><line x1="283.7264332" x2="283.7264332" y1="162.54088260000003" y2="150.6406326" fill="none" stroke="#000000"/><line x1="285.34857177734375" x2="304.820556640625" y1="0.000302864849800244" y2="0.000302864849800244" fill="none" stroke="#000000"/><line x1="247.13833618164062" y1="222.48685039999998" x2="247.13833618164062" y2="181.46986389160156" fill="none" stroke="#000000"/><line x1="288.00143319999995" y1="162.54088260000003" x2="288.00143319999995" y2="125.73403930664062" fill="none" stroke="#000000"/><path fill="none" stroke="#000000" d="M 124.02124510000002 254.42623490000005 L 124.02124510000002 249.3427349000001 L 124.02124510000002 249.3427349000001 L 141.4677451 249.3427349000001 L 141.4677451 249.3427349000001 L 141.4677451 249.2272349000001 L 141.4677451 249.2272349000001 C 140.02324510000003 248.41873490000012 138.75274510000003 247.14823490000003 137.88649510000002 245.58748490000016 C 137.01949510000003 244.0859849000002 136.4419951 242.29423490000022 136.4419951 240.3884849000001 C 136.4419951 236.63323490000016 138.75274510000003 230.62498490000007 148.3999951 230.62498490000007 L 148.3999951 230.62498490000007 L 165.03799510000002 230.62498490000007 L 165.03799510000002 230.62498490000007 L 165.03799510000002 235.70848490000014 L 165.03799510000002 235.70848490000014 L 148.9774951 235.70848490000014 L 148.9774951 235.70848490000014 C 144.47149510000003 235.70848490000014 140.6584951 237.38323490000005 140.6584951 242.1787349000001 C 140.6584951 245.47123490000013 142.96924510000002 248.07073490000005 145.74199510000003 248.99548490000006 C 146.4349951 249.28423490000011 147.18574510000002 249.34198490000017 148.1682451 249.34198490000017 L 148.1682451 249.34198490000017 L 165.0372451 249.34198490000017 L 165.0372451 249.34198490000017 L 165.0372451 254.42548490000013 L 165.0372451 254.42548490000013 L 124.02124510000002 254.42548490000013 z"/><path fill="none" stroke="#000000" d="M 186.25551799999994 226.64929889999996 C 184.29051800000002 225.49354889999995 181.460018 224.74279889999997 178.39851799999997 224.74279889999997 C 171.75501799999995 224.74279889999997 167.9427679999999 228.20929889999996 167.9427679999999 233.11954889999996 C 167.9427679999999 237.27904889999996 170.426018 239.70529889999997 175.279268 241.55404889999997 C 178.91901800000005 242.94079889999998 180.59376799999995 243.98029889999995 180.59376799999995 246.29104889999996 C 180.59376799999995 248.37079889999995 178.91901799999994 250.10404889999995 175.91451799999993 250.10404889999995 C 173.315018 250.10404889999998 171.29301799999996 249.17929889999996 170.19576799999993 248.48629889999998 L 170.19576799999993 248.48629889999998 L 168.92451799999992 252.18379889999997 L 168.92451799999992 252.18379889999997 C 170.48451799999998 253.10854889999996 172.96926799999994 253.91704889999997 175.79901799999993 253.91704889999997 C 181.80726800000002 253.91704889999997 185.44701799999996 250.21954889999995 185.44701799999996 245.71354889999998 C 185.44701799999996 242.36254889999998 183.07851800000003 239.58979889999998 178.05276800000001 237.79879889999998 C 174.29751799999997 236.41279889999998 172.85301800000002 235.08379889999998 172.85301800000002 232.65754889999997 C 172.85301800000002 230.34679889999998 174.58551799999998 228.49804889999996 178.28301799999997 228.49804889999996 C 180.825518 228.49804889999996 183.48276799999996 229.53754889999996 184.98501799999997 230.52004889999998 L 184.98501799999997 230.52004889999998 L 186.25551799999994 226.64929889999996 z"/><path fill="none" stroke="#000000" d="M 247.1383325 222.48685039999998 L 252.1640825 222.48685039999998 L 252.1640825 222.48685039999998 L 252.1640825 211.97260039999998 L 252.1640825 211.97260039999998 L 254.76358250000004 209.0836004 L 254.76358250000004 209.0836004 L 264.41158250000007 222.4861004 L 264.41158250000007 222.4861004 L 270.59233250000005 222.4861004 L 270.59233250000005 222.4861004 L 258.2878325000001 206.0213504 L 258.2878325000001 206.0213504 L 269.09008250000005 194.52535039999998 L 269.09008250000005 194.52535039999998 L 262.9670825 194.52535039999998 L 262.9670825 194.52535039999998 L 254.76358250000004 204.1726004 L 254.76358250000004 204.1726004 C 253.95433250000002 205.15510039999998 252.9725825 206.36785039999998 252.2795825 207.3503504 L 252.2795825 207.3503504 L 252.1640825 207.3503504 L 252.1640825 207.3503504 L 252.1640825 181.47010039999998"/><path fill="none" stroke="#000000" d="M 250.29688139999996 110.59175539999998 C 252.31963139999993 109.61000539999999 255.4388813999999 108.9740054 258.5003813999999 108.97400539999998 C 267.9751314 108.97400539999998 273.4628814 115.09775539999998 273.4628814 124.62950539999999 C 273.4628814 134.85500539999998 267.39688139999987 140.6900054 258.26938139999993 140.6900054 C 255.03388139999993 140.6900054 252.3188814 139.9962554 250.41238139999996 139.0722554 L 250.41238139999996 139.0722554 L 249.19963139999993 143.1740054 L 249.19963139999993 143.1740054 C 250.52788139999996 143.86700539999998 253.58938139999987 144.9072554 258.4426314 144.9072554 C 270.5153814 144.9072554 278.77738139999997 136.64525539999997 278.77738139999997 124.45625539999997 C 278.77738139999997 111.68900539999999 270.51613139999995 104.75675539999997 259.5398814 104.75675539999997 C 254.80288139999993 104.75675539999999 251.10538139999994 105.68150539999999 249.25663139999995 106.6055054 L 249.25663139999995 106.6055054 L 250.29688139999996 110.59175539999998 z"/><path fill="none" stroke="#000000" d="M 271.1310216000001 247.2369599 C 269.6880216000001 247.8729599 267.7815216000001 248.6237099 264.89252160000007 248.6237099 C 259.3470216000001 248.6237099 255.18752160000003 244.6374599 255.18752160000003 238.1672099 C 255.18752160000003 232.3322099 258.65402160000014 227.59520990000001 265.06652160000004 227.59520990000001 C 267.8392716 227.59520990000001 269.74577160000007 228.2304599 270.9585216000001 228.9234599 L 270.9585216000001 228.9234599 L 272.1142716000001 224.9949599 L 272.1142716000001 224.9949599 C 270.7275216000001 224.3019599 268.0702716 223.5512099 265.06652160000004 223.5512099 C 255.93827160000006 223.5512099 250.0462716 229.7897099 250.0462716 238.3974599 C 250.0462716 246.9474599 255.53402160000002 252.6669599 263.9685216 252.6669599 C 267.7237716 252.6669599 270.6705216000001 251.7429599 271.9987716 251.0492099 L 271.9987716 251.0492099 L 271.1310216000001 247.2369599 z"/><path d="M 0.00024615193251520395 90.75399780273438 L 14.004243850708008 58.4329948425293 L 14.004243850708008 58.4329948425293 L 32.67825698852539 -0.0000023754121230012983 L 32.67825698852539 -0.0000023754121230012983 L 37.734256744384766 93.71701049804688 L 37.734256744384766 93.71701049804688 L 16.728242874145508 114.42800903320312 L 16.728242874145508 114.42800903320312 L 0.00024615193251520395 90.75399780273438 z" fill="none" stroke="#000000"/><path d="M 75.30866241455078 93.71774291992188 L 54.3026237487793 114.42974853515625 L 54.3026237487793 114.42974853515625 L 37.57465744018555 90.7547607421875 L 37.57465744018555 90.7547607421875 L 51.5786247253418 58.43374252319336 L 51.5786247253418 58.43374252319336 L 70.25366973876953 -0.00024666482931934297 L 70.25366973876953 -0.00024666482931934297 L 76.42582046382309 114.42950516002085" fill="none" stroke="#000000"/><path d="M 71.37084197998047 20.711488723754883 L 92.37682342529297 0.0004911304567940533 L 92.37682342529297 0.0004911304567940533 L 109.10381317138672 23.675477981567383 L 109.10381317138672 23.675477981567383 L 95.10082244873047 55.995487213134766 L 95.10082244873047 55.995487213134766 L 76.42583465576172 114.42950439453125" fill="none" stroke="#000000"/><path d="M 29.854671478271484 180.4908905029297 L 29.854671478271484 135.9458770751953 L 29.854671478271484 135.9458770751953 L 13.354670524597168 135.9458770751953 L 13.354670524597168 135.9458770751953 L 38.60416793823242 92.21089935302734 L 38.60416793823242 92.21089935302734 L 63.8543701171875 135.9458770751953 L 63.8543701171875 135.9458770751953 L 47.3543701171875 135.9458770751953 L 47.3543701171875 135.9458770751953 L 47.3543701171875 180.4908905029297 L 47.3543701171875 180.4908905029297 L 29.854671478271484 180.4908905029297 z" fill="none" stroke="#000000"/><path d="M 100.47273254394531 116.84815216064453 L 99.11172485351562 136.1042022705078 L 99.11172485351562 136.1042022705078 L 106.63272094726562 140.67616271972656 L 106.63272094726562 140.67616271972656 L 101.44473266601562 157.49916076660156 L 101.44473266601562 157.49916076660156 L 83.55072021484375 167.61317443847656 L 83.55072021484375 167.61317443847656 L 61.520721435546875 145.0531768798828 L 61.520721435546875 145.0531768798828 L 69.54373168945312 113.73719024658203 L 69.54373168945312 113.73719024658203 L 120.8828859579194 118.90108656449948" fill="none" stroke="#000000"/><path d="M 76.58584594726562 209.22723388671875 L 99.1468505859375 187.1982421875 L 99.1468505859375 187.1982421875 L 89.03285217285156 169.30422973632812 L 89.03285217285156 169.30422973632812 L 72.20985412597656 164.11624145507812 L 72.20985412597656 164.11624145507812 L 67.63685607910156 171.63723754882812 L 67.63685607910156 171.63723754882812 L 48.38185119628906 170.27523803710938 L 48.38185119628906 170.27523803710938 L 45.27085876464844 201.2042236328125 L 45.27085876464844 201.2042236328125 L 89.26766915134183 212.47636175674415" fill="none" stroke="#000000"/><path d="M 8.023258209228516 178.29444885253906 L 38.951236724853516 181.4054412841797 L 38.951236724853516 181.4054412841797 L 37.590213775634766 200.6614227294922 L 37.590213775634766 200.6614227294922 L 45.112247467041016 205.2334442138672 L 45.112247467041016 205.2334442138672 L 39.924259185791016 222.0564422607422 L 39.924259185791016 222.0564422607422 L 22.029239654541016 232.17042541503906 L 22.029239654541016 232.17042541503906 L 0.0002474945213180036 209.6094207763672 L 0.00024749452131800354 209.6094207763672 L 8.023258209228516 178.29444885253906 z" fill="none" stroke="#000000"/><path d="M 57.95173263549805 204.4532012939453 L 35.3917350769043 226.48219299316406 L 35.3917350769043 226.48219299316406 L 45.5057487487793 244.3761749267578 L 45.5057487487793 244.3761749267578 L 62.3287467956543 249.56419372558594 L 62.3287467956543 249.56419372558594 L 66.90071105957031 242.04319763183594 L 66.90071105957031 242.04319763183594 L 86.15675354003906 243.40318298339844 L 86.15675354003906 243.40318298339844 L 89.26771545410156 212.47618103027344" fill="none" stroke="#000000"/><path d="M 89.95482635498047 115.7907485961914 L 91.3158187866211 96.53473663330078 L 91.3158187866211 96.53473663330078 L 83.7948226928711 91.9627456665039 L 83.7948226928711 91.9627456665039 L 88.98282623291016 75.1397476196289 L 88.98282623291016 75.1397476196289 L 106.87682342529297 65.02576446533203 L 106.87682342529297 65.02576446533203 L 128.90582275390625 87.58576202392578 L 128.90582275390625 87.58576202392578 L 120.88282012939453 118.90174102783203" fill="none" stroke="#000000"/><path d="M 89.26728820800781 212.47593688964844 L 108.52326965332031 213.8359832763672 L 108.52326965332031 213.8359832763672 L 113.09529113769531 206.31492614746094 L 113.09529113769531 206.31492614746094 L 129.9182891845703 211.5029754638672 L 129.9182891845703 211.5029754638672 L 140.0323028564453 229.39695739746094 L 140.0323028564453 229.39695739746094 L 117.47126770019531 251.4259490966797 L 117.47126770019531 251.4259490966797 L 86.15626525878906 243.40293884277344" fill="none" stroke="#000000"/><path d="M 127.1572265625 154.38998413085938 L 146.82522583007812 178.458984375 L 146.82522583007812 178.458984375 L 132.24623107910156 191.11196899414062 L 132.24623107910156 191.11196899414062 L 134.33323669433594 199.66397094726562 L 134.33323669433594 199.66397094726562 L 118.76823425292969 207.8919677734375 L 118.76823425292969 207.8919677734375 L 98.96421813964844 202.38897705078125 L 98.96421813964844 202.38897705078125 L 99.34223937988281 170.85797119140625 L 99.34223937988281 170.85797119140625 L 127.1572265625 154.38998413085938 z" fill="none" stroke="#000000"/><path d="M 132.9228515625 16.429941177368164 L 152.59085083007812 40.4979362487793 L 152.59085083007812 40.4979362487793 L 138.0118408203125 53.15095138549805 L 138.0118408203125 53.15095138549805 L 140.10086059570312 61.70295333862305 L 140.10086059570312 61.70295333862305 L 124.5358657836914 69.92993927001953 L 124.5358657836914 69.92993927001953 L 104.72986602783203 64.42993927001953 L 104.72986602783203 64.42993927001953 L 105.1088638305664 32.8979606628418 L 105.1088638305664 32.8979606628418 L 132.9228515625 16.429941177368164 z" fill="none" stroke="#000000"/><path d="M 111.00984191894531 126.96894836425781 L 135.07887268066406 107.30194091796875 L 135.07887268066406 107.30194091796875 L 147.7318878173828 121.87893676757812 L 147.7318878173828 121.87893676757812 L 156.2838897705078 119.79194641113281 L 156.2838897705078 119.79194641113281 L 164.51185607910156 135.35693359375 L 164.51185607910156 135.35693359375 L 159.0088653564453 155.16094970703125 L 159.0088653564453 155.16094970703125 L 127.47785949707031 154.782958984375 L 127.47785949707031 154.782958984375 L 111.00984191894531 126.96894836425781 z" fill="none" stroke="#000000"/><path d="M 157.0934295654297 119.75050354003906 L 135.47242736816406 107.75453186035156 L 135.47242736816406 107.75453186035156 L 140.48240661621094 57.89949035644531 L 140.48240661621094 57.89949035644531 L 174.99742126464844 64.71253967285156 L 174.99742126464844 64.71253967285156 L 157.0934295654297 119.75050354003906 z" fill="none" stroke="#000000"/><path d="M 195.64834594726562 201.75538635253906 L 183.65335083007812 223.3773956298828 L 183.65335083007812 223.3773956298828 L 133.79734802246094 218.3663787841797 L 133.79734802246094 218.3663787841797 L 140.6103515625 183.8523712158203 L 140.6103515625 183.8523712158203 L 195.64834594726562 201.75538635253906 z" fill="none" stroke="#000000"/><path d="M 197.55587768554688 39.52475357055664 L 209.55191040039062 17.902759552001953 L 209.55191040039062 17.902759552001953 L 154.51589965820312 -0.00023990136105567222 L 154.51589965820312 -0.00023990136105567222 L 147.70187377929688 34.5147590637207 L 147.70187377929688 34.5147590637207 L 216.26530837906864 41.404926428424545" fill="none" stroke="#000000"/><path d="M 181.14002990722656 197.0365447998047 L 159.5189971923828 185.04051208496094 L 159.5189971923828 185.04051208496094 L 164.5290069580078 135.18650817871094 L 164.5290069580078 135.18650817871094 L 199.04298400878906 141.99851989746094 L 199.04298400878906 141.99851989746094 L 181.14002990722656 197.0365447998047 z" fill="none" stroke="#000000"/><path d="M 187.33897399902344 139.68858337402344 L 165.7169647216797 127.69255065917969 L 165.7169647216797 127.69255065917969 L 170.72796630859375 77.83854675292969 L 170.72796630859375 77.83854675292969 L 205.24195861816406 84.65156555175781 L 205.24195861816406 84.65156555175781 L 187.33897399902344 139.68858337402344 z" fill="none" stroke="#000000"/><path d="M 216.26522827148438 41.405723571777344 L 209.45321655273438 75.92073822021484 L 209.45321655273438 75.92073822021484 L 154.41519165039062 58.016746520996094 L 154.41519165039062 58.016746520996094 L 166.41122436523438 36.395713806152344" fill="none" stroke="#000000"/><path d="M 188.60208129882812 254.42672729492188 L 249.53707885742188 254.42672729492188 L 249.53707885742188 254.42672729492188 L 249.53707885742188 237.2127227783203 L 249.53707885742188 237.2127227783203 L 215.98611450195312 237.2127227783203 L 215.98611450195312 237.2127227783203 L 188.60208129882812 214.4577178955078 L 188.60208129882812 214.4577178955078 L 188.60208129882812 254.42672729492188 z" fill="none" stroke="#000000"/><path d="M 247.13833618164062 221.43885803222656 L 219.75433349609375 198.68385314941406 L 219.75433349609375 198.68385314941406 L 186.20333862304688 198.68385314941406 L 186.20333862304688 198.68385314941406 L 186.20333862304688 181.46986389160156 L 186.20333862304688 181.46986389160156 L 277.1911926269531 181.46986389160156 L 277.1911926269531 181.46986389160156 L 277.1911926269531 164.25685119628906 L 277.1911926269531 164.25685119628906 L 243.6407012939453 164.25685119628906 L 243.6407012939453 164.25685119628906 L 216.25669860839844 141.50086975097656" fill="none" stroke="#000000"/><path d="M 216.25645446777344 164.64111328125 L 199.04344177246094 164.64111328125 L 199.04344177246094 164.64111328125 L 199.04344177246094 103.70610809326172 L 199.04344177246094 103.70610809326172 L 239.01243591308594 103.70610809326172 L 239.01243591308594 103.70610809326172 L 216.25645446777344 131.09011840820312 L 216.25645446777344 131.09011840820312 L 216.25645446777344 181.46986389160156" fill="none" stroke="#000000"/><path d="M 233.20944213867188 103.70635223388672 L 233.20944213867188 70.15636444091797 L 233.20944213867188 70.15636444091797 L 255.96444702148438 42.77239227294922 L 255.96444702148438 42.77239227294922 L 215.99642944335938 42.77239227294922 L 215.99642944335938 42.77239227294922 L 215.99642944335938 103.70635223388672" fill="none" stroke="#000000"/><path d="M 222.95492553710938 123.02996063232422 L 240.07293701171875 120.89995574951172 L 240.07293701171875 120.89995574951172 L 237.73892211914062 83.03997039794922 L 237.73892211914062 83.03997039794922 L 250.96493530273438 112.05794525146484 L 250.96493530273438 112.05794525146484 L 248.63092041015625 153.1869354248047 L 248.63092041015625 153.1869354248047 L 224.51193237304688 138.4059600830078 L 224.51193237304688 138.4059600830078 L 222.95492553710938 123.02996063232422 z" fill="none" stroke="#000000"/><path d="M 227.7135772705078 13.849496841430664 L 229.84288024902344 30.966501235961914 L 229.84288024902344 30.966501235961914 L 267.70208740234375 28.632516860961914 L 267.70208740234375 28.632516860961914 L 238.6845703125 41.85950469970703 L 238.6845703125 41.85950469970703 L 197.5560760498047 39.525489807128906 L 197.5560760498047 39.525489807128906 L 212.3370819091797 15.406503677368164 L 212.3370819091797 15.406503677368164 L 227.7135772705078 13.849496841430664 z" fill="none" stroke="#000000"/><path d="M 240.6544189453125 74.21159362792969 L 257.77142333984375 72.08360290527344 L 257.77142333984375 72.08360290527344 L 255.43743896484375 34.22264099121094 L 255.43743896484375 34.22264099121094 L 268.66339111328125 63.24162292480469 L 268.66339111328125 63.24162292480469 L 266.3314208984375 104.37059020996094 L 266.3314208984375 104.37059020996094 L 242.21142578125 89.58860778808594 L 242.21142578125 89.58860778808594 L 240.6544189453125 74.21159362792969 z" fill="none" stroke="#000000"/><path d="M 38.606441497802734 251.57139587402344 L 2.6784615516662598 251.57139587402344 L 2.6784615516662598 251.57139587402344 L 2.6784615516662598 232.17039489746094 L 2.6784615516662598 232.17039489746094 L 38.606441497802734 232.17039489746094 L 38.606441497802734 232.17039489746094 L 38.606441497802734 253.73338317871094" fill="none" stroke="#000000"/><path d="M 1.7947849035263062 35.927764892578125 L 1.7947849035263062 -0.00024355312052648523 L 1.7947849035263062 -0.00024355312052648523 L 21.195785522460938 -0.00024355312052648523 L 21.195785522460938 -0.00024355312052648523 L 21.195785522460938 35.927764892578125 L 21.195785522460938 35.927764892578125 L 0.09333942830562592 35.927764892578125" fill="none" stroke="#000000"/><path d="M 19.401004791259766 178.29466247558594 L 0.0000041593748392188016 178.29466247558594 L 0.000004159374839218804 178.29466247558594 L 0.000004159374839218804 142.36668395996094 L 0.000004159374839218804 142.36668395996094 L 19.401004791259766 142.36668395996094 L 19.401004791259766 142.36668395996094 L 19.40100479125977 179.4391234" fill="none" stroke="#000000"/><path d="M 57.77798080444336 17.135007858276367 L 52.78695297241211 20.928007125854492 L 52.78695297241211 20.928007125854492 L 50.19198226928711 25.344999313354492 L 50.19198226928711 25.344999313354492 L 44.04995346069336 25.344999313354492 L 44.04995346069336 25.344999313354492 L 40.43697738647461 20.928007125854492 L 40.43697738647461 20.928007125854492 L 37.12795639038086 18.498991012573242 L 37.12795639038086 18.498991012573242 L 37.12795639038086 12.079985618591309 L 37.12795639038086 12.079985618591309 L 41.69997787475586 9.259001731872559 L 41.69997787475586 9.259001731872559 L 44.06594467163086 2.1600027084350586 L 44.06594467163086 2.1600027084350586 L 50.19198226928711 2.1600027084350586 L 50.19198226928711 2.1600027084350586 L 52.20296859741211 9.259001731872559 L 52.20296859741211 9.259001731872559 L 57.77798080444336 12.079985618591309 L 57.77798080444336 12.079985618591309 L 57.77798080444336 17.135007858276367 z" fill="none" stroke="#000000"/><path d="M 101.39051818847656 -4.414064846969268e-8 L 101.39051818847656 12.75799560546875 L 101.39051818847656 12.75799560546875 L 131.6845245361328 12.75799560546875 L 131.6845245361328 12.75799560546875 L 131.6845245361328 -4.414064846969268e-8 L 131.6845245361328 -4.414064846969268e-8 L 101.39051818847656 -4.414064846969268e-8 z" fill="none" stroke="#000000"/><path d="M 193.44651794433594 205.7256317138672 L 193.44651794433594 218.48265075683594 L 193.44651794433594 218.48265075683594 L 223.7415008544922 218.48265075683594 L 223.7415008544922 218.48265075683594 L 223.7415008544922 205.7256317138672 L 223.7415008544922 205.7256317138672 L 193.44651794433594 205.7256317138672 z" fill="none" stroke="#000000"/><path d="M 224.02734375 12.757505416870117 L 224.02734375 0.0004866226518061013 L 224.02734375 0.0004866226518061013 L 193.73333740234375 0.0004866226518061013 L 193.73333740234375 0.0004866226518061013 L 193.73333740234375 12.757505416870117 L 193.73333740234375 12.757505416870117 L 224.02734375 12.757505416870117 z" fill="none" stroke="#000000"/><path d="M 68.359619140625 154.20321655273438 L 70.3066177368164 166.83721923828125 L 70.3066177368164 166.83721923828125 L 60.387115478515625 171.12420654296875 L 60.387115478515625 171.12420654296875 L 47.35441589355469 169.56719970703125 L 47.35441589355469 169.56719970703125 L 49.104820251464844 149.2252197265625 L 49.104820251464844 149.2252197265625 L 68.359619140625 154.20321655273438 z" fill="none" stroke="#000000"/><path d="M 247.4414825439453 21.898740768432617 L 228.1864471435547 16.922727584838867 L 228.1864471435547 16.922727584838867 L 226.24046325683594 4.287717342376709 L 226.24046325683594 4.287717342376709 L 236.1594696044922 -0.0002771035069599749 L 236.1594696044922 -0.0002771035069599749 L 249.1924591064453 1.5567296743392947 L 249.1924591064453 1.556729674339298 L 246.95496956060393 27.550816710797456" fill="none" stroke="#000000"/><path d="M 224.32923889160156 216.20826721191406 L 236.96421813964844 214.26124572753906 L 236.96421813964844 214.26124572753906 L 241.25123596191406 224.1802520751953 L 241.25123596191406 224.1802520751953 L 239.69422912597656 237.21327209472656 L 239.69422912597656 237.21327209472656 L 219.3522186279297 235.4622344970703 L 219.3522186279297 235.4622344970703 L 224.32923889160156 216.20826721191406 z" fill="none" stroke="#000000"/><path d="M 246.9552001953125 27.55083656311035 L 259.98822021484375 29.10782814025879 L 259.98822021484375 29.10782814025879 L 269.9072265625 24.819833755493164 L 269.9072265625 24.819833755493164 L 267.960205078125 12.185830116271973 L 267.960205078125 12.185830116271973 L 248.70623779296875 7.207833290100098" fill="none" stroke="#000000"/><path d="M 51.82716751098633 49.25078582763672 L 39.19215774536133 51.19676971435547 L 39.19215774536133 51.19676971435547 L 34.90517044067383 41.278770446777344 L 34.90517044067383 41.278770446777344 L 36.4621467590332 28.24578094482422 L 36.4621467590332 28.24578094482422 L 56.80415725708008 29.99578094482422 L 56.80415725708008 29.99578094482422 L 51.82716751098633 49.25078582763672 z" fill="none" stroke="#000000"/><path d="M 13.709336280822754 35.928009033203125 L 13.709336280822754 59.112709045410156 L 13.709336280822754 59.112709045410156 L 0.09333942830562592 59.112709045410156 L 0.09333942830562592 59.112709045410156 L 0.09333942830562592 35.928009033203125" fill="none" stroke="#000000"/><path d="M 213.81686401367188 181.47059631347656 L 213.81686401367188 167.8535919189453 L 213.81686401367188 167.8535919189453 L 190.63284301757812 167.8535919189453 L 190.63284301757812 167.8535919189453 L 190.63284301757812 181.47059631347656" fill="none" stroke="#000000"/><path d="M 248.77542114257812 164.25637817382812 L 248.77542114257812 150.640380859375 L 248.77542114257812 150.640380859375 L 283.7264332 150.640380859375" fill="none" stroke="#000000"/><path d="M 288.00143319999995 133.7131326 L 283.7264332 133.7131326 L 283.7264332 133.7131326 L 283.7264332 145.5563826 L 283.7264332 145.5563826 L 249.06443319999994 145.5563826 L 249.06443319999994 145.5563826 L 249.06443319999994 150.6406326" fill="none" stroke="#000000"/><path d="M 1.7707539796829224 126.35379028320312 L 8.428743362426758 131.66177368164062 L 8.428743362426758 131.66177368164062 L 16.727754592895508 129.76779174804688 L 16.727754592895508 129.76779174804688 L 20.422761917114258 122.09774780273438 L 20.422761917114258 122.09774780273438 L 16.727754592895508 114.42776489257812 L 16.727754592895508 114.42776489257812 L 8.428743362426758 112.53378295898438 L 8.428743362426758 112.53378295898438 L 1.7707539796829224 117.84078979492188 L 1.7707539796829224 117.84078979492188 L 1.7707539796829224 126.35379028320312 z" fill="none" stroke="#000000"/><path d="M 109.16677856445312 143.02532958984375 L 103.85580444335938 149.68333435058594 L 103.85580444335938 149.68333435058594 L 105.75277709960938 157.98233032226562 L 105.75277709960938 157.98233032226562 L 113.41976928710938 161.6773223876953 L 113.41976928710938 161.6773223876953 L 121.08877563476562 157.98233032226562 L 121.08877563476562 157.98233032226562 L 122.98580932617188 149.68333435058594 L 122.98580932617188 149.68333435058594 L 117.67678833007812 143.02532958984375 L 117.67678833007812 143.02532958984375 L 106.4261474609375 143.02532958984375" fill="none" stroke="#000000"/><path d="M 136.99356079101562 0.0004877007741015406 L 131.6852569580078 6.657470226287842 L 131.6852569580078 6.657470226287842 L 133.57876586914062 14.956480979919434 L 133.57876586914062 14.956480979919434 L 141.24896240234375 18.65045166015625 L 141.24896240234375 18.65045166015625 L 148.9192657470703 14.956480979919434 L 148.9192657470703 14.956480979919434 L 150.81295776367188 6.657470226287842 L 150.81295776367188 6.657470226287842 L 145.5067596435547 0.0004877007741015406 L 145.5067596435547 0.00048770077410154045 L 136.99356079101562 0.00048770077410154045 z" fill="none" stroke="#000000"/><path d="M 151.42303466796875 173.6705322265625 L 156.73406982421875 167.01351928710938 L 156.73406982421875 167.01351928710938 L 154.8370361328125 158.71353149414062 L 154.8370361328125 158.71353149414062 L 147.1700439453125 155.01953125 L 147.1700439453125 155.01953125 L 139.50006103515625 158.71353149414062 L 139.50006103515625 158.71353149414062 L 137.60406494140625 167.01351928710938 L 137.60406494140625 167.01351928710938 L 142.91204833984375 173.6705322265625 L 142.91204833984375 173.6705322265625 L 151.42303466796875 173.6705322265625 z" fill="none" stroke="#000000"/><path d="M 250.2672882080078 132.8722381591797 L 256.9252624511719 138.18223571777344 L 256.9252624511719 138.18223571777344 L 265.2242736816406 136.28623962402344 L 265.2242736816406 136.28623962402344 L 268.91925048828125 128.6182403564453 L 268.91925048828125 128.6182403564453 L 265.2242736816406 120.94823455810547 L 265.2242736816406 120.94823455810547 L 256.9252624511719 119.05223083496094 L 256.9252624511719 119.05223083496094 L 250.2672882080078 124.3612289428711 L 250.2672882080078 124.3612289428711 L 250.2672882080078 132.8722381591797 z" fill="none" stroke="#000000"/><path d="M 259.5074157714844 43.152217864990234 L 266.1644287109375 48.461238861083984 L 266.1644287109375 48.461238861083984 L 274.46441650390625 46.567256927490234 L 274.46441650390625 46.567256927490234 L 278.1584167480469 38.897212982177734 L 278.1584167480469 38.897212982177734 L 274.46441650390625 31.228206634521484 L 274.46441650390625 31.228206634521484 L 266.1644287109375 29.333248138427734 L 266.1644287109375 29.333248138427734 L 259.5074157714844 34.640254974365234 L 259.5074157714844 34.640254974365234 L 259.5074157714844 43.152217864990234 z" fill="none" stroke="#000000"/><path d="M 274.92919921875 197.37123107910156 L 266.41619873046875 197.37123107910156 L 266.41619873046875 197.37123107910156 L 261.107177734375 204.0292205810547 L 261.107177734375 204.0292205810547 L 263.001220703125 212.32823181152344 L 263.001220703125 212.32823181152344 L 270.67120361328125 216.02223205566406 L 270.67120361328125 216.02223205566406 L 278.3411865234375 212.32823181152344 L 278.3411865234375 212.32823181152344 L 280.23516845703125 204.0292205810547 L 280.23516845703125 204.0292205810547 L 270.6518401860139 192.00395315924948" fill="none" stroke="#000000"/><path d="M 276.5945129394531 246.90928649902344 L 281.90350341796875 240.25132751464844 L 281.90350341796875 240.25132751464844 L 280.0094909667969 231.9532928466797 L 280.0094909667969 231.9532928466797 L 272.3395080566406 228.25828552246094 L 272.3395080566406 228.25828552246094 L 264.66949462890625 231.9532928466797 L 264.66949462890625 231.9532928466797 L 262.7755126953125 240.25132751464844 L 262.7755126953125 240.25132751464844 L 268.0815124511719 246.90928649902344 L 268.0815124511719 246.90928649902344 L 276.5945129394531 246.90928649902344 z" fill="none" stroke="#000000"/><path d="M 266.79779052734375 104.65254211425781 L 273.45477294921875 109.96253967285156 L 273.45477294921875 109.96253967285156 L 281.75579833984375 108.06553649902344 L 281.75579833984375 108.06553649902344 L 285.44879150390625 100.39854431152344 L 285.44879150390625 100.39854431152344 L 281.75579833984375 92.72953796386719 L 281.75579833984375 92.72953796386719 L 273.45477294921875 90.83354187011719 L 273.45477294921875 90.83354187011719 L 266.79779052734375 96.14253234863281 L 266.79779052734375 96.14253234863281 L 266.79779052734375 104.65254211425781 z" fill="none" stroke="#000000"/><path d="M 271.5935974121094 47.22262954711914 L 266.2825927734375 53.88063430786133 L 266.2825927734375 53.88063430786133 L 268.1795959472656 62.179630279541016 L 268.1795959472656 62.179630279541016 L 275.8465881347656 65.8746337890625 L 275.8465881347656 65.8746337890625 L 283.5155944824219 62.179630279541016 L 283.5155944824219 62.179630279541016 L 285.41259765625 53.88063430786133 L 285.41259765625 53.88063430786133 L 280.1036071777344 47.22262954711914 L 280.1036071777344 47.22262954711914 L 271.5935974121094 47.22262954711914 z" fill="none" stroke="#000000"/><path d="M 281.29571533203125 90.83399963378906 L 286.606689453125 84.17599487304688 L 286.606689453125 84.17599487304688 L 284.709716796875 75.87699890136719 L 284.709716796875 75.87699890136719 L 277.042724609375 72.18299865722656 L 277.042724609375 72.18299865722656 L 269.37371826171875 75.87699890136719 L 269.37371826171875 75.87699890136719 L 267.4757080078125 84.17599487304688 L 267.4757080078125 84.17599487304688 L 272.78369140625 90.83399963378906 L 272.78369140625 90.83399963378906 L 281.29571533203125 90.83399963378906 z" fill="none" stroke="#000000"/><path d="M 285.3481140136719 5.3110032081604 L 278.69012451171875 0.000013746289369009904 L 278.69012451171875 0.000013746289369009904 L 270.3921203613281 1.8970016241073608 L 270.3921203613281 1.8970016241073608 L 266.6971130371094 9.564008712768555 L 266.6971130371094 9.564008712768555 L 270.3921203613281 17.234006881713867 L 270.3921203613281 17.234006881713867 L 278.69012451171875 19.130002975463867 L 278.69012451171875 19.130002975463867 L 285.3481140136719 13.82301139831543 L 285.3481140136719 13.82301139831543 L 285.3481140136719 0.000302864849800244" fill="none" stroke="#000000"/><path d="M 270.6504821777344 192.00503540039062 L 272.5484924316406 183.70704650878906 L 272.5484924316406 183.70704650878906 L 280.2174987792969 180.0120391845703 L 280.2174987792969 180.0120391845703 L 287.8844909667969 183.70704650878906 L 287.8844909667969 183.70704650878906 L 289.7814636230469 192.00503540039062 L 289.7814636230469 192.00503540039062 L 284.4704895019531 198.6630401611328 L 284.4704895019531 198.6630401611328 L 275.9584655761719 198.6630401611328" fill="none" stroke="#000000"/><path d="M 279.0988464355469 18.803789138793945 L 273.7878112792969 25.46177864074707 L 273.7878112792969 25.46177864074707 L 275.6848449707031 33.76078796386719 L 275.6848449707031 33.76078796386719 L 283.3518371582031 37.45579528808594 L 283.3518371582031 37.45579528808594 L 291.0208435058594 33.76078796386719 L 291.0208435058594 33.76078796386719 L 292.9168395996094 25.46177864074707 L 292.9168395996094 25.46177864074707 L 287.6088562011719 18.803789138793945 L 287.6088562011719 18.803789138793945 L 279.0988464355469 18.803789138793945 z" fill="none" stroke="#000000"/><path d="M 276.15521240234375 222.5813446044922 L 282.8111572265625 227.89231872558594 L 282.8111572265625 227.89231872558594 L 291.1112060546875 225.99632263183594 L 291.1112060546875 225.99632263183594 L 294.80517578125 218.32933044433594 L 294.80517578125 218.32933044433594 L 291.1112060546875 210.65928649902344 L 291.1112060546875 210.65928649902344 L 282.8111572265625 208.76231384277344 L 282.8111572265625 208.76231384277344 L 276.15521240234375 214.0713348388672 L 276.15521240234375 214.0713348388672 L 276.15521240234375 222.5813446044922 z" fill="none" stroke="#000000"/><path d="M 281.6600646972656 108.08739471435547 L 276.3500671386719 114.74535369873047 L 276.3500671386719 114.74535369873047 L 278.2471008300781 123.04436492919922 L 278.2471008300781 123.04436492919922 L 285.9140930175781 126.73937225341797 L 285.9140930175781 126.73937225341797 L 293.5830993652344 123.04436492919922 L 293.5830993652344 123.04436492919922 L 295.4790954589844 114.74535369873047 L 295.4790954589844 114.74535369873047 L 290.1700744628906 108.08739471435547 L 290.1700744628906 108.08739471435547 L 281.6600646972656 108.08739471435547 z" fill="none" stroke="#000000"/><path d="M 281.90301513671875 251.97808837890625 L 303.21502685546875 239.673095703125 L 303.21502685546875 239.673095703125 L 281.90301513671875 227.36810302734375 L 281.90301513671875 227.36810302734375 L 281.90301513671875 251.97808837890625 z" fill="none" stroke="#000000"/><path d="M 285.36004638671875 78.72123718261719 L 306.6710510253906 66.41523742675781 L 306.6710510253906 66.41523742675781 L 285.36004638671875 54.11125183105469 L 285.36004638671875 54.11125183105469 L 285.36004638671875 78.72123718261719 z" fill="none" stroke="#000000"/><path d="M 286.606689453125 102.61113739013672 L 307.9176940917969 90.30510711669922 L 307.9176940917969 90.30510711669922 L 286.606689453125 78.00109100341797 L 286.606689453125 78.00109100341797 L 286.606689453125 102.61113739013672 z" fill="none" stroke="#000000"/><path d="M 276.200439453125 162.54136657714844 L 288.50543212890625 183.8523406982422 L 288.50543212890625 183.8523406982422 L 300.8104248046875 162.54136657714844 L 300.8104248046875 162.54136657714844 L 276.200439453125 162.54136657714844 z" fill="none" stroke="#000000"/><path d="M 296.75543212890625 32.227684020996094 L 275.4444274902344 44.532691955566406 L 275.4444274902344 44.532691955566406 L 296.75543212890625 56.836692810058594 L 296.75543212890625 56.836692810058594 L 296.75543212890625 32.227684020996094 z" fill="none" stroke="#000000"/><path d="M 285.34857177734375 13.227293014526367 L 304.820556640625 13.227293014526367 L 304.820556640625 13.227293014526367 L 304.820556640625 -0.00024277441843878478 L 304.820556640625 -0.00024277441843878478 L 314.73956298828125 0.8747572302818298 L 314.73956298828125 0.8747572302818298 L 314.73956298828125 7.830750942230225 L 314.73956298828125 7.830750942230225 L 304.820556640625 8.022751808166504" fill="none" stroke="#000000"/><path d="M 305.7974853515625 196.3379669189453 L 286.3254699707031 196.3379669189453 L 286.3254699707031 196.3379669189453 L 286.3254699707031 209.5649871826172 L 286.3254699707031 209.5649871826172 L 305.7974853515625 209.5649871826172 L 305.7974853515625 209.5649871826172 L 305.7974853515625 189.03765869140625" fill="none" stroke="#000000"/><path d="M 301.2286682128906 145.20602416992188 L 301.2286682128906 125.73403930664062 L 301.2286682128906 125.73403930664062 L 288.0016784667969 125.73403930664062" fill="none" stroke="#000000"/><path d="M 29.854621400000042 138.96330379999998 L 24.771121400000084 138.96330379999998 L 24.771121400000084 138.96330379999998 L 24.771121400000084 179.9793038 L 24.771121400000084 179.9793038 L 29.854621400000042 179.9793038" fill="none" stroke="#000000"/><path d="M 36.154441833496094 64.42302703857422 L 48.907432556152344 64.42302703857422 L 48.907432556152344 64.42302703857422 L 48.907432556152344 51.19701385498047 L 48.907432556152344 51.19701385498047 L 36.154441833496094 51.19701385498047 L 36.154441833496094 51.19701385498047 L 36.154441833496094 64.42302703857422 z" fill="none" stroke="#000000"/><path d="M 47.35467529296875 149.1703643798828 L 60.107666015625 149.1703643798828 L 60.107666015625 149.1703643798828 L 60.107666015625 135.9463653564453" fill="none" stroke="#000000"/><path d="M 124.56423950195312 83.1402816772461 L 137.31724548339844 83.1402816772461 L 137.31724548339844 83.1402816772461 L 137.31724548339844 69.91527557373047 L 137.31724548339844 69.91527557373047 L 124.56423950195312 69.91527557373047 L 124.56423950195312 69.91527557373047 L 124.56423950195312 83.1402816772461 z" fill="none" stroke="#000000"/><path d="M 62.462753 254.42624030000002 L 90.423503 254.42624030000002 L 90.423503 254.42624030000002 L 90.423503 249.34274030000006 L 90.423503 249.34274030000006 L 62.462753 249.34274030000006 L 62.462753 249.34274030000006 L 62.462753 254.42624030000002 z" fill="none" stroke="#000000"/><path d="M 19.401005099999907 179.4391234 L 24.48375509999994 179.4391234 L 24.48375509999994 179.4391234 L 24.48375509999994 151.4783734 L 24.48375509999994 151.4783734 L 19.401005099999907 151.4783734" fill="none" stroke="#000000"/><path d="M 84.34957885742188 -0.0002423269470455126 L 70.63555908203125 -0.0002423269470455126 L 70.63555908203125 -0.0002423269470455126 L 71.0225830078125 14.255769729614258 L 71.0225830078125 14.255769729614258 L 76.03256225585938 13.167757034301758 L 76.03256225585938 13.167757034301758 L 84.34957885742188 -0.0002423269470455125 z" fill="none" stroke="#000000"/><path d="M 113.78042602539062 122.5814437866211 L 100.06741333007812 122.5814437866211 L 100.06741333007812 122.5814437866211 L 100.45443725585938 136.83741760253906 L 100.45443725585938 136.83741760253906 L 105.46441650390625 135.74940490722656 L 105.46441650390625 135.74940490722656 L 113.78042602539062 122.5814437866211 z" fill="none" stroke="#000000"/><path d="M 108.80814361572266 12.75726318359375 L 109.19515228271484 27.01226806640625 L 109.19515228271484 27.01226806640625 L 114.20514678955078 25.92529296875 L 114.20514678955078 25.92529296875 L 122.5211410522461 12.75726318359375" fill="none" stroke="#000000"/><path d="M 165.93716430664062 249.9101104736328 L 165.93716430664062 236.19712829589844 L 165.93716430664062 236.19712829589844 L 151.68215942382812 236.58412170410156 L 151.68215942382812 236.58412170410156 L 152.7691650390625 241.59312438964844 L 152.7691650390625 241.59312438964844 L 165.93716430664062 249.9101104736328 z" fill="none" stroke="#000000"/><path d="M 212.97915649414062 89.53836059570312 L 212.97915649414062 75.8243408203125 L 212.97915649414062 75.8243408203125 L 198.7246551513672 76.21234130859375 L 198.7246551513672 76.21234130859375 L 199.8113555908203 81.22134399414062 L 199.8113555908203 81.22134399414062 L 212.97915649414062 89.53836059570312 z" fill="none" stroke="#000000"/><path d="M 54.301300048828125 119.3991928100586 L 68.01528930664062 119.3991928100586 L 68.01528930664062 119.3991928100586 L 67.62728881835938 105.1441879272461 L 67.62728881835938 105.1441879272461 L 62.618255615234375 106.2312240600586 L 62.618255615234375 106.2312240600586 L 54.301300048828125 119.3991928100586 z" fill="none" stroke="#000000"/><path d="M 0.000004226708824717207 128.65391540527344 L 0.000004226708824717207 142.36692810058594 L 0.000004226708824717207 142.36692810058594 L 16.432506561279297 139.58091735839844 L 16.432506561279297 139.58091735839844 L 13.170005798339844 136.97093200683594 L 13.170005798339844 136.97093200683594 L 0.000004226708824717207 128.65391540527344 z" fill="none" stroke="#000000"/><path d="M 213.2368621826172 232.19615173339844 L 213.2368621826172 218.48216247558594 L 213.2368621826172 218.48216247558594 L 196.80487060546875 221.2731475830078 L 196.80487060546875 221.2731475830078 L 200.06886291503906 223.88316345214844 L 200.06886291503906 223.88316345214844 L 213.2368621826172 232.19615173339844 z" fill="none" stroke="#000000"/><path d="M 270.132080078125 195.18283081054688 L 270.132080078125 181.4698486328125 L 270.132080078125 181.4698486328125 L 253.7010955810547 184.25985717773438 L 253.7010955810547 184.25985717773438 L 256.964111328125 186.870849609375 L 256.964111328125 186.870849609375 L 270.132080078125 195.18283081054688 z" fill="none" stroke="#000000"/><path d="M 300.3441467285156 114.51061248779297 L 300.3441467285156 100.7976303100586 L 300.3441467285156 100.7976303100586 L 283.91314697265625 103.58760833740234 L 283.91314697265625 103.58760833740234 L 287.1761474609375 106.19762420654297 L 287.1761474609375 106.19762420654297 L 300.3441467285156 114.51061248779297 z" fill="none" stroke="#000000"/><path d="M 165.5946807861328 36.31333923339844 L 151.8816680908203 36.31333923339844 L 151.8816680908203 36.31333923339844 L 154.6667022705078 52.74534606933594 L 154.6667022705078 52.74534606933594 L 157.2766876220703 49.48234558105469 L 157.2766876220703 49.48234558105469 L 165.5946807861328 36.31333923339844 z" fill="none" stroke="#000000"/><path d="M 301.7134094238281 145.20602416992188 L 288.0014343261719 145.20602416992188 L 288.0014343261719 145.20602416992188 L 290.7904357910156 161.63705444335938 L 290.7904357910156 161.63705444335938 L 293.40142822265625 158.37405395507812 L 293.40142822265625 158.37405395507812 L 301.7134094238281 145.20602416992188 z" fill="none" stroke="#000000"/><path d="M 300.49658203125 26.940061569213867 L 300.49658203125 13.228025436401367 L 300.49658203125 13.228025436401367 L 284.0645751953125 16.018064498901367 L 284.0645751953125 16.018064498901367 L 287.32855224609375 18.628049850463867 L 287.32855224609375 18.628049850463867 L 300.49658203125 26.940061569213867 z" fill="none" stroke="#000000"/><path d="M 301.02362060546875 238.4080047607422 L 301.02362060546875 224.6959991455078 L 301.02362060546875 224.6959991455078 L 284.5926208496094 227.4860076904297 L 284.5926208496094 227.4860076904297 L 287.8556213378906 230.0959930419922 L 287.8556213378906 230.0959930419922 L 301.02362060546875 238.4080047607422 z" fill="none" stroke="#000000"/><path d="M 304.2852478027344 88.20777130126953 L 304.2852478027344 74.49576568603516 L 304.2852478027344 74.49576568603516 L 287.8532409667969 77.28076934814453 L 287.8532409667969 77.28076934814453 L 291.1162414550781 79.89075469970703 L 291.1162414550781 79.89075469970703 L 304.2852478027344 88.20777130126953 z" fill="none" stroke="#000000"/><path d="M 304.3713684082031 194.87442016601562 L 304.3713684082031 181.16241455078125 L 304.3713684082031 181.16241455078125 L 287.9393615722656 183.94842529296875 L 287.9393615722656 183.94842529296875 L 291.2023620605469 186.55743408203125 L 291.2023620605469 186.55743408203125 L 304.3713684082031 194.87442016601562 z" fill="none" stroke="#000000"/><path d="M 309.5719299316406 26.940061569213867 L 295.8589172363281 26.940061569213867 L 295.8589172363281 26.940061569213867 L 298.6449279785156 43.372066497802734 L 298.6449279785156 43.372066497802734 L 301.2539367675781 40.109066009521484 L 301.2539367675781 40.109066009521484 L 309.5719299316406 26.940061569213867 z" fill="none" stroke="#000000"/><path d="M 310.4674072265625 43.37187576293945 L 296.7554016113281 43.37187576293945 L 296.7554016113281 43.37187576293945 L 299.54541015625 59.80276870727539 L 299.54541015625 59.80276870727539 L 302.1554260253906 56.538875579833984 L 302.1554260253906 56.538875579833984 L 310.4674072265625 43.37187576293945 z" fill="none" stroke="#000000"/><path d="M 2.6791024208068848 218.45814514160156 L 2.6791024208068848 232.17013549804688 L 2.6791024208068848 232.17013549804688 L 19.1101016998291 229.38113403320312 L 19.1101016998291 229.38113403320312 L 15.846095085144043 226.77113342285156 L 15.846095085144043 226.77113342285156 L 2.6791024208068848 218.45814514160156 z" fill="none" stroke="#000000"/><path d="M 38.607234954833984 253.73338317871094 L 55.038204193115234 250.9434051513672 L 55.038204193115234 250.9434051513672 L 51.774227142333984 248.33338928222656 L 51.774227142333984 248.33338928222656 L 38.607234954833984 240.02040100097656" fill="none" stroke="#000000"/><path d="M 87.71011352539062 198.3645477294922 L 87.71011352539062 212.0765838623047 L 87.71011352539062 212.0765838623047 L 104.14111328125 209.2865447998047 L 104.14111328125 209.2865447998047 L 100.87710571289062 206.67759704589844 L 100.87710571289062 206.67759704589844 L 87.71011352539062 198.3645477294922 z" fill="none" stroke="#000000"/><path d="M 140.5377960205078 57.90959167480469 L 154.24978637695312 57.90959167480469 L 154.24978637695312 57.90959167480469 L 151.4597930908203 41.47959899902344 L 151.4597930908203 41.47959899902344 L 148.8507843017578 44.74357604980469 L 148.8507843017578 44.74357604980469 L 140.5377960205078 57.90959167480469 z" fill="none" stroke="#000000"/><path d="M 150.77085876464844 175.10897827148438 L 145.8108673095703 179.33895874023438 L 145.8108673095703 179.33895874023438 L 146.9968719482422 185.74697875976562 L 146.9968719482422 185.74697875976562 L 153.1388702392578 187.92794799804688 L 153.1388702392578 187.92794799804688 L 158.09886169433594 183.69497680664062 L 158.09886169433594 183.69497680664062 L 156.91587829589844 177.28591918945312 L 156.91587829589844 177.28591918945312 L 150.77085876464844 175.10897827148438 z" fill="none" stroke="#000000"/><path d="M 171.98828125 73.96170806884766 L 176.2192840576172 78.9227066040039 L 176.2192840576172 78.9227066040039 L 182.62628173828125 77.73770904541016 L 182.62628173828125 77.73770904541016 L 184.80728149414062 71.59369659423828 L 184.80728149414062 71.59369659423828 L 180.5742950439453 66.63370513916016 L 180.5742950439453 66.63370513916016 L 174.165283203125 67.81671905517578 L 174.165283203125 67.81671905517578 L 171.98828125 73.96170806884766 z" fill="none" stroke="#000000"/><path d="M 209.16468811035156 103.70610809326172 L 214.12368774414062 99.47710418701172 L 214.12368774414062 99.47710418701172 L 212.93968200683594 93.07006072998047 L 212.93968200683594 93.07006072998047 L 206.79568481445312 90.88805389404297 L 206.79568481445312 90.88805389404297 L 201.83668518066406 95.12108612060547 L 201.83668518066406 95.12108612060547 L 203.01869201660156 101.53008270263672 L 203.01869201660156 101.53008270263672 L 209.16468811035156 103.70610809326172 z" fill="none" stroke="#000000"/><path d="M 236.9452362060547 69.18766784667969 L 241.1742401123047 74.14768981933594 L 241.1742401123047 74.14768981933594 L 247.58226013183594 72.96168518066406 L 247.58226013183594 72.96168518066406 L 249.7632293701172 66.81867980957031 L 249.7632293701172 66.81867980957031 L 245.53123474121094 61.85969543457031 L 245.53123474121094 61.85969543457031 L 239.12120056152344 63.04267883300781 L 239.12120056152344 63.04267883300781 L 236.9452362060547 69.18766784667969 z" fill="none" stroke="#000000"/><path d="M 293.6577453613281 177.30215454101562 L 297.8887634277344 182.26113891601562 L 297.8887634277344 182.26113891601562 L 304.2957458496094 181.07614135742188 L 304.2957458496094 181.07614135742188 L 306.4767761230469 174.93417358398438 L 306.4767761230469 174.93417358398438 L 302.2437438964844 169.97415161132812 L 302.2437438964844 169.97415161132812 L 295.8347473144531 171.15713500976562 L 295.8347473144531 171.15713500976562 L 293.6577453613281 177.30215454101562 z" fill="none" stroke="#000000"/><path d="M 306.9320983886719 214.52622985839844 L 302.7013854980469 209.5652313232422 L 302.7013854980469 209.5652313232422 L 296.2919006347656 210.74522399902344 L 296.2919006347656 210.74522399902344 L 294.11309814453125 216.89122009277344 L 294.11309814453125 216.89122009277344 L 298.3439025878906 221.8512420654297 L 298.3439025878906 221.8512420654297 L 304.7533874511719 220.6652069091797 L 304.7533874511719 220.6652069091797 L 306.9320983886719 214.52622985839844 z" fill="none" stroke="#000000"/><path d="M 299.8617858886719 241.60923767089844 L 294.9017639160156 245.83824157714844 L 294.9017639160156 245.83824157714844 L 296.0877990722656 252.24525451660156 L 296.0877990722656 252.24525451660156 L 302.2297668457031 254.42625427246094 L 302.2297668457031 254.42625427246094 L 307.1897888183594 250.1952362060547 L 307.1897888183594 250.1952362060547 L 306.0077819824219 243.7842559814453 L 306.0077819824219 243.7842559814453 L 299.8617858886719 241.60923767089844 z" fill="none" stroke="#000000"/><path d="M 303.02337646484375 163.324462890625 L 307.9833679199219 159.095458984375 L 307.9833679199219 159.095458984375 L 306.7973937988281 152.68841552734375 L 306.7973937988281 152.68841552734375 L 300.6553955078125 150.50640869140625 L 300.6553955078125 150.50640869140625 L 295.69537353515625 154.73944091796875 L 295.69537353515625 154.73944091796875 L 296.8783874511719 161.1484375 L 296.8783874511719 161.1484375 L 303.02337646484375 163.324462890625 z" fill="none" stroke="#000000"/><path d="M 297.07159423828125 120.85736846923828 L 301.30059814453125 125.81836700439453 L 301.30059814453125 125.81836700439453 L 307.70758056640625 124.63135528564453 L 307.70758056640625 124.63135528564453 L 309.8885498046875 118.48932647705078 L 309.8885498046875 118.48932647705078 L 305.65655517578125 113.53034210205078 L 305.65655517578125 113.53034210205078 L 299.24658203125 114.71234893798828 L 299.24658203125 114.71234893798828 L 297.07159423828125 120.85736846923828 z" fill="none" stroke="#000000"/><path d="M 306.87908935546875 105.0901870727539 L 311.839111328125 100.8602066040039 L 311.839111328125 100.8602066040039 L 310.6540832519531 94.4532241821289 L 310.6540832519531 94.4532241821289 L 304.5111083984375 92.2721939086914 L 304.5111083984375 92.2721939086914 L 299.5520935058594 96.50418853759766 L 299.5520935058594 96.50418853759766 L 300.735107421875 102.9131851196289 L 300.735107421875 102.9131851196289 L 306.87908935546875 105.0901870727539 z" fill="none" stroke="#000000"/><path d="M 300.49658203125 19.77009391784668 L 304.7255859375 24.729093551635742 L 304.7255859375 24.729093551635742 L 311.13360595703125 23.54310417175293 L 311.13360595703125 23.54310417175293 L 313.3135986328125 17.402097702026367 L 313.3135986328125 17.402097702026367 L 309.08258056640625 12.441100120544434 L 309.08258056640625 12.441100120544434 L 302.672607421875 13.624098777770996 L 302.672607421875 13.624098777770996 L 300.49658203125 19.77009391784668 z" fill="none" stroke="#000000"/><path d="M 305.8475341796875 219.73184204101562 L 300.8885192871094 223.96185302734375 L 300.8885192871094 223.96185302734375 L 302.0735168457031 230.3688507080078 L 302.0735168457031 230.3688507080078 L 308.21551513671875 232.55015563964844 L 308.21551513671875 232.55015563964844 L 313.175537109375 228.3168487548828 L 313.175537109375 228.3168487548828 L 311.9925231933594 221.90785217285156 L 311.9925231933594 221.90785217285156 L 305.8475341796875 219.73184204101562 z" fill="none" stroke="#000000"/><path d="M 306.1878967285156 124.91250610351562 L 301.2289123535156 129.14349365234375 L 301.2289123535156 129.14349365234375 L 302.4089050292969 135.552490234375 L 302.4089050292969 135.552490234375 L 308.55389404296875 137.73150634765625 L 308.55389404296875 137.73150634765625 L 313.513916015625 133.50149536132812 L 313.513916015625 133.50149536132812 L 312.3279113769531 127.09149169921875 L 312.3279113769531 127.09149169921875 L 306.1878967285156 124.91250610351562 z" fill="none" stroke="#000000"/><path d="M 301.0148620605469 147.17596435546875 L 305.244873046875 152.135986328125 L 305.244873046875 152.135986328125 L 311.65386962890625 150.95599365234375 L 311.65386962890625 150.95599365234375 L 313.8328857421875 144.81097412109375 L 313.8328857421875 144.81097412109375 L 309.6028747558594 139.8509521484375 L 309.6028747558594 139.8509521484375 L 303.19287109375 141.0369873046875 L 303.19287109375 141.0369873046875 L 301.0148620605469 147.17596435546875 z" fill="none" stroke="#000000"/><path d="M 301.201416015625 60.739280700683594 L 305.430419921875 65.69927215576172 L 305.430419921875 65.69927215576172 L 311.84039306640625 64.51827239990234 L 311.84039306640625 64.51827239990234 L 314.0194091796875 58.37425994873047 L 314.0194091796875 58.37425994873047 L 309.7894287109375 53.414268493652344 L 309.7894287109375 53.414268493652344 L 303.37939453125 54.60027313232422 L 303.37939453125 54.60027313232422 L 301.201416015625 60.739280700683594 z" fill="none" stroke="#000000"/><path d="M 309.0929870605469 172.9839324951172 L 314.052978515625 168.7539520263672 L 314.052978515625 168.7539520263672 L 312.87298583984375 162.34495544433594 L 312.87298583984375 162.34495544433594 L 306.7279968261719 160.1659393310547 L 306.7279968261719 160.1659393310547 L 301.7669982910156 164.3959197998047 L 301.7669982910156 164.3959197998047 L 302.9539794921875 170.8059539794922 L 302.9539794921875 170.8059539794922 L 309.0929870605469 172.9839324951172 z" fill="none" stroke="#000000"/><path d="M 302.8765563964844 239.2767333984375 L 307.1045837402344 244.2357177734375 L 307.1045837402344 244.2357177734375 L 313.5145568847656 243.052734375 L 313.5145568847656 243.052734375 L 315.6925964355469 236.91073608398438 L 315.6925964355469 236.91073608398438 L 311.4626159667969 231.95071411132812 L 311.4626159667969 231.95071411132812 L 305.0525817871094 233.13372802734375 L 305.0525817871094 233.13372802734375 L 302.8765563964844 239.2767333984375 z" fill="none" stroke="#000000"/><path d="M 316.0614929199219 70.91088104248047 L 311.8345031738281 65.95186614990234 L 311.8345031738281 65.95186614990234 L 305.42449951171875 67.13488006591797 L 305.42449951171875 67.13488006591797 L 303.2464904785156 73.2768783569336 L 303.2464904785156 73.2768783569336 L 307.47650146484375 78.23686981201172 L 307.47650146484375 78.23686981201172 L 313.8865051269531 77.05486297607422 L 313.8865051269531 77.05486297607422 L 316.0614929199219 70.91088104248047 z" fill="none" stroke="#000000"/><path d="M 309.2450866699219 77.91130065917969 L 304.2850646972656 82.13829040527344 L 304.2850646972656 82.13829040527344 L 305.4680480957031 88.54728698730469 L 305.4680480957031 88.54728698730469 L 311.6110534667969 90.72727966308594 L 311.6110534667969 90.72727966308594 L 316.5700988769531 86.49626159667969 L 316.5700988769531 86.49626159667969 L 315.3870544433594 80.08525085449219 L 315.3870544433594 80.08525085449219 L 309.2450866699219 77.91130065917969 z" fill="none" stroke="#000000"/><path d="M 303.8374328613281 111.39288330078125 L 308.0644226074219 116.35188293457031 L 308.0644226074219 116.35188293457031 L 314.4744567871094 115.16888427734375 L 314.4744567871094 115.16888427734375 L 316.6524353027344 109.02787780761719 L 316.6524353027344 109.02787780761719 L 312.4224548339844 104.06687927246094 L 312.4224548339844 104.06687927246094 L 306.0144348144531 105.2498779296875 L 306.0144348144531 105.2498779296875 L 303.8374328613281 111.39288330078125 z" fill="none" stroke="#000000"/><path d="M 309.2936706542969 176.7383270263672 L 304.33465576171875 180.96612548828125 L 304.33465576171875 180.96612548828125 L 305.5176696777344 187.37562561035156 L 305.5176696777344 187.37562561035156 L 311.65966796875 189.55433654785156 L 311.65966796875 189.55433654785156 L 316.6196594238281 185.32443237304688 L 316.6196594238281 185.32443237304688 L 315.4366760253906 178.91493225097656 L 315.4366760253906 178.91493225097656 L 309.2936706542969 176.7383270263672 z" fill="none" stroke="#000000"/><path d="M 311.6712341308594 43.797786712646484 L 316.6302490234375 39.570796966552734 L 316.6302490234375 39.570796966552734 L 315.4472351074219 33.16079330444336 L 315.4472351074219 33.16079330444336 L 309.30523681640625 30.981807708740234 L 309.30523681640625 30.981807708740234 L 304.34722900390625 35.21279525756836 L 304.34722900390625 35.21279525756836 L 305.52923583984375 41.622798919677734 L 305.52923583984375 41.622798919677734 L 311.6712341308594 43.797786712646484 z" fill="none" stroke="#000000"/><path d="M 87.001953125 249.34249877929688 L 87.001953125 245.45150756835938 L 87.001953125 245.45150756835938 L 64.82891845703125 245.45150756835938 L 64.82891845703125 245.45150756835938 L 64.82891845703125 249.34249877929688" fill="none" stroke="#000000"/><path d="M 90.42301177978516 254.06851196289062 L 112.5970230102539 254.06851196289062 L 112.5970230102539 254.06851196289062 L 112.5970230102539 250.17752075195312 L 112.5970230102539 250.17752075195312 L 90.42301177978516 250.17752075195312" fill="none" stroke="#000000"/><path d="M 4.102425575256348 59.11275100708008 L 4.102425575256348 81.2852554321289 L 4.102425575256348 81.2852554321289 L 0.21143454313278198 81.2852554321289 L 0.21143454313278198 81.2852554321289 L 0.21143454313278198 59.11275100708008" fill="none" stroke="#000000"/><path d="M 55.63906478881836 7.378477096557617 L 56.07003402709961 0.00048654922284185897 L 56.07003402709961 0.00048654922284185897 L 65.56002044677734 0.2284528613090515 L 65.56002044677734 0.2284528613090515 L 65.56002044677734 8.253477096557617 L 65.56002044677734 8.253477096557617 L 55.63906478881836 7.378477096557617 z" fill="none" stroke="#000000"/><path d="M 10.19919490814209 105.18759155273438 L 9.768195152282715 112.56558227539062 L 9.768195152282715 112.56558227539062 L 0.27820500731468206 112.33758544921875 L 0.27820500731468206 112.33758544921875 L 0.27820500731468206 104.31259155273438 L 0.278205007314682 104.31259155273438 L 10.19919490814209 105.18759155273438 z" fill="none" stroke="#000000"/><path d="M 22.071029663085938 0.8947594761848453 L 29.449020385742188 1.3257898092269897 L 29.449020385742188 1.3257898092269897 L 29.222030639648438 10.814772605895996 L 29.222030639648438 10.814772605895996 L 21.196029663085938 10.814772605895996 L 21.196029663085938 10.814772605895996 L 22.071029663085938 0.894759476184845 z" fill="none" stroke="#000000"/><path d="M 36.89441680908203 64.42247772216797 L 36.666419982910156 73.91149139404297 L 36.666419982910156 73.91149139404297 L 44.044410705566406 74.34246063232422 L 44.044410705566406 74.34246063232422 L 44.919410705566406 64.42247772216797" fill="none" stroke="#000000"/><path d="M 88.83056640625 107.5301284790039 L 88.40057373046875 114.90812683105469 L 88.40057373046875 114.90812683105469 L 78.91058349609375 114.67913055419922 L 78.91058349609375 114.67913055419922 L 78.91058349609375 106.65412902832031 L 78.91058349609375 106.65412902832031 L 88.83056640625 107.5301284790039 z" fill="none" stroke="#000000"/><path d="M 93.8629150390625 65.89925384521484 L 94.29290771484375 58.521263122558594 L 94.29290771484375 58.521263122558594 L 103.78289794921875 58.74925994873047 L 103.78289794921875 58.74925994873047 L 103.78289794921875 66.77425384521484 L 103.78289794921875 66.77425384521484 L 93.8629150390625 65.89925384521484 z" fill="none" stroke="#000000"/><path d="M 125.53036499023438 106.4587173461914 L 125.96035766601562 99.08170318603516 L 125.96035766601562 99.08170318603516 L 135.45034790039062 99.3086929321289 L 135.45034790039062 99.3086929321289 L 135.45034790039062 107.3346939086914 L 135.45034790039062 107.3346939086914 L 125.53036499023438 106.4587173461914 z" fill="none" stroke="#000000"/><path d="M 138.67962646484375 227.00503540039062 L 139.110595703125 219.62603759765625 L 139.110595703125 219.62603759765625 L 148.599609375 219.85403442382812 L 148.599609375 219.85403442382812 L 148.599609375 227.8790283203125 L 148.599609375 227.8790283203125 L 138.67962646484375 227.00503540039062 z" fill="none" stroke="#000000"/><path d="M 39.149452209472656 181.05589294433594 L 46.527442932128906 181.48692321777344 L 46.527442932128906 181.48692321777344 L 46.29944610595703 190.9758758544922 L 46.29944610595703 190.9758758544922 L 38.274452209472656 190.9758758544922 L 38.274452209472656 190.9758758544922 L 39.149452209472656 181.05589294433594 z" fill="none" stroke="#000000"/><path d="M 177.1976318359375 7.3779897689819345 L 177.62893676757812 -0.000031662890251027434 L 177.62893676757812 -0.000031662890251027434 L 187.11712646484375 0.22897224128246316 L 187.11712646484375 0.22897224128246316 L 187.11712646484375 8.253966331481934 L 187.11712646484375 8.253966331481934 L 177.1976318359375 7.377989768981934 z" fill="none" stroke="#000000"/><path d="M 82.0177230834961 96.9317855834961 L 89.39470672607422 97.36278533935547 L 89.39470672607422 97.36278533935547 L 89.16771697998047 106.85179901123047 L 89.16771697998047 106.85179901123047 L 81.1427230834961 106.85179901123047 L 81.1427230834961 106.85179901123047 L 82.0177230834961 96.9317855834961 z" fill="none" stroke="#000000"/><path d="M 183.86032104492188 80.43121337890625 L 184.28933715820312 73.05322265625 L 184.28933715820312 73.05322265625 L 193.78033447265625 73.28521728515625 L 193.78033447265625 73.28521728515625 L 193.78033447265625 81.30621337890625 L 193.78033447265625 81.30621337890625 L 183.86032104492188 80.43121337890625 z" fill="none" stroke="#000000"/><path d="M 158.51824951171875 221.49459838867188 L 158.09027099609375 228.87258911132812 L 158.09027099609375 228.87258911132812 L 148.59930419921875 228.63958740234375 L 148.59930419921875 228.63958740234375 L 148.59930419921875 220.61959838867188 L 148.59930419921875 220.61959838867188 L 158.51824951171875 221.49459838867188 z" fill="none" stroke="#000000"/><path d="M 98.36836242675781 173.19647216796875 L 90.9903564453125 172.7674560546875 L 90.9903564453125 172.7674560546875 L 91.22335815429688 163.27642822265625 L 91.22335815429688 163.27642822265625 L 99.24336242675781 163.27642822265625 L 99.24336242675781 163.27642822265625 L 98.36836242675781 173.19647216796875 z" fill="none" stroke="#000000"/><path d="M 114.4461669921875 143.02508544921875 L 114.6771240234375 133.53408813476562 L 114.6771240234375 133.53408813476562 L 107.3001708984375 133.1060791015625 L 107.3001708984375 133.1060791015625 L 106.4261474609375 143.02508544921875" fill="none" stroke="#000000"/><path d="M 229.3405303955078 26.92945098876953 L 229.76963806152344 19.55243682861328 L 229.76963806152344 19.55243682861328 L 239.26004028320312 19.78443145751953 L 239.26004028320312 19.78443145751953 L 239.26004028320312 27.80445098876953 L 239.26004028320312 27.80445098876953 L 229.3405303955078 26.92945098876953 z" fill="none" stroke="#000000"/><path d="M 250.94496154785156 226.94970703125 L 250.94496154785156 233.90670776367188 L 250.94496154785156 233.90670776367188 L 241.02491760253906 234.09768676757812 L 241.02491760253906 234.09768676757812 L 241.02491760253906 226.07369995117188 L 241.02491760253906 226.07369995117188 L 250.94496154785156 226.94970703125 z" fill="none" stroke="#000000"/><path d="M 256.0785827636719 55.44833755493164 L 256.0785827636719 62.40434646606445 L 256.0785827636719 62.40434646606445 L 246.15957641601562 62.59633255004883 L 246.15957641601562 62.59633255004883 L 246.15957641601562 54.57234573364258 L 246.15957641601562 54.57234573364258 L 256.0785827636719 55.44833755493164 z" fill="none" stroke="#000000"/><path d="M 249.19252014160156 7.333797931671143 L 249.19252014160156 0.3778040409088136 L 249.19252014160156 0.3778040409088136 L 259.1115417480469 0.18578743934631353 L 259.1115417480469 0.18578743934631353 L 259.1115417480469 8.208797454833984 L 259.1115417480469 8.208797454833984 L 249.19252014160156 7.333797931671143 z" fill="none" stroke="#000000"/><path d="M 68.64015197753906 100.29300689697266 L 75.59614562988281 100.29300689697266 L 75.59614562988281 100.29300689697266 L 75.78813171386719 110.21302032470703 L 75.78813171386719 110.21302032470703 L 67.76515197753906 110.21302032470703 L 67.76515197753906 110.21302032470703 L 68.64015197753906 100.29300689697266 z" fill="none" stroke="#000000"/><path d="M 128.49169921875 89.20198059082031 L 135.44769287109375 89.20198059082031 L 135.44769287109375 89.20198059082031 L 135.63970947265625 99.12098693847656 L 135.63970947265625 99.12098693847656 L 127.61669921875 99.12098693847656 L 127.61669921875 99.12098693847656 L 128.49169921875 89.20198059082031 z" fill="none" stroke="#000000"/><path d="M 271.95941162109375 154.7096710205078 L 281.87939453125 154.51866149902344 L 281.87939453125 154.51866149902344 L 281.87939453125 162.54066467285156 L 281.87939453125 162.54066467285156 L 271.95941162109375 161.66566467285156" fill="none" stroke="#000000"/><path d="M 273.71990966796875 144.67990112304688 L 273.71990966796875 137.72390747070312 L 273.71990966796875 137.72390747070312 L 283.639404296875 137.53289794921875 L 283.639404296875 137.53289794921875 L 283.639404296875 145.555908203125 L 283.639404296875 145.555908203125 L 273.71990966796875 144.67990112304688 z" fill="none" stroke="#000000"/><path d="M 190.42384338378906 130.2048797607422 L 197.3788299560547 130.2048797607422 L 197.3788299560547 130.2048797607422 L 197.5708465576172 140.1248779296875 L 197.5708465576172 140.1248779296875 L 189.54783630371094 140.1248779296875 L 189.54783630371094 140.1248779296875 L 190.42384338378906 130.2048797607422 z" fill="none" stroke="#000000"/><path d="M 165.84881591796875 124.72640228271484 L 158.89181518554688 124.72640228271484 L 158.89181518554688 124.72640228271484 L 158.70181274414062 114.8073959350586 L 158.70181274414062 114.8073959350586 L 166.72482299804688 114.8073959350586 L 166.72482299804688 114.8073959350586 L 165.84881591796875 124.72640228271484 z" fill="none" stroke="#000000"/><path d="M 305.7982177734375 197.05963134765625 L 315.71722412109375 196.86767578125 L 315.71722412109375 196.86767578125 L 315.71722412109375 189.91265869140625 L 315.71722412109375 189.91265869140625 L 305.7982177734375 189.03765869140625" fill="none" stroke="#000000"/></svg>