  0
SECTION
  2
HEADER
  9
$ACADVER
  1
AC1009
  9
$EXTMIN
 10
0.0
 20
0.0
 30
0.0
  9
$EXTMAX
 10
1000.0
 20
1000.0
 30
0.0
  9
$FILLMODE
 70
 0
  9
$SPLFRAME
 70
 1
  0
ENDSEC
  0
SECTION
  2
TABLES
  0
TABLE
  2
LAYER
 70
1
  0
LAYER
  2
0
 70
     0
 62
     7
  6
CONTINUOUS
  0
ENDTAB
  0
ENDSEC
  0
SECTION
  2
ENTITIES
  0
POLYLINE
  8
0
 62
     7
 66
     1
 10
0
 20
0
 30
0.0
 70
     1
 40
0
 41
0
  0
VERTEX
  8
0
 10
30.0463
 20
14.2838
 30
0.0
 40
0
 41
0
  0
VERTEX
  8
0
 10
30.0463
 20
14.1065
 30
0.0
 40
0
 41
0
  0
VERTEX
  8
0
 10
30.0269
 20
13.575
 30
0.0
 40
0
 41
0
  0
VERTEX
  8
0
 10
29.97
 20
12.8756
 30
0.0
 40
0
 41
0
  0
VERTEX
  8
0
 10
29.876
 20
12.1864
 30
0.0
 40
0
 41
0
  0
VERTEX
  8
0
 10
29.746
 20
11.5082
 30
0.0
 40
0
 41
0
  0
VERTEX
  8
0
 10
29.5811
 20
10.8419
 30
0.0
 40
0
 41
0
  0
VERTEX
  8
0
 10
29.3821
 20
10.1884
 30
0.0
 40
0
 41
0
  0
VERTEX
  8
0
 10
29.1499
 20
9.5485
 30
0.0
 40
0
 41
0
  0
VERTEX
  8
0
 10
28.8853
 20
8.92307
 30
0.0
 40
0
 41
0
  0
VERTEX
  8
0
 10
28.5894
 20
8.31304
 30
0.0
 40
0
 41
0
  0
VERTEX
  8
0
 10
28.2632
 20
7.71924
 30
0.0
 40
0
 41
0
  0
VERTEX
  8
0
 10
27.9075
 20
7.14253
 30
0.0
 40
0
 41
0
  0
VERTEX
  8
0
 10
27.5232
 20
6.58371
 30
0.0
 40
0
 41
0
  0
VERTEX
  8
0
 10
27.1114
 20
6.04378
 30
0.0
 40
0
 41
0
  0
VERTEX
  8
0
 10
26.6728
 20
5.52354
 30
0.0
 40
0
 41
0
  0
VERTEX
  8
0
 10
26.2083
 20
5.02382
 30
0.0
 40
0
 41
0
  0
VERTEX
  8
0
 10
25.7193
 20
4.54551
 30
0.0
 40
0
 41
0
  0
VERTEX
  8
0
 10
25.2062
 20
4.08951
 30
0.0
 40
0
 41
0
  0
VERTEX
  8
0
 10
24.6701
 20
3.65668
 30
0.0
 40
0
 41
0
  0
VERTEX
  8
0
 10
24.1121
 20
3.24783
 30
0.0
 40
0
 41
0
  0
VERTEX
  8
0
 10
23.5329
 20
2.86388
 30
0.0
 40
0
 41
0
  0
VERTEX
  8
0
 10
22.9335
 20
2.50564
 30
0.0
 40
0
 41
0
  0
VERTEX
  8
0
 10
22.3149
 20
2.17404
 30
0.0
 40
0
 41
0
  0
VERTEX
  8
0
 10
21.6778
 20
1.8699
 30
0.0
 40
0
 41
0
  0
VERTEX
  8
0
 10
21.0235
 20
1.59413
 30
0.0
 40
0
 41
0
  0
VERTEX
  8
0
 10
20.3526
 20
1.34755
 30
0.0
 40
0
 41
0
  0
VERTEX
  8
0
 10
19.6661
 20
1.13102
 30
0.0
 40
0
 41
0
  0
VERTEX
  8
0
 10
18.9651
 20
0.945421
 30
0.0
 40
0
 41
0
  0
VERTEX
  8
0
 10
18.2504
 20
0.791667
 30
0.0
 40
0
 41
0
  0
VERTEX
  8
0
 10
17.5229
 20
0.670518
 30
0.0
 40
0
 41
0
  0
VERTEX
  8
0
 10
16.7835
 20
0.582954
 30
0.0
 40
0
 41
0
  0
VERTEX
  8
0
 10
16.0333
 20
0.529785
 30
0.0
 40
0
 41
0
  0
VERTEX
  8
0
 10
15.4632
 20
0.511828
 30
0.0
 40
0
 41
0
  0
VERTEX
  8
0
 10
15.2731
 20
0.511828
 30
0.0
 40
0
 41
0
  0
VERTEX
  8
0
 10
15.0831
 20
0.511828
 30
0.0
 40
0
 41
0
  0
VERTEX
  8
0
 10
14.5129
 20
0.529785
 30
0.0
 40
0
 41
0
  0
VERTEX
  8
0
 10
13.7626
 20
0.582954
 30
0.0
 40
0
 41
0
  0
VERTEX
  8
0
 10
13.0233
 20
0.670518
 30
0.0
 40
0
 41
0
  0
VERTEX
  8
0
 10
12.2958
 20
0.791667
 30
0.0
 40
0
 41
0
  0
VERTEX
  8
0
 10
11.5811
 20
0.945421
 30
0.0
 40
0
 41
0
  0
VERTEX
  8
0
 10
10.88
 20
1.13102
 30
0.0
 40
0
 41
0
  0
VERTEX
  8
0
 10
10.1936
 20
1.34755
 30
0.0
 40
0
 41
0
  0
VERTEX
  8
0
 10
9.52274
 20
1.59413
 30
0.0
 40
0
 41
0
  0
VERTEX
  8
0
 10
8.86833
 20
1.8699
 30
0.0
 40
0
 41
0
  0
VERTEX
  8
0
 10
8.23133
 20
2.17404
 30
0.0
 40
0
 41
0
  0
VERTEX
  8
0
 10
7.61268
 20
2.50564
 30
0.0
 40
0
 41
0
  0
VERTEX
  8
0
 10
7.01329
 20
2.86388
 30
0.0
 40
0
 41
0
  0
VERTEX
  8
0
 10
6.43408
 20
3.24783
 30
0.0
 40
0
 41
0
  0
VERTEX
  8
0
 10
5.87603
 20
3.65668
 30
0.0
 40
0
 41
0
  0
VERTEX
  8
0
 10
5.33996
 20
4.08951
 30
0.0
 40
0
 41
0
  0
VERTEX
  8
0
 10
4.82693
 20
4.54551
 30
0.0
 40
0
 41
0
  0
VERTEX
  8
0
 10
4.33778
 20
5.02382
 30
0.0
 40
0
 41
0
  0
VERTEX
  8
0
 10
3.87343
 20
5.52354
 30
0.0
 40
0
 41
0
  0
VERTEX
  8
0
 10
3.43485
 20
6.04378
 30
0.0
 40
0
 41
0
  0
VERTEX
  8
0
 10
3.023
 20
6.58371
 30
0.0
 40
0
 41
0
  0
VERTEX
  8
0
 10
2.63872
 20
7.14253
 30
0.0
 40
0
 41
0
  0
VERTEX
  8
0
 10
2.28299
 20
7.71924
 30
0.0
 40
0
 41
0
  0
VERTEX
  8
0
 10
1.95676
 20
8.31304
 30
0.0
 40
0
 41
0
  0
VERTEX
  8
0
 10
1.66092
 20
8.92307
 30
0.0
 40
0
 41
0
  0
VERTEX
  8
0
 10
1.39638
 20
9.5485
 30
0.0
 40
0
 41
0
  0
VERTEX
  8
0
 10
1.16412
 20
10.1884
 30
0.0
 40
0
 41
0
  0
VERTEX
  8
0
 10
0.965061
 20
10.8419
 30
0.0
 40
0
 41
0
  0
VERTEX
  8
0
 10
0.800131
 20
11.5082
 30
0.0
 40
0
 41
0
  0
VERTEX
  8
0
 10
0.670193
 20
12.1864
 30
0.0
 40
0
 41
0
  0
VERTEX
  8
0
 10
0.576226
 20
12.8756
 30
0.0
 40
0
 41
0
  0
VERTEX
  8
0
 10
0.519206
 20
13.575
 30
0.0
 40
0
 41
0
  0
VERTEX
  8
0
 10
0.5
 20
14.1065
 30
0.0
 40
0
 41
0
  0
VERTEX
  8
0
 10
0.5
 20
14.2838
 30
0.0
 40
0
 41
0
  0
VERTEX
  8
0
 10
0.5
 20
14.4608
 30
0.0
 40
0
 41
0
  0
VERTEX
  8
0
 10
0.519206
 20
14.9924
 30
0.0
 40
0
 41
0
  0
VERTEX
  8
0
 10
0.576226
 20
15.6918
 30
0.0
 40
0
 41
0
  0
VERTEX
  8
0
 10
0.670193
 20
16.381
 30
0.0
 40
0
 41
0
  0
VERTEX
  8
0
 10
0.800131
 20
17.0593
 30
0.0
 40
0
 41
0
  0
VERTEX
  8
0
 10
0.965061
 20
17.7256
 30
0.0
 40
0
 41
0
  0
VERTEX
  8
0
 10
1.16412
 20
18.379
 30
0.0
 40
0
 41
0
  0
VERTEX
  8
0
 10
1.39638
 20
19.0189
 30
0.0
 40
0
 41
0
  0
VERTEX
  8
0
 10
1.66092
 20
19.6443
 30
0.0
 40
0
 41
0
  0
VERTEX
  8
0
 10
1.95676
 20
20.2544
 30
0.0
 40
0
 41
0
  0
VERTEX
  8
0
 10
2.28299
 20
20.8482
 30
0.0
 40
0
 41
0
  0
VERTEX
  8
0
 10
2.63872
 20
21.4249
 30
0.0
 40
0
 41
0
  0
VERTEX
  8
0
 10
3.023
 20
21.9837
 30
0.0
 40
0
 41
0
  0
VERTEX
  8
0
 10
3.43485
 20
22.5236
 30
0.0
 40
0
 41
0
  0
VERTEX
  8
0
 10
3.87343
 20
23.0439
 30
0.0
 40
0
 41
0
  0
VERTEX
  8
0
 10
4.33778
 20
23.5436
 30
0.0
 40
0
 41
0
  0
VERTEX
  8
0
 10
4.82693
 20
24.0219
 30
0.0
 40
0
 41
0
  0
VERTEX
  8
0
 10
5.33996
 20
24.4779
 30
0.0
 40
0
 41
0
  0
VERTEX
  8
0
 10
5.87603
 20
24.9107
 30
0.0
 40
0
 41
0
  0
VERTEX
  8
0
 10
6.43408
 20
25.3196
 30
0.0
 40
0
 41
0
  0
VERTEX
  8
0
 10
7.01329
 20
25.7036
 30
0.0
 40
0
 41
0
  0
VERTEX
  8
0
 10
7.61268
 20
26.0618
 30
0.0
 40
0
 41
0
  0
VERTEX
  8
0
 10
8.23133
 20
26.3933
 30
0.0
 40
0
 41
0
  0
VERTEX
  8
0
 10
8.86833
 20
26.6975
 30
0.0
 40
0
 41
0
  0
VERTEX
  8
0
 10
9.52274
 20
26.9733
 30
0.0
 40
0
 41
0
  0
VERTEX
  8
0
 10
10.1936
 20
27.2199
 30
0.0
 40
0
 41
0
  0
VERTEX
  8
0
 10
10.88
 20
27.4364
 30
0.0
 40
0
 41
0
  0
VERTEX
  8
0
 10
11.5811
 20
27.6221
 30
0.0
 40
0
 41
0
  0
VERTEX
  8
0
 10
12.2958
 20
27.7758
 30
0.0
 40
0
 41
0
  0
VERTEX
  8
0
 10
13.0233
 20
27.8969
 30
0.0
 40
0
 41
0
  0
VERTEX
  8
0
 10
13.7626
 20
27.9844
 30
0.0
 40
0
 41
0
  0
VERTEX
  8
0
 10
14.5129
 20
28.0376
 30
0.0
 40
0
 41
0
  0
VERTEX
  8
0
 10
15.0831
 20
28.0556
 30
0.0
 40
0
 41
0
  0
VERTEX
  8
0
 10
15.2731
 20
28.0556
 30
0.0
 40
0
 41
0
  0
VERTEX
  8
0
 10
15.4632
 20
28.0556
 30
0.0
 40
0
 41
0
  0
VERTEX
  8
0
 10
16.0333
 20
28.0376
 30
0.0
 40
0
 41
0
  0
VERTEX
  8
0
 10
16.7835
 20
27.9844
 30
0.0
 40
0
 41
0
  0
VERTEX
  8
0
 10
17.5229
 20
27.8969
 30
0.0
 40
0
 41
0
  0
VERTEX
  8
0
 10
18.2504
 20
27.7758
 30
0.0
 40
0
 41
0
  0
VERTEX
  8
0
 10
18.9651
 20
27.6221
 30
0.0
 40
0
 41
0
  0
VERTEX
  8
0
 10
19.6661
 20
27.4364
 30
0.0
 40
0
 41
0
  0
VERTEX
  8
0
 10
20.3526
 20
27.2199
 30
0.0
 40
0
 41
0
  0
VERTEX
  8
0
 10
21.0235
 20
26.9733
 30
0.0
 40
0
 41
0
  0
VERTEX
  8
0
 10
21.6778
 20
26.6975
 30
0.0
 40
0
 41
0
  0
VERTEX
  8
0
 10
22.3149
 20
26.3933
 30
0.0
 40
0
 41
0
  0
VERTEX
  8
0
 10
22.9335
 20
26.0618
 30
0.0
 40
0
 41
0
  0
VERTEX
  8
0
 10
23.5329
 20
25.7036
 30
0.0
 40
0
 41
0
  0
VERTEX
  8
0
 10
24.1121
 20
25.3196
 30
0.0
 40
0
 41
0
  0
VERTEX
  8
0
 10
24.6701
 20
24.9107
 30
0.0
 40
0
 41
0
  0
VERTEX
  8
0
 10
25.2062
 20
24.4779
 30
0.0
 40
0
 41
0
  0
VERTEX
  8
0
 10
25.7193
 20
24.0219
 30
0.0
 40
0
 41
0
  0
VERTEX
  8
0
 10
26.2083
 20
23.5436
 30
0.0
 40
0
 41
0
  0
VERTEX
  8
0
 10
26.6728
 20
23.0439
 30
0.0
 40
0
 41
0
  0
VERTEX
  8
0
 10
27.1114
 20
22.5236
 30
0.0
 40
0
 41
0
  0
VERTEX
  8
0
 10
27.5232
 20
21.9837
 30
0.0
 40
0
 41
0
  0
VERTEX
  8
0
 10
27.9075
 20
21.4249
 30
0.0
 40
0
 41
0
  0
VERTEX
  8
0
 10
28.2632
 20
20.8482
 30
0.0
 40
0
 41
0
  0
VERTEX
  8
0
 10
28.5894
 20
20.2544
 30
0.0
 40
0
 41
0
  0
VERTEX
  8
0
 10
28.8853
 20
19.6443
 30
0.0
 40
0
 41
0
  0
VERTEX
  8
0
 10
29.1499
 20
19.0189
 30
0.0
 40
0
 41
0
  0
VERTEX
  8
0
 10
29.3821
 20
18.379
 30
0.0
 40
0
 41
0
  0
VERTEX
  8
0
 10
29.5811
 20
17.7256
 30
0.0
 40
0
 41
0
  0
VERTEX
  8
0
 10
29.746
 20
17.0593
 30
0.0
 40
0
 41
0
  0
VERTEX
  8
0
 10
29.876
 20
16.381
 30
0.0
 40
0
 41
0
  0
VERTEX
  8
0
 10
29.97
 20
15.6918
 30
0.0
 40
0
 41
0
  0
VERTEX
  8
0
 10
30.0269
 20
14.9924
 30
0.0
 40
0
 41
0
  0
VERTEX
  8
0
 10
30.0463
 20
14.4608
 30
0.0
 40
0
 41
0
  0
VERTEX
  8
0
 10
30.0463
 20
14.2838
 30
0.0
 40
0
 41
0
  0
SEQEND
 8
0
  0
POLYLINE
  8
0
 62
     0
 66
     1
 10
0
 20
0
 30
0.0
 70
     1
 40
72
 41
72
  0
VERTEX
  8
0
 10
30.0463
 20
14.2838
 30
0.0
 40
1
 41
1
  0
VERTEX
  8
0
 10
30.0463
 20
14.1065
 30
0.0
 40
1
 41
1
  0
VERTEX
  8
0
 10
30.0269
 20
13.575
 30
0.0
 40
1
 41
1
  0
VERTEX
  8
0
 10
29.97
 20
12.8756
 30
0.0
 40
1
 41
1
  0
VERTEX
  8
0
 10
29.876
 20
12.1864
 30
0.0
 40
1
 41
1
  0
VERTEX
  8
0
 10
29.746
 20
11.5082
 30
0.0
 40
1
 41
1
  0
VERTEX
  8
0
 10
29.5811
 20
10.8419
 30
0.0
 40
1
 41
1
  0
VERTEX
  8
0
 10
29.3821
 20
10.1884
 30
0.0
 40
1
 41
1
  0
VERTEX
  8
0
 10
29.1499
 20
9.5485
 30
0.0
 40
1
 41
1
  0
VERTEX
  8
0
 10
28.8853
 20
8.92307
 30
0.0
 40
1
 41
1
  0
VERTEX
  8
0
 10
28.5894
 20
8.31304
 30
0.0
 40
1
 41
1
  0
VERTEX
  8
0
 10
28.2632
 20
7.71924
 30
0.0
 40
1
 41
1
  0
VERTEX
  8
0
 10
27.9075
 20
7.14253
 30
0.0
 40
1
 41
1
  0
VERTEX
  8
0
 10
27.5232
 20
6.58371
 30
0.0
 40
1
 41
1
  0
VERTEX
  8
0
 10
27.1114
 20
6.04378
 30
0.0
 40
1
 41
1
  0
VERTEX
  8
0
 10
26.6728
 20
5.52354
 30
0.0
 40
1
 41
1
  0
VERTEX
  8
0
 10
26.2083
 20
5.02382
 30
0.0
 40
1
 41
1
  0
VERTEX
  8
0
 10
25.7193
 20
4.54551
 30
0.0
 40
1
 41
1
  0
VERTEX
  8
0
 10
25.2062
 20
4.08951
 30
0.0
 40
1
 41
1
  0
VERTEX
  8
0
 10
24.6701
 20
3.65668
 30
0.0
 40
1
 41
1
  0
VERTEX
  8
0
 10
24.1121
 20
3.24783
 30
0.0
 40
1
 41
1
  0
VERTEX
  8
0
 10
23.5329
 20
2.86388
 30
0.0
 40
1
 41
1
  0
VERTEX
  8
0
 10
22.9335
 20
2.50564
 30
0.0
 40
1
 41
1
  0
VERTEX
  8
0
 10
22.3149
 20
2.17404
 30
0.0
 40
1
 41
1
  0
VERTEX
  8
0
 10
21.6778
 20
1.8699
 30
0.0
 40
1
 41
1
  0
VERTEX
  8
0
 10
21.0235
 20
1.59413
 30
0.0
 40
1
 41
1
  0
VERTEX
  8
0
 10
20.3526
 20
1.34755
 30
0.0
 40
1
 41
1
  0
VERTEX
  8
0
 10
19.6661
 20
1.13102
 30
0.0
 40
1
 41
1
  0
VERTEX
  8
0
 10
18.9651
 20
0.945421
 30
0.0
 40
1
 41
1
  0
VERTEX
  8
0
 10
18.2504
 20
0.791667
 30
0.0
 40
1
 41
1
  0
VERTEX
  8
0
 10
17.5229
 20
0.670518
 30
0.0
 40
1
 41
1
  0
VERTEX
  8
0
 10
16.7835
 20
0.582954
 30
0.0
 40
1
 41
1
  0
VERTEX
  8
0
 10
16.0333
 20
0.529785
 30
0.0
 40
1
 41
1
  0
VERTEX
  8
0
 10
15.4632
 20
0.511828
 30
0.0
 40
1
 41
1
  0
VERTEX
  8
0
 10
15.2731
 20
0.511828
 30
0.0
 40
1
 41
1
  0
VERTEX
  8
0
 10
15.0831
 20
0.511828
 30
0.0
 40
1
 41
1
  0
VERTEX
  8
0
 10
14.5129
 20
0.529785
 30
0.0
 40
1
 41
1
  0
VERTEX
  8
0
 10
13.7626
 20
0.582954
 30
0.0
 40
1
 41
1
  0
VERTEX
  8
0
 10
13.0233
 20
0.670518
 30
0.0
 40
1
 41
1
  0
VERTEX
  8
0
 10
12.2958
 20
0.791667
 30
0.0
 40
1
 41
1
  0
VERTEX
  8
0
 10
11.5811
 20
0.945421
 30
0.0
 40
1
 41
1
  0
VERTEX
  8
0
 10
10.88
 20
1.13102
 30
0.0
 40
1
 41
1
  0
VERTEX
  8
0
 10
10.1936
 20
1.34755
 30
0.0
 40
1
 41
1
  0
VERTEX
  8
0
 10
9.52274
 20
1.59413
 30
0.0
 40
1
 41
1
  0
VERTEX
  8
0
 10
8.86833
 20
1.8699
 30
0.0
 40
1
 41
1
  0
VERTEX
  8
0
 10
8.23133
 20
2.17404
 30
0.0
 40
1
 41
1
  0
VERTEX
  8
0
 10
7.61268
 20
2.50564
 30
0.0
 40
1
 41
1
  0
VERTEX
  8
0
 10
7.01329
 20
2.86388
 30
0.0
 40
1
 41
1
  0
VERTEX
  8
0
 10
6.43408
 20
3.24783
 30
0.0
 40
1
 41
1
  0
VERTEX
  8
0
 10
5.87603
 20
3.65668
 30
0.0
 40
1
 41
1
  0
VERTEX
  8
0
 10
5.33996
 20
4.08951
 30
0.0
 40
1
 41
1
  0
VERTEX
  8
0
 10
4.82693
 20
4.54551
 30
0.0
 40
1
 41
1
  0
VERTEX
  8
0
 10
4.33778
 20
5.02382
 30
0.0
 40
1
 41
1
  0
VERTEX
  8
0
 10
3.87343
 20
5.52354
 30
0.0
 40
1
 41
1
  0
VERTEX
  8
0
 10
3.43485
 20
6.04378
 30
0.0
 40
1
 41
1
  0
VERTEX
  8
0
 10
3.023
 20
6.58371
 30
0.0
 40
1
 41
1
  0
VERTEX
  8
0
 10
2.63872
 20
7.14253
 30
0.0
 40
1
 41
1
  0
VERTEX
  8
0
 10
2.28299
 20
7.71924
 30
0.0
 40
1
 41
1
  0
VERTEX
  8
0
 10
1.95676
 20
8.31304
 30
0.0
 40
1
 41
1
  0
VERTEX
  8
0
 10
1.66092
 20
8.92307
 30
0.0
 40
1
 41
1
  0
VERTEX
  8
0
 10
1.39638
 20
9.5485
 30
0.0
 40
1
 41
1
  0
VERTEX
  8
0
 10
1.16412
 20
10.1884
 30
0.0
 40
1
 41
1
  0
VERTEX
  8
0
 10
0.965061
 20
10.8419
 30
0.0
 40
1
 41
1
  0
VERTEX
  8
0
 10
0.800131
 20
11.5082
 30
0.0
 40
1
 41
1
  0
VERTEX
  8
0
 10
0.670193
 20
12.1864
 30
0.0
 40
1
 41
1
  0
VERTEX
  8
0
 10
0.576226
 20
12.8756
 30
0.0
 40
1
 41
1
  0
VERTEX
  8
0
 10
0.519206
 20
13.575
 30
0.0
 40
1
 41
1
  0
VERTEX
  8
0
 10
0.5
 20
14.1065
 30
0.0
 40
1
 41
1
  0
VERTEX
  8
0
 10
0.5
 20
14.2838
 30
0.0
 40
1
 41
1
  0
VERTEX
  8
0
 10
0.5
 20
14.4608
 30
0.0
 40
1
 41
1
  0
VERTEX
  8
0
 10
0.519206
 20
14.9924
 30
0.0
 40
1
 41
1
  0
VERTEX
  8
0
 10
0.576226
 20
15.6918
 30
0.0
 40
1
 41
1
  0
VERTEX
  8
0
 10
0.670193
 20
16.381
 30
0.0
 40
1
 41
1
  0
VERTEX
  8
0
 10
0.800131
 20
17.0593
 30
0.0
 40
1
 41
1
  0
VERTEX
  8
0
 10
0.965061
 20
17.7256
 30
0.0
 40
1
 41
1
  0
VERTEX
  8
0
 10
1.16412
 20
18.379
 30
0.0
 40
1
 41
1
  0
VERTEX
  8
0
 10
1.39638
 20
19.0189
 30
0.0
 40
1
 41
1
  0
VERTEX
  8
0
 10
1.66092
 20
19.6443
 30
0.0
 40
1
 41
1
  0
VERTEX
  8
0
 10
1.95676
 20
20.2544
 30
0.0
 40
1
 41
1
  0
VERTEX
  8
0
 10
2.28299
 20
20.8482
 30
0.0
 40
1
 41
1
  0
VERTEX
  8
0
 10
2.63872
 20
21.4249
 30
0.0
 40
1
 41
1
  0
VERTEX
  8
0
 10
3.023
 20
21.9837
 30
0.0
 40
1
 41
1
  0
VERTEX
  8
0
 10
3.43485
 20
22.5236
 30
0.0
 40
1
 41
1
  0
VERTEX
  8
0
 10
3.87343
 20
23.0439
 30
0.0
 40
1
 41
1
  0
VERTEX
  8
0
 10
4.33778
 20
23.5436
 30
0.0
 40
1
 41
1
  0
VERTEX
  8
0
 10
4.82693
 20
24.0219
 30
0.0
 40
1
 41
1
  0
VERTEX
  8
0
 10
5.33996
 20
24.4779
 30
0.0
 40
1
 41
1
  0
VERTEX
  8
0
 10
5.87603
 20
24.9107
 30
0.0
 40
1
 41
1
  0
VERTEX
  8
0
 10
6.43408
 20
25.3196
 30
0.0
 40
1
 41
1
  0
VERTEX
  8
0
 10
7.01329
 20
25.7036
 30
0.0
 40
1
 41
1
  0
VERTEX
  8
0
 10
7.61268
 20
26.0618
 30
0.0
 40
1
 41
1
  0
VERTEX
  8
0
 10
8.23133
 20
26.3933
 30
0.0
 40
1
 41
1
  0
VERTEX
  8
0
 10
8.86833
 20
26.6975
 30
0.0
 40
1
 41
1
  0
VERTEX
  8
0
 10
9.52274
 20
26.9733
 30
0.0
 40
1
 41
1
  0
VERTEX
  8
0
 10
10.1936
 20
27.2199
 30
0.0
 40
1
 41
1
  0
VERTEX
  8
0
 10
10.88
 20
27.4364
 30
0.0
 40
1
 41
1
  0
VERTEX
  8
0
 10
11.5811
 20
27.6221
 30
0.0
 40
1
 41
1
  0
VERTEX
  8
0
 10
12.2958
 20
27.7758
 30
0.0
 40
1
 41
1
  0
VERTEX
  8
0
 10
13.0233
 20
27.8969
 30
0.0
 40
1
 41
1
  0
VERTEX
  8
0
 10
13.7626
 20
27.9844
 30
0.0
 40
1
 41
1
  0
VERTEX
  8
0
 10
14.5129
 20
28.0376
 30
0.0
 40
1
 41
1
  0
VERTEX
  8
0
 10
15.0831
 20
28.0556
 30
0.0
 40
1
 41
1
  0
VERTEX
  8
0
 10
15.2731
 20
28.0556
 30
0.0
 40
1
 41
1
  0
VERTEX
  8
0
 10
15.4632
 20
28.0556
 30
0.0
 40
1
 41
1
  0
VERTEX
  8
0
 10
16.0333
 20
28.0376
 30
0.0
 40
1
 41
1
  0
VERTEX
  8
0
 10
16.7835
 20
27.9844
 30
0.0
 40
1
 41
1
  0
VERTEX
  8
0
 10
17.5229
 20
27.8969
 30
0.0
 40
1
 41
1
  0
VERTEX
  8
0
 10
18.2504
 20
27.7758
 30
0.0
 40
1
 41
1
  0
VERTEX
  8
0
 10
18.9651
 20
27.6221
 30
0.0
 40
1
 41
1
  0
VERTEX
  8
0
 10
19.6661
 20
27.4364
 30
0.0
 40
1
 41
1
  0
VERTEX
  8
0
 10
20.3526
 20
27.2199
 30
0.0
 40
1
 41
1
  0
VERTEX
  8
0
 10
21.0235
 20
26.9733
 30
0.0
 40
1
 41
1
  0
VERTEX
  8
0
 10
21.6778
 20
26.6975
 30
0.0
 40
1
 41
1
  0
VERTEX
  8
0
 10
22.3149
 20
26.3933
 30
0.0
 40
1
 41
1
  0
VERTEX
  8
0
 10
22.9335
 20
26.0618
 30
0.0
 40
1
 41
1
  0
VERTEX
  8
0
 10
23.5329
 20
25.7036
 30
0.0
 40
1
 41
1
  0
VERTEX
  8
0
 10
24.1121
 20
25.3196
 30
0.0
 40
1
 41
1
  0
VERTEX
  8
0
 10
24.6701
 20
24.9107
 30
0.0
 40
1
 41
1
  0
VERTEX
  8
0
 10
25.2062
 20
24.4779
 30
0.0
 40
1
 41
1
  0
VERTEX
  8
0
 10
25.7193
 20
24.0219
 30
0.0
 40
1
 41
1
  0
VERTEX
  8
0
 10
26.2083
 20
23.5436
 30
0.0
 40
1
 41
1
  0
VERTEX
  8
0
 10
26.6728
 20
23.0439
 30
0.0
 40
1
 41
1
  0
VERTEX
  8
0
 10
27.1114
 20
22.5236
 30
0.0
 40
1
 41
1
  0
VERTEX
  8
0
 10
27.5232
 20
21.9837
 30
0.0
 40
1
 41
1
  0
VERTEX
  8
0
 10
27.9075
 20
21.4249
 30
0.0
 40
1
 41
1
  0
VERTEX
  8
0
 10
28.2632
 20
20.8482
 30
0.0
 40
1
 41
1
  0
VERTEX
  8
0
 10
28.5894
 20
20.2544
 30
0.0
 40
1
 41
1
  0
VERTEX
  8
0
 10
28.8853
 20
19.6443
 30
0.0
 40
1
 41
1
  0
VERTEX
  8
0
 10
29.1499
 20
19.0189
 30
0.0
 40
1
 41
1
  0
VERTEX
  8
0
 10
29.3821
 20
18.379
 30
0.0
 40
1
 41
1
  0
VERTEX
  8
0
 10
29.5811
 20
17.7256
 30
0.0
 40
1
 41
1
  0
VERTEX
  8
0
 10
29.746
 20
17.0593
 30
0.0
 40
1
 41
1
  0
VERTEX
  8
0
 10
29.876
 20
16.381
 30
0.0
 40
1
 41
1
  0
VERTEX
  8
0
 10
29.97
 20
15.6918
 30
0.0
 40
1
 41
1
  0
VERTEX
  8
0
 10
30.0269
 20
14.9924
 30
0.0
 40
1
 41
1
  0
VERTEX
  8
0
 10
30.0463
 20
14.4608
 30
0.0
 40
1
 41
1
  0
VERTEX
  8
0
 10
30.0463
 20
14.2838
 30
0.0
 40
1
 41
1
  0
SEQEND
 8
0
  0
ENDSEC
  0
EOF
