  0
SECTION
  2
HEADER
  9
$ACADVER
  1
AC1009
  9
$EXTMIN
 10
0.0
 20
0.0
 30
0.0
  9
$EXTMAX
 10
1000.0
 20
1000.0
 30
0.0
  9
$FILLMODE
 70
 0
  9
$SPLFRAME
 70
 1
  0
ENDSEC
  0
SECTION
  2
TABLES
  0
TABLE
  2
LAYER
 70
1
  0
LAYER
  2
0
 70
     0
 62
     7
  6
CONTINUOUS
  0
ENDTAB
  0
ENDSEC
  0
SECTION
  2
ENTITIES
  0
POLYLINE
  8
0
 62
     0
 66
     1
 10
0
 20
0
 30
0.0
 70
     1
 40
72
 41
72
  0
VERTEX
  8
0
 10
7.06614
 20
119.98
 30
0.0
 40
1
 41
1
  0
VERTEX
  8
0
 10
7.06879
 20
119.9
 30
0.0
 40
1
 41
1
  0
VERTEX
  8
0
 10
7.06153
 20
119.659
 30
0.0
 40
1
 41
1
  0
VERTEX
  8
0
 10
7.02658
 20
119.348
 30
0.0
 40
1
 41
1
  0
VERTEX
  8
0
 10
6.96224
 20
119.048
 30
0.0
 40
1
 41
1
  0
VERTEX
  8
0
 10
6.86931
 20
118.761
 30
0.0
 40
1
 41
1
  0
VERTEX
  8
0
 10
6.74858
 20
118.488
 30
0.0
 40
1
 41
1
  0
VERTEX
  8
0
 10
6.60097
 20
118.231
 30
0.0
 40
1
 41
1
  0
VERTEX
  8
0
 10
6.42725
 20
117.991
 30
0.0
 40
1
 41
1
  0
VERTEX
  8
0
 10
6.22835
 20
117.77
 30
0.0
 40
1
 41
1
  0
VERTEX
  8
0
 10
6.0051
 20
117.569
 30
0.0
 40
1
 41
1
  0
VERTEX
  8
0
 10
5.75836
 20
117.39
 30
0.0
 40
1
 41
1
  0
VERTEX
  8
0
 10
5.48888
 20
117.235
 30
0.0
 40
1
 41
1
  0
VERTEX
  8
0
 10
5.19764
 20
117.104
 30
0.0
 40
1
 41
1
  0
VERTEX
  8
0
 10
4.88542
 20
116.999
 30
0.0
 40
1
 41
1
  0
VERTEX
  8
0
 10
4.55306
 20
116.923
 30
0.0
 40
1
 41
1
  0
VERTEX
  8
0
 10
4.20139
 20
116.876
 30
0.0
 40
1
 41
1
  0
VERTEX
  8
0
 10
3.92389
 20
116.86
 30
0.0
 40
1
 41
1
  0
VERTEX
  8
0
 10
3.83138
 20
116.86
 30
0.0
 40
1
 41
1
  0
VERTEX
  8
0
 10
3.74892
 20
116.86
 30
0.0
 40
1
 41
1
  0
VERTEX
  8
0
 10
3.50168
 20
116.876
 30
0.0
 40
1
 41
1
  0
VERTEX
  8
0
 10
3.18533
 20
116.923
 30
0.0
 40
1
 41
1
  0
VERTEX
  8
0
 10
2.8834
 20
116.999
 30
0.0
 40
1
 41
1
  0
VERTEX
  8
0
 10
2.597
 20
117.104
 30
0.0
 40
1
 41
1
  0
VERTEX
  8
0
 10
2.32721
 20
117.235
 30
0.0
 40
1
 41
1
  0
VERTEX
  8
0
 10
2.07508
 20
117.39
 30
0.0
 40
1
 41
1
  0
VERTEX
  8
0
 10
1.84174
 20
117.569
 30
0.0
 40
1
 41
1
  0
VERTEX
  8
0
 10
1.62836
 20
117.77
 30
0.0
 40
1
 41
1
  0
VERTEX
  8
0
 10
1.43593
 20
117.991
 30
0.0
 40
1
 41
1
  0
VERTEX
  8
0
 10
1.26563
 20
118.231
 30
0.0
 40
1
 41
1
  0
VERTEX
  8
0
 10
1.11849
 20
118.488
 30
0.0
 40
1
 41
1
  0
VERTEX
  8
0
 10
0.99566
 20
118.761
 30
0.0
 40
1
 41
1
  0
VERTEX
  8
0
 10
0.898167
 20
119.048
 30
0.0
 40
1
 41
1
  0
VERTEX
  8
0
 10
0.827203
 20
119.348
 30
0.0
 40
1
 41
1
  0
VERTEX
  8
0
 10
0.783854
 20
119.659
 30
0.0
 40
1
 41
1
  0
VERTEX
  8
0
 10
0.769151
 20
119.9
 30
0.0
 40
1
 41
1
  0
VERTEX
  8
0
 10
0.769151
 20
119.98
 30
0.0
 40
1
 41
1
  0
VERTEX
  8
0
 10
0.769151
 20
120.063
 30
0.0
 40
1
 41
1
  0
VERTEX
  8
0
 10
0.784506
 20
120.311
 30
0.0
 40
1
 41
1
  0
VERTEX
  8
0
 10
0.829807
 20
120.631
 30
0.0
 40
1
 41
1
  0
VERTEX
  8
0
 10
0.903863
 20
120.938
 30
0.0
 40
1
 41
1
  0
VERTEX
  8
0
 10
1.00553
 20
121.232
 30
0.0
 40
1
 41
1
  0
VERTEX
  8
0
 10
1.13363
 20
121.511
 30
0.0
 40
1
 41
1
  0
VERTEX
  8
0
 10
1.28689
 20
121.772
 30
0.0
 40
1
 41
1
  0
VERTEX
  8
0
 10
1.46419
 20
122.016
 30
0.0
 40
1
 41
1
  0
VERTEX
  8
0
 10
1.66433
 20
122.24
 30
0.0
 40
1
 41
1
  0
VERTEX
  8
0
 10
1.88618
 20
122.443
 30
0.0
 40
1
 41
1
  0
VERTEX
  8
0
 10
2.12847
 20
122.624
 30
0.0
 40
1
 41
1
  0
VERTEX
  8
0
 10
2.39003
 20
122.781
 30
0.0
 40
1
 41
1
  0
VERTEX
  8
0
 10
2.66976
 20
122.913
 30
0.0
 40
1
 41
1
  0
VERTEX
  8
0
 10
2.96642
 20
123.017
 30
0.0
 40
1
 41
1
  0
VERTEX
  8
0
 10
3.27881
 20
123.094
 30
0.0
 40
1
 41
1
  0
VERTEX
  8
0
 10
3.60574
 20
123.141
 30
0.0
 40
1
 41
1
  0
VERTEX
  8
0
 10
3.861
 20
123.157
 30
0.0
 40
1
 41
1
  0
VERTEX
  8
0
 10
3.94613
 20
123.157
 30
0.0
 40
1
 41
1
  0
VERTEX
  8
0
 10
4.03336
 20
123.157
 30
0.0
 40
1
 41
1
  0
VERTEX
  8
0
 10
4.29519
 20
123.141
 30
0.0
 40
1
 41
1
  0
VERTEX
  8
0
 10
4.62733
 20
123.094
 30
0.0
 40
1
 41
1
  0
VERTEX
  8
0
 10
4.94174
 20
123.018
 30
0.0
 40
1
 41
1
  0
VERTEX
  8
0
 10
5.23757
 20
122.913
 30
0.0
 40
1
 41
1
  0
VERTEX
  8
0
 10
5.51421
 20
122.781
 30
0.0
 40
1
 41
1
  0
VERTEX
  8
0
 10
5.77078
 20
122.624
 30
0.0
 40
1
 41
1
  0
VERTEX
  8
0
 10
6.00657
 20
122.444
 30
0.0
 40
1
 41
1
  0
VERTEX
  8
0
 10
6.22076
 20
122.241
 30
0.0
 40
1
 41
1
  0
VERTEX
  8
0
 10
6.41265
 20
122.016
 30
0.0
 40
1
 41
1
  0
VERTEX
  8
0
 10
6.58143
 20
121.773
 30
0.0
 40
1
 41
1
  0
VERTEX
  8
0
 10
6.72635
 20
121.511
 30
0.0
 40
1
 41
1
  0
VERTEX
  8
0
 10
6.84663
 20
121.232
 30
0.0
 40
1
 41
1
  0
VERTEX
  8
0
 10
6.94151
 20
120.938
 30
0.0
 40
1
 41
1
  0
VERTEX
  8
0
 10
7.01019
 20
120.631
 30
0.0
 40
1
 41
1
  0
VERTEX
  8
0
 10
7.05203
 20
120.311
 30
0.0
 40
1
 41
1
  0
VERTEX
  8
0
 10
7.06614
 20
120.063
 30
0.0
 40
1
 41
1
  0
VERTEX
  8
0
 10
7.06614
 20
119.98
 30
0.0
 40
1
 41
1
  0
SEQEND
 8
0
  0
POLYLINE
  8
0
 62
     0
 66
     1
 10
0
 20
0
 30
0.0
 70
     1
 40
72
 41
72
  0
VERTEX
  8
0
 10
3.94613
 20
100.22
 30
0.0
 40
1
 41
1
  0
VERTEX
  8
0
 10
4.02615
 20
100.223
 30
0.0
 40
1
 41
1
  0
VERTEX
  8
0
 10
4.26676
 20
100.215
 30
0.0
 40
1
 41
1
  0
VERTEX
  8
0
 10
4.57781
 20
100.18
 30
0.0
 40
1
 41
1
  0
VERTEX
  8
0
 10
4.87765
 20
100.116
 30
0.0
 40
1
 41
1
  0
VERTEX
  8
0
 10
5.16482
 20
100.023
 30
0.0
 40
1
 41
1
  0
VERTEX
  8
0
 10
5.43778
 20
99.9025
 30
0.0
 40
1
 41
1
  0
VERTEX
  8
0
 10
5.69499
 20
99.755
 30
0.0
 40
1
 41
1
  0
VERTEX
  8
0
 10
5.93494
 20
99.5813
 30
0.0
 40
1
 41
1
  0
VERTEX
  8
0
 10
6.15608
 20
99.3825
 30
0.0
 40
1
 41
1
  0
VERTEX
  8
0
 10
6.35693
 20
99.1592
 30
0.0
 40
1
 41
1
  0
VERTEX
  8
0
 10
6.53592
 20
98.9125
 30
0.0
 40
1
 41
1
  0
VERTEX
  8
0
 10
6.69157
 20
98.6431
 30
0.0
 40
1
 41
1
  0
VERTEX
  8
0
 10
6.82238
 20
98.3517
 30
0.0
 40
1
 41
1
  0
VERTEX
  8
0
 10
6.92671
 20
98.0394
 30
0.0
 40
1
 41
1
  0
VERTEX
  8
0
 10
7.00315
 20
97.7071
 30
0.0
 40
1
 41
1
  0
VERTEX
  8
0
 10
7.05013
 20
97.3554
 30
0.0
 40
1
 41
1
  0
VERTEX
  8
0
 10
7.06614
 20
97.0776
 30
0.0
 40
1
 41
1
  0
VERTEX
  8
0
 10
7.06614
 20
96.9851
 30
0.0
 40
1
 41
1
  0
VERTEX
  8
0
 10
7.06614
 20
96.9028
 30
0.0
 40
1
 41
1
  0
VERTEX
  8
0
 10
7.05013
 20
96.6557
 30
0.0
 40
1
 41
1
  0
VERTEX
  8
0
 10
7.00315
 20
96.3394
 30
0.0
 40
1
 41
1
  0
VERTEX
  8
0
 10
6.92671
 20
96.0375
 30
0.0
 40
1
 41
1
  0
VERTEX
  8
0
 10
6.82238
 20
95.7512
 30
0.0
 40
1
 41
1
  0
VERTEX
  8
0
 10
6.69157
 20
95.4814
 30
0.0
 40
1
 41
1
  0
VERTEX
  8
0
 10
6.53592
 20
95.2294
 30
0.0
 40
1
 41
1
  0
VERTEX
  8
0
 10
6.35693
 20
94.9961
 30
0.0
 40
1
 41
1
  0
VERTEX
  8
0
 10
6.15608
 20
94.7828
 30
0.0
 40
1
 41
1
  0
VERTEX
  8
0
 10
5.93494
 20
94.5904
 30
0.0
 40
1
 41
1
  0
VERTEX
  8
0
 10
5.69499
 20
94.4201
 30
0.0
 40
1
 41
1
  0
VERTEX
  8
0
 10
5.43778
 20
94.2729
 30
0.0
 40
1
 41
1
  0
VERTEX
  8
0
 10
5.16482
 20
94.1501
 30
0.0
 40
1
 41
1
  0
VERTEX
  8
0
 10
4.87765
 20
94.0526
 30
0.0
 40
1
 41
1
  0
VERTEX
  8
0
 10
4.57781
 20
93.9817
 30
0.0
 40
1
 41
1
  0
VERTEX
  8
0
 10
4.26676
 20
93.9383
 30
0.0
 40
1
 41
1
  0
VERTEX
  8
0
 10
4.02626
 20
93.9236
 30
0.0
 40
1
 41
1
  0
VERTEX
  8
0
 10
3.94613
 20
93.9236
 30
0.0
 40
1
 41
1
  0
VERTEX
  8
0
 10
3.86339
 20
93.9236
 30
0.0
 40
1
 41
1
  0
VERTEX
  8
0
 10
3.61529
 20
93.939
 30
0.0
 40
1
 41
1
  0
VERTEX
  8
0
 10
3.29542
 20
93.9843
 30
0.0
 40
1
 41
1
  0
VERTEX
  8
0
 10
2.98785
 20
94.0585
 30
0.0
 40
1
 41
1
  0
VERTEX
  8
0
 10
2.69413
 20
94.16
 30
0.0
 40
1
 41
1
  0
VERTEX
  8
0
 10
2.41564
 20
94.2882
 30
0.0
 40
1
 41
1
  0
VERTEX
  8
0
 10
2.15386
 20
94.4414
 30
0.0
 40
1
 41
1
  0
VERTEX
  8
0
 10
1.91015
 20
94.6187
 30
0.0
 40
1
 41
1
  0
VERTEX
  8
0
 10
1.68599
 20
94.8189
 30
0.0
 40
1
 41
1
  0
VERTEX
  8
0
 10
1.48286
 20
95.0407
 30
0.0
 40
1
 41
1
  0
VERTEX
  8
0
 10
1.30214
 20
95.2831
 30
0.0
 40
1
 41
1
  0
VERTEX
  8
0
 10
1.14524
 20
95.5446
 30
0.0
 40
1
 41
1
  0
VERTEX
  8
0
 10
1.01367
 20
95.8243
 30
0.0
 40
1
 41
1
  0
VERTEX
  8
0
 10
0.908854
 20
96.121
 30
0.0
 40
1
 41
1
  0
VERTEX
  8
0
 10
0.832194
 20
96.4333
 30
0.0
 40
1
 41
1
  0
VERTEX
  8
0
 10
0.785101
 20
96.7603
 30
0.0
 40
1
 41
1
  0
VERTEX
  8
0
 10
0.769151
 20
97.0156
 30
0.0
 40
1
 41
1
  0
VERTEX
  8
0
 10
0.769151
 20
97.1007
 30
0.0
 40
1
 41
1
  0
VERTEX
  8
0
 10
0.769097
 20
97.1879
 30
0.0
 40
1
 41
1
  0
VERTEX
  8
0
 10
0.784993
 20
97.4499
 30
0.0
 40
1
 41
1
  0
VERTEX
  8
0
 10
0.831976
 20
97.7821
 30
0.0
 40
1
 41
1
  0
VERTEX
  8
0
 10
0.908583
 20
98.0965
 30
0.0
 40
1
 41
1
  0
VERTEX
  8
0
 10
1.01335
 20
98.3924
 30
0.0
 40
1
 41
1
  0
VERTEX
  8
0
 10
1.14491
 20
98.6689
 30
0.0
 40
1
 41
1
  0
VERTEX
  8
0
 10
1.30176
 20
98.9254
 30
0.0
 40
1
 41
1
  0
VERTEX
  8
0
 10
1.48253
 20
99.1611
 30
0.0
 40
1
 41
1
  0
VERTEX
  8
0
 10
1.68571
 20
99.3753
 30
0.0
 40
1
 41
1
  0
VERTEX
  8
0
 10
1.90989
 20
99.5669
 30
0.0
 40
1
 41
1
  0
VERTEX
  8
0
 10
2.15365
 20
99.7356
 30
0.0
 40
1
 41
1
  0
VERTEX
  8
0
 10
2.41547
 20
99.8804
 30
0.0
 40
1
 41
1
  0
VERTEX
  8
0
 10
2.69401
 20
100.001
 30
0.0
 40
1
 41
1
  0
VERTEX
  8
0
 10
2.98779
 20
100.095
 30
0.0
 40
1
 41
1
  0
VERTEX
  8
0
 10
3.29536
 20
100.164
 30
0.0
 40
1
 41
1
  0
VERTEX
  8
0
 10
3.61529
 20
100.206
 30
0.0
 40
1
 41
1
  0
VERTEX
  8
0
 10
3.86339
 20
100.22
 30
0.0
 40
1
 41
1
  0
VERTEX
  8
0
 10
3.94613
 20
100.22
 30
0.0
 40
1
 41
1
  0
SEQEND
 8
0
  0
POLYLINE
  8
0
 62
     0
 66
     1
 10
0
 20
0
 30
0.0
 40
72
 41
72
  0
VERTEX
  8
0
 10
228.037
 20
149.664
 30
0.0
 40
1
 41
1
  0
VERTEX
  8
0
 10
228.037
 20
132.449
 30
0.0
 40
1
 41
1
  0
SEQEND
 8
0
  0
POLYLINE
  8
0
 62
     0
 66
     1
 10
0
 20
0
 30
0.0
 40
72
 41
72
  0
VERTEX
  8
0
 10
243.628
 20
132.45
 30
0.0
 40
1
 41
1
  0
VERTEX
  8
0
 10
220.872
 20
105.066
 30
0.0
 40
1
 41
1
  0
SEQEND
 8
0
  0
POLYLINE
  8
0
 62
     0
 66
     1
 10
0
 20
0
 30
0.0
 40
72
 41
72
  0
VERTEX
  8
0
 10
62.3999
 20
219.15
 30
0.0
 40
1
 41
1
  0
VERTEX
  8
0
 10
62.3999
 20
188.856
 30
0.0
 40
1
 41
1
  0
SEQEND
 8
0
  0
POLYLINE
  8
0
 62
     0
 66
     1
 10
0
 20
0
 30
0.0
 40
72
 41
72
  0
VERTEX
  8
0
 10
280.201
 20
180.232
 30
0.0
 40
1
 41
1
  0
VERTEX
  8
0
 10
283.896
 20
187.9
 30
0.0
 40
1
 41
1
  0
SEQEND
 8
0
  0
POLYLINE
  8
0
 62
     0
 66
     1
 10
0
 20
0
 30
0.0
 40
72
 41
72
  0
VERTEX
  8
0
 10
235.1
 20
196.264
 30
0.0
 40
1
 41
1
  0
VERTEX
  8
0
 10
240.183
 20
196.264
 30
0.0
 40
1
 41
1
  0
VERTEX
  8
0
 10
240.183
 20
213.133
 30
0.0
 40
1
 41
1
  0
VERTEX
  8
0
 10
240.183
 20
213.222
 30
0.0
 40
1
 41
1
  0
VERTEX
  8
0
 10
240.188
 20
213.492
 30
0.0
 40
1
 41
1
  0
VERTEX
  8
0
 10
240.197
 20
213.829
 30
0.0
 40
1
 41
1
  0
VERTEX
  8
0
 10
240.217
 20
214.15
 30
0.0
 40
1
 41
1
  0
VERTEX
  8
0
 10
240.249
 20
214.456
 30
0.0
 40
1
 41
1
  0
VERTEX
  8
0
 10
240.294
 20
214.746
 30
0.0
 40
1
 41
1
  0
VERTEX
  8
0
 10
240.354
 20
215.026
 30
0.0
 40
1
 41
1
  0
VERTEX
  8
0
 10
240.432
 20
215.297
 30
0.0
 40
1
 41
1
  0
VERTEX
  8
0
 10
240.503
 20
215.494
 30
0.0
 40
1
 41
1
  0
VERTEX
  8
0
 10
240.531
 20
215.56
 30
0.0
 40
1
 41
1
  0
VERTEX
  8
0
 10
240.574
 20
215.689
 30
0.0
 40
1
 41
1
  0
VERTEX
  8
0
 10
240.724
 20
216.074
 30
0.0
 40
1
 41
1
  0
VERTEX
  8
0
 10
240.954
 20
216.574
 30
0.0
 40
1
 41
1
  0
VERTEX
  8
0
 10
241.221
 20
217.058
 30
0.0
 40
1
 41
1
  0
VERTEX
  8
0
 10
241.522
 20
217.524
 30
0.0
 40
1
 41
1
  0
VERTEX
  8
0
 10
241.858
 20
217.967
 30
0.0
 40
1
 41
1
  0
VERTEX
  8
0
 10
242.225
 20
218.386
 30
0.0
 40
1
 41
1
  0
VERTEX
  8
0
 10
242.624
 20
218.779
 30
0.0
 40
1
 41
1
  0
VERTEX
  8
0
 10
243.051
 20
219.142
 30
0.0
 40
1
 41
1
  0
VERTEX
  8
0
 10
243.506
 20
219.471
 30
0.0
 40
1
 41
1
  0
VERTEX
  8
0
 10
243.987
 20
219.765
 30
0.0
 40
1
 41
1
  0
VERTEX
  8
0
 10
244.493
 20
220.022
 30
0.0
 40
1
 41
1
  0
VERTEX
  8
0
 10
245.024
 20
220.239
 30
0.0
 40
1
 41
1
  0
VERTEX
  8
0
 10
245.575
 20
220.411
 30
0.0
 40
1
 41
1
  0
VERTEX
  8
0
 10
246.147
 20
220.539
 30
0.0
 40
1
 41
1
  0
VERTEX
  8
0
 10
246.737
 20
220.617
 30
0.0
 40
1
 41
1
  0
VERTEX
  8
0
 10
247.194
 20
220.643
 30
0.0
 40
1
 41
1
  0
VERTEX
  8
0
 10
247.347
 20
220.643
 30
0.0
 40
1
 41
1
  0
VERTEX
  8
0
 10
247.457
 20
220.643
 30
0.0
 40
1
 41
1
  0
VERTEX
  8
0
 10
247.787
 20
220.632
 30
0.0
 40
1
 41
1
  0
VERTEX
  8
0
 10
248.21
 20
220.599
 30
0.0
 40
1
 41
1
  0
VERTEX
  8
0
 10
248.615
 20
220.544
 30
0.0
 40
1
 41
1
  0
VERTEX
  8
0
 10
249.001
 20
220.471
 30
0.0
 40
1
 41
1
  0
VERTEX
  8
0
 10
249.372
 20
220.375
 30
0.0
 40
1
 41
1
  0
VERTEX
  8
0
 10
249.725
 20
220.261
 30
0.0
 40
1
 41
1
  0
VERTEX
  8
0
 10
250.061
 20
220.128
 30
0.0
 40
1
 41
1
  0
VERTEX
  8
0
 10
250.381
 20
219.976
 30
0.0
 40
1
 41
1
  0
VERTEX
  8
0
 10
250.685
 20
219.807
 30
0.0
 40
1
 41
1
  0
VERTEX
  8
0
 10
250.972
 20
219.621
 30
0.0
 40
1
 41
1
  0
VERTEX
  8
0
 10
251.244
 20
219.418
 30
0.0
 40
1
 41
1
  0
VERTEX
  8
0
 10
251.501
 20
219.199
 30
0.0
 40
1
 41
1
  0
VERTEX
  8
0
 10
251.743
 20
218.964
 30
0.0
 40
1
 41
1
  0
VERTEX
  8
0
 10
251.971
 20
218.715
 30
0.0
 40
1
 41
1
  0
VERTEX
  8
0
 10
252.182
 20
218.451
 30
0.0
 40
1
 41
1
  0
VERTEX
  8
0
 10
252.381
 20
218.174
 30
0.0
 40
1
 41
1
  0
VERTEX
  8
0
 10
252.564
 20
217.882
 30
0.0
 40
1
 41
1
  0
VERTEX
  8
0
 10
252.735
 20
217.579
 30
0.0
 40
1
 41
1
  0
VERTEX
  8
0
 10
252.892
 20
217.264
 30
0.0
 40
1
 41
1
  0
VERTEX
  8
0
 10
253.035
 20
216.936
 30
0.0
 40
1
 41
1
  0
VERTEX
  8
0
 10
253.165
 20
216.599
 30
0.0
 40
1
 41
1
  0
VERTEX
  8
0
 10
253.282
 20
216.25
 30
0.0
 40
1
 41
1
  0
VERTEX
  8
0
 10
253.388
 20
215.892
 30
0.0
 40
1
 41
1
  0
VERTEX
  8
0
 10
253.481
 20
215.525
 30
0.0
 40
1
 41
1
  0
VERTEX
  8
0
 10
253.561
 20
215.149
 30
0.0
 40
1
 41
1
  0
VERTEX
  8
0
 10
253.631
 20
214.765
 30
0.0
 40
1
 41
1
  0
VERTEX
  8
0
 10
253.689
 20
214.374
 30
0.0
 40
1
 41
1
  0
VERTEX
  8
0
 10
253.736
 20
213.975
 30
0.0
 40
1
 41
1
  0
VERTEX
  8
0
 10
253.772
 20
213.571
 30
0.0
 40
1
 41
1
  0
VERTEX
  8
0
 10
253.797
 20
213.16
 30
0.0
 40
1
 41
1
  0
VERTEX
  8
0
 10
253.813
 20
212.744
 30
0.0
 40
1
 41
1
  0
VERTEX
  8
0
 10
253.818
 20
212.429
 30
0.0
 40
1
 41
1
  0
VERTEX
  8
0
 10
253.818
 20
212.324
 30
0.0
 40
1
 41
1
  0
VERTEX
  8
0
 10
253.818
 20
196.264
 30
0.0
 40
1
 41
1
  0
VERTEX
  8
0
 10
258.901
 20
196.264
 30
0.0
 40
1
 41
1
  0
VERTEX
  8
0
 10
258.901
 20
212.901
 30
0.0
 40
1
 41
1
  0
VERTEX
  8
0
 10
258.901
 20
213.122
 30
0.0
 40
1
 41
1
  0
VERTEX
  8
0
 10
258.883
 20
213.785
 30
0.0
 40
1
 41
1
  0
VERTEX
  8
0
 10
258.832
 20
214.625
 30
0.0
 40
1
 41
1
  0
VERTEX
  8
0
 10
258.749
 20
215.425
 30
0.0
 40
1
 41
1
  0
VERTEX
  8
0
 10
258.635
 20
216.185
 30
0.0
 40
1
 41
1
  0
VERTEX
  8
0
 10
258.492
 20
216.906
 30
0.0
 40
1
 41
1
  0
VERTEX
  8
0
 10
258.322
 20
217.587
 30
0.0
 40
1
 41
1
  0
VERTEX
  8
0
 10
258.125
 20
218.232
 30
0.0
 40
1
 41
1
  0
VERTEX
  8
0
 10
257.903
 20
218.84
 30
0.0
 40
1
 41
1
  0
VERTEX
  8
0
 10
257.658
 20
219.413
 30
0.0
 40
1
 41
1
  0
VERTEX
  8
0
 10
257.393
 20
219.95
 30
0.0
 40
1
 41
1
  0
VERTEX
  8
0
 10
257.107
 20
220.454
 30
0.0
 40
1
 41
1
  0
VERTEX
  8
0
 10
256.801
 20
220.925
 30
0.0
 40
1
 41
1
  0
VERTEX
  8
0
 10
256.481
 20
221.364
 30
0.0
 40
1
 41
1
  0
VERTEX
  8
0
 10
256.143
 20
221.772
 30
0.0
 40
1
 41
1
  0
VERTEX
  8
0
 10
255.792
 20
222.15
 30
0.0
 40
1
 41
1
  0
VERTEX
  8
0
 10
255.428
 20
222.499
 30
0.0
 40
1
 41
1
  0
VERTEX
  8
0
 10
255.053
 20
222.818
 30
0.0
 40
1
 41
1
  0
VERTEX
  8
0
 10
254.668
 20
223.111
 30
0.0
 40
1
 41
1
  0
VERTEX
  8
0
 10
254.275
 20
223.378
 30
0.0
 40
1
 41
1
  0
VERTEX
  8
0
 10
253.876
 20
223.619
 30
0.0
 40
1
 41
1
  0
VERTEX
  8
0
 10
253.474
 20
223.836
 30
0.0
 40
1
 41
1
  0
VERTEX
  8
0
 10
253.065
 20
224.029
 30
0.0
 40
1
 41
1
  0
VERTEX
  8
0
 10
252.657
 20
224.2
 30
0.0
 40
1
 41
1
  0
VERTEX
  8
0
 10
252.247
 20
224.347
 30
0.0
 40
1
 41
1
  0
VERTEX
  8
0
 10
251.839
 20
224.475
 30
0.0
 40
1
 41
1
  0
VERTEX
  8
0
 10
251.433
 20
224.582
 30
0.0
 40
1
 41
1
  0
VERTEX
  8
0
 10
251.031
 20
224.671
 30
0.0
 40
1
 41
1
  0
VERTEX
  8
0
 10
250.635
 20
224.742
 30
0.0
 40
1
 41
1
  0
VERTEX
  8
0
 10
250.246
 20
224.794
 30
0.0
 40
1
 41
1
  0
VERTEX
  8
0
 10
249.865
 20
224.831
 30
0.0
 40
1
 41
1
  0
VERTEX
  8
0
 10
249.496
 20
224.853
 30
0.0
 40
1
 41
1
  0
VERTEX
  8
0
 10
249.226
 20
224.86
 30
0.0
 40
1
 41
1
  0
VERTEX
  8
0
 10
249.138
 20
224.86
 30
0.0
 40
1
 41
1
  0
VERTEX
  8
0
 10
248.96
 20
224.86
 30
0.0
 40
1
 41
1
  0
VERTEX
  8
0
 10
248.428
 20
224.833
 30
0.0
 40
1
 41
1
  0
VERTEX
  8
0
 10
247.732
 20
224.756
 30
0.0
 40
1
 41
1
  0
VERTEX
  8
0
 10
247.051
 20
224.631
 30
0.0
 40
1
 41
1
  0
VERTEX
  8
0
 10
246.386
 20
224.462
 30
0.0
 40
1
 41
1
  0
VERTEX
  8
0
 10
245.74
 20
224.253
 30
0.0
 40
1
 41
1
  0
VERTEX
  8
0
 10
245.117
 20
224.007
 30
0.0
 40
1
 41
1
  0
VERTEX
  8
0
 10
244.515
 20
223.726
 30
0.0
 40
1
 41
1
  0
VERTEX
  8
0
 10
244.081
 20
223.497
 30
0.0
 40
1
 41
1
  0
VERTEX
  8
0
 10
243.939
 20
223.415
 30
0.0
 40
1
 41
1
  0
VERTEX
  8
0
 10
243.793
 20
223.335
 30
0.0
 40
1
 41
1
  0
VERTEX
  8
0
 10
243.367
 20
223.072
 30
0.0
 40
1
 41
1
  0
VERTEX
  8
0
 10
242.825
 20
222.693
 30
0.0
 40
1
 41
1
  0
VERTEX
  8
0
 10
242.314
 20
222.282
 30
0.0
 40
1
 41
1
  0
VERTEX
  8
0
 10
241.836
 20
221.842
 30
0.0
 40
1
 41
1
  0
VERTEX
  8
0
 10
241.394
 20
221.374
 30
0.0
 40
1
 41
1
  0
VERTEX
  8
0
 10
240.989
 20
220.881
 30
0.0
 40
1
 41
1
  0
VERTEX
  8
0
 10
240.624
 20
220.367
 30
0.0
 40
1
 41
1
  0
VERTEX
  8
0
 10
240.375
 20
219.969
 30
0.0
 40
1
 41
1
  0
VERTEX
  8
0
 10
240.299
 20
219.833
 30
0.0
 40
1
 41
1
  0
VERTEX
  8
0
 10
240.183
 20
219.833
 30
0.0
 40
1
 41
1
  0
VERTEX
  8
0
 10
240.183
 20
237.281
 30
0.0
 40
1
 41
1
  0
VERTEX
  8
0
 10
235.1
 20
237.281
 30
0.0
 40
1
 41
1
  0
VERTEX
  8
0
 10
235.1
 20
237.281
 30
0.0
 40
1
 41
1
  0
VERTEX
  8
0
 10
235.1
 20
132.45
 30
0.0
 40
1
 41
1
  0
SEQEND
 8
0
  0
POLYLINE
  8
0
 62
     0
 66
     1
 10
0
 20
0
 30
0.0
 70
     1
 40
72
 41
72
  0
VERTEX
  8
0
 10
215.567
 20
252.713
 30
0.0
 40
1
 41
1
  0
VERTEX
  8
0
 10
215.472
 20
252.768
 30
0.0
 40
1
 41
1
  0
VERTEX
  8
0
 10
215.188
 20
252.925
 30
0.0
 40
1
 41
1
  0
VERTEX
  8
0
 10
214.79
 20
253.126
 30
0.0
 40
1
 41
1
  0
VERTEX
  8
0
 10
214.374
 20
253.318
 30
0.0
 40
1
 41
1
  0
VERTEX
  8
0
 10
213.94
 20
253.499
 30
0.0
 40
1
 41
1
  0
VERTEX
  8
0
 10
213.49
 20
253.667
 30
0.0
 40
1
 41
1
  0
VERTEX
  8
0
 10
213.024
 20
253.824
 30
0.0
 40
1
 41
1
  0
VERTEX
  8
0
 10
212.543
 20
253.968
 30
0.0
 40
1
 41
1
  0
VERTEX
  8
0
 10
212.049
 20
254.099
 30
0.0
 40
1
 41
1
  0
VERTEX
  8
0
 10
211.542
 20
254.217
 30
0.0
 40
1
 41
1
  0
VERTEX
  8
0
 10
211.022
 20
254.321
 30
0.0
 40
1
 41
1
  0
VERTEX
  8
0
 10
210.493
 20
254.41
 30
0.0
 40
1
 41
1
  0
VERTEX
  8
0
 10
209.953
 20
254.483
 30
0.0
 40
1
 41
1
  0
VERTEX
  8
0
 10
209.403
 20
254.542
 30
0.0
 40
1
 41
1
  0
VERTEX
  8
0
 10
208.846
 20
254.585
 30
0.0
 40
1
 41
1
  0
VERTEX
  8
0
 10
208.281
 20
254.61
 30
0.0
 40
1
 41
1
  0
VERTEX
  8
0
 10
207.851
 20
254.619
 30
0.0
 40
1
 41
1
  0
VERTEX
  8
0
 10
207.71
 20
254.619
 30
0.0
 40
1
 41
1
  0
VERTEX
  8
0
 10
207.556
 20
254.619
 30
0.0
 40
1
 41
1
  0
VERTEX
  8
0
 10
207.094
 20
254.608
 30
0.0
 40
1
 41
1
  0
VERTEX
  8
0
 10
206.497
 20
254.579
 30
0.0
 40
1
 41
1
  0
VERTEX
  8
0
 10
205.917
 20
254.529
 30
0.0
 40
1
 41
1
  0
VERTEX
  8
0
 10
205.353
 20
254.461
 30
0.0
 40
1
 41
1
  0
VERTEX
  8
0
 10
204.807
 20
254.374
 30
0.0
 40
1
 41
1
  0
VERTEX
  8
0
 10
204.278
 20
254.267
 30
0.0
 40
1
 41
1
  0
VERTEX
  8
0
 10
203.767
 20
254.143
 30
0.0
 40
1
 41
1
  0
VERTEX
  8
0
 10
203.272
 20
254.001
 30
0.0
 40
1
 41
1
  0
VERTEX
  8
0
 10
202.797
 20
253.842
 30
0.0
 40
1
 41
1
  0
VERTEX
  8
0
 10
202.34
 20
253.665
 30
0.0
 40
1
 41
1
  0
VERTEX
  8
0
 10
201.901
 20
253.472
 30
0.0
 40
1
 41
1
  0
VERTEX
  8
0
 10
201.482
 20
253.264
 30
0.0
 40
1
 41
1
  0
VERTEX
  8
0
 10
201.081
 20
253.039
 30
0.0
 40
1
 41
1
  0
VERTEX
  8
0
 10
200.697
 20
252.799
 30
0.0
 40
1
 41
1
  0
VERTEX
  8
0
 10
200.335
 20
252.543
 30
0.0
 40
1
 41
1
  0
VERTEX
  8
0
 10
199.99
 20
252.272
 30
0.0
 40
1
 41
1
  0
VERTEX
  8
0
 10
199.665
 20
251.987
 30
0.0
 40
1
 41
1
  0
VERTEX
  8
0
 10
199.361
 20
251.689
 30
0.0
 40
1
 41
1
  0
VERTEX
  8
0
 10
199.075
 20
251.376
 30
0.0
 40
1
 41
1
  0
VERTEX
  8
0
 10
198.81
 20
251.05
 30
0.0
 40
1
 41
1
  0
VERTEX
  8
0
 10
198.565
 20
250.713
 30
0.0
 40
1
 41
1
  0
VERTEX
  8
0
 10
198.34
 20
250.361
 30
0.0
 40
1
 41
1
  0
VERTEX
  8
0
 10
198.136
 20
249.997
 30
0.0
 40
1
 41
1
  0
VERTEX
  8
0
 10
197.953
 20
249.622
 30
0.0
 40
1
 41
1
  0
VERTEX
  8
0
 10
197.79
 20
249.236
 30
0.0
 40
1
 41
1
  0
VERTEX
  8
0
 10
197.649
 20
248.839
 30
0.0
 40
1
 41
1
  0
VERTEX
  8
0
 10
197.529
 20
248.431
 30
0.0
 40
1
 41
1
  0
VERTEX
  8
0
 10
197.431
 20
248.013
 30
0.0
 40
1
 41
1
  0
VERTEX
  8
0
 10
197.353
 20
247.583
 30
0.0
 40
1
 41
1
  0
VERTEX
  8
0
 10
197.299
 20
247.146
 30
0.0
 40
1
 41
1
  0
VERTEX
  8
0
 10
197.265
 20
246.699
 30
0.0
 40
1
 41
1
  0
VERTEX
  8
0
 10
197.254
 20
246.357
 30
0.0
 40
1
 41
1
  0
VERTEX
  8
0
 10
197.254
 20
246.242
 30
0.0
 40
1
 41
1
  0
VERTEX
  8
0
 10
197.254
 20
246.053
 30
0.0
 40
1
 41
1
  0
VERTEX
  8
0
 10
197.282
 20
245.482
 30
0.0
 40
1
 41
1
  0
VERTEX
  8
0
 10
197.369
 20
244.761
 30
0.0
 40
1
 41
1
  0
VERTEX
  8
0
 10
197.515
 20
244.078
 30
0.0
 40
1
 41
1
  0
VERTEX
  8
0
 10
197.718
 20
243.429
 30
0.0
 40
1
 41
1
  0
VERTEX
  8
0
 10
197.978
 20
242.815
 30
0.0
 40
1
 41
1
  0
VERTEX
  8
0
 10
198.296
 20
242.233
 30
0.0
 40
1
 41
1
  0
VERTEX
  8
0
 10
198.669
 20
241.682
 30
0.0
 40
1
 41
1
  0
VERTEX
  8
0
 10
199.101
 20
241.158
 30
0.0
 40
1
 41
1
  0
VERTEX
  8
0
 10
199.59
 20
240.662
 30
0.0
 40
1
 41
1
  0
VERTEX
  8
0
 10
200.136
 20
240.192
 30
0.0
 40
1
 41
1
  0
VERTEX
  8
0
 10
200.737
 20
239.746
 30
0.0
 40
1
 41
1
  0
VERTEX
  8
0
 10
201.396
 20
239.321
 30
0.0
 40
1
 41
1
  0
VERTEX
  8
0
 10
202.111
 20
238.917
 30
0.0
 40
1
 41
1
  0
VERTEX
  8
0
 10
202.882
 20
238.531
 30
0.0
 40
1
 41
1
  0
VERTEX
  8
0
 10
203.708
 20
238.161
 30
0.0
 40
1
 41
1
  0
VERTEX
  8
0
 10
204.368
 20
237.893
 30
0.0
 40
1
 41
1
  0
VERTEX
  8
0
 10
204.59
 20
237.808
 30
0.0
 40
1
 41
1
  0
VERTEX
  8
0
 10
204.756
 20
237.744
 30
0.0
 40
1
 41
1
  0
VERTEX
  8
0
 10
205.25
 20
237.551
 30
0.0
 40
1
 41
1
  0
VERTEX
  8
0
 10
205.864
 20
237.301
 30
0.0
 40
1
 41
1
  0
VERTEX
  8
0
 10
206.432
 20
237.054
 30
0.0
 40
1
 41
1
  0
VERTEX
  8
0
 10
206.956
 20
236.807
 30
0.0
 40
1
 41
1
  0
VERTEX
  8
0
 10
207.436
 20
236.56
 30
0.0
 40
1
 41
1
  0
VERTEX
  8
0
 10
207.871
 20
236.308
 30
0.0
 40
1
 41
1
  0
VERTEX
  8
0
 10
208.263
 20
236.051
 30
0.0
 40
1
 41
1
  0
VERTEX
  8
0
 10
208.612
 20
235.786
 30
0.0
 40
1
 41
1
  0
VERTEX
  8
0
 10
208.918
 20
235.51
 30
0.0
 40
1
 41
1
  0
VERTEX
  8
0
 10
209.183
 20
235.219
 30
0.0
 40
1
 41
1
  0
VERTEX
  8
0
 10
209.406
 20
234.914
 30
0.0
 40
1
 41
1
  0
VERTEX
  8
0
 10
209.586
 20
234.59
 30
0.0
 40
1
 41
1
  0
VERTEX
  8
0
 10
209.726
 20
234.247
 30
0.0
 40
1
 41
1
  0
VERTEX
  8
0
 10
209.825
 20
233.881
 30
0.0
 40
1
 41
1
  0
VERTEX
  8
0
 10
209.885
 20
233.49
 30
0.0
 40
1
 41
1
  0
VERTEX
  8
0
 10
209.904
 20
233.175
 30
0.0
 40
1
 41
1
  0
VERTEX
  8
0
 10
209.904
 20
233.071
 30
0.0
 40
1
 41
1
  0
VERTEX
  8
0
 10
209.904
 20
232.975
 30
0.0
 40
1
 41
1
  0
VERTEX
  8
0
 10
209.885
 20
232.685
 30
0.0
 40
1
 41
1
  0
VERTEX
  8
0
 10
209.826
 20
232.31
 30
0.0
 40
1
 41
1
  0
VERTEX
  8
0
 10
209.731
 20
231.947
 30
0.0
 40
1
 41
1
  0
VERTEX
  8
0
 10
209.596
 20
231.597
 30
0.0
 40
1
 41
1
  0
VERTEX
  8
0
 10
209.425
 20
231.265
 30
0.0
 40
1
 41
1
  0
VERTEX
  8
0
 10
209.217
 20
230.95
 30
0.0
 40
1
 41
1
  0
VERTEX
  8
0
 10
208.972
 20
230.657
 30
0.0
 40
1
 41
1
  0
VERTEX
  8
0
 10
208.692
 20
230.385
 30
0.0
 40
1
 41
1
  0
VERTEX
  8
0
 10
208.376
 20
230.138
 30
0.0
 40
1
 41
1
  0
VERTEX
  8
0
 10
208.026
 20
229.915
 30
0.0
 40
1
 41
1
  0
VERTEX
  8
0
 10
207.642
 20
229.724
 30
0.0
 40
1
 41
1
  0
VERTEX
  8
0
 10
207.224
 20
229.561
 30
0.0
 40
1
 41
1
  0
VERTEX
  8
0
 10
206.772
 20
229.432
 30
0.0
 40
1
 41
1
  0
VERTEX
  8
0
 10
206.289
 20
229.336
 30
0.0
 40
1
 41
1
  0
VERTEX
  8
0
 10
205.774
 20
229.278
 30
0.0
 40
1
 41
1
  0
VERTEX
  8
0
 10
205.362
 20
229.258
 30
0.0
 40
1
 41
1
  0
VERTEX
  8
0
 10
205.225
 20
229.258
 30
0.0
 40
1
 41
1
  0
VERTEX
  8
0
 10
205.106
 20
229.258
 30
0.0
 40
1
 41
1
  0
VERTEX
  8
0
 10
204.744
 20
229.268
 30
0.0
 40
1
 41
1
  0
VERTEX
  8
0
 10
204.278
 20
229.299
 30
0.0
 40
1
 41
1
  0
VERTEX
  8
0
 10
203.826
 20
229.347
 30
0.0
 40
1
 41
1
  0
VERTEX
  8
0
 10
203.389
 20
229.414
 30
0.0
 40
1
 41
1
  0
VERTEX
  8
0
 10
202.968
 20
229.493
 30
0.0
 40
1
 41
1
  0
VERTEX
  8
0
 10
202.563
 20
229.588
 30
0.0
 40
1
 41
1
  0
VERTEX
  8
0
 10
202.174
 20
229.692
 30
0.0
 40
1
 41
1
  0
VERTEX
  8
0
 10
201.803
 20
229.807
 30
0.0
 40
1
 41
1
  0
VERTEX
  8
0
 10
201.449
 20
229.929
 30
0.0
 40
1
 41
1
  0
VERTEX
  8
0
 10
201.112
 20
230.06
 30
0.0
 40
1
 41
1
  0
VERTEX
  8
0
 10
200.796
 20
230.193
 30
0.0
 40
1
 41
1
  0
VERTEX
  8
0
 10
200.497
 20
230.331
 30
0.0
 40
1
 41
1
  0
VERTEX
  8
0
 10
200.219
 20
230.469
 30
0.0
 40
1
 41
1
  0
VERTEX
  8
0
 10
199.961
 20
230.607
 30
0.0
 40
1
 41
1
  0
VERTEX
  8
0
 10
199.724
 20
230.743
 30
0.0
 40
1
 41
1
  0
VERTEX
  8
0
 10
199.56
 20
230.842
 30
0.0
 40
1
 41
1
  0
VERTEX
  8
0
 10
199.507
 20
230.875
 30
0.0
 40
1
 41
1
  0
VERTEX
  8
0
 10
198.235
 20
227.178
 30
0.0
 40
1
 41
1
  0
VERTEX
  8
0
 10
198.31
 20
227.133
 30
0.0
 40
1
 41
1
  0
VERTEX
  8
0
 10
198.539
 20
227.007
 30
0.0
 40
1
 41
1
  0
VERTEX
  8
0
 10
198.862
 20
226.837
 30
0.0
 40
1
 41
1
  0
VERTEX
  8
0
 10
199.207
 20
226.675
 30
0.0
 40
1
 41
1
  0
VERTEX
  8
0
 10
199.569
 20
226.517
 30
0.0
 40
1
 41
1
  0
VERTEX
  8
0
 10
199.951
 20
226.367
 30
0.0
 40
1
 41
1
  0
VERTEX
  8
0
 10
200.35
 20
226.224
 30
0.0
 40
1
 41
1
  0
VERTEX
  8
0
 10
200.765
 20
226.089
 30
0.0
 40
1
 41
1
  0
VERTEX
  8
0
 10
201.196
 20
225.965
 30
0.0
 40
1
 41
1
  0
VERTEX
  8
0
 10
201.643
 20
225.851
 30
0.0
 40
1
 41
1
  0
VERTEX
  8
0
 10
202.103
 20
225.75
 30
0.0
 40
1
 41
1
  0
VERTEX
  8
0
 10
202.575
 20
225.661
 30
0.0
 40
1
 41
1
  0
VERTEX
  8
0
 10
203.061
 20
225.586
 30
0.0
 40
1
 41
1
  0
VERTEX
  8
0
 10
203.558
 20
225.525
 30
0.0
 40
1
 41
1
  0
VERTEX
  8
0
 10
204.065
 20
225.482
 30
0.0
 40
1
 41
1
  0
VERTEX
  8
0
 10
204.583
 20
225.454
 30
0.0
 40
1
 41
1
  0
VERTEX
  8
0
 10
204.978
 20
225.444
 30
0.0
 40
1
 41
1
  0
VERTEX
  8
0
 10
205.11
 20
225.444
 30
0.0
 40
1
 41
1
  0
VERTEX
  8
0
 10
205.249
 20
225.444
 30
0.0
 40
1
 41
1
  0
VERTEX
  8
0
 10
205.667
 20
225.456
 30
0.0
 40
1
 41
1
  0
VERTEX
  8
0
 10
206.208
 20
225.487
 30
0.0
 40
1
 41
1
  0
VERTEX
  8
0
 10
206.736
 20
225.54
 30
0.0
 40
1
 41
1
  0
VERTEX
  8
0
 10
207.25
 20
225.612
 30
0.0
 40
1
 41
1
  0
VERTEX
  8
0
 10
207.747
 20
225.704
 30
0.0
 40
1
 41
1
  0
VERTEX
  8
0
 10
208.231
 20
225.815
 30
0.0
 40
1
 41
1
  0
VERTEX
  8
0
 10
208.7
 20
225.946
 30
0.0
 40
1
 41
1
  0
VERTEX
  8
0
 10
209.151
 20
226.093
 30
0.0
 40
1
 41
1
  0
VERTEX
  8
0
 10
209.589
 20
226.258
 30
0.0
 40
1
 41
1
  0
VERTEX
  8
0
 10
210.01
 20
226.44
 30
0.0
 40
1
 41
1
  0
VERTEX
  8
0
 10
210.414
 20
226.639
 30
0.0
 40
1
 41
1
  0
VERTEX
  8
0
 10
210.803
 20
226.853
 30
0.0
 40
1
 41
1
  0
VERTEX
  8
0
 10
211.175
 20
227.082
 30
0.0
 40
1
 41
1
  0
VERTEX
  8
0
 10
211.529
 20
227.326
 30
0.0
 40
1
 41
1
  0
VERTEX
  8
0
 10
211.867
 20
227.585
 30
0.0
 40
1
 41
1
  0
VERTEX
  8
0
 10
212.188
 20
227.857
 30
0.0
 40
1
 41
1
  0
VERTEX
  8
0
 10
212.489
 20
228.142
 30
0.0
 40
1
 41
1
  0
VERTEX
  8
0
 10
212.774
 20
228.44
 30
0.0
 40
1
 41
1
  0
VERTEX
  8
0
 10
213.04
 20
228.751
 30
0.0
 40
1
 41
1
  0
VERTEX
  8
0
 10
213.289
 20
229.072
 30
0.0
 40
1
 41
1
  0
VERTEX
  8
0
 10
213.519
 20
229.406
 30
0.0
 40
1
 41
1
  0
VERTEX
  8
0
 10
213.731
 20
229.749
 30
0.0
 40
1
 41
1
  0
VERTEX
  8
0
 10
213.922
 20
230.103
 30
0.0
 40
1
 41
1
  0
VERTEX
  8
0
 10
214.096
 20
230.465
 30
0.0
 40
1
 41
1
  0
VERTEX
  8
0
 10
214.249
 20
230.838
 30
0.0
 40
1
 41
1
  0
VERTEX
  8
0
 10
214.382
 20
231.218
 30
0.0
 40
1
 41
1
  0
VERTEX
  8
0
 10
214.496
 20
231.607
 30
0.0
 40
1
 41
1
  0
VERTEX
  8
0
 10
214.59
 20
232.003
 30
0.0
 40
1
 41
1
  0
VERTEX
  8
0
 10
214.663
 20
232.404
 30
0.0
 40
1
 41
1
  0
VERTEX
  8
0
 10
214.715
 20
232.814
 30
0.0
 40
1
 41
1
  0
VERTEX
  8
0
 10
214.747
 20
233.228
 30
0.0
 40
1
 41
1
  0
VERTEX
  8
0
 10
214.758
 20
233.543
 30
0.0
 40
1
 41
1
  0
VERTEX
  8
0
 10
214.758
 20
233.649
 30
0.0
 40
1
 41
1
  0
VERTEX
  8
0
 10
214.758
 20
233.804
 30
0.0
 40
1
 41
1
  0
VERTEX
  8
0
 10
214.731
 20
234.269
 30
0.0
 40
1
 41
1
  0
VERTEX
  8
0
 10
214.646
 20
234.878
 30
0.0
 40
1
 41
1
  0
VERTEX
  8
0
 10
214.506
 20
235.469
 30
0.0
 40
1
 41
1
  0
VERTEX
  8
0
 10
214.31
 20
236.047
 30
0.0
 40
1
 41
1
  0
VERTEX
  8
0
 10
214.056
 20
236.608
 30
0.0
 40
1
 41
1
  0
VERTEX
  8
0
 10
213.743
 20
237.153
 30
0.0
 40
1
 41
1
  0
VERTEX
  8
0
 10
213.374
 20
237.681
 30
0.0
 40
1
 41
1
  0
VERTEX
  8
0
 10
212.946
 20
238.19
 30
0.0
 40
1
 41
1
  0
VERTEX
  8
0
 10
212.458
 20
238.682
 30
0.0
 40
1
 41
1
  0
VERTEX
  8
0
 10
211.911
 20
239.156
 30
0.0
 40
1
 41
1
  0
VERTEX
  8
0
 10
211.306
 20
239.608
 30
0.0
 40
1
 41
1
  0
VERTEX
  8
0
 10
210.639
 20
240.042
 30
0.0
 40
1
 41
1
  0
VERTEX
  8
0
 10
209.913
 20
240.454
 30
0.0
 40
1
 41
1
  0
VERTEX
  8
0
 10
209.124
 20
240.846
 30
0.0
 40
1
 41
1
  0
VERTEX
  8
0
 10
208.275
 20
241.215
 30
0.0
 40
1
 41
1
  0
VERTEX
  8
0
 10
207.593
 20
241.482
 30
0.0
 40
1
 41
1
  0
VERTEX
  8
0
 10
207.364
 20
241.563
 30
0.0
 40
1
 41
1
  0
VERTEX
  8
0
 10
207.193
 20
241.626
 30
0.0
 40
1
 41
1
  0
VERTEX
  8
0
 10
206.686
 20
241.822
 30
0.0
 40
1
 41
1
  0
VERTEX
  8
0
 10
206.063
 20
242.082
 30
0.0
 40
1
 41
1
  0
VERTEX
  8
0
 10
205.489
 20
242.344
 30
0.0
 40
1
 41
1
  0
VERTEX
  8
0
 10
204.967
 20
242.61
 30
0.0
 40
1
 41
1
  0
VERTEX
  8
0
 10
204.493
 20
242.881
 30
0.0
 40
1
 41
1
  0
VERTEX
  8
0
 10
204.068
 20
243.16
 30
0.0
 40
1
 41
1
  0
VERTEX
  8
0
 10
203.689
 20
243.446
 30
0.0
 40
1
 41
1
  0
VERTEX
  8
0
 10
203.356
 20
243.743
 30
0.0
 40
1
 41
1
  0
VERTEX
  8
0
 10
203.065
 20
244.053
 30
0.0
 40
1
 41
1
  0
VERTEX
  8
0
 10
202.819
 20
244.376
 30
0.0
 40
1
 41
1
  0
VERTEX
  8
0
 10
202.614
 20
244.717
 30
0.0
 40
1
 41
1
  0
VERTEX
  8
0
 10
202.449
 20
245.072
 30
0.0
 40
1
 41
1
  0
VERTEX
  8
0
 10
202.322
 20
245.447
 30
0.0
 40
1
 41
1
  0
VERTEX
  8
0
 10
202.233
 20
245.844
 30
0.0
 40
1
 41
1
  0
VERTEX
  8
0
 10
202.181
 20
246.263
 30
0.0
 40
1
 41
1
  0
VERTEX
  8
0
 10
202.164
 20
246.594
 30
0.0
 40
1
 41
1
  0
VERTEX
  8
0
 10
202.164
 20
246.704
 30
0.0
 40
1
 41
1
  0
VERTEX
  8
0
 10
202.164
 20
246.811
 30
0.0
 40
1
 41
1
  0
VERTEX
  8
0
 10
202.185
 20
247.132
 30
0.0
 40
1
 41
1
  0
VERTEX
  8
0
 10
202.246
 20
247.547
 30
0.0
 40
1
 41
1
  0
VERTEX
  8
0
 10
202.349
 20
247.946
 30
0.0
 40
1
 41
1
  0
VERTEX
  8
0
 10
202.492
 20
248.329
 30
0.0
 40
1
 41
1
  0
VERTEX
  8
0
 10
202.679
 20
248.693
 30
0.0
 40
1
 41
1
  0
VERTEX
  8
0
 10
202.907
 20
249.036
 30
0.0
 40
1
 41
1
  0
VERTEX
  8
0
 10
203.178
 20
249.356
 30
0.0
 40
1
 41
1
  0
VERTEX
  8
0
 10
203.492
 20
249.65
 30
0.0
 40
1
 41
1
  0
VERTEX
  8
0
 10
203.85
 20
249.918
 30
0.0
 40
1
 41
1
  0
VERTEX
  8
0
 10
204.251
 20
250.157
 30
0.0
 40
1
 41
1
  0
VERTEX
  8
0
 10
204.696
 20
250.365
 30
0.0
 40
1
 41
1
  0
VERTEX
  8
0
 10
205.186
 20
250.539
 30
0.0
 40
1
 41
1
  0
VERTEX
  8
0
 10
205.719
 20
250.678
 30
0.0
 40
1
 41
1
  0
VERTEX
  8
0
 10
206.299
 20
250.781
 30
0.0
 40
1
 41
1
  0
VERTEX
  8
0
 10
206.924
 20
250.843
 30
0.0
 40
1
 41
1
  0
VERTEX
  8
0
 10
207.426
 20
250.864
 30
0.0
 40
1
 41
1
  0
VERTEX
  8
0
 10
207.594
 20
250.864
 30
0.0
 40
1
 41
1
  0
VERTEX
  8
0
 10
207.714
 20
250.864
 30
0.0
 40
1
 41
1
  0
VERTEX
  8
0
 10
208.072
 20
250.851
 30
0.0
 40
1
 41
1
  0
VERTEX
  8
0
 10
208.55
 20
250.817
 30
0.0
 40
1
 41
1
  0
VERTEX
  8
0
 10
209.028
 20
250.761
 30
0.0
 40
1
 41
1
  0
VERTEX
  8
0
 10
209.503
 20
250.686
 30
0.0
 40
1
 41
1
  0
VERTEX
  8
0
 10
209.972
 20
250.593
 30
0.0
 40
1
 41
1
  0
VERTEX
  8
0
 10
210.436
 20
250.483
 30
0.0
 40
1
 41
1
  0
VERTEX
  8
0
 10
210.89
 20
250.358
 30
0.0
 40
1
 41
1
  0
VERTEX
  8
0
 10
211.335
 20
250.221
 30
0.0
 40
1
 41
1
  0
VERTEX
  8
0
 10
211.767
 20
250.072
 30
0.0
 40
1
 41
1
  0
VERTEX
  8
0
 10
212.186
 20
249.914
 30
0.0
 40
1
 41
1
  0
VERTEX
  8
0
 10
212.587
 20
249.746
 30
0.0
 40
1
 41
1
  0
VERTEX
  8
0
 10
212.972
 20
249.572
 30
0.0
 40
1
 41
1
  0
VERTEX
  8
0
 10
213.337
 20
249.393
 30
0.0
 40
1
 41
1
  0
VERTEX
  8
0
 10
213.681
 20
249.211
 30
0.0
 40
1
 41
1
  0
VERTEX
  8
0
 10
214.001
 20
249.026
 30
0.0
 40
1
 41
1
  0
VERTEX
  8
0
 10
214.224
 20
248.889
 30
0.0
 40
1
 41
1
  0
VERTEX
  8
0
 10
214.296
 20
248.842
 30
0.0
 40
1
 41
1
  0
VERTEX
  8
0
 10
215.567
 20
252.713
 30
0.0
 40
1
 41
1
  0
SEQEND
 8
0
  0
POLYLINE
  8
0
 62
     0
 66
     1
 10
0
 20
0
 30
0.0
 40
72
 41
72
  0
VERTEX
  8
0
 10
252.314
 20
137.994
 30
0.0
 40
1
 41
1
  0
VERTEX
  8
0
 10
261.961
 20
129.79
 30
0.0
 40
1
 41
1
  0
VERTEX
  8
0
 10
262.056
 20
129.713
 30
0.0
 40
1
 41
1
  0
VERTEX
  8
0
 10
262.339
 20
129.48
 30
0.0
 40
1
 41
1
  0
VERTEX
  8
0
 10
262.733
 20
129.158
 30
0.0
 40
1
 41
1
  0
VERTEX
  8
0
 10
263.139
 20
128.832
 30
0.0
 40
1
 41
1
  0
VERTEX
  8
0
 10
263.55
 20
128.505
 30
0.0
 40
1
 41
1
  0
VERTEX
  8
0
 10
263.96
 20
128.183
 30
0.0
 40
1
 41
1
  0
VERTEX
  8
0
 10
264.365
 20
127.873
 30
0.0
 40
1
 41
1
  0
VERTEX
  8
0
 10
264.76
 20
127.579
 30
0.0
 40
1
 41
1
  0
VERTEX
  8
0
 10
265.043
 20
127.374
 30
0.0
 40
1
 41
1
  0
VERTEX
  8
0
 10
265.139
 20
127.306
 30
0.0
 40
1
 41
1
  0
VERTEX
  8
0
 10
265.139
 20
127.191
 30
0.0
 40
1
 41
1
  0
VERTEX
  8
0
 10
239.258
 20
127.191
 30
0.0
 40
1
 41
1
  0
VERTEX
  8
0
 10
239.258
 20
122.165
 30
0.0
 40
1
 41
1
  0
VERTEX
  8
0
 10
286.521
 20
122.165
 30
0.0
 40
1
 41
1
  0
SEQEND
 8
0
  0
POLYLINE
  8
0
 62
     0
 66
     1
 10
0
 20
0
 30
0.0
 70
     1
 40
72
 41
72
  0
VERTEX
  8
0
 10
287.235
 20
121.068
 30
0.0
 40
1
 41
1
  0
VERTEX
  8
0
 10
287.282
 20
120.971
 30
0.0
 40
1
 41
1
  0
VERTEX
  8
0
 10
287.414
 20
120.676
 30
0.0
 40
1
 41
1
  0
VERTEX
  8
0
 10
287.586
 20
120.26
 30
0.0
 40
1
 41
1
  0
VERTEX
  8
0
 10
287.749
 20
119.822
 30
0.0
 40
1
 41
1
  0
VERTEX
  8
0
 10
287.901
 20
119.363
 30
0.0
 40
1
 41
1
  0
VERTEX
  8
0
 10
288.044
 20
118.886
 30
0.0
 40
1
 41
1
  0
VERTEX
  8
0
 10
288.178
 20
118.391
 30
0.0
 40
1
 41
1
  0
VERTEX
  8
0
 10
288.3
 20
117.88
 30
0.0
 40
1
 41
1
  0
VERTEX
  8
0
 10
288.411
 20
117.356
 30
0.0
 40
1
 41
1
  0
VERTEX
  8
0
 10
288.511
 20
116.819
 30
0.0
 40
1
 41
1
  0
VERTEX
  8
0
 10
288.599
 20
116.272
 30
0.0
 40
1
 41
1
  0
VERTEX
  8
0
 10
288.675
 20
115.716
 30
0.0
 40
1
 41
1
  0
VERTEX
  8
0
 10
288.737
 20
115.153
 30
0.0
 40
1
 41
1
  0
VERTEX
  8
0
 10
288.787
 20
114.585
 30
0.0
 40
1
 41
1
  0
VERTEX
  8
0
 10
288.822
 20
114.013
 30
0.0
 40
1
 41
1
  0
VERTEX
  8
0
 10
288.844
 20
113.439
 30
0.0
 40
1
 41
1
  0
VERTEX
  8
0
 10
288.853
 20
113.008
 30
0.0
 40
1
 41
1
  0
VERTEX
  8
0
 10
288.853
 20
112.864
 30
0.0
 40
1
 41
1
  0
VERTEX
  8
0
 10
288.853
 20
112.645
 30
0.0
 40
1
 41
1
  0
VERTEX
  8
0
 10
288.835
 20
111.988
 30
0.0
 40
1
 41
1
  0
VERTEX
  8
0
 10
288.781
 20
111.135
 30
0.0
 40
1
 41
1
  0
VERTEX
  8
0
 10
288.693
 20
110.306
 30
0.0
 40
1
 41
1
  0
VERTEX
  8
0
 10
288.571
 20
109.501
 30
0.0
 40
1
 41
1
  0
VERTEX
  8
0
 10
288.414
 20
108.721
 30
0.0
 40
1
 41
1
  0
VERTEX
  8
0
 10
288.224
 20
107.965
 30
0.0
 40
1
 41
1
  0
VERTEX
  8
0
 10
288.001
 20
107.235
 30
0.0
 40
1
 41
1
  0
VERTEX
  8
0
 10
287.746
 20
106.529
 30
0.0
 40
1
 41
1
  0
VERTEX
  8
0
 10
287.46
 20
105.85
 30
0.0
 40
1
 41
1
  0
VERTEX
  8
0
 10
287.14
 20
105.196
 30
0.0
 40
1
 41
1
  0
VERTEX
  8
0
 10
286.792
 20
104.568
 30
0.0
 40
1
 41
1
  0
VERTEX
  8
0
 10
286.412
 20
103.967
 30
0.0
 40
1
 41
1
  0
VERTEX
  8
0
 10
286.003
 20
103.392
 30
0.0
 40
1
 41
1
  0
VERTEX
  8
0
 10
285.563
 20
102.844
 30
0.0
 40
1
 41
1
  0
VERTEX
  8
0
 10
285.096
 20
102.323
 30
0.0
 40
1
 41
1
  0
VERTEX
  8
0
 10
284.599
 20
101.83
 30
0.0
 40
1
 41
1
  0
VERTEX
  8
0
 10
284.075
 20
101.365
 30
0.0
 40
1
 41
1
  0
VERTEX
  8
0
 10
283.522
 20
100.927
 30
0.0
 40
1
 41
1
  0
VERTEX
  8
0
 10
282.944
 20
100.518
 30
0.0
 40
1
 41
1
  0
VERTEX
  8
0
 10
282.339
 20
100.138
 30
0.0
 40
1
 41
1
  0
VERTEX
  8
0
 10
281.708
 20
99.7864
 30
0.0
 40
1
 41
1
  0
VERTEX
  8
0
 10
281.051
 20
99.4639
 30
0.0
 40
1
 41
1
  0
VERTEX
  8
0
 10
280.369
 20
99.1708
 30
0.0
 40
1
 41
1
  0
VERTEX
  8
0
 10
279.664
 20
98.9075
 30
0.0
 40
1
 41
1
  0
VERTEX
  8
0
 10
278.935
 20
98.674
 30
0.0
 40
1
 41
1
  0
VERTEX
  8
0
 10
278.181
 20
98.4708
 30
0.0
 40
1
 41
1
  0
VERTEX
  8
0
 10
277.404
 20
98.2981
 30
0.0
 40
1
 41
1
  0
VERTEX
  8
0
 10
276.606
 20
98.1563
 30
0.0
 40
1
 41
1
  0
VERTEX
  8
0
 10
275.785
 20
98.0454
 30
0.0
 40
1
 41
1
  0
VERTEX
  8
0
 10
274.943
 20
97.9658
 30
0.0
 40
1
 41
1
  0
VERTEX
  8
0
 10
274.081
 20
97.9179
 30
0.0
 40
1
 41
1
  0
VERTEX
  8
0
 10
273.418
 20
97.9019
 30
0.0
 40
1
 41
1
  0
VERTEX
  8
0
 10
273.197
 20
97.9019
 30
0.0
 40
1
 41
1
  0
VERTEX
  8
0
 10
272.96
 20
97.9019
 30
0.0
 40
1
 41
1
  0
VERTEX
  8
0
 10
272.251
 20
97.9196
 30
0.0
 40
1
 41
1
  0
VERTEX
  8
0
 10
271.331
 20
97.9722
 30
0.0
 40
1
 41
1
  0
VERTEX
  8
0
 10
270.438
 20
98.0594
 30
0.0
 40
1
 41
1
  0
VERTEX
  8
0
 10
269.571
 20
98.1804
 30
0.0
 40
1
 41
1
  0
VERTEX
  8
0
 10
268.731
 20
98.3347
 30
0.0
 40
1
 41
1
  0
VERTEX
  8
0
 10
267.917
 20
98.5219
 30
0.0
 40
1
 41
1
  0
VERTEX
  8
0
 10
267.132
 20
98.7413
 30
0.0
 40
1
 41
1
  0
VERTEX
  8
0
 10
266.374
 20
98.9924
 30
0.0
 40
1
 41
1
  0
VERTEX
  8
0
 10
265.643
 20
99.2746
 30
0.0
 40
1
 41
1
  0
VERTEX
  8
0
 10
264.94
 20
99.5874
 30
0.0
 40
1
 41
1
  0
VERTEX
  8
0
 10
264.267
 20
99.9303
 30
0.0
 40
1
 41
1
  0
VERTEX
  8
0
 10
263.621
 20
100.303
 30
0.0
 40
1
 41
1
  0
VERTEX
  8
0
 10
263.006
 20
100.704
 30
0.0
 40
1
 41
1
  0
VERTEX
  8
0
 10
262.418
 20
101.133
 30
0.0
 40
1
 41
1
  0
VERTEX
  8
0
 10
261.86
 20
101.591
 30
0.0
 40
1
 41
1
  0
VERTEX
  8
0
 10
261.332
 20
102.076
 30
0.0
 40
1
 41
1
  0
VERTEX
  8
0
 10
260.833
 20
102.587
 30
0.0
 40
1
 41
1
  0
VERTEX
  8
0
 10
260.365
 20
103.125
 30
0.0
 40
1
 41
1
  0
VERTEX
  8
0
 10
259.928
 20
103.688
 30
0.0
 40
1
 41
1
  0
VERTEX
  8
0
 10
259.522
 20
104.277
 30
0.0
 40
1
 41
1
  0
VERTEX
  8
0
 10
259.146
 20
104.89
 30
0.0
 40
1
 41
1
  0
VERTEX
  8
0
 10
258.801
 20
105.527
 30
0.0
 40
1
 41
1
  0
VERTEX
  8
0
 10
258.489
 20
106.188
 30
0.0
 40
1
 41
1
  0
VERTEX
  8
0
 10
258.207
 20
106.871
 30
0.0
 40
1
 41
1
  0
VERTEX
  8
0
 10
257.958
 20
107.576
 30
0.0
 40
1
 41
1
  0
VERTEX
  8
0
 10
257.742
 20
108.304
 30
0.0
 40
1
 41
1
  0
VERTEX
  8
0
 10
257.558
 20
109.053
 30
0.0
 40
1
 41
1
  0
VERTEX
  8
0
 10
257.407
 20
109.822
 30
0.0
 40
1
 41
1
  0
VERTEX
  8
0
 10
257.289
 20
110.612
 30
0.0
 40
1
 41
1
  0
VERTEX
  8
0
 10
257.204
 20
111.421
 30
0.0
 40
1
 41
1
  0
VERTEX
  8
0
 10
257.153
 20
112.249
 30
0.0
 40
1
 41
1
  0
VERTEX
  8
0
 10
257.136
 20
112.884
 30
0.0
 40
1
 41
1
  0
VERTEX
  8
0
 10
257.136
 20
113.095
 30
0.0
 40
1
 41
1
  0
VERTEX
  8
0
 10
257.136
 20
113.246
 30
0.0
 40
1
 41
1
  0
VERTEX
  8
0
 10
257.144
 20
113.696
 30
0.0
 40
1
 41
1
  0
VERTEX
  8
0
 10
257.168
 20
114.284
 30
0.0
 40
1
 41
1
  0
VERTEX
  8
0
 10
257.206
 20
114.859
 30
0.0
 40
1
 41
1
  0
VERTEX
  8
0
 10
257.258
 20
115.42
 30
0.0
 40
1
 41
1
  0
VERTEX
  8
0
 10
257.325
 20
115.967
 30
0.0
 40
1
 41
1
  0
VERTEX
  8
0
 10
257.404
 20
116.501
 30
0.0
 40
1
 41
1
  0
VERTEX
  8
0
 10
257.496
 20
117.019
 30
0.0
 40
1
 41
1
  0
VERTEX
  8
0
 10
257.599
 20
117.522
 30
0.0
 40
1
 41
1
  0
VERTEX
  8
0
 10
257.713
 20
118.01
 30
0.0
 40
1
 41
1
  0
VERTEX
  8
0
 10
257.836
 20
118.482
 30
0.0
 40
1
 41
1
  0
VERTEX
  8
0
 10
257.969
 20
118.937
 30
0.0
 40
1
 41
1
  0
VERTEX
  8
0
 10
258.111
 20
119.376
 30
0.0
 40
1
 41
1
  0
VERTEX
  8
0
 10
258.261
 20
119.797
 30
0.0
 40
1
 41
1
  0
VERTEX
  8
0
 10
258.419
 20
120.2
 30
0.0
 40
1
 41
1
  0
VERTEX
  8
0
 10
258.583
 20
120.586
 30
0.0
 40
1
 41
1
  0
VERTEX
  8
0
 10
258.71
 20
120.861
 30
0.0
 40
1
 41
1
  0
VERTEX
  8
0
 10
258.754
 20
120.952
 30
0.0
 40
1
 41
1
  0
VERTEX
  8
0
 10
254.653
 20
122.165
 30
0.0
 40
1
 41
1
  0
VERTEX
  8
0
 10
254.617
 20
122.098
 30
0.0
 40
1
 41
1
  0
VERTEX
  8
0
 10
254.518
 20
121.896
 30
0.0
 40
1
 41
1
  0
VERTEX
  8
0
 10
254.379
 20
121.586
 30
0.0
 40
1
 41
1
  0
VERTEX
  8
0
 10
254.235
 20
121.235
 30
0.0
 40
1
 41
1
  0
VERTEX
  8
0
 10
254.089
 20
120.843
 30
0.0
 40
1
 41
1
  0
VERTEX
  8
0
 10
253.943
 20
120.41
 30
0.0
 40
1
 41
1
  0
VERTEX
  8
0
 10
253.799
 20
119.937
 30
0.0
 40
1
 41
1
  0
VERTEX
  8
0
 10
253.66
 20
119.422
 30
0.0
 40
1
 41
1
  0
VERTEX
  8
0
 10
253.525
 20
118.866
 30
0.0
 40
1
 41
1
  0
VERTEX
  8
0
 10
253.4
 20
118.268
 30
0.0
 40
1
 41
1
  0
VERTEX
  8
0
 10
253.285
 20
117.629
 30
0.0
 40
1
 41
1
  0
VERTEX
  8
0
 10
253.181
 20
116.949
 30
0.0
 40
1
 41
1
  0
VERTEX
  8
0
 10
253.092
 20
116.227
 30
0.0
 40
1
 41
1
  0
VERTEX
  8
0
 10
253.019
 20
115.464
 30
0.0
 40
1
 41
1
  0
VERTEX
  8
0
 10
252.965
 20
114.658
 30
0.0
 40
1
 41
1
  0
VERTEX
  8
0
 10
252.931
 20
113.811
 30
0.0
 40
1
 41
1
  0
VERTEX
  8
0
 10
252.919
 20
113.144
 30
0.0
 40
1
 41
1
  0
VERTEX
  8
0
 10
252.919
 20
112.922
 30
0.0
 40
1
 41
1
  0
VERTEX
  8
0
 10
252.919
 20
112.642
 30
0.0
 40
1
 41
1
  0
VERTEX
  8
0
 10
252.943
 20
111.802
 30
0.0
 40
1
 41
1
  0
VERTEX
  8
0
 10
253.015
 20
110.704
 30
0.0
 40
1
 41
1
  0
VERTEX
  8
0
 10
253.133
 20
109.631
 30
0.0
 40
1
 41
1
  0
VERTEX
  8
0
 10
253.297
 20
108.582
 30
0.0
 40
1
 41
1
  0
VERTEX
  8
0
 10
253.507
 20
107.559
 30
0.0
 40
1
 41
1
  0
VERTEX
  8
0
 10
253.761
 20
106.563
 30
0.0
 40
1
 41
1
  0
VERTEX
  8
0
 10
254.06
 20
105.593
 30
0.0
 40
1
 41
1
  0
VERTEX
  8
0
 10
254.4
 20
104.652
 30
0.0
 40
1
 41
1
  0
VERTEX
  8
0
 10
254.783
 20
103.739
 30
0.0
 40
1
 41
1
  0
VERTEX
  8
0
 10
255.207
 20
102.856
 30
0.0
 40
1
 41
1
  0
VERTEX
  8
0
 10
255.672
 20
102.004
 30
0.0
 40
1
 41
1
  0
VERTEX
  8
0
 10
256.176
 20
101.183
 30
0.0
 40
1
 41
1
  0
VERTEX
  8
0
 10
256.719
 20
100.394
 30
0.0
 40
1
 41
1
  0
VERTEX
  8
0
 10
257.3
 20
99.6376
 30
0.0
 40
1
 41
1
  0
VERTEX
  8
0
 10
257.918
 20
98.9153
 30
0.0
 40
1
 41
1
  0
VERTEX
  8
0
 10
258.574
 20
98.2275
 30
0.0
 40
1
 41
1
  0
VERTEX
  8
0
 10
259.264
 20
97.5751
 30
0.0
 40
1
 41
1
  0
VERTEX
  8
0
 10
259.99
 20
96.9589
 30
0.0
 40
1
 41
1
  0
VERTEX
  8
0
 10
260.75
 20
96.3797
 30
0.0
 40
1
 41
1
  0
VERTEX
  8
0
 10
261.543
 20
95.8382
 30
0.0
 40
1
 41
1
  0
VERTEX
  8
0
 10
262.368
 20
95.3354
 30
0.0
 40
1
 41
1
  0
VERTEX
  8
0
 10
263.225
 20
94.8721
 30
0.0
 40
1
 41
1
  0
VERTEX
  8
0
 10
264.114
 20
94.449
 30
0.0
 40
1
 41
1
  0
VERTEX
  8
0
 10
265.032
 20
94.0669
 30
0.0
 40
1
 41
1
  0
VERTEX
  8
0
 10
265.981
 20
93.7269
 30
0.0
 40
1
 41
1
  0
VERTEX
  8
0
 10
266.957
 20
93.4294
 30
0.0
 40
1
 41
1
  0
VERTEX
  8
0
 10
267.96
 20
93.1756
 30
0.0
 40
1
 41
1
  0
VERTEX
  8
0
 10
268.992
 20
92.966
 30
0.0
 40
1
 41
1
  0
VERTEX
  8
0
 10
270.049
 20
92.8015
 30
0.0
 40
1
 41
1
  0
VERTEX
  8
0
 10
271.132
 20
92.6832
 30
0.0
 40
1
 41
1
  0
VERTEX
  8
0
 10
272.239
 20
92.6115
 30
0.0
 40
1
 41
1
  0
VERTEX
  8
0
 10
273.088
 20
92.5874
 30
0.0
 40
1
 41
1
  0
VERTEX
  8
0
 10
273.369
 20
92.5874
 30
0.0
 40
1
 41
1
  0
VERTEX
  8
0
 10
273.665
 20
92.5874
 30
0.0
 40
1
 41
1
  0
VERTEX
  8
0
 10
274.55
 20
92.6114
 30
0.0
 40
1
 41
1
  0
VERTEX
  8
0
 10
275.694
 20
92.6829
 30
0.0
 40
1
 41
1
  0
VERTEX
  8
0
 10
276.806
 20
92.8007
 30
0.0
 40
1
 41
1
  0
VERTEX
  8
0
 10
277.882
 20
92.9639
 30
0.0
 40
1
 41
1
  0
VERTEX
  8
0
 10
278.922
 20
93.1714
 30
0.0
 40
1
 41
1
  0
VERTEX
  8
0
 10
279.929
 20
93.4221
 30
0.0
 40
1
 41
1
  0
VERTEX
  8
0
 10
280.899
 20
93.7153
 30
0.0
 40
1
 41
1
  0
VERTEX
  8
0
 10
281.835
 20
94.0497
 30
0.0
 40
1
 41
1
  0
VERTEX
  8
0
 10
282.733
 20
94.4244
 30
0.0
 40
1
 41
1
  0
VERTEX
  8
0
 10
283.596
 20
94.8385
 30
0.0
 40
1
 41
1
  0
VERTEX
  8
0
 10
284.424
 20
95.2907
 30
0.0
 40
1
 41
1
  0
VERTEX
  8
0
 10
285.214
 20
95.7801
 30
0.0
 40
1
 41
1
  0
VERTEX
  8
0
 10
285.967
 20
96.3058
 30
0.0
 40
1
 41
1
  0
VERTEX
  8
0
 10
286.685
 20
96.8668
 30
0.0
 40
1
 41
1
  0
VERTEX
  8
0
 10
287.364
 20
97.4618
 30
0.0
 40
1
 41
1
  0
VERTEX
  8
0
 10
288.007
 20
98.09
 30
0.0
 40
1
 41
1
  0
VERTEX
  8
0
 10
288.612
 20
98.7506
 30
0.0
 40
1
 41
1
  0
VERTEX
  8
0
 10
289.181
 20
99.4421
 30
0.0
 40
1
 41
1
  0
VERTEX
  8
0
 10
289.711
 20
100.164
 30
0.0
 40
1
 41
1
  0
VERTEX
  8
0
 10
290.203
 20
100.914
 30
0.0
 40
1
 41
1
  0
VERTEX
  8
0
 10
290.657
 20
101.693
 30
0.0
 40
1
 41
1
  0
VERTEX
  8
0
 10
291.072
 20
102.499
 30
0.0
 40
1
 41
1
  0
VERTEX
  8
0
 10
291.449
 20
103.331
 30
0.0
 40
1
 41
1
  0
VERTEX
  8
0
 10
291.786
 20
104.188
 30
0.0
 40
1
 41
1
  0
VERTEX
  8
0
 10
292.086
 20
105.07
 30
0.0
 40
1
 41
1
  0
VERTEX
  8
0
 10
292.346
 20
105.974
 30
0.0
 40
1
 41
1
  0
VERTEX
  8
0
 10
292.565
 20
106.9
 30
0.0
 40
1
 41
1
  0
VERTEX
  8
0
 10
292.747
 20
107.847
 30
0.0
 40
1
 41
1
  0
VERTEX
  8
0
 10
292.888
 20
108.814
 30
0.0
 40
1
 41
1
  0
VERTEX
  8
0
 10
292.989
 20
109.8
 30
0.0
 40
1
 41
1
  0
VERTEX
  8
0
 10
293.049
 20
110.804
 30
0.0
 40
1
 41
1
  0
VERTEX
  8
0
 10
293.069
 20
111.57
 30
0.0
 40
1
 41
1
  0
VERTEX
  8
0
 10
293.069
 20
111.825
 30
0.0
 40
1
 41
1
  0
VERTEX
  8
0
 10
293.069
 20
112.044
 30
0.0
 40
1
 41
1
  0
VERTEX
  8
0
 10
293.058
 20
112.701
 30
0.0
 40
1
 41
1
  0
VERTEX
  8
0
 10
293.028
 20
113.551
 30
0.0
 40
1
 41
1
  0
VERTEX
  8
0
 10
292.978
 20
114.374
 30
0.0
 40
1
 41
1
  0
VERTEX
  8
0
 10
292.91
 20
115.17
 30
0.0
 40
1
 41
1
  0
VERTEX
  8
0
 10
292.826
 20
115.937
 30
0.0
 40
1
 41
1
  0
VERTEX
  8
0
 10
292.728
 20
116.673
 30
0.0
 40
1
 41
1
  0
VERTEX
  8
0
 10
292.615
 20
117.377
 30
0.0
 40
1
 41
1
  0
VERTEX
  8
0
 10
292.492
 20
118.05
 30
0.0
 40
1
 41
1
  0
VERTEX
  8
0
 10
292.356
 20
118.688
 30
0.0
 40
1
 41
1
  0
VERTEX
  8
0
 10
292.211
 20
119.291
 30
0.0
 40
1
 41
1
  0
VERTEX
  8
0
 10
292.058
 20
119.858
 30
0.0
 40
1
 41
1
  0
VERTEX
  8
0
 10
291.899
 20
120.388
 30
0.0
 40
1
 41
1
  0
VERTEX
  8
0
 10
291.735
 20
120.879
 30
0.0
 40
1
 41
1
  0
VERTEX
  8
0
 10
291.565
 20
121.33
 30
0.0
 40
1
 41
1
  0
VERTEX
  8
0
 10
291.393
 20
121.74
 30
0.0
 40
1
 41
1
  0
VERTEX
  8
0
 10
291.267
 20
122.017
 30
0.0
 40
1
 41
1
  0
VERTEX
  8
0
 10
291.221
 20
122.108
 30
0.0
 40
1
 41
1
  0
VERTEX
  8
0
 10
287.235
 20
121.068
 30
0.0
 40
1
 41
1
  0
SEQEND
 8
0
  0
POLYLINE
  8
0
 62
     0
 66
     1
 10
0
 20
0
 30
0.0
 70
     1
 40
72
 41
72
  0
VERTEX
  8
0
 10
274.842
 20
16.6679
 30
0.0
 40
1
 41
1
  0
VERTEX
  8
0
 10
274.772
 20
16.6376
 30
0.0
 40
1
 41
1
  0
VERTEX
  8
0
 10
274.565
 20
16.5476
 30
0.0
 40
1
 41
1
  0
VERTEX
  8
0
 10
274.278
 20
16.4258
 30
0.0
 40
1
 41
1
  0
VERTEX
  8
0
 10
273.978
 20
16.3039
 30
0.0
 40
1
 41
1
  0
VERTEX
  8
0
 10
273.664
 20
16.1831
 30
0.0
 40
1
 41
1
  0
VERTEX
  8
0
 10
273.338
 20
16.0644
 30
0.0
 40
1
 41
1
  0
VERTEX
  8
0
 10
272.996
 20
15.9497
 30
0.0
 40
1
 41
1
  0
VERTEX
  8
0
 10
272.638
 20
15.8397
 30
0.0
 40
1
 41
1
  0
VERTEX
  8
0
 10
272.265
 20
15.7361
 30
0.0
 40
1
 41
1
  0
VERTEX
  8
0
 10
271.874
 20
15.6399
 30
0.0
 40
1
 41
1
  0
VERTEX
  8
0
 10
271.467
 20
15.5524
 30
0.0
 40
1
 41
1
  0
VERTEX
  8
0
 10
271.04
 20
15.4747
 30
0.0
 40
1
 41
1
  0
VERTEX
  8
0
 10
270.594
 20
15.4085
 30
0.0
 40
1
 41
1
  0
VERTEX
  8
0
 10
270.128
 20
15.3547
 30
0.0
 40
1
 41
1
  0
VERTEX
  8
0
 10
269.642
 20
15.3147
 30
0.0
 40
1
 41
1
  0
VERTEX
  8
0
 10
269.133
 20
15.2899
 30
0.0
 40
1
 41
1
  0
VERTEX
  8
0
 10
268.736
 20
15.2813
 30
0.0
 40
1
 41
1
  0
VERTEX
  8
0
 10
268.603
 20
15.2813
 30
0.0
 40
1
 41
1
  0
VERTEX
  8
0
 10
268.474
 20
15.2813
 30
0.0
 40
1
 41
1
  0
VERTEX
  8
0
 10
268.088
 20
15.2929
 30
0.0
 40
1
 41
1
  0
VERTEX
  8
0
 10
267.581
 20
15.3276
 30
0.0
 40
1
 41
1
  0
VERTEX
  8
0
 10
267.082
 20
15.3851
 30
0.0
 40
1
 41
1
  0
VERTEX
  8
0
 10
266.594
 20
15.4651
 30
0.0
 40
1
 41
1
  0
VERTEX
  8
0
 10
266.115
 20
15.5675
 30
0.0
 40
1
 41
1
  0
VERTEX
  8
0
 10
265.649
 20
15.6917
 30
0.0
 40
1
 41
1
  0
VERTEX
  8
0
 10
265.192
 20
15.8378
 30
0.0
 40
1
 41
1
  0
VERTEX
  8
0
 10
264.747
 20
16.0051
 30
0.0
 40
1
 41
1
  0
VERTEX
  8
0
 10
264.315
 20
16.1937
 30
0.0
 40
1
 41
1
  0
VERTEX
  8
0
 10
263.894
 20
16.4032
 30
0.0
 40
1
 41
1
  0
VERTEX
  8
0
 10
263.489
 20
16.6333
 30
0.0
 40
1
 41
1
  0
VERTEX
  8
0
 10
263.096
 20
16.8838
 30
0.0
 40
1
 41
1
  0
VERTEX
  8
0
 10
262.717
 20
17.1542
 30
0.0
 40
1
 41
1
  0
VERTEX
  8
0
 10
262.353
 20
17.4444
 30
0.0
 40
1
 41
1
  0
VERTEX
  8
0
 10
262.004
 20
17.7542
 30
0.0
 40
1
 41
1
  0
VERTEX
  8
0
 10
261.671
 20
18.0831
 30
0.0
 40
1
 41
1
  0
VERTEX
  8
0
 10
261.354
 20
18.4311
 30
0.0
 40
1
 41
1
  0
VERTEX
  8
0
 10
261.054
 20
18.7976
 30
0.0
 40
1
 41
1
  0
VERTEX
  8
0
 10
260.772
 20
19.1828
 30
0.0
 40
1
 41
1
  0
VERTEX
  8
0
 10
260.507
 20
19.5858
 30
0.0
 40
1
 41
1
  0
VERTEX
  8
0
 10
260.26
 20
20.0069
 30
0.0
 40
1
 41
1
  0
VERTEX
  8
0
 10
260.032
 20
20.4454
 30
0.0
 40
1
 41
1
  0
VERTEX
  8
0
 10
259.824
 20
20.9014
 30
0.0
 40
1
 41
1
  0
VERTEX
  8
0
 10
259.635
 20
21.3743
 30
0.0
 40
1
 41
1
  0
VERTEX
  8
0
 10
259.467
 20
21.8639
 30
0.0
 40
1
 41
1
  0
VERTEX
  8
0
 10
259.318
 20
22.3701
 30
0.0
 40
1
 41
1
  0
VERTEX
  8
0
 10
259.192
 20
22.8925
 30
0.0
 40
1
 41
1
  0
VERTEX
  8
0
 10
259.088
 20
23.4308
 30
0.0
 40
1
 41
1
  0
VERTEX
  8
0
 10
259.006
 20
23.9847
 30
0.0
 40
1
 41
1
  0
VERTEX
  8
0
 10
258.946
 20
24.554
 30
0.0
 40
1
 41
1
  0
VERTEX
  8
0
 10
258.91
 20
25.1385
 30
0.0
 40
1
 41
1
  0
VERTEX
  8
0
 10
258.899
 20
25.5879
 30
0.0
 40
1
 41
1
  0
VERTEX
  8
0
 10
258.899
 20
25.7376
 30
0.0
 40
1
 41
1
  0
VERTEX
  8
0
 10
258.899
 20
25.8736
 30
0.0
 40
1
 41
1
  0
VERTEX
  8
0
 10
258.908
 20
26.2814
 30
0.0
 40
1
 41
1
  0
VERTEX
  8
0
 10
258.939
 20
26.8181
 30
0.0
 40
1
 41
1
  0
VERTEX
  8
0
 10
258.989
 20
27.3468
 30
0.0
 40
1
 41
1
  0
VERTEX
  8
0
 10
259.06
 20
27.8672
 30
0.0
 40
1
 41
1
  0
VERTEX
  8
0
 10
259.15
 20
28.3786
 30
0.0
 40
1
 41
1
  0
VERTEX
  8
0
 10
259.26
 20
28.8801
 30
0.0
 40
1
 41
1
  0
VERTEX
  8
0
 10
259.39
 20
29.3712
 30
0.0
 40
1
 41
1
  0
VERTEX
  8
0
 10
259.54
 20
29.8513
 30
0.0
 40
1
 41
1
  0
VERTEX
  8
0
 10
259.71
 20
30.3194
 30
0.0
 40
1
 41
1
  0
VERTEX
  8
0
 10
259.897
 20
30.7753
 30
0.0
 40
1
 41
1
  0
VERTEX
  8
0
 10
260.106
 20
31.2181
 30
0.0
 40
1
 41
1
  0
VERTEX
  8
0
 10
260.333
 20
31.6469
 30
0.0
 40
1
 41
1
  0
VERTEX
  8
0
 10
260.579
 20
32.0615
 30
0.0
 40
1
 41
1
  0
VERTEX
  8
0
 10
260.846
 20
32.461
 30
0.0
 40
1
 41
1
  0
VERTEX
  8
0
 10
261.129
 20
32.8446
 30
0.0
 40
1
 41
1
  0
VERTEX
  8
0
 10
261.433
 20
33.2118
 30
0.0
 40
1
 41
1
  0
VERTEX
  8
0
 10
261.756
 20
33.5619
 30
0.0
 40
1
 41
1
  0
VERTEX
  8
0
 10
262.096
 20
33.8943
 30
0.0
 40
1
 41
1
  0
VERTEX
  8
0
 10
262.456
 20
34.2083
 30
0.0
 40
1
 41
1
  0
VERTEX
  8
0
 10
262.833
 20
34.5032
 30
0.0
 40
1
 41
1
  0
VERTEX
  8
0
 10
263.229
 20
34.7783
 30
0.0
 40
1
 41
1
  0
VERTEX
  8
0
 10
263.644
 20
35.0331
 30
0.0
 40
1
 41
1
  0
VERTEX
  8
0
 10
264.078
 20
35.2665
 30
0.0
 40
1
 41
1
  0
VERTEX
  8
0
 10
264.528
 20
35.4785
 30
0.0
 40
1
 41
1
  0
VERTEX
  8
0
 10
264.997
 20
35.6678
 30
0.0
 40
1
 41
1
  0
VERTEX
  8
0
 10
265.485
 20
35.834
 30
0.0
 40
1
 41
1
  0
VERTEX
  8
0
 10
265.989
 20
35.9767
 30
0.0
 40
1
 41
1
  0
VERTEX
  8
0
 10
266.511
 20
36.0947
 30
0.0
 40
1
 41
1
  0
VERTEX
  8
0
 10
267.051
 20
36.1878
 30
0.0
 40
1
 41
1
  0
VERTEX
  8
0
 10
267.61
 20
36.2551
 30
0.0
 40
1
 41
1
  0
VERTEX
  8
0
 10
268.185
 20
36.296
 30
0.0
 40
1
 41
1
  0
VERTEX
  8
0
 10
268.629
 20
36.3097
 30
0.0
 40
1
 41
1
  0
VERTEX
  8
0
 10
268.778
 20
36.3097
 30
0.0
 40
1
 41
1
  0
VERTEX
  8
0
 10
268.904
 20
36.3097
 30
0.0
 40
1
 41
1
  0
VERTEX
  8
0
 10
269.287
 20
36.3024
 30
0.0
 40
1
 41
1
  0
VERTEX
  8
0
 10
269.776
 20
36.281
 30
0.0
 40
1
 41
1
  0
VERTEX
  8
0
 10
270.247
 20
36.2465
 30
0.0
 40
1
 41
1
  0
VERTEX
  8
0
 10
270.697
 20
36.1996
 30
0.0
 40
1
 41
1
  0
VERTEX
  8
0
 10
271.128
 20
36.1412
 30
0.0
 40
1
 41
1
  0
VERTEX
  8
0
 10
271.54
 20
36.0722
 30
0.0
 40
1
 41
1
  0
VERTEX
  8
0
 10
271.933
 20
35.9933
 30
0.0
 40
1
 41
1
  0
VERTEX
  8
0
 10
272.308
 20
35.9054
 30
0.0
 40
1
 41
1
  0
VERTEX
  8
0
 10
272.665
 20
35.8096
 30
0.0
 40
1
 41
1
  0
VERTEX
  8
0
 10
273.003
 20
35.7063
 30
0.0
 40
1
 41
1
  0
VERTEX
  8
0
 10
273.324
 20
35.5967
 30
0.0
 40
1
 41
1
  0
VERTEX
  8
0
 10
273.626
 20
35.4814
 30
0.0
 40
1
 41
1
  0
VERTEX
  8
0
 10
273.912
 20
35.3614
 30
0.0
 40
1
 41
1
  0
VERTEX
  8
0
 10
274.182
 20
35.2375
 30
0.0
 40
1
 41
1
  0
VERTEX
  8
0
 10
274.433
 20
35.1106
 30
0.0
 40
1
 41
1
  0
VERTEX
  8
0
 10
274.611
 20
35.0147
 30
0.0
 40
1
 41
1
  0
VERTEX
  8
0
 10
274.669
 20
34.9814
 30
0.0
 40
1
 41
1
  0
VERTEX
  8
0
 10
275.825
 20
38.91
 30
0.0
 40
1
 41
1
  0
VERTEX
  8
0
 10
275.757
 20
38.9439
 30
0.0
 40
1
 41
1
  0
VERTEX
  8
0
 10
275.55
 20
39.0404
 30
0.0
 40
1
 41
1
  0
VERTEX
  8
0
 10
275.247
 20
39.171
 30
0.0
 40
1
 41
1
  0
VERTEX
  8
0
 10
274.917
 20
39.3006
 30
0.0
 40
1
 41
1
  0
VERTEX
  8
0
 10
274.561
 20
39.4279
 30
0.0
 40
1
 41
1
  0
VERTEX
  8
0
 10
274.181
 20
39.5518
 30
0.0
 40
1
 41
1
  0
VERTEX
  8
0
 10
273.778
 20
39.6714
 30
0.0
 40
1
 41
1
  0
VERTEX
  8
0
 10
273.353
 20
39.785
 30
0.0
 40
1
 41
1
  0
VERTEX
  8
0
 10
272.907
 20
39.8917
 30
0.0
 40
1
 41
1
  0
VERTEX
  8
0
 10
272.443
 20
39.9903
 30
0.0
 40
1
 41
1
  0
VERTEX
  8
0
 10
271.961
 20
40.0796
 30
0.0
 40
1
 41
1
  0
VERTEX
  8
0
 10
271.464
 20
40.1585
 30
0.0
 40
1
 41
1
  0
VERTEX
  8
0
 10
270.95
 20
40.2256
 30
0.0
 40
1
 41
1
  0
VERTEX
  8
0
 10
270.424
 20
40.2799
 30
0.0
 40
1
 41
1
  0
VERTEX
  8
0
 10
269.886
 20
40.3201
 30
0.0
 40
1
 41
1
  0
VERTEX
  8
0
 10
269.336
 20
40.3451
 30
0.0
 40
1
 41
1
  0
VERTEX
  8
0
 10
268.917
 20
40.3536
 30
0.0
 40
1
 41
1
  0
VERTEX
  8
0
 10
268.778
 20
40.3536
 30
0.0
 40
1
 41
1
  0
VERTEX
  8
0
 10
268.565
 20
40.3536
 30
0.0
 40
1
 41
1
  0
VERTEX
  8
0
 10
267.931
 20
40.3356
 30
0.0
 40
1
 41
1
  0
VERTEX
  8
0
 10
267.104
 20
40.2815
 30
0.0
 40
1
 41
1
  0
VERTEX
  8
0
 10
266.297
 20
40.1924
 30
0.0
 40
1
 41
1
  0
VERTEX
  8
0
 10
265.511
 20
40.0689
 30
0.0
 40
1
 41
1
  0
VERTEX
  8
0
 10
264.746
 20
39.9115
 30
0.0
 40
1
 41
1
  0
VERTEX
  8
0
 10
264.001
 20
39.7212
 30
0.0
 40
1
 41
1
  0
VERTEX
  8
0
 10
263.279
 20
39.4986
 30
0.0
 40
1
 41
1
  0
VERTEX
  8
0
 10
262.579
 20
39.2444
 30
0.0
 40
1
 41
1
  0
VERTEX
  8
0
 10
261.903
 20
38.9593
 30
0.0
 40
1
 41
1
  0
VERTEX
  8
0
 10
261.249
 20
38.6442
 30
0.0
 40
1
 41
1
  0
VERTEX
  8
0
 10
260.619
 20
38.2993
 30
0.0
 40
1
 41
1
  0
VERTEX
  8
0
 10
260.014
 20
37.9258
 30
0.0
 40
1
 41
1
  0
VERTEX
  8
0
 10
259.432
 20
37.5243
 30
0.0
 40
1
 41
1
  0
VERTEX
  8
0
 10
258.876
 20
37.0954
 30
0.0
 40
1
 41
1
  0
VERTEX
  8
0
 10
258.347
 20
36.6399
 30
0.0
 40
1
 41
1
  0
VERTEX
  8
0
 10
257.844
 20
36.1585
 30
0.0
 40
1
 41
1
  0
VERTEX
  8
0
 10
257.367
 20
35.6518
 30
0.0
 40
1
 41
1
  0
VERTEX
  8
0
 10
256.918
 20
35.1207
 30
0.0
 40
1
 41
1
  0
VERTEX
  8
0
 10
256.496
 20
34.5657
 30
0.0
 40
1
 41
1
  0
VERTEX
  8
0
 10
256.103
 20
33.9876
 30
0.0
 40
1
 41
1
  0
VERTEX
  8
0
 10
255.737
 20
33.3872
 30
0.0
 40
1
 41
1
  0
VERTEX
  8
0
 10
255.401
 20
32.765
 30
0.0
 40
1
 41
1
  0
VERTEX
  8
0
 10
255.096
 20
32.1219
 30
0.0
 40
1
 41
1
  0
VERTEX
  8
0
 10
254.821
 20
31.4586
 30
0.0
 40
1
 41
1
  0
VERTEX
  8
0
 10
254.575
 20
30.7757
 30
0.0
 40
1
 41
1
  0
VERTEX
  8
0
 10
254.361
 20
30.0739
 30
0.0
 40
1
 41
1
  0
VERTEX
  8
0
 10
254.178
 20
29.354
 30
0.0
 40
1
 41
1
  0
VERTEX
  8
0
 10
254.028
 20
28.6168
 30
0.0
 40
1
 41
1
  0
VERTEX
  8
0
 10
253.91
 20
27.8628
 30
0.0
 40
1
 41
1
  0
VERTEX
  8
0
 10
253.825
 20
27.0928
 30
0.0
 40
1
 41
1
  0
VERTEX
  8
0
 10
253.774
 20
26.3074
 30
0.0
 40
1
 41
1
  0
VERTEX
  8
0
 10
253.757
 20
25.7075
 30
0.0
 40
1
 41
1
  0
VERTEX
  8
0
 10
253.757
 20
25.5075
 30
0.0
 40
1
 41
1
  0
VERTEX
  8
0
 10
253.757
 20
25.3092
 30
0.0
 40
1
 41
1
  0
VERTEX
  8
0
 10
253.772
 20
24.7143
 30
0.0
 40
1
 41
1
  0
VERTEX
  8
0
 10
253.821
 20
23.9382
 30
0.0
 40
1
 41
1
  0
VERTEX
  8
0
 10
253.9
 20
23.1799
 30
0.0
 40
1
 41
1
  0
VERTEX
  8
0
 10
254.01
 20
22.4396
 30
0.0
 40
1
 41
1
  0
VERTEX
  8
0
 10
254.149
 20
21.7181
 30
0.0
 40
1
 41
1
  0
VERTEX
  8
0
 10
254.319
 20
21.0157
 30
0.0
 40
1
 41
1
  0
VERTEX
  8
0
 10
254.518
 20
20.3331
 30
0.0
 40
1
 41
1
  0
VERTEX
  8
0
 10
254.746
 20
19.6708
 30
0.0
 40
1
 41
1
  0
VERTEX
  8
0
 10
255.003
 20
19.0294
 30
0.0
 40
1
 41
1
  0
VERTEX
  8
0
 10
255.287
 20
18.4093
 30
0.0
 40
1
 41
1
  0
VERTEX
  8
0
 10
255.599
 20
17.811
 30
0.0
 40
1
 41
1
  0
VERTEX
  8
0
 10
255.938
 20
17.2351
 30
0.0
 40
1
 41
1
  0
VERTEX
  8
0
 10
256.304
 20
16.6824
 30
0.0
 40
1
 41
1
  0
VERTEX
  8
0
 10
256.696
 20
16.1529
 30
0.0
 40
1
 41
1
  0
VERTEX
  8
0
 10
257.112
 20
15.6474
 30
0.0
 40
1
 41
1
  0
VERTEX
  8
0
 10
257.556
 20
15.1665
 30
0.0
 40
1
 41
1
  0
VERTEX
  8
0
 10
258.022
 20
14.7106
 30
0.0
 40
1
 41
1
  0
VERTEX
  8
0
 10
258.514
 20
14.2803
 30
0.0
 40
1
 41
1
  0
VERTEX
  8
0
 10
259.029
 20
13.8761
 30
0.0
 40
1
 41
1
  0
VERTEX
  8
0
 10
259.568
 20
13.4985
 30
0.0
 40
1
 41
1
  0
VERTEX
  8
0
 10
260.129
 20
13.1482
 30
0.0
 40
1
 41
1
  0
VERTEX
  8
0
 10
260.713
 20
12.8255
 30
0.0
 40
1
 41
1
  0
VERTEX
  8
0
 10
261.318
 20
12.531
 30
0.0
 40
1
 41
1
  0
VERTEX
  8
0
 10
261.946
 20
12.2653
 30
0.0
 40
1
 41
1
  0
VERTEX
  8
0
 10
262.593
 20
12.0288
 30
0.0
 40
1
 41
1
  0
VERTEX
  8
0
 10
263.263
 20
11.8222
 30
0.0
 40
1
 41
1
  0
VERTEX
  8
0
 10
263.951
 20
11.6459
 30
0.0
 40
1
 41
1
  0
VERTEX
  8
0
 10
264.66
 20
11.5004
 30
0.0
 40
1
 41
1
  0
VERTEX
  8
0
 10
265.386
 20
11.3864
 30
0.0
 40
1
 41
1
  0
VERTEX
  8
0
 10
266.133
 20
11.3043
 30
0.0
 40
1
 41
1
  0
VERTEX
  8
0
 10
266.897
 20
11.2547
 30
0.0
 40
1
 41
1
  0
VERTEX
  8
0
 10
267.483
 20
11.238
 30
0.0
 40
1
 41
1
  0
VERTEX
  8
0
 10
267.679
 20
11.238
 30
0.0
 40
1
 41
1
  0
VERTEX
  8
0
 10
267.853
 20
11.238
 30
0.0
 40
1
 41
1
  0
VERTEX
  8
0
 10
268.374
 20
11.2485
 30
0.0
 40
1
 41
1
  0
VERTEX
  8
0
 10
269.047
 20
11.279
 30
0.0
 40
1
 41
1
  0
VERTEX
  8
0
 10
269.701
 20
11.3278
 30
0.0
 40
1
 41
1
  0
VERTEX
  8
0
 10
270.332
 20
11.3932
 30
0.0
 40
1
 41
1
  0
VERTEX
  8
0
 10
270.938
 20
11.4735
 30
0.0
 40
1
 41
1
  0
VERTEX
  8
0
 10
271.519
 20
11.5669
 30
0.0
 40
1
 41
1
  0
VERTEX
  8
0
 10
272.076
 20
11.6719
 30
0.0
 40
1
 41
1
  0
VERTEX
  8
0
 10
272.604
 20
11.7867
 30
0.0
 40
1
 41
1
  0
VERTEX
  8
0
 10
273.104
 20
11.9096
 30
0.0
 40
1
 41
1
  0
VERTEX
  8
0
 10
273.575
 20
12.039
 30
0.0
 40
1
 41
1
  0
VERTEX
  8
0
 10
274.015
 20
12.1731
 30
0.0
 40
1
 41
1
  0
VERTEX
  8
0
 10
274.422
 20
12.3103
 30
0.0
 40
1
 41
1
  0
VERTEX
  8
0
 10
274.797
 20
12.4488
 30
0.0
 40
1
 41
1
  0
VERTEX
  8
0
 10
275.138
 20
12.587
 30
0.0
 40
1
 41
1
  0
VERTEX
  8
0
 10
275.442
 20
12.7232
 30
0.0
 40
1
 41
1
  0
VERTEX
  8
0
 10
275.643
 20
12.8211
 30
0.0
 40
1
 41
1
  0
VERTEX
  8
0
 10
275.71
 20
12.8557
 30
0.0
 40
1
 41
1
  0
VERTEX
  8
0
 10
274.842
 20
16.6679
 30
0.0
 40
1
 41
1
  0
SEQEND
 8
0
  0
POLYLINE
  8
0
 62
     0
 66
     1
 10
0
 20
0
 30
0.0
 70
     1
 40
72
 41
72
  0
VERTEX
  8
0
 10
38.5036
 20
231.404
 30
0.0
 40
1
 41
1
  0
VERTEX
  8
0
 10
24.4996
 20
199.082
 30
0.0
 40
1
 41
1
  0
VERTEX
  8
0
 10
5.82563
 20
140.65
 30
0.0
 40
1
 41
1
  0
VERTEX
  8
0
 10
0.76964
 20
234.367
 30
0.0
 40
1
 41
1
  0
VERTEX
  8
0
 10
21.7757
 20
255.078
 30
0.0
 40
1
 41
1
  0
VERTEX
  8
0
 10
38.5036
 20
231.404
 30
0.0
 40
1
 41
1
  0
SEQEND
 8
0
  0
POLYLINE
  8
0
 62
     0
 66
     1
 10
0
 20
0
 30
0.0
 70
     1
 40
72
 41
72
  0
VERTEX
  8
0
 10
13.3911
 20
164.324
 30
0.0
 40
1
 41
1
  0
VERTEX
  8
0
 10
27.3951
 20
196.644
 30
0.0
 40
1
 41
1
  0
VERTEX
  8
0
 10
46.0701
 20
255.078
 30
0.0
 40
1
 41
1
  0
VERTEX
  8
0
 10
51.1251
 20
161.36
 30
0.0
 40
1
 41
1
  0
VERTEX
  8
0
 10
30.119
 20
140.649
 30
0.0
 40
1
 41
1
  0
VERTEX
  8
0
 10
13.3911
 20
164.324
 30
0.0
 40
1
 41
1
  0
SEQEND
 8
0
  0
POLYLINE
  8
0
 62
     0
 66
     1
 10
0
 20
0
 30
0.0
 70
     1
 40
72
 41
72
  0
VERTEX
  8
0
 10
24.4446
 20
143.107
 30
0.0
 40
1
 41
1
  0
VERTEX
  8
0
 10
56.7646
 20
129.103
 30
0.0
 40
1
 41
1
  0
VERTEX
  8
0
 10
115.199
 20
110.429
 30
0.0
 40
1
 41
1
  0
VERTEX
  8
0
 10
21.4807
 20
105.373
 30
0.0
 40
1
 41
1
  0
VERTEX
  8
0
 10
0.76964
 20
126.38
 30
0.0
 40
1
 41
1
  0
VERTEX
  8
0
 10
24.4446
 20
143.107
 30
0.0
 40
1
 41
1
  0
SEQEND
 8
0
  0
POLYLINE
  8
0
 62
     0
 66
     1
 10
0
 20
0
 30
0.0
 70
     1
 40
72
 41
72
  0
VERTEX
  8
0
 10
84.839
 20
211.207
 30
0.0
 40
1
 41
1
  0
VERTEX
  8
0
 10
84.839
 20
166.663
 30
0.0
 40
1
 41
1
  0
VERTEX
  8
0
 10
101.339
 20
166.663
 30
0.0
 40
1
 41
1
  0
VERTEX
  8
0
 10
76.0896
 20
122.927
 30
0.0
 40
1
 41
1
  0
VERTEX
  8
0
 10
50.8394
 20
166.663
 30
0.0
 40
1
 41
1
  0
VERTEX
  8
0
 10
67.3394
 20
166.663
 30
0.0
 40
1
 41
1
  0
VERTEX
  8
0
 10
67.3394
 20
211.207
 30
0.0
 40
1
 41
1
  0
VERTEX
  8
0
 10
84.839
 20
211.207
 30
0.0
 40
1
 41
1
  0
SEQEND
 8
0
  0
POLYLINE
  8
0
 62
     0
 66
     1
 10
0
 20
0
 30
0.0
 70
     1
 40
72
 41
72
  0
VERTEX
  8
0
 10
80.6015
 20
255.078
 30
0.0
 40
1
 41
1
  0
VERTEX
  8
0
 10
111.531
 20
251.967
 30
0.0
 40
1
 41
1
  0
VERTEX
  8
0
 10
110.17
 20
232.711
 30
0.0
 40
1
 41
1
  0
VERTEX
  8
0
 10
117.691
 20
228.139
 30
0.0
 40
1
 41
1
  0
VERTEX
  8
0
 10
112.503
 20
211.317
 30
0.0
 40
1
 41
1
  0
VERTEX
  8
0
 10
94.6086
 20
201.203
 30
0.0
 40
1
 41
1
  0
VERTEX
  8
0
 10
72.5786
 20
223.763
 30
0.0
 40
1
 41
1
  0
VERTEX
  8
0
 10
80.6015
 20
255.078
 30
0.0
 40
1
 41
1
  0
SEQEND
 8
0
  0
POLYLINE
  8
0
 62
     0
 66
     1
 10
0
 20
0
 30
0.0
 70
     1
 40
72
 41
72
  0
VERTEX
  8
0
 10
137.112
 20
149.313
 30
0.0
 40
1
 41
1
  0
VERTEX
  8
0
 10
134.001
 20
118.383
 30
0.0
 40
1
 41
1
  0
VERTEX
  8
0
 10
114.746
 20
119.745
 30
0.0
 40
1
 41
1
  0
VERTEX
  8
0
 10
110.173
 20
112.224
 30
0.0
 40
1
 41
1
  0
VERTEX
  8
0
 10
93.3497
 20
117.412
 30
0.0
 40
1
 41
1
  0
VERTEX
  8
0
 10
83.2357
 20
135.306
 30
0.0
 40
1
 41
1
  0
VERTEX
  8
0
 10
105.797
 20
157.335
 30
0.0
 40
1
 41
1
  0
VERTEX
  8
0
 10
137.112
 20
149.313
 30
0.0
 40
1
 41
1
  0
SEQEND
 8
0
  0
POLYLINE
  8
0
 62
     0
 66
     1
 10
0
 20
0
 30
0.0
 70
     1
 40
72
 41
72
  0
VERTEX
  8
0
 10
138.856
 20
200.489
 30
0.0
 40
1
 41
1
  0
VERTEX
  8
0
 10
135.745
 20
169.561
 30
0.0
 40
1
 41
1
  0
VERTEX
  8
0
 10
116.489
 20
170.922
 30
0.0
 40
1
 41
1
  0
VERTEX
  8
0
 10
111.917
 20
163.4
 30
0.0
 40
1
 41
1
  0
VERTEX
  8
0
 10
95.0942
 20
168.587
 30
0.0
 40
1
 41
1
  0
VERTEX
  8
0
 10
84.9801
 20
186.482
 30
0.0
 40
1
 41
1
  0
VERTEX
  8
0
 10
107.541
 20
208.511
 30
0.0
 40
1
 41
1
  0
VERTEX
  8
0
 10
138.856
 20
200.489
 30
0.0
 40
1
 41
1
  0
SEQEND
 8
0
  0
POLYLINE
  8
0
 62
     0
 66
     1
 10
0
 20
0
 30
0.0
 70
     1
 40
72
 41
72
  0
VERTEX
  8
0
 10
54.6449
 20
97.4501
 30
0.0
 40
1
 41
1
  0
VERTEX
  8
0
 10
51.5339
 20
66.5232
 30
0.0
 40
1
 41
1
  0
VERTEX
  8
0
 10
32.2779
 20
67.8832
 30
0.0
 40
1
 41
1
  0
VERTEX
  8
0
 10
27.7058
 20
60.3622
 30
0.0
 40
1
 41
1
  0
VERTEX
  8
0
 10
10.8829
 20
65.5501
 30
0.0
 40
1
 41
1
  0
VERTEX
  8
0
 10
0.768881
 20
83.4442
 30
0.0
 40
1
 41
1
  0
VERTEX
  8
0
 10
23.3289
 20
105.473
 30
0.0
 40
1
 41
1
  0
VERTEX
  8
0
 10
54.6449
 20
97.4501
 30
0.0
 40
1
 41
1
  0
SEQEND
 8
0
  0
POLYLINE
  8
0
 62
     0
 66
     1
 10
0
 20
0
 30
0.0
 70
     1
 40
72
 41
72
  0
VERTEX
  8
0
 10
60.5263
 20
107.48
 30
0.0
 40
1
 41
1
  0
VERTEX
  8
0
 10
91.4543
 20
104.369
 30
0.0
 40
1
 41
1
  0
VERTEX
  8
0
 10
90.0932
 20
85.1131
 30
0.0
 40
1
 41
1
  0
VERTEX
  8
0
 10
97.6143
 20
80.5411
 30
0.0
 40
1
 41
1
  0
VERTEX
  8
0
 10
92.4262
 20
63.7181
 30
0.0
 40
1
 41
1
  0
VERTEX
  8
0
 10
74.5322
 20
53.6042
 30
0.0
 40
1
 41
1
  0
VERTEX
  8
0
 10
52.5032
 20
76.1642
 30
0.0
 40
1
 41
1
  0
VERTEX
  8
0
 10
60.5263
 20
107.48
 30
0.0
 40
1
 41
1
  0
SEQEND
 8
0
  0
POLYLINE
  8
0
 62
     0
 66
     1
 10
0
 20
0
 30
0.0
 40
72
 41
72
  0
VERTEX
  8
0
 10
136.06
 20
106.775
 30
0.0
 40
1
 41
1
  0
VERTEX
  8
0
 10
134.7
 20
87.5192
 30
0.0
 40
1
 41
1
  0
VERTEX
  8
0
 10
142.221
 20
82.9471
 30
0.0
 40
1
 41
1
  0
VERTEX
  8
0
 10
137.033
 20
66.1242
 30
0.0
 40
1
 41
1
  0
VERTEX
  8
0
 10
119.139
 20
56.0101
 30
0.0
 40
1
 41
1
  0
VERTEX
  8
0
 10
97.1101
 20
78.5711
 30
0.0
 40
1
 41
1
  0
VERTEX
  8
0
 10
105.133
 20
109.886
 30
0.0
 40
1
 41
1
  0
VERTEX
  8
0
 10
181.647
 20
102.189
 30
0.0
 40
1
 41
1
  0
SEQEND
 8
0
  0
POLYLINE
  8
0
 62
     0
 66
     1
 10
0
 20
0
 30
0.0
 70
     1
 40
72
 41
72
  0
VERTEX
  8
0
 10
32.4067
 20
13.7802
 30
0.0
 40
1
 41
1
  0
VERTEX
  8
0
 10
12.7387
 20
37.8492
 30
0.0
 40
1
 41
1
  0
VERTEX
  8
0
 10
27.3176
 20
50.5021
 30
0.0
 40
1
 41
1
  0
VERTEX
  8
0
 10
25.2307
 20
59.0542
 30
0.0
 40
1
 41
1
  0
VERTEX
  8
0
 10
40.7957
 20
67.2821
 30
0.0
 40
1
 41
1
  0
VERTEX
  8
0
 10
60.5997
 20
61.7792
 30
0.0
 40
1
 41
1
  0
VERTEX
  8
0
 10
60.2217
 20
30.2482
 30
0.0
 40
1
 41
1
  0
VERTEX
  8
0
 10
32.4067
 20
13.7802
 30
0.0
 40
1
 41
1
  0
SEQEND
 8
0
  0
POLYLINE
  8
0
 62
     0
 66
     1
 10
0
 20
0
 30
0.0
 70
     1
 40
72
 41
72
  0
VERTEX
  8
0
 10
104.585
 20
70.9161
 30
0.0
 40
1
 41
1
  0
VERTEX
  8
0
 10
124.252
 20
46.8482
 30
0.0
 40
1
 41
1
  0
VERTEX
  8
0
 10
109.673
 20
34.1951
 30
0.0
 40
1
 41
1
  0
VERTEX
  8
0
 10
111.762
 20
25.6431
 30
0.0
 40
1
 41
1
  0
VERTEX
  8
0
 10
96.1975
 20
17.4161
 30
0.0
 40
1
 41
1
  0
VERTEX
  8
0
 10
76.3915
 20
22.9161
 30
0.0
 40
1
 41
1
  0
VERTEX
  8
0
 10
76.7706
 20
54.4482
 30
0.0
 40
1
 41
1
  0
VERTEX
  8
0
 10
104.585
 20
70.9161
 30
0.0
 40
1
 41
1
  0
SEQEND
 8
0
  0
POLYLINE
  8
0
 62
     0
 66
     1
 10
0
 20
0
 30
0.0
 70
     1
 40
72
 41
72
  0
VERTEX
  8
0
 10
145.622
 20
254.406
 30
0.0
 40
1
 41
1
  0
VERTEX
  8
0
 10
165.289
 20
230.336
 30
0.0
 40
1
 41
1
  0
VERTEX
  8
0
 10
150.712
 20
217.683
 30
0.0
 40
1
 41
1
  0
VERTEX
  8
0
 10
152.8
 20
209.131
 30
0.0
 40
1
 41
1
  0
VERTEX
  8
0
 10
137.235
 20
200.903
 30
0.0
 40
1
 41
1
  0
VERTEX
  8
0
 10
117.431
 20
206.406
 30
0.0
 40
1
 41
1
  0
VERTEX
  8
0
 10
117.808
 20
237.938
 30
0.0
 40
1
 41
1
  0
VERTEX
  8
0
 10
145.622
 20
254.406
 30
0.0
 40
1
 41
1
  0
SEQEND
 8
0
  0
POLYLINE
  8
0
 62
     0
 66
     1
 10
0
 20
0
 30
0.0
 70
     1
 40
72
 41
72
  0
VERTEX
  8
0
 10
107.83
 20
18.5558
 30
0.0
 40
1
 41
1
  0
VERTEX
  8
0
 10
119.825
 20
40.1768
 30
0.0
 40
1
 41
1
  0
VERTEX
  8
0
 10
169.681
 20
35.1669
 30
0.0
 40
1
 41
1
  0
VERTEX
  8
0
 10
162.868
 20
0.651856
 30
0.0
 40
1
 41
1
  0
VERTEX
  8
0
 10
107.83
 20
18.5558
 30
0.0
 40
1
 41
1
  0
SEQEND
 8
0
  0
POLYLINE
  8
0
 62
     0
 66
     1
 10
0
 20
0
 30
0.0
 40
72
 41
72
  0
VERTEX
  8
0
 10
168.894
 20
85.6051
 30
0.0
 40
1
 41
1
  0
VERTEX
  8
0
 10
147.272
 20
97.6
 30
0.0
 40
1
 41
1
  0
VERTEX
  8
0
 10
129.369
 20
42.5621
 30
0.0
 40
1
 41
1
  0
VERTEX
  8
0
 10
163.883
 20
35.749
 30
0.0
 40
1
 41
1
  0
VERTEX
  8
0
 10
169.144
 20
88.0975
 30
0.0
 40
1
 41
1
  0
SEQEND
 8
0
  0
POLYLINE
  8
0
 62
     0
 66
     1
 10
0
 20
0
 30
0.0
 40
72
 41
72
  0
VERTEX
  8
0
 10
131.794
 20
107.204
 30
0.0
 40
1
 41
1
  0
VERTEX
  8
0
 10
138.608
 20
141.719
 30
0.0
 40
1
 41
1
  0
VERTEX
  8
0
 10
193.644
 20
123.816
 30
0.0
 40
1
 41
1
  0
VERTEX
  8
0
 10
181.649
 20
102.194
 30
0.0
 40
1
 41
1
  0
SEQEND
 8
0
  0
POLYLINE
  8
0
 62
     0
 66
     1
 10
0
 20
0
 30
0.0
 40
72
 41
72
  0
VERTEX
  8
0
 10
169.144
 20
88.0975
 30
0.0
 40
1
 41
1
  0
VERTEX
  8
0
 10
203.658
 20
81.2854
 30
0.0
 40
1
 41
1
  0
VERTEX
  8
0
 10
185.756
 20
26.2475
 30
0.0
 40
1
 41
1
  0
VERTEX
  8
0
 10
164.135
 20
38.2435
 30
0.0
 40
1
 41
1
  0
SEQEND
 8
0
  0
POLYLINE
  8
0
 62
     0
 66
     1
 10
0
 20
0
 30
0.0
 70
     1
 40
72
 41
72
  0
VERTEX
  8
0
 10
147.674
 20
206.231
 30
0.0
 40
1
 41
1
  0
VERTEX
  8
0
 10
169.294
 20
194.235
 30
0.0
 40
1
 41
1
  0
VERTEX
  8
0
 10
164.283
 20
144.381
 30
0.0
 40
1
 41
1
  0
VERTEX
  8
0
 10
129.77
 20
151.193
 30
0.0
 40
1
 41
1
  0
VERTEX
  8
0
 10
147.674
 20
206.231
 30
0.0
 40
1
 41
1
  0
SEQEND
 8
0
  0
POLYLINE
  8
0
 62
     0
 66
     1
 10
0
 20
0
 30
0.0
 70
     1
 40
72
 41
72
  0
VERTEX
  8
0
 10
221.112
 20
216.411
 30
0.0
 40
1
 41
1
  0
VERTEX
  8
0
 10
209.117
 20
194.79
 30
0.0
 40
1
 41
1
  0
VERTEX
  8
0
 10
159.263
 20
199.8
 30
0.0
 40
1
 41
1
  0
VERTEX
  8
0
 10
166.075
 20
234.315
 30
0.0
 40
1
 41
1
  0
VERTEX
  8
0
 10
221.112
 20
216.411
 30
0.0
 40
1
 41
1
  0
SEQEND
 8
0
  0
POLYLINE
  8
0
 62
     0
 66
     1
 10
0
 20
0
 30
0.0
 40
72
 41
72
  0
VERTEX
  8
0
 10
167.103
 20
132.449
 30
0.0
 40
1
 41
1
  0
VERTEX
  8
0
 10
167.103
 20
172.418
 30
0.0
 40
1
 41
1
  0
VERTEX
  8
0
 10
194.486
 20
149.664
 30
0.0
 40
1
 41
1
  0
VERTEX
  8
0
 10
235.1
 20
149.664
 30
0.0
 40
1
 41
1
  0
SEQEND
 8
0
  0
POLYLINE
  8
0
 62
     0
 66
     1
 10
0
 20
0
 30
0.0
 70
     1
 40
72
 41
72
  0
VERTEX
  8
0
 10
197.251
 20
61.5861
 30
0.0
 40
1
 41
1
  0
VERTEX
  8
0
 10
197.251
 20
0.65115
 30
0.0
 40
1
 41
1
  0
VERTEX
  8
0
 10
214.465
 20
0.65115
 30
0.0
 40
1
 41
1
  0
VERTEX
  8
0
 10
214.465
 20
34.2021
 30
0.0
 40
1
 41
1
  0
VERTEX
  8
0
 10
237.219
 20
61.5861
 30
0.0
 40
1
 41
1
  0
VERTEX
  8
0
 10
197.251
 20
61.5861
 30
0.0
 40
1
 41
1
  0
SEQEND
 8
0
  0
POLYLINE
  8
0
 62
     0
 66
     1
 10
0
 20
0
 30
0.0
 40
72
 41
72
  0
VERTEX
  8
0
 10
203.66
 20
132.45
 30
0.0
 40
1
 41
1
  0
VERTEX
  8
0
 10
203.66
 20
71.515
 30
0.0
 40
1
 41
1
  0
VERTEX
  8
0
 10
220.872
 20
71.515
 30
0.0
 40
1
 41
1
  0
VERTEX
  8
0
 10
220.872
 20
105.066
 30
0.0
 40
1
 41
1
  0
SEQEND
 8
0
  0
POLYLINE
  8
0
 62
     0
 66
     1
 10
0
 20
0
 30
0.0
 40
72
 41
72
  0
VERTEX
  8
0
 10
195.131
 20
149.663
 30
0.0
 40
1
 41
1
  0
VERTEX
  8
0
 10
217.888
 20
177.047
 30
0.0
 40
1
 41
1
  0
VERTEX
  8
0
 10
217.888
 20
210.597
 30
0.0
 40
1
 41
1
  0
VERTEX
  8
0
 10
235.1
 20
210.597
 30
0.0
 40
1
 41
1
  0
SEQEND
 8
0
  0
POLYLINE
  8
0
 62
     0
 66
     1
 10
0
 20
0
 30
0.0
 40
72
 41
72
  0
VERTEX
  8
0
 10
252.314
 20
166
 30
0.0
 40
1
 41
1
  0
VERTEX
  8
0
 10
275.068
 20
193.383
 30
0.0
 40
1
 41
1
  0
VERTEX
  8
0
 10
235.1
 20
193.383
 30
0.0
 40
1
 41
1
  0
SEQEND
 8
0
  0
POLYLINE
  8
0
 62
     0
 66
     1
 10
0
 20
0
 30
0.0
 70
     1
 40
72
 41
72
  0
VERTEX
  8
0
 10
70.2886
 20
28.6621
 30
0.0
 40
1
 41
1
  0
VERTEX
  8
0
 10
72.4186
 20
11.5441
 30
0.0
 40
1
 41
1
  0
VERTEX
  8
0
 10
110.279
 20
13.8781
 30
0.0
 40
1
 41
1
  0
VERTEX
  8
0
 10
81.2606
 20
0.652126
 30
0.0
 40
1
 41
1
  0
VERTEX
  8
0
 10
40.1317
 20
2.98611
 30
0.0
 40
1
 41
1
  0
VERTEX
  8
0
 10
54.9125
 20
27.1051
 30
0.0
 40
1
 41
1
  0
VERTEX
  8
0
 10
70.2886
 20
28.6621
 30
0.0
 40
1
 41
1
  0
SEQEND
 8
0
  0
POLYLINE
  8
0
 62
     0
 66
     1
 10
0
 20
0
 30
0.0
 70
     1
 40
72
 41
72
  0
VERTEX
  8
0
 10
257.921
 20
88.5933
 30
0.0
 40
1
 41
1
  0
VERTEX
  8
0
 10
240.804
 20
86.464
 30
0.0
 40
1
 41
1
  0
VERTEX
  8
0
 10
243.138
 20
48.6049
 30
0.0
 40
1
 41
1
  0
VERTEX
  8
0
 10
229.911
 20
77.6224
 30
0.0
 40
1
 41
1
  0
VERTEX
  8
0
 10
232.244
 20
118.751
 30
0.0
 40
1
 41
1
  0
VERTEX
  8
0
 10
256.364
 20
103.97
 30
0.0
 40
1
 41
1
  0
VERTEX
  8
0
 10
257.921
 20
88.5933
 30
0.0
 40
1
 41
1
  0
SEQEND
 8
0
  0
POLYLINE
  8
0
 62
     0
 66
     1
 10
0
 20
0
 30
0.0
 70
     1
 40
72
 41
72
  0
VERTEX
  8
0
 10
270.072
 20
40.6403
 30
0.0
 40
1
 41
1
  0
VERTEX
  8
0
 10
252.956
 20
38.5124
 30
0.0
 40
1
 41
1
  0
VERTEX
  8
0
 10
255.29
 20
0.651367
 30
0.0
 40
1
 41
1
  0
VERTEX
  8
0
 10
242.064
 20
29.6704
 30
0.0
 40
1
 41
1
  0
VERTEX
  8
0
 10
244.396
 20
70.7993
 30
0.0
 40
1
 41
1
  0
VERTEX
  8
0
 10
268.515
 20
56.0174
 30
0.0
 40
1
 41
1
  0
VERTEX
  8
0
 10
270.072
 20
40.6403
 30
0.0
 40
1
 41
1
  0
SEQEND
 8
0
  0
POLYLINE
  8
0
 62
     0
 66
     1
 10
0
 20
0
 30
0.0
 70
     1
 40
72
 41
72
  0
VERTEX
  8
0
 10
67.4096
 20
255.078
 30
0.0
 40
1
 41
1
  0
VERTEX
  8
0
 10
48.0085
 20
255.078
 30
0.0
 40
1
 41
1
  0
VERTEX
  8
0
 10
48.0085
 20
219.15
 30
0.0
 40
1
 41
1
  0
VERTEX
  8
0
 10
67.4096
 20
219.15
 30
0.0
 40
1
 41
1
  0
VERTEX
  8
0
 10
67.4096
 20
255.078
 30
0.0
 40
1
 41
1
  0
SEQEND
 8
0
  0
POLYLINE
  8
0
 62
     0
 66
     1
 10
0
 20
0
 30
0.0
 70
     1
 40
72
 41
72
  0
VERTEX
  8
0
 10
160.926
 20
255.078
 30
0.0
 40
1
 41
1
  0
VERTEX
  8
0
 10
196.854
 20
255.078
 30
0.0
 40
1
 41
1
  0
VERTEX
  8
0
 10
196.854
 20
235.678
 30
0.0
 40
1
 41
1
  0
VERTEX
  8
0
 10
160.926
 20
235.678
 30
0.0
 40
1
 41
1
  0
VERTEX
  8
0
 10
160.926
 20
255.078
 30
0.0
 40
1
 41
1
  0
SEQEND
 8
0
  0
POLYLINE
  8
0
 62
     0
 66
     1
 10
0
 20
0
 30
0.0
 70
     1
 40
72
 41
72
  0
VERTEX
  8
0
 10
168.901
 20
190.324
 30
0.0
 40
1
 41
1
  0
VERTEX
  8
0
 10
204.831
 20
190.324
 30
0.0
 40
1
 41
1
  0
VERTEX
  8
0
 10
204.831
 20
170.924
 30
0.0
 40
1
 41
1
  0
VERTEX
  8
0
 10
168.901
 20
170.924
 30
0.0
 40
1
 41
1
  0
VERTEX
  8
0
 10
168.901
 20
190.324
 30
0.0
 40
1
 41
1
  0
SEQEND
 8
0
  0
POLYLINE
  8
0
 62
     0
 66
     1
 10
0
 20
0
 30
0.0
 70
     1
 40
72
 41
72
  0
VERTEX
  8
0
 10
26.7024
 20
12.3679
 30
0.0
 40
1
 41
1
  0
VERTEX
  8
0
 10
21.7112
 20
8.57487
 30
0.0
 40
1
 41
1
  0
VERTEX
  8
0
 10
19.1163
 20
4.15788
 30
0.0
 40
1
 41
1
  0
VERTEX
  8
0
 10
12.9743
 20
4.15788
 30
0.0
 40
1
 41
1
  0
VERTEX
  8
0
 10
9.36128
 20
8.57487
 30
0.0
 40
1
 41
1
  0
VERTEX
  8
0
 10
6.05225
 20
11.0039
 30
0.0
 40
1
 41
1
  0
VERTEX
  8
0
 10
6.05225
 20
17.4229
 30
0.0
 40
1
 41
1
  0
VERTEX
  8
0
 10
10.6243
 20
20.2439
 30
0.0
 40
1
 41
1
  0
VERTEX
  8
0
 10
12.9902
 20
27.3429
 30
0.0
 40
1
 41
1
  0
VERTEX
  8
0
 10
19.1163
 20
27.3429
 30
0.0
 40
1
 41
1
  0
VERTEX
  8
0
 10
21.1272
 20
20.2439
 30
0.0
 40
1
 41
1
  0
VERTEX
  8
0
 10
26.7024
 20
17.4229
 30
0.0
 40
1
 41
1
  0
VERTEX
  8
0
 10
26.7024
 20
12.3679
 30
0.0
 40
1
 41
1
  0
SEQEND
 8
0
  0
POLYLINE
  8
0
 62
     0
 66
     1
 10
0
 20
0
 30
0.0
 40
72
 41
72
  0
VERTEX
  8
0
 10
252.314
 20
144.117
 30
0.0
 40
1
 41
1
  0
VERTEX
  8
0
 10
263.81
 20
133.315
 30
0.0
 40
1
 41
1
  0
VERTEX
  8
0
 10
280.274
 20
145.619
 30
0.0
 40
1
 41
1
  0
VERTEX
  8
0
 10
280.274
 20
139.439
 30
0.0
 40
1
 41
1
  0
VERTEX
  8
0
 10
266.872
 20
129.79
 30
0.0
 40
1
 41
1
  0
VERTEX
  8
0
 10
269.761
 20
127.191
 30
0.0
 40
1
 41
1
  0
VERTEX
  8
0
 10
280.275
 20
127.191
 30
0.0
 40
1
 41
1
  0
VERTEX
  8
0
 10
280.275
 20
122.165
 30
0.0
 40
1
 41
1
  0
SEQEND
 8
0
  0
POLYLINE
  8
0
 62
     0
 66
     1
 10
0
 20
0
 30
0.0
 40
72
 41
72
  0
VERTEX
  8
0
 10
192.282
 20
102.194
 30
0.0
 40
1
 41
1
  0
VERTEX
  8
0
 10
192.282
 20
89.436
 30
0.0
 40
1
 41
1
  0
VERTEX
  8
0
 10
161.989
 20
89.436
 30
0.0
 40
1
 41
1
  0
VERTEX
  8
0
 10
161.989
 20
102.194
 30
0.0
 40
1
 41
1
  0
VERTEX
  8
0
 10
195.361
 20
102.194
 30
0.0
 40
1
 41
1
  0
VERTEX
  8
0
 10
192.575
 20
118.627
 30
0.0
 40
1
 41
1
  0
VERTEX
  8
0
 10
189.965
 20
115.364
 30
0.0
 40
1
 41
1
  0
VERTEX
  8
0
 10
181.649
 20
102.194
 30
0.0
 40
1
 41
1
  0
SEQEND
 8
0
  0
POLYLINE
  8
0
 62
     0
 66
     1
 10
0
 20
0
 30
0.0
 40
72
 41
72
  0
VERTEX
  8
0
 10
49.6429
 20
219.15
 30
0.0
 40
1
 41
1
  0
VERTEX
  8
0
 10
49.6429
 20
188.856
 30
0.0
 40
1
 41
1
  0
VERTEX
  8
0
 10
63.109
 20
188.856
 30
0.0
 40
1
 41
1
  0
SEQEND
 8
0
  0
POLYLINE
  8
0
 62
     0
 66
     1
 10
0
 20
0
 30
0.0
 40
72
 41
72
  0
VERTEX
  8
0
 10
214.465
 20
0.651639
 30
0.0
 40
1
 41
1
  0
VERTEX
  8
0
 10
227.222
 20
0.651639
 30
0.0
 40
1
 41
1
  0
VERTEX
  8
0
 10
227.222
 20
30.9457
 30
0.0
 40
1
 41
1
  0
VERTEX
  8
0
 10
214.465
 20
30.9457
 30
0.0
 40
1
 41
1
  0
SEQEND
 8
0
  0
POLYLINE
  8
0
 62
     0
 66
     1
 10
0
 20
0
 30
0.0
 70
     1
 40
72
 41
72
  0
VERTEX
  8
0
 10
17.6904
 20
42.661
 30
0.0
 40
1
 41
1
  0
VERTEX
  8
0
 10
5.05637
 20
40.714
 30
0.0
 40
1
 41
1
  0
VERTEX
  8
0
 10
0.769368
 20
50.6335
 30
0.0
 40
1
 41
1
  0
VERTEX
  8
0
 10
2.32639
 20
63.6661
 30
0.0
 40
1
 41
1
  0
VERTEX
  8
0
 10
22.6683
 20
61.9158
 30
0.0
 40
1
 41
1
  0
VERTEX
  8
0
 10
17.6904
 20
42.661
 30
0.0
 40
1
 41
1
  0
SEQEND
 8
0
  0
POLYLINE
  8
0
 62
     0
 66
     1
 10
0
 20
0
 30
0.0
 70
     1
 40
72
 41
72
  0
VERTEX
  8
0
 10
183.583
 20
6.75114
 30
0.0
 40
1
 41
1
  0
VERTEX
  8
0
 10
170.949
 20
4.80512
 30
0.0
 40
1
 41
1
  0
VERTEX
  8
0
 10
166.661
 20
14.7242
 30
0.0
 40
1
 41
1
  0
VERTEX
  8
0
 10
168.218
 20
27.7572
 30
0.0
 40
1
 41
1
  0
VERTEX
  8
0
 10
188.56
 20
26.0062
 30
0.0
 40
1
 41
1
  0
VERTEX
  8
0
 10
183.583
 20
6.75114
 30
0.0
 40
1
 41
1
  0
SEQEND
 8
0
  0
POLYLINE
  8
0
 62
     0
 66
     1
 10
0
 20
0
 30
0.0
 70
     1
 40
72
 41
72
  0
VERTEX
  8
0
 10
217.478
 20
238.467
 30
0.0
 40
1
 41
1
  0
VERTEX
  8
0
 10
230.112
 20
240.414
 30
0.0
 40
1
 41
1
  0
VERTEX
  8
0
 10
234.4
 20
230.496
 30
0.0
 40
1
 41
1
  0
VERTEX
  8
0
 10
232.843
 20
217.462
 30
0.0
 40
1
 41
1
  0
VERTEX
  8
0
 10
212.5
 20
219.214
 30
0.0
 40
1
 41
1
  0
VERTEX
  8
0
 10
217.478
 20
238.467
 30
0.0
 40
1
 41
1
  0
SEQEND
 8
0
  0
POLYLINE
  8
0
 62
     0
 66
     1
 10
0
 20
0
 30
0.0
 70
     1
 40
72
 41
72
  0
VERTEX
  8
0
 10
240.183
 20
237.281
 30
0.0
 40
1
 41
1
  0
VERTEX
  8
0
 10
238.236
 20
249.914
 30
0.0
 40
1
 41
1
  0
VERTEX
  8
0
 10
248.156
 20
254.203
 30
0.0
 40
1
 41
1
  0
VERTEX
  8
0
 10
261.188
 20
252.646
 30
0.0
 40
1
 41
1
  0
VERTEX
  8
0
 10
259.438
 20
232.303
 30
0.0
 40
1
 41
1
  0
VERTEX
  8
0
 10
240.183
 20
237.281
 30
0.0
 40
1
 41
1
  0
SEQEND
 8
0
  0
POLYLINE
  8
0
 62
     0
 66
     1
 10
0
 20
0
 30
0.0
 70
     1
 40
72
 41
72
  0
VERTEX
  8
0
 10
252.994
 20
87.8343
 30
0.0
 40
1
 41
1
  0
VERTEX
  8
0
 10
265.629
 20
89.7803
 30
0.0
 40
1
 41
1
  0
VERTEX
  8
0
 10
269.917
 20
79.8624
 30
0.0
 40
1
 41
1
  0
VERTEX
  8
0
 10
268.36
 20
66.8293
 30
0.0
 40
1
 41
1
  0
VERTEX
  8
0
 10
248.018
 20
68.5793
 30
0.0
 40
1
 41
1
  0
VERTEX
  8
0
 10
252.994
 20
87.8343
 30
0.0
 40
1
 41
1
  0
SEQEND
 8
0
  0
POLYLINE
  8
0
 62
     0
 66
     1
 10
0
 20
0
 30
0.0
 70
     1
 40
72
 41
72
  0
VERTEX
  8
0
 10
60.4806
 20
51.8465
 30
0.0
 40
1
 41
1
  0
VERTEX
  8
0
 10
74.0965
 20
51.8465
 30
0.0
 40
1
 41
1
  0
VERTEX
  8
0
 10
74.0965
 20
28.6619
 30
0.0
 40
1
 41
1
  0
VERTEX
  8
0
 10
60.4806
 20
28.6619
 30
0.0
 40
1
 41
1
  0
VERTEX
  8
0
 10
60.4806
 20
51.8465
 30
0.0
 40
1
 41
1
  0
SEQEND
 8
0
  0
POLYLINE
  8
0
 62
     0
 66
     1
 10
0
 20
0
 30
0.0
 40
72
 41
72
  0
VERTEX
  8
0
 10
252.314
 20
166
 30
0.0
 40
1
 41
1
  0
VERTEX
  8
0
 10
275.497
 20
166
 30
0.0
 40
1
 41
1
  0
VERTEX
  8
0
 10
275.497
 20
152.383
 30
0.0
 40
1
 41
1
  0
SEQEND
 8
0
  0
POLYLINE
  8
0
 62
     0
 66
     1
 10
0
 20
0
 30
0.0
 70
     1
 40
72
 41
72
  0
VERTEX
  8
0
 10
258.237
 20
232.303
 30
0.0
 40
1
 41
1
  0
VERTEX
  8
0
 10
281.422
 20
232.303
 30
0.0
 40
1
 41
1
  0
VERTEX
  8
0
 10
281.422
 20
218.686
 30
0.0
 40
1
 41
1
  0
VERTEX
  8
0
 10
258.237
 20
218.686
 30
0.0
 40
1
 41
1
  0
VERTEX
  8
0
 10
258.237
 20
232.303
 30
0.0
 40
1
 41
1
  0
SEQEND
 8
0
  0
POLYLINE
  8
0
 62
     0
 66
     1
 10
0
 20
0
 30
0.0
 40
72
 41
72
  0
VERTEX
  8
0
 10
252.314
 20
147.299
 30
0.0
 40
1
 41
1
  0
VERTEX
  8
0
 10
286.975
 20
147.299
 30
0.0
 40
1
 41
1
  0
VERTEX
  8
0
 10
286.975
 20
135.398
 30
0.0
 40
1
 41
1
  0
VERTEX
  8
0
 10
291.25
 20
135.398
 30
0.0
 40
1
 41
1
  0
VERTEX
  8
0
 10
291.25
 20
164.226
 30
0.0
 40
1
 41
1
  0
VERTEX
  8
0
 10
286.975
 20
164.226
 30
0.0
 40
1
 41
1
  0
VERTEX
  8
0
 10
286.975
 20
152.383
 30
0.0
 40
1
 41
1
  0
VERTEX
  8
0
 10
252.314
 20
152.383
 30
0.0
 40
1
 41
1
  0
SEQEND
 8
0
  0
POLYLINE
  8
0
 62
     0
 66
     1
 10
0
 20
0
 30
0.0
 70
     1
 40
72
 41
72
  0
VERTEX
  8
0
 10
55.8847
 20
147.89
 30
0.0
 40
1
 41
1
  0
VERTEX
  8
0
 10
49.2267
 20
153.199
 30
0.0
 40
1
 41
1
  0
VERTEX
  8
0
 10
40.9278
 20
151.304
 30
0.0
 40
1
 41
1
  0
VERTEX
  8
0
 10
37.2328
 20
143.635
 30
0.0
 40
1
 41
1
  0
VERTEX
  8
0
 10
40.9278
 20
135.965
 30
0.0
 40
1
 41
1
  0
VERTEX
  8
0
 10
49.2267
 20
134.071
 30
0.0
 40
1
 41
1
  0
VERTEX
  8
0
 10
55.8847
 20
139.378
 30
0.0
 40
1
 41
1
  0
VERTEX
  8
0
 10
55.8847
 20
147.89
 30
0.0
 40
1
 41
1
  0
SEQEND
 8
0
  0
POLYLINE
  8
0
 62
     0
 66
     1
 10
0
 20
0
 30
0.0
 70
     1
 40
72
 41
72
  0
VERTEX
  8
0
 10
239.894
 20
43.3901
 30
0.0
 40
1
 41
1
  0
VERTEX
  8
0
 10
233.236
 20
48.7011
 30
0.0
 40
1
 41
1
  0
VERTEX
  8
0
 10
224.938
 20
46.8042
 30
0.0
 40
1
 41
1
  0
VERTEX
  8
0
 10
221.242
 20
39.1372
 30
0.0
 40
1
 41
1
  0
VERTEX
  8
0
 10
224.938
 20
31.4682
 30
0.0
 40
1
 41
1
  0
VERTEX
  8
0
 10
233.236
 20
29.5711
 30
0.0
 40
1
 41
1
  0
VERTEX
  8
0
 10
239.894
 20
34.8801
 30
0.0
 40
1
 41
1
  0
VERTEX
  8
0
 10
239.894
 20
43.3901
 30
0.0
 40
1
 41
1
  0
SEQEND
 8
0
  0
POLYLINE
  8
0
 62
     0
 66
     1
 10
0
 20
0
 30
0.0
 70
     1
 40
72
 41
72
  0
VERTEX
  8
0
 10
241.042
 20
9.4649
 30
0.0
 40
1
 41
1
  0
VERTEX
  8
0
 10
246.35
 20
16.1219
 30
0.0
 40
1
 41
1
  0
VERTEX
  8
0
 10
244.457
 20
24.4208
 30
0.0
 40
1
 41
1
  0
VERTEX
  8
0
 10
236.786
 20
28.1149
 30
0.0
 40
1
 41
1
  0
VERTEX
  8
0
 10
229.115
 20
24.4208
 30
0.0
 40
1
 41
1
  0
VERTEX
  8
0
 10
227.222
 20
16.1219
 30
0.0
 40
1
 41
1
  0
VERTEX
  8
0
 10
232.528
 20
9.4649
 30
0.0
 40
1
 41
1
  0
VERTEX
  8
0
 10
241.042
 20
9.4649
 30
0.0
 40
1
 41
1
  0
SEQEND
 8
0
  0
POLYLINE
  8
0
 62
     0
 66
     1
 10
0
 20
0
 30
0.0
 70
     1
 40
72
 41
72
  0
VERTEX
  8
0
 10
260.396
 20
204.867
 30
0.0
 40
1
 41
1
  0
VERTEX
  8
0
 10
267.053
 20
199.556
 30
0.0
 40
1
 41
1
  0
VERTEX
  8
0
 10
275.353
 20
201.453
 30
0.0
 40
1
 41
1
  0
VERTEX
  8
0
 10
279.047
 20
209.119
 30
0.0
 40
1
 41
1
  0
VERTEX
  8
0
 10
275.353
 20
216.79
 30
0.0
 40
1
 41
1
  0
VERTEX
  8
0
 10
267.053
 20
218.686
 30
0.0
 40
1
 41
1
  0
VERTEX
  8
0
 10
260.396
 20
213.378
 30
0.0
 40
1
 41
1
  0
VERTEX
  8
0
 10
260.396
 20
204.867
 30
0.0
 40
1
 41
1
  0
SEQEND
 8
0
  0
POLYLINE
  8
0
 62
     0
 66
     1
 10
0
 20
0
 30
0.0
 40
72
 41
72
  0
VERTEX
  8
0
 10
273.319
 20
122.165
 30
0.0
 40
1
 41
1
  0
VERTEX
  8
0
 10
278.628
 20
115.507
 30
0.0
 40
1
 41
1
  0
VERTEX
  8
0
 10
276.732
 20
107.208
 30
0.0
 40
1
 41
1
  0
VERTEX
  8
0
 10
269.063
 20
103.513
 30
0.0
 40
1
 41
1
  0
VERTEX
  8
0
 10
261.394
 20
107.208
 30
0.0
 40
1
 41
1
  0
VERTEX
  8
0
 10
259.499
 20
115.507
 30
0.0
 40
1
 41
1
  0
VERTEX
  8
0
 10
264.808
 20
122.165
 30
0.0
 40
1
 41
1
  0
SEQEND
 8
0
  0
POLYLINE
  8
0
 62
     0
 66
     1
 10
0
 20
0
 30
0.0
 70
     1
 40
72
 41
72
  0
VERTEX
  8
0
 10
278.911
 20
246.121
 30
0.0
 40
1
 41
1
  0
VERTEX
  8
0
 10
272.254
 20
251.431
 30
0.0
 40
1
 41
1
  0
VERTEX
  8
0
 10
263.954
 20
249.536
 30
0.0
 40
1
 41
1
  0
VERTEX
  8
0
 10
260.261
 20
241.867
 30
0.0
 40
1
 41
1
  0
VERTEX
  8
0
 10
263.954
 20
234.197
 30
0.0
 40
1
 41
1
  0
VERTEX
  8
0
 10
272.254
 20
232.303
 30
0.0
 40
1
 41
1
  0
VERTEX
  8
0
 10
278.911
 20
237.61
 30
0.0
 40
1
 41
1
  0
VERTEX
  8
0
 10
278.911
 20
246.121
 30
0.0
 40
1
 41
1
  0
SEQEND
 8
0
  0
POLYLINE
  8
0
 62
     0
 66
     1
 10
0
 20
0
 30
0.0
 40
72
 41
72
  0
VERTEX
  8
0
 10
282.45
 20
175.564
 30
0.0
 40
1
 41
1
  0
VERTEX
  8
0
 10
278.756
 20
167.893
 30
0.0
 40
1
 41
1
  0
VERTEX
  8
0
 10
270.457
 20
166
 30
0.0
 40
1
 41
1
  0
VERTEX
  8
0
 10
263.799
 20
171.308
 30
0.0
 40
1
 41
1
  0
VERTEX
  8
0
 10
263.799
 20
179.821
 30
0.0
 40
1
 41
1
  0
VERTEX
  8
0
 10
270.457
 20
185.128
 30
0.0
 40
1
 41
1
  0
VERTEX
  8
0
 10
278.756
 20
183.233
 30
0.0
 40
1
 41
1
  0
VERTEX
  8
0
 10
283.894
 20
172.563
 30
0.0
 40
1
 41
1
  0
SEQEND
 8
0
  0
POLYLINE
  8
0
 62
     0
 66
     1
 10
0
 20
0
 30
0.0
 70
     1
 40
72
 41
72
  0
VERTEX
  8
0
 10
283.197
 20
30.0996
 30
0.0
 40
1
 41
1
  0
VERTEX
  8
0
 10
276.539
 20
35.4085
 30
0.0
 40
1
 41
1
  0
VERTEX
  8
0
 10
268.242
 20
33.5146
 30
0.0
 40
1
 41
1
  0
VERTEX
  8
0
 10
264.546
 20
25.8446
 30
0.0
 40
1
 41
1
  0
VERTEX
  8
0
 10
268.242
 20
18.1746
 30
0.0
 40
1
 41
1
  0
VERTEX
  8
0
 10
276.539
 20
16.2806
 30
0.0
 40
1
 41
1
  0
VERTEX
  8
0
 10
283.197
 20
21.5865
 30
0.0
 40
1
 41
1
  0
VERTEX
  8
0
 10
283.197
 20
30.0996
 30
0.0
 40
1
 41
1
  0
SEQEND
 8
0
  0
POLYLINE
  8
0
 62
     0
 66
     1
 10
0
 20
0
 30
0.0
 40
72
 41
72
  0
VERTEX
  8
0
 10
271.783
 20
51.9189
 30
0.0
 40
1
 41
1
  0
VERTEX
  8
0
 10
266.475
 20
58.5758
 30
0.0
 40
1
 41
1
  0
VERTEX
  8
0
 10
268.371
 20
66.8768
 30
0.0
 40
1
 41
1
  0
VERTEX
  8
0
 10
276.04
 20
70.5699
 30
0.0
 40
1
 41
1
  0
VERTEX
  8
0
 10
283.707
 20
66.8768
 30
0.0
 40
1
 41
1
  0
VERTEX
  8
0
 10
285.604
 20
58.5758
 30
0.0
 40
1
 41
1
  0
VERTEX
  8
0
 10
280.293
 20
51.9189
 30
0.0
 40
1
 41
1
  0
VERTEX
  8
0
 10
269.743
 20
51.9189
 30
0.0
 40
1
 41
1
  0
SEQEND
 8
0
  0
POLYLINE
  8
0
 62
     0
 66
     1
 10
0
 20
0
 30
0.0
 70
     1
 40
72
 41
72
  0
VERTEX
  8
0
 10
269.875
 20
79.9576
 30
0.0
 40
1
 41
1
  0
VERTEX
  8
0
 10
276.533
 20
74.6465
 30
0.0
 40
1
 41
1
  0
VERTEX
  8
0
 10
284.832
 20
76.5436
 30
0.0
 40
1
 41
1
  0
VERTEX
  8
0
 10
288.528
 20
84.2106
 30
0.0
 40
1
 41
1
  0
VERTEX
  8
0
 10
284.832
 20
91.8796
 30
0.0
 40
1
 41
1
  0
VERTEX
  8
0
 10
276.533
 20
93.7765
 30
0.0
 40
1
 41
1
  0
VERTEX
  8
0
 10
269.875
 20
88.4676
 30
0.0
 40
1
 41
1
  0
VERTEX
  8
0
 10
269.875
 20
79.9576
 30
0.0
 40
1
 41
1
  0
SEQEND
 8
0
  0
POLYLINE
  8
0
 62
     0
 66
     1
 10
0
 20
0
 30
0.0
 40
72
 41
72
  0
VERTEX
  8
0
 10
291.135
 20
204.383
 30
0.0
 40
1
 41
1
  0
VERTEX
  8
0
 10
281.728
 20
206.535
 30
0.0
 40
1
 41
1
  0
VERTEX
  8
0
 10
275.069
 20
201.228
 30
0.0
 40
1
 41
1
  0
VERTEX
  8
0
 10
275.069
 20
192.715
 30
0.0
 40
1
 41
1
  0
VERTEX
  8
0
 10
281.728
 20
187.404
 30
0.0
 40
1
 41
1
  0
VERTEX
  8
0
 10
292.194
 20
189.797
 30
0.0
 40
1
 41
1
  0
SEQEND
 8
0
  0
POLYLINE
  8
0
 62
     0
 66
     1
 10
0
 20
0
 30
0.0
 40
72
 41
72
  0
VERTEX
  8
0
 10
290.026
 20
204.638
 30
0.0
 40
1
 41
1
  0
VERTEX
  8
0
 10
293.719
 20
196.968
 30
0.0
 40
1
 41
1
  0
VERTEX
  8
0
 10
290.026
 20
189.301
 30
0.0
 40
1
 41
1
  0
SEQEND
 8
0
  0
POLYLINE
  8
0
 62
     0
 66
     1
 10
0
 20
0
 30
0.0
 70
     1
 40
72
 41
72
  0
VERTEX
  8
0
 10
283.431
 20
21.8783
 30
0.0
 40
1
 41
1
  0
VERTEX
  8
0
 10
278.119
 20
15.2203
 30
0.0
 40
1
 41
1
  0
VERTEX
  8
0
 10
280.017
 20
6.92231
 30
0.0
 40
1
 41
1
  0
VERTEX
  8
0
 10
287.683
 20
3.22726
 30
0.0
 40
1
 41
1
  0
VERTEX
  8
0
 10
295.353
 20
6.92231
 30
0.0
 40
1
 41
1
  0
VERTEX
  8
0
 10
297.25
 20
15.2203
 30
0.0
 40
1
 41
1
  0
VERTEX
  8
0
 10
291.943
 20
21.8783
 30
0.0
 40
1
 41
1
  0
VERTEX
  8
0
 10
283.431
 20
21.8783
 30
0.0
 40
1
 41
1
  0
SEQEND
 8
0
  0
POLYLINE
  8
0
 62
     0
 66
     1
 10
0
 20
0
 30
0.0
 70
     1
 40
72
 41
72
  0
VERTEX
  8
0
 10
292.235
 20
29.4404
 30
0.0
 40
1
 41
1
  0
VERTEX
  8
0
 10
297.546
 20
36.0985
 30
0.0
 40
1
 41
1
  0
VERTEX
  8
0
 10
295.649
 20
44.3965
 30
0.0
 40
1
 41
1
  0
VERTEX
  8
0
 10
287.982
 20
48.0915
 30
0.0
 40
1
 41
1
  0
VERTEX
  8
0
 10
280.313
 20
44.3965
 30
0.0
 40
1
 41
1
  0
VERTEX
  8
0
 10
278.415
 20
36.0985
 30
0.0
 40
1
 41
1
  0
VERTEX
  8
0
 10
283.724
 20
29.4404
 30
0.0
 40
1
 41
1
  0
VERTEX
  8
0
 10
292.235
 20
29.4404
 30
0.0
 40
1
 41
1
  0
SEQEND
 8
0
  0
POLYLINE
  8
0
 62
     0
 66
     1
 10
0
 20
0
 30
0.0
 70
     1
 40
72
 41
72
  0
VERTEX
  8
0
 10
283.697
 20
255.078
 30
0.0
 40
1
 41
1
  0
VERTEX
  8
0
 10
278.386
 20
248.421
 30
0.0
 40
1
 41
1
  0
VERTEX
  8
0
 10
280.283
 20
240.121
 30
0.0
 40
1
 41
1
  0
VERTEX
  8
0
 10
287.95
 20
236.426
 30
0.0
 40
1
 41
1
  0
VERTEX
  8
0
 10
295.619
 20
240.121
 30
0.0
 40
1
 41
1
  0
VERTEX
  8
0
 10
297.515
 20
248.421
 30
0.0
 40
1
 41
1
  0
VERTEX
  8
0
 10
292.207
 20
255.078
 30
0.0
 40
1
 41
1
  0
VERTEX
  8
0
 10
283.697
 20
255.078
 30
0.0
 40
1
 41
1
  0
SEQEND
 8
0
  0
POLYLINE
  8
0
 62
     0
 66
     1
 10
0
 20
0
 30
0.0
 40
72
 41
72
  0
VERTEX
  8
0
 10
291.135
 20
204.385
 30
0.0
 40
1
 41
1
  0
VERTEX
  8
0
 10
297.79
 20
209.693
 30
0.0
 40
1
 41
1
  0
VERTEX
  8
0
 10
297.79
 20
218.203
 30
0.0
 40
1
 41
1
  0
VERTEX
  8
0
 10
291.135
 20
223.514
 30
0.0
 40
1
 41
1
  0
VERTEX
  8
0
 10
282.835
 20
221.618
 30
0.0
 40
1
 41
1
  0
VERTEX
  8
0
 10
279.142
 20
213.951
 30
0.0
 40
1
 41
1
  0
VERTEX
  8
0
 10
282.835
 20
206.282
 30
0.0
 40
1
 41
1
  0
SEQEND
 8
0
  0
POLYLINE
  8
0
 62
     0
 66
     1
 10
0
 20
0
 30
0.0
 40
72
 41
72
  0
VERTEX
  8
0
 10
283.896
 20
172.564
 30
0.0
 40
1
 41
1
  0
VERTEX
  8
0
 10
292.194
 20
170.668
 30
0.0
 40
1
 41
1
  0
VERTEX
  8
0
 10
298.853
 20
175.976
 30
0.0
 40
1
 41
1
  0
VERTEX
  8
0
 10
298.853
 20
184.486
 30
0.0
 40
1
 41
1
  0
VERTEX
  8
0
 10
291.407
 20
190.425
 30
0.0
 40
1
 41
1
  0
SEQEND
 8
0
  0
POLYLINE
  8
0
 62
     0
 66
     1
 10
0
 20
0
 30
0.0
 70
     1
 40
72
 41
72
  0
VERTEX
  8
0
 10
278.907
 20
75.1893
 30
0.0
 40
1
 41
1
  0
VERTEX
  8
0
 10
291.213
 20
53.8772
 30
0.0
 40
1
 41
1
  0
VERTEX
  8
0
 10
303.518
 20
75.1893
 30
0.0
 40
1
 41
1
  0
VERTEX
  8
0
 10
278.907
 20
75.1893
 30
0.0
 40
1
 41
1
  0
SEQEND
 8
0
  0
POLYLINE
  8
0
 62
     0
 66
     1
 10
0
 20
0
 30
0.0
 70
     1
 40
72
 41
72
  0
VERTEX
  8
0
 10
301.037
 20
141.05
 30
0.0
 40
1
 41
1
  0
VERTEX
  8
0
 10
279.726
 20
128.744
 30
0.0
 40
1
 41
1
  0
VERTEX
  8
0
 10
301.037
 20
116.44
 30
0.0
 40
1
 41
1
  0
VERTEX
  8
0
 10
301.037
 20
141.05
 30
0.0
 40
1
 41
1
  0
SEQEND
 8
0
  0
POLYLINE
  8
0
 62
     0
 66
     1
 10
0
 20
0
 30
0.0
 70
     1
 40
72
 41
72
  0
VERTEX
  8
0
 10
302.353
 20
106.374
 30
0.0
 40
1
 41
1
  0
VERTEX
  8
0
 10
281.042
 20
94.0679
 30
0.0
 40
1
 41
1
  0
VERTEX
  8
0
 10
302.353
 20
81.7639
 30
0.0
 40
1
 41
1
  0
VERTEX
  8
0
 10
302.353
 20
106.374
 30
0.0
 40
1
 41
1
  0
SEQEND
 8
0
  0
POLYLINE
  8
0
 62
     0
 66
     1
 10
0
 20
0
 30
0.0
 70
     1
 40
72
 41
72
  0
VERTEX
  8
0
 10
287.269
 20
236.425
 30
0.0
 40
1
 41
1
  0
VERTEX
  8
0
 10
299.575
 20
215.115
 30
0.0
 40
1
 41
1
  0
VERTEX
  8
0
 10
311.879
 20
236.425
 30
0.0
 40
1
 41
1
  0
VERTEX
  8
0
 10
287.269
 20
236.425
 30
0.0
 40
1
 41
1
  0
SEQEND
 8
0
  0
POLYLINE
  8
0
 62
     0
 66
     1
 10
0
 20
0
 30
0.0
 70
     1
 40
72
 41
72
  0
VERTEX
  8
0
 10
287.531
 20
170.668
 30
0.0
 40
1
 41
1
  0
VERTEX
  8
0
 10
299.836
 20
149.357
 30
0.0
 40
1
 41
1
  0
VERTEX
  8
0
 10
312.14
 20
170.668
 30
0.0
 40
1
 41
1
  0
VERTEX
  8
0
 10
287.531
 20
170.668
 30
0.0
 40
1
 41
1
  0
SEQEND
 8
0
  0
POLYLINE
  8
0
 62
     0
 66
     1
 10
0
 20
0
 30
0.0
 70
     1
 40
72
 41
72
  0
VERTEX
  8
0
 10
217.226
 20
253.642
 30
0.0
 40
1
 41
1
  0
VERTEX
  8
0
 10
236.699
 20
253.642
 30
0.0
 40
1
 41
1
  0
VERTEX
  8
0
 10
236.699
 20
240.415
 30
0.0
 40
1
 41
1
  0
VERTEX
  8
0
 10
217.226
 20
240.415
 30
0.0
 40
1
 41
1
  0
VERTEX
  8
0
 10
217.226
 20
253.642
 30
0.0
 40
1
 41
1
  0
SEQEND
 8
0
  0
POLYLINE
  8
0
 62
     0
 66
     1
 10
0
 20
0
 30
0.0
 70
     1
 40
72
 41
72
  0
VERTEX
  8
0
 10
293.721
 20
206.446
 30
0.0
 40
1
 41
1
  0
VERTEX
  8
0
 10
313.193
 20
206.446
 30
0.0
 40
1
 41
1
  0
VERTEX
  8
0
 10
313.193
 20
193.219
 30
0.0
 40
1
 41
1
  0
VERTEX
  8
0
 10
293.721
 20
193.219
 30
0.0
 40
1
 41
1
  0
VERTEX
  8
0
 10
293.721
 20
206.446
 30
0.0
 40
1
 41
1
  0
SEQEND
 8
0
  0
POLYLINE
  8
0
 62
     0
 66
     1
 10
0
 20
0
 30
0.0
 70
     1
 40
72
 41
72
  0
VERTEX
  8
0
 10
293.871
 20
58.481
 30
0.0
 40
1
 41
1
  0
VERTEX
  8
0
 10
313.343
 20
58.481
 30
0.0
 40
1
 41
1
  0
VERTEX
  8
0
 10
313.343
 20
45.254
 30
0.0
 40
1
 41
1
  0
VERTEX
  8
0
 10
293.871
 20
45.254
 30
0.0
 40
1
 41
1
  0
VERTEX
  8
0
 10
293.871
 20
58.481
 30
0.0
 40
1
 41
1
  0
SEQEND
 8
0
  0
POLYLINE
  8
0
 62
     0
 66
     1
 10
0
 20
0
 30
0.0
 70
     1
 40
72
 41
72
  0
VERTEX
  8
0
 10
92.4126
 20
5.73514
 30
0.0
 40
1
 41
1
  0
VERTEX
  8
0
 10
133.429
 20
5.73514
 30
0.0
 40
1
 41
1
  0
VERTEX
  8
0
 10
133.429
 20
0.651639
 30
0.0
 40
1
 41
1
  0
VERTEX
  8
0
 10
92.4126
 20
0.651639
 30
0.0
 40
1
 41
1
  0
VERTEX
  8
0
 10
92.4126
 20
5.73514
 30
0.0
 40
1
 41
1
  0
SEQEND
 8
0
  0
POLYLINE
  8
0
 62
     0
 66
     1
 10
0
 20
0
 30
0.0
 70
     1
 40
72
 41
72
  0
VERTEX
  8
0
 10
0.769422
 20
113.446
 30
0.0
 40
1
 41
1
  0
VERTEX
  8
0
 10
13.5224
 20
113.446
 30
0.0
 40
1
 41
1
  0
VERTEX
  8
0
 10
13.5224
 20
100.22
 30
0.0
 40
1
 41
1
  0
VERTEX
  8
0
 10
0.769422
 20
100.22
 30
0.0
 40
1
 41
1
  0
VERTEX
  8
0
 10
0.769422
 20
113.446
 30
0.0
 40
1
 41
1
  0
SEQEND
 8
0
  0
POLYLINE
  8
0
 62
     0
 66
     1
 10
0
 20
0
 30
0.0
 40
72
 41
72
  0
VERTEX
  8
0
 10
50.356
 20
188.854
 30
0.0
 40
1
 41
1
  0
VERTEX
  8
0
 10
50.356
 20
175.631
 30
0.0
 40
1
 41
1
  0
VERTEX
  8
0
 10
63.109
 20
175.631
 30
0.0
 40
1
 41
1
  0
VERTEX
  8
0
 10
63.109
 20
188.854
 30
0.0
 40
1
 41
1
  0
SEQEND
 8
0
  0
POLYLINE
  8
0
 62
     0
 66
     1
 10
0
 20
0
 30
0.0
 70
     1
 40
72
 41
72
  0
VERTEX
  8
0
 10
111.53
 20
255.078
 30
0.0
 40
1
 41
1
  0
VERTEX
  8
0
 10
124.283
 20
255.078
 30
0.0
 40
1
 41
1
  0
VERTEX
  8
0
 10
124.283
 20
241.853
 30
0.0
 40
1
 41
1
  0
VERTEX
  8
0
 10
111.53
 20
241.853
 30
0.0
 40
1
 41
1
  0
VERTEX
  8
0
 10
111.53
 20
255.078
 30
0.0
 40
1
 41
1
  0
SEQEND
 8
0
  0
POLYLINE
  8
0
 62
     0
 66
     1
 10
0
 20
0
 30
0.0
 40
72
 41
72
  0
VERTEX
  8
0
 10
67.4093
 20
255.078
 30
0.0
 40
1
 41
1
  0
VERTEX
  8
0
 10
72.4928
 20
255.078
 30
0.0
 40
1
 41
1
  0
VERTEX
  8
0
 10
72.4928
 20
227.117
 30
0.0
 40
1
 41
1
  0
VERTEX
  8
0
 10
67.4093
 20
227.117
 30
0.0
 40
1
 41
1
  0
SEQEND
 8
0
  0
POLYLINE
  8
0
 62
     0
 66
     1
 10
0
 20
0
 30
0.0
 70
     1
 40
72
 41
72
  0
VERTEX
  8
0
 10
98.8886
 20
162.418
 30
0.0
 40
1
 41
1
  0
VERTEX
  8
0
 10
126.849
 20
162.418
 30
0.0
 40
1
 41
1
  0
VERTEX
  8
0
 10
126.849
 20
157.335
 30
0.0
 40
1
 41
1
  0
VERTEX
  8
0
 10
98.8886
 20
157.335
 30
0.0
 40
1
 41
1
  0
VERTEX
  8
0
 10
98.8886
 20
162.418
 30
0.0
 40
1
 41
1
  0
SEQEND
 8
0
  0
POLYLINE
  8
0
 62
     0
 66
     1
 10
0
 20
0
 30
0.0
 70
     1
 40
72
 41
72
  0
VERTEX
  8
0
 10
38.7579
 20
241.364
 30
0.0
 40
1
 41
1
  0
VERTEX
  8
0
 10
38.7579
 20
255.078
 30
0.0
 40
1
 41
1
  0
VERTEX
  8
0
 10
24.5018
 20
254.69
 30
0.0
 40
1
 41
1
  0
VERTEX
  8
0
 10
25.5899
 20
249.681
 30
0.0
 40
1
 41
1
  0
VERTEX
  8
0
 10
38.7579
 20
241.364
 30
0.0
 40
1
 41
1
  0
SEQEND
 8
0
  0
POLYLINE
  8
0
 62
     0
 66
     1
 10
0
 20
0
 30
0.0
 70
     1
 40
72
 41
72
  0
VERTEX
  8
0
 10
4.67611
 20
138.829
 30
0.0
 40
1
 41
1
  0
VERTEX
  8
0
 10
18.3892
 20
138.829
 30
0.0
 40
1
 41
1
  0
VERTEX
  8
0
 10
18.0021
 20
153.085
 30
0.0
 40
1
 41
1
  0
VERTEX
  8
0
 10
12.9921
 20
151.997
 30
0.0
 40
1
 41
1
  0
VERTEX
  8
0
 10
4.67611
 20
138.829
 30
0.0
 40
1
 41
1
  0
SEQEND
 8
0
  0
POLYLINE
  8
0
 62
     0
 66
     1
 10
0
 20
0
 30
0.0
 70
     1
 40
72
 41
72
  0
VERTEX
  8
0
 10
24.1568
 20
0.651367
 30
0.0
 40
1
 41
1
  0
VERTEX
  8
0
 10
37.8699
 20
0.651367
 30
0.0
 40
1
 41
1
  0
VERTEX
  8
0
 10
37.4829
 20
14.9064
 30
0.0
 40
1
 41
1
  0
VERTEX
  8
0
 10
32.4728
 20
13.8194
 30
0.0
 40
1
 41
1
  0
VERTEX
  8
0
 10
24.1568
 20
0.651367
 30
0.0
 40
1
 41
1
  0
SEQEND
 8
0
  0
POLYLINE
  8
0
 62
     0
 66
     1
 10
0
 20
0
 30
0.0
 70
     1
 40
72
 41
72
  0
VERTEX
  8
0
 10
14.4826
 20
255.078
 30
0.0
 40
1
 41
1
  0
VERTEX
  8
0
 10
0.76964
 20
255.078
 30
0.0
 40
1
 41
1
  0
VERTEX
  8
0
 10
1.15663
 20
240.822
 30
0.0
 40
1
 41
1
  0
VERTEX
  8
0
 10
6.16564
 20
241.91
 30
0.0
 40
1
 41
1
  0
VERTEX
  8
0
 10
14.4826
 20
255.078
 30
0.0
 40
1
 41
1
  0
SEQEND
 8
0
  0
POLYLINE
  8
0
 62
     0
 66
     1
 10
0
 20
0
 30
0.0
 70
     1
 40
72
 41
72
  0
VERTEX
  8
0
 10
179.731
 20
0.651639
 30
0.0
 40
1
 41
1
  0
VERTEX
  8
0
 10
193.444
 20
0.651639
 30
0.0
 40
1
 41
1
  0
VERTEX
  8
0
 10
193.057
 20
14.9061
 30
0.0
 40
1
 41
1
  0
VERTEX
  8
0
 10
188.047
 20
13.8194
 30
0.0
 40
1
 41
1
  0
VERTEX
  8
0
 10
179.731
 20
0.651639
 30
0.0
 40
1
 41
1
  0
SEQEND
 8
0
  0
POLYLINE
  8
0
 62
     0
 66
     1
 10
0
 20
0
 30
0.0
 70
     1
 40
72
 41
72
  0
VERTEX
  8
0
 10
159.744
 20
90.6818
 30
0.0
 40
1
 41
1
  0
VERTEX
  8
0
 10
159.744
 20
104.396
 30
0.0
 40
1
 41
1
  0
VERTEX
  8
0
 10
145.489
 20
104.008
 30
0.0
 40
1
 41
1
  0
VERTEX
  8
0
 10
146.576
 20
98.9988
 30
0.0
 40
1
 41
1
  0
VERTEX
  8
0
 10
159.744
 20
90.6818
 30
0.0
 40
1
 41
1
  0
SEQEND
 8
0
  0
POLYLINE
  8
0
 62
     0
 66
     1
 10
0
 20
0
 30
0.0
 70
     1
 40
72
 41
72
  0
VERTEX
  8
0
 10
188.693
 20
157.21
 30
0.0
 40
1
 41
1
  0
VERTEX
  8
0
 10
188.693
 20
170.924
 30
0.0
 40
1
 41
1
  0
VERTEX
  8
0
 10
172.26
 20
168.133
 30
0.0
 40
1
 41
1
  0
VERTEX
  8
0
 10
175.525
 20
165.522
 30
0.0
 40
1
 41
1
  0
VERTEX
  8
0
 10
188.693
 20
157.21
 30
0.0
 40
1
 41
1
  0
SEQEND
 8
0
  0
POLYLINE
  8
0
 62
     0
 66
     1
 10
0
 20
0
 30
0.0
 70
     1
 40
72
 41
72
  0
VERTEX
  8
0
 10
201.69
 20
118.737
 30
0.0
 40
1
 41
1
  0
VERTEX
  8
0
 10
201.69
 20
132.45
 30
0.0
 40
1
 41
1
  0
VERTEX
  8
0
 10
185.258
 20
129.66
 30
0.0
 40
1
 41
1
  0
VERTEX
  8
0
 10
188.522
 20
127.049
 30
0.0
 40
1
 41
1
  0
VERTEX
  8
0
 10
201.69
 20
118.737
 30
0.0
 40
1
 41
1
  0
SEQEND
 8
0
  0
POLYLINE
  8
0
 62
     0
 66
     1
 10
0
 20
0
 30
0.0
 70
     1
 40
72
 41
72
  0
VERTEX
  8
0
 10
188.968
 20
84.185
 30
0.0
 40
1
 41
1
  0
VERTEX
  8
0
 10
202.681
 20
84.185
 30
0.0
 40
1
 41
1
  0
VERTEX
  8
0
 10
199.89
 20
100.616
 30
0.0
 40
1
 41
1
  0
VERTEX
  8
0
 10
197.281
 20
97.3529
 30
0.0
 40
1
 41
1
  0
VERTEX
  8
0
 10
188.968
 20
84.185
 30
0.0
 40
1
 41
1
  0
SEQEND
 8
0
  0
POLYLINE
  8
0
 62
     0
 66
     1
 10
0
 20
0
 30
0.0
 70
     1
 40
72
 41
72
  0
VERTEX
  8
0
 10
217.281
 20
182.461
 30
0.0
 40
1
 41
1
  0
VERTEX
  8
0
 10
217.281
 20
196.174
 30
0.0
 40
1
 41
1
  0
VERTEX
  8
0
 10
200.849
 20
193.389
 30
0.0
 40
1
 41
1
  0
VERTEX
  8
0
 10
204.111
 20
190.779
 30
0.0
 40
1
 41
1
  0
VERTEX
  8
0
 10
217.281
 20
182.461
 30
0.0
 40
1
 41
1
  0
SEQEND
 8
0
  0
POLYLINE
  8
0
 62
     0
 66
     1
 10
0
 20
0
 30
0.0
 70
     1
 40
72
 41
72
  0
VERTEX
  8
0
 10
0.769151
 20
43.3129
 30
0.0
 40
1
 41
1
  0
VERTEX
  8
0
 10
0.769151
 20
29.601
 30
0.0
 40
1
 41
1
  0
VERTEX
  8
0
 10
17.2001
 20
32.3899
 30
0.0
 40
1
 41
1
  0
VERTEX
  8
0
 10
13.9372
 20
35.0008
 30
0.0
 40
1
 41
1
  0
VERTEX
  8
0
 10
0.769151
 20
43.3129
 30
0.0
 40
1
 41
1
  0
SEQEND
 8
0
  0
POLYLINE
  8
0
 62
     0
 66
     1
 10
0
 20
0
 30
0.0
 40
72
 41
72
  0
VERTEX
  8
0
 10
228.317
 20
61.5864
 30
0.0
 40
1
 41
1
  0
VERTEX
  8
0
 10
225.526
 20
78.0183
 30
0.0
 40
1
 41
1
  0
VERTEX
  8
0
 10
222.917
 20
74.7544
 30
0.0
 40
1
 41
1
  0
VERTEX
  8
0
 10
214.604
 20
61.5864
 30
0.0
 40
1
 41
1
  0
SEQEND
 8
0
  0
POLYLINE
  8
0
 62
     0
 66
     1
 10
0
 20
0
 30
0.0
 70
     1
 40
72
 41
72
  0
VERTEX
  8
0
 10
236.201
 20
0.651856
 30
0.0
 40
1
 41
1
  0
VERTEX
  8
0
 10
249.914
 20
0.651856
 30
0.0
 40
1
 41
1
  0
VERTEX
  8
0
 10
247.124
 20
17.0828
 30
0.0
 40
1
 41
1
  0
VERTEX
  8
0
 10
244.514
 20
13.8199
 30
0.0
 40
1
 41
1
  0
VERTEX
  8
0
 10
236.201
 20
0.651856
 30
0.0
 40
1
 41
1
  0
SEQEND
 8
0
  0
POLYLINE
  8
0
 62
     0
 66
     1
 10
0
 20
0
 30
0.0
 70
     1
 40
72
 41
72
  0
VERTEX
  8
0
 10
249.149
 20
108.392
 30
0.0
 40
1
 41
1
  0
VERTEX
  8
0
 10
249.149
 20
122.104
 30
0.0
 40
1
 41
1
  0
VERTEX
  8
0
 10
232.717
 20
119.319
 30
0.0
 40
1
 41
1
  0
VERTEX
  8
0
 10
235.979
 20
116.709
 30
0.0
 40
1
 41
1
  0
VERTEX
  8
0
 10
249.149
 20
108.392
 30
0.0
 40
1
 41
1
  0
SEQEND
 8
0
  0
POLYLINE
  8
0
 62
     0
 66
     1
 10
0
 20
0
 30
0.0
 70
     1
 40
72
 41
72
  0
VERTEX
  8
0
 10
299.682
 20
16.9906
 30
0.0
 40
1
 41
1
  0
VERTEX
  8
0
 10
299.682
 20
30.7025
 30
0.0
 40
1
 41
1
  0
VERTEX
  8
0
 10
283.249
 20
27.9165
 30
0.0
 40
1
 41
1
  0
VERTEX
  8
0
 10
286.513
 20
25.3075
 30
0.0
 40
1
 41
1
  0
VERTEX
  8
0
 10
299.682
 20
16.9906
 30
0.0
 40
1
 41
1
  0
SEQEND
 8
0
  0
POLYLINE
  8
0
 62
     0
 66
     1
 10
0
 20
0
 30
0.0
 70
     1
 40
72
 41
72
  0
VERTEX
  8
0
 10
307.682
 20
136.974
 30
0.0
 40
1
 41
1
  0
VERTEX
  8
0
 10
307.682
 20
150.688
 30
0.0
 40
1
 41
1
  0
VERTEX
  8
0
 10
291.25
 20
147.901
 30
0.0
 40
1
 41
1
  0
VERTEX
  8
0
 10
294.513
 20
145.292
 30
0.0
 40
1
 41
1
  0
VERTEX
  8
0
 10
307.682
 20
136.974
 30
0.0
 40
1
 41
1
  0
SEQEND
 8
0
  0
POLYLINE
  8
0
 62
     0
 66
     1
 10
0
 20
0
 30
0.0
 70
     1
 40
72
 41
72
  0
VERTEX
  8
0
 10
104.362
 20
109.105
 30
0.0
 40
1
 41
1
  0
VERTEX
  8
0
 10
90.6496
 20
109.105
 30
0.0
 40
1
 41
1
  0
VERTEX
  8
0
 10
93.4396
 20
92.6737
 30
0.0
 40
1
 41
1
  0
VERTEX
  8
0
 10
96.0496
 20
95.9376
 30
0.0
 40
1
 41
1
  0
VERTEX
  8
0
 10
104.362
 20
109.105
 30
0.0
 40
1
 41
1
  0
SEQEND
 8
0
  0
POLYLINE
  8
0
 62
     0
 66
     1
 10
0
 20
0
 30
0.0
 40
72
 41
72
  0
VERTEX
  8
0
 10
252.078
 20
193.383
 30
0.0
 40
1
 41
1
  0
VERTEX
  8
0
 10
249.289
 20
209.815
 30
0.0
 40
1
 41
1
  0
VERTEX
  8
0
 10
246.678
 20
206.551
 30
0.0
 40
1
 41
1
  0
VERTEX
  8
0
 10
238.365
 20
193.383
 30
0.0
 40
1
 41
1
  0
SEQEND
 8
0
  0
POLYLINE
  8
0
 62
     0
 66
     1
 10
0
 20
0
 30
0.0
 70
     1
 40
72
 41
72
  0
VERTEX
  8
0
 10
202.404
 20
168.59
 30
0.0
 40
1
 41
1
  0
VERTEX
  8
0
 10
188.692
 20
168.59
 30
0.0
 40
1
 41
1
  0
VERTEX
  8
0
 10
191.482
 20
152.16
 30
0.0
 40
1
 41
1
  0
VERTEX
  8
0
 10
194.092
 20
155.424
 30
0.0
 40
1
 41
1
  0
VERTEX
  8
0
 10
202.404
 20
168.59
 30
0.0
 40
1
 41
1
  0
SEQEND
 8
0
  0
POLYLINE
  8
0
 62
     0
 66
     1
 10
0
 20
0
 30
0.0
 70
     1
 40
72
 41
72
  0
VERTEX
  8
0
 10
310.097
 20
255.078
 30
0.0
 40
1
 41
1
  0
VERTEX
  8
0
 10
296.385
 20
255.078
 30
0.0
 40
1
 41
1
  0
VERTEX
  8
0
 10
299.175
 20
238.647
 30
0.0
 40
1
 41
1
  0
VERTEX
  8
0
 10
301.785
 20
241.911
 30
0.0
 40
1
 41
1
  0
VERTEX
  8
0
 10
310.097
 20
255.078
 30
0.0
 40
1
 41
1
  0
SEQEND
 8
0
  0
POLYLINE
  8
0
 62
     0
 66
     1
 10
0
 20
0
 30
0.0
 40
72
 41
72
  0
VERTEX
  8
0
 10
291.41
 20
190.429
 30
0.0
 40
1
 41
1
  0
VERTEX
  8
0
 10
307.84
 20
193.218
 30
0.0
 40
1
 41
1
  0
VERTEX
  8
0
 10
307.84
 20
179.507
 30
0.0
 40
1
 41
1
  0
VERTEX
  8
0
 10
294.674
 20
187.819
 30
0.0
 40
1
 41
1
  0
SEQEND
 8
0
  0
POLYLINE
  8
0
 62
     0
 66
     1
 10
0
 20
0
 30
0.0
 70
     1
 40
72
 41
72
  0
VERTEX
  8
0
 10
60.1064
 20
128.141
 30
0.0
 40
1
 41
1
  0
VERTEX
  8
0
 10
65.0665
 20
132.371
 30
0.0
 40
1
 41
1
  0
VERTEX
  8
0
 10
63.8804
 20
138.779
 30
0.0
 40
1
 41
1
  0
VERTEX
  8
0
 10
57.7385
 20
140.96
 30
0.0
 40
1
 41
1
  0
VERTEX
  8
0
 10
52.7785
 20
136.727
 30
0.0
 40
1
 41
1
  0
VERTEX
  8
0
 10
53.9614
 20
130.318
 30
0.0
 40
1
 41
1
  0
VERTEX
  8
0
 10
60.1064
 20
128.141
 30
0.0
 40
1
 41
1
  0
SEQEND
 8
0
  0
POLYLINE
  8
0
 62
     0
 66
     1
 10
0
 20
0
 30
0.0
 70
     1
 40
72
 41
72
  0
VERTEX
  8
0
 10
209.79
 20
185.487
 30
0.0
 40
1
 41
1
  0
VERTEX
  8
0
 10
204.829
 20
181.257
 30
0.0
 40
1
 41
1
  0
VERTEX
  8
0
 10
206.014
 20
174.85
 30
0.0
 40
1
 41
1
  0
VERTEX
  8
0
 10
212.158
 20
172.668
 30
0.0
 40
1
 41
1
  0
VERTEX
  8
0
 10
217.118
 20
176.901
 30
0.0
 40
1
 41
1
  0
VERTEX
  8
0
 10
215.936
 20
183.31
 30
0.0
 40
1
 41
1
  0
VERTEX
  8
0
 10
209.79
 20
185.487
 30
0.0
 40
1
 41
1
  0
SEQEND
 8
0
  0
POLYLINE
  8
0
 62
     0
 66
     1
 10
0
 20
0
 30
0.0
 70
     1
 40
72
 41
72
  0
VERTEX
  8
0
 10
133.078
 20
54.1025
 30
0.0
 40
1
 41
1
  0
VERTEX
  8
0
 10
128.849
 20
59.0615
 30
0.0
 40
1
 41
1
  0
VERTEX
  8
0
 10
122.442
 20
57.8775
 30
0.0
 40
1
 41
1
  0
VERTEX
  8
0
 10
120.26
 20
51.7336
 30
0.0
 40
1
 41
1
  0
VERTEX
  8
0
 10
124.493
 20
46.7746
 30
0.0
 40
1
 41
1
  0
VERTEX
  8
0
 10
130.902
 20
47.9565
 30
0.0
 40
1
 41
1
  0
VERTEX
  8
0
 10
133.078
 20
54.1025
 30
0.0
 40
1
 41
1
  0
SEQEND
 8
0
  0
POLYLINE
  8
0
 62
     0
 66
     1
 10
0
 20
0
 30
0.0
 70
     1
 40
72
 41
72
  0
VERTEX
  8
0
 10
300.843
 20
13.4693
 30
0.0
 40
1
 41
1
  0
VERTEX
  8
0
 10
295.883
 20
9.24035
 30
0.0
 40
1
 41
1
  0
VERTEX
  8
0
 10
297.069
 20
2.83236
 30
0.0
 40
1
 41
1
  0
VERTEX
  8
0
 10
303.213
 20
0.651367
 30
0.0
 40
1
 41
1
  0
VERTEX
  8
0
 10
308.171
 20
4.88336
 30
0.0
 40
1
 41
1
  0
VERTEX
  8
0
 10
306.987
 20
11.2934
 30
0.0
 40
1
 41
1
  0
VERTEX
  8
0
 10
300.843
 20
13.4693
 30
0.0
 40
1
 41
1
  0
SEQEND
 8
0
  0
POLYLINE
  8
0
 62
     0
 66
     1
 10
0
 20
0
 30
0.0
 70
     1
 40
72
 41
72
  0
VERTEX
  8
0
 10
309.64
 20
36.4229
 30
0.0
 40
1
 41
1
  0
VERTEX
  8
0
 10
305.408
 20
41.3818
 30
0.0
 40
1
 41
1
  0
VERTEX
  8
0
 10
299.001
 20
40.1968
 30
0.0
 40
1
 41
1
  0
VERTEX
  8
0
 10
296.821
 20
34.0549
 30
0.0
 40
1
 41
1
  0
VERTEX
  8
0
 10
301.054
 20
29.0949
 30
0.0
 40
1
 41
1
  0
VERTEX
  8
0
 10
307.463
 20
30.2778
 30
0.0
 40
1
 41
1
  0
VERTEX
  8
0
 10
309.64
 20
36.4229
 30
0.0
 40
1
 41
1
  0
SEQEND
 8
0
  0
POLYLINE
  8
0
 62
     0
 66
     1
 10
0
 20
0
 30
0.0
 70
     1
 40
72
 41
72
  0
VERTEX
  8
0
 10
298.1
 20
63.4418
 30
0.0
 40
1
 41
1
  0
VERTEX
  8
0
 10
302.331
 20
58.4808
 30
0.0
 40
1
 41
1
  0
VERTEX
  8
0
 10
308.74
 20
59.6607
 30
0.0
 40
1
 41
1
  0
VERTEX
  8
0
 10
310.919
 20
65.8068
 30
0.0
 40
1
 41
1
  0
VERTEX
  8
0
 10
306.689
 20
70.7668
 30
0.0
 40
1
 41
1
  0
VERTEX
  8
0
 10
300.279
 20
69.5807
 30
0.0
 40
1
 41
1
  0
VERTEX
  8
0
 10
298.1
 20
63.4418
 30
0.0
 40
1
 41
1
  0
SEQEND
 8
0
  0
POLYLINE
  8
0
 62
     0
 66
     1
 10
0
 20
0
 30
0.0
 70
     1
 40
72
 41
72
  0
VERTEX
  8
0
 10
305.376
 20
105.304
 30
0.0
 40
1
 41
1
  0
VERTEX
  8
0
 10
310.336
 20
109.533
 30
0.0
 40
1
 41
1
  0
VERTEX
  8
0
 10
309.15
 20
115.94
 30
0.0
 40
1
 41
1
  0
VERTEX
  8
0
 10
303.008
 20
118.121
 30
0.0
 40
1
 41
1
  0
VERTEX
  8
0
 10
298.049
 20
113.89
 30
0.0
 40
1
 41
1
  0
VERTEX
  8
0
 10
299.231
 20
107.479
 30
0.0
 40
1
 41
1
  0
VERTEX
  8
0
 10
305.376
 20
105.304
 30
0.0
 40
1
 41
1
  0
SEQEND
 8
0
  0
POLYLINE
  8
0
 62
     0
 66
     1
 10
0
 20
0
 30
0.0
 70
     1
 40
72
 41
72
  0
VERTEX
  8
0
 10
298.804
 20
211.407
 30
0.0
 40
1
 41
1
  0
VERTEX
  8
0
 10
303.033
 20
206.447
 30
0.0
 40
1
 41
1
  0
VERTEX
  8
0
 10
309.44
 20
207.632
 30
0.0
 40
1
 41
1
  0
VERTEX
  8
0
 10
311.622
 20
213.775
 30
0.0
 40
1
 41
1
  0
VERTEX
  8
0
 10
307.39
 20
218.735
 30
0.0
 40
1
 41
1
  0
VERTEX
  8
0
 10
300.981
 20
217.551
 30
0.0
 40
1
 41
1
  0
VERTEX
  8
0
 10
298.804
 20
211.407
 30
0.0
 40
1
 41
1
  0
SEQEND
 8
0
  0
POLYLINE
  8
0
 62
     0
 66
     1
 10
0
 20
0
 30
0.0
 70
     1
 40
72
 41
72
  0
VERTEX
  8
0
 10
304.642
 20
29.7565
 30
0.0
 40
1
 41
1
  0
VERTEX
  8
0
 10
299.681
 20
25.5275
 30
0.0
 40
1
 41
1
  0
VERTEX
  8
0
 10
300.868
 20
19.1206
 30
0.0
 40
1
 41
1
  0
VERTEX
  8
0
 10
307.01
 20
16.9396
 30
0.0
 40
1
 41
1
  0
VERTEX
  8
0
 10
311.969
 20
21.1717
 30
0.0
 40
1
 41
1
  0
VERTEX
  8
0
 10
310.787
 20
27.5817
 30
0.0
 40
1
 41
1
  0
VERTEX
  8
0
 10
304.642
 20
29.7565
 30
0.0
 40
1
 41
1
  0
SEQEND
 8
0
  0
POLYLINE
  8
0
 62
     0
 66
     1
 10
0
 20
0
 30
0.0
 70
     1
 40
72
 41
72
  0
VERTEX
  8
0
 10
308.365
 20
124.754
 30
0.0
 40
1
 41
1
  0
VERTEX
  8
0
 10
313.325
 20
128.984
 30
0.0
 40
1
 41
1
  0
VERTEX
  8
0
 10
312.14
 20
135.391
 30
0.0
 40
1
 41
1
  0
VERTEX
  8
0
 10
305.997
 20
137.572
 30
0.0
 40
1
 41
1
  0
VERTEX
  8
0
 10
301.039
 20
133.341
 30
0.0
 40
1
 41
1
  0
VERTEX
  8
0
 10
302.221
 20
126.932
 30
0.0
 40
1
 41
1
  0
VERTEX
  8
0
 10
308.365
 20
124.754
 30
0.0
 40
1
 41
1
  0
SEQEND
 8
0
  0
POLYLINE
  8
0
 62
     0
 66
     1
 10
0
 20
0
 30
0.0
 70
     1
 40
72
 41
72
  0
VERTEX
  8
0
 10
313.864
 20
80.4529
 30
0.0
 40
1
 41
1
  0
VERTEX
  8
0
 10
309.635
 20
85.4119
 30
0.0
 40
1
 41
1
  0
VERTEX
  8
0
 10
303.226
 20
84.226
 30
0.0
 40
1
 41
1
  0
VERTEX
  8
0
 10
301.047
 20
78.085
 30
0.0
 40
1
 41
1
  0
VERTEX
  8
0
 10
305.278
 20
73.124
 30
0.0
 40
1
 41
1
  0
VERTEX
  8
0
 10
311.688
 20
74.3069
 30
0.0
 40
1
 41
1
  0
VERTEX
  8
0
 10
313.864
 20
80.4529
 30
0.0
 40
1
 41
1
  0
SEQEND
 8
0
  0
POLYLINE
  8
0
 62
     0
 66
     1
 10
0
 20
0
 30
0.0
 70
     1
 40
72
 41
72
  0
VERTEX
  8
0
 10
302.353
 20
99.0022
 30
0.0
 40
1
 41
1
  0
VERTEX
  8
0
 10
306.583
 20
94.0432
 30
0.0
 40
1
 41
1
  0
VERTEX
  8
0
 10
312.99
 20
95.2282
 30
0.0
 40
1
 41
1
  0
VERTEX
  8
0
 10
315.172
 20
101.37
 30
0.0
 40
1
 41
1
  0
VERTEX
  8
0
 10
310.939
 20
106.33
 30
0.0
 40
1
 41
1
  0
VERTEX
  8
0
 10
304.529
 20
105.147
 30
0.0
 40
1
 41
1
  0
VERTEX
  8
0
 10
302.353
 20
99.0022
 30
0.0
 40
1
 41
1
  0
SEQEND
 8
0
  0
POLYLINE
  8
0
 62
     0
 66
     1
 10
0
 20
0
 30
0.0
 70
     1
 40
72
 41
72
  0
VERTEX
  8
0
 10
308.703
 20
249.244
 30
0.0
 40
1
 41
1
  0
VERTEX
  8
0
 10
303.744
 20
245.014
 30
0.0
 40
1
 41
1
  0
VERTEX
  8
0
 10
304.924
 20
238.604
 30
0.0
 40
1
 41
1
  0
VERTEX
  8
0
 10
311.069
 20
236.426
 30
0.0
 40
1
 41
1
  0
VERTEX
  8
0
 10
316.029
 20
240.656
 30
0.0
 40
1
 41
1
  0
VERTEX
  8
0
 10
314.843
 20
247.065
 30
0.0
 40
1
 41
1
  0
VERTEX
  8
0
 10
308.703
 20
249.244
 30
0.0
 40
1
 41
1
  0
SEQEND
 8
0
  0
POLYLINE
  8
0
 62
     0
 66
     1
 10
0
 20
0
 30
0.0
 70
     1
 40
72
 41
72
  0
VERTEX
  8
0
 10
317.096
 20
157.044
 30
0.0
 40
1
 41
1
  0
VERTEX
  8
0
 10
312.865
 20
162.004
 30
0.0
 40
1
 41
1
  0
VERTEX
  8
0
 10
306.457
 20
160.824
 30
0.0
 40
1
 41
1
  0
VERTEX
  8
0
 10
304.278
 20
154.679
 30
0.0
 40
1
 41
1
  0
VERTEX
  8
0
 10
308.508
 20
149.719
 30
0.0
 40
1
 41
1
  0
VERTEX
  8
0
 10
314.918
 20
150.906
 30
0.0
 40
1
 41
1
  0
VERTEX
  8
0
 10
317.096
 20
157.044
 30
0.0
 40
1
 41
1
  0
SEQEND
 8
0
  0
POLYLINE
  8
0
 62
     0
 66
     1
 10
0
 20
0
 30
0.0
 70
     1
 40
72
 41
72
  0
VERTEX
  8
0
 10
310.468
 20
229.622
 30
0.0
 40
1
 41
1
  0
VERTEX
  8
0
 10
305.508
 20
225.393
 30
0.0
 40
1
 41
1
  0
VERTEX
  8
0
 10
306.689
 20
218.983
 30
0.0
 40
1
 41
1
  0
VERTEX
  8
0
 10
312.833
 20
216.804
 30
0.0
 40
1
 41
1
  0
VERTEX
  8
0
 10
317.793
 20
221.033
 30
0.0
 40
1
 41
1
  0
VERTEX
  8
0
 10
316.607
 20
227.444
 30
0.0
 40
1
 41
1
  0
VERTEX
  8
0
 10
310.468
 20
229.622
 30
0.0
 40
1
 41
1
  0
SEQEND
 8
0
  0
POLYLINE
  8
0
 62
     0
 66
     1
 10
0
 20
0
 30
0.0
 70
     1
 40
72
 41
72
  0
VERTEX
  8
0
 10
313.414
 20
7.56657
 30
0.0
 40
1
 41
1
  0
VERTEX
  8
0
 10
318.374
 20
11.7966
 30
0.0
 40
1
 41
1
  0
VERTEX
  8
0
 10
317.194
 20
18.2056
 30
0.0
 40
1
 41
1
  0
VERTEX
  8
0
 10
311.05
 20
20.3846
 30
0.0
 40
1
 41
1
  0
VERTEX
  8
0
 10
306.089
 20
16.1546
 30
0.0
 40
1
 41
1
  0
VERTEX
  8
0
 10
307.275
 20
9.74451
 30
0.0
 40
1
 41
1
  0
VERTEX
  8
0
 10
313.414
 20
7.56657
 30
0.0
 40
1
 41
1
  0
SEQEND
 8
0
  0
POLYLINE
  8
0
 62
     0
 66
     1
 10
0
 20
0
 30
0.0
 70
     1
 40
72
 41
72
  0
VERTEX
  8
0
 10
319.281
 20
177.994
 30
0.0
 40
1
 41
1
  0
VERTEX
  8
0
 10
315.053
 20
182.953
 30
0.0
 40
1
 41
1
  0
VERTEX
  8
0
 10
308.643
 20
181.769
 30
0.0
 40
1
 41
1
  0
VERTEX
  8
0
 10
306.465
 20
175.628
 30
0.0
 40
1
 41
1
  0
VERTEX
  8
0
 10
310.694
 20
170.668
 30
0.0
 40
1
 41
1
  0
VERTEX
  8
0
 10
317.106
 20
171.851
 30
0.0
 40
1
 41
1
  0
VERTEX
  8
0
 10
319.281
 20
177.994
 30
0.0
 40
1
 41
1
  0
SEQEND
 8
0
  0
POLYLINE
  8
0
 62
     0
 66
     1
 10
0
 20
0
 30
0.0
 70
     1
 40
72
 41
72
  0
VERTEX
  8
0
 10
313.585
 20
114.372
 30
0.0
 40
1
 41
1
  0
VERTEX
  8
0
 10
318.543
 20
118.599
 30
0.0
 40
1
 41
1
  0
VERTEX
  8
0
 10
317.361
 20
125.009
 30
0.0
 40
1
 41
1
  0
VERTEX
  8
0
 10
311.218
 20
127.187
 30
0.0
 40
1
 41
1
  0
VERTEX
  8
0
 10
306.258
 20
122.957
 30
0.0
 40
1
 41
1
  0
VERTEX
  8
0
 10
307.44
 20
116.547
 30
0.0
 40
1
 41
1
  0
VERTEX
  8
0
 10
313.585
 20
114.372
 30
0.0
 40
1
 41
1
  0
SEQEND
 8
0
  0
POLYLINE
  8
0
 62
     0
 66
     1
 10
0
 20
0
 30
0.0
 70
     1
 40
72
 41
72
  0
VERTEX
  8
0
 10
315.007
 20
137.668
 30
0.0
 40
1
 41
1
  0
VERTEX
  8
0
 10
319.968
 20
141.896
 30
0.0
 40
1
 41
1
  0
VERTEX
  8
0
 10
318.785
 20
148.304
 30
0.0
 40
1
 41
1
  0
VERTEX
  8
0
 10
312.642
 20
150.485
 30
0.0
 40
1
 41
1
  0
VERTEX
  8
0
 10
307.682
 20
146.253
 30
0.0
 40
1
 41
1
  0
VERTEX
  8
0
 10
308.865
 20
139.842
 30
0.0
 40
1
 41
1
  0
VERTEX
  8
0
 10
315.007
 20
137.668
 30
0.0
 40
1
 41
1
  0
SEQEND
 8
0
  0
POLYLINE
  8
0
 62
     0
 66
     1
 10
0
 20
0
 30
0.0
 70
     1
 40
72
 41
72
  0
VERTEX
  8
0
 10
307.092
 20
88.3967
 30
0.0
 40
1
 41
1
  0
VERTEX
  8
0
 10
311.318
 20
83.4376
 30
0.0
 40
1
 41
1
  0
VERTEX
  8
0
 10
317.728
 20
84.6207
 30
0.0
 40
1
 41
1
  0
VERTEX
  8
0
 10
319.907
 20
90.7617
 30
0.0
 40
1
 41
1
  0
VERTEX
  8
0
 10
315.676
 20
95.7226
 30
0.0
 40
1
 41
1
  0
VERTEX
  8
0
 10
309.268
 20
94.5397
 30
0.0
 40
1
 41
1
  0
VERTEX
  8
0
 10
307.092
 20
88.3967
 30
0.0
 40
1
 41
1
  0
SEQEND
 8
0
  0
POLYLINE
  8
0
 62
     0
 66
     1
 10
0
 20
0
 30
0.0
 70
     1
 40
72
 41
72
  0
VERTEX
  8
0
 10
313.693
 20
45.5531
 30
0.0
 40
1
 41
1
  0
VERTEX
  8
0
 10
308.735
 20
41.3253
 30
0.0
 40
1
 41
1
  0
VERTEX
  8
0
 10
309.917
 20
34.9157
 30
0.0
 40
1
 41
1
  0
VERTEX
  8
0
 10
316.06
 20
32.7371
 30
0.0
 40
1
 41
1
  0
VERTEX
  8
0
 10
321.019
 20
36.9669
 30
0.0
 40
1
 41
1
  0
VERTEX
  8
0
 10
319.836
 20
43.3764
 30
0.0
 40
1
 41
1
  0
VERTEX
  8
0
 10
313.693
 20
45.5531
 30
0.0
 40
1
 41
1
  0
SEQEND
 8
0
  0
POLYLINE
  8
0
 62
     0
 66
     1
 10
0
 20
0
 30
0.0
 70
     1
 40
72
 41
72
  0
VERTEX
  8
0
 10
316.851
 20
63.8782
 30
0.0
 40
1
 41
1
  0
VERTEX
  8
0
 10
321.81
 20
68.1051
 30
0.0
 40
1
 41
1
  0
VERTEX
  8
0
 10
320.628
 20
74.5151
 30
0.0
 40
1
 41
1
  0
VERTEX
  8
0
 10
314.485
 20
76.6942
 30
0.0
 40
1
 41
1
  0
VERTEX
  8
0
 10
309.528
 20
72.4632
 30
0.0
 40
1
 41
1
  0
VERTEX
  8
0
 10
310.71
 20
66.0532
 30
0.0
 40
1
 41
1
  0
VERTEX
  8
0
 10
316.851
 20
63.8782
 30
0.0
 40
1
 41
1
  0
SEQEND
 8
0
  0
POLYLINE
  8
0
 62
     0
 66
     1
 10
0
 20
0
 30
0.0
 70
     1
 40
72
 41
72
  0
VERTEX
  8
0
 10
35.8756
 20
106.15
 30
0.0
 40
1
 41
1
  0
VERTEX
  8
0
 10
58.0485
 20
106.15
 30
0.0
 40
1
 41
1
  0
VERTEX
  8
0
 10
58.0485
 20
102.259
 30
0.0
 40
1
 41
1
  0
VERTEX
  8
0
 10
35.8756
 20
102.259
 30
0.0
 40
1
 41
1
  0
VERTEX
  8
0
 10
35.8756
 20
106.15
 30
0.0
 40
1
 41
1
  0
SEQEND
 8
0
  0
POLYLINE
  8
0
 62
     0
 66
     1
 10
0
 20
0
 30
0.0
 70
     1
 40
72
 41
72
  0
VERTEX
  8
0
 10
0.768935
 20
151.301
 30
0.0
 40
1
 41
1
  0
VERTEX
  8
0
 10
4.65994
 20
151.301
 30
0.0
 40
1
 41
1
  0
VERTEX
  8
0
 10
4.65994
 20
129.128
 30
0.0
 40
1
 41
1
  0
VERTEX
  8
0
 10
0.768935
 20
129.128
 30
0.0
 40
1
 41
1
  0
VERTEX
  8
0
 10
0.768935
 20
151.301
 30
0.0
 40
1
 41
1
  0
SEQEND
 8
0
  0
POLYLINE
  8
0
 62
     0
 66
     1
 10
0
 20
0
 30
0.0
 40
72
 41
72
  0
VERTEX
  8
0
 10
66.2911
 20
219.15
 30
0.0
 40
1
 41
1
  0
VERTEX
  8
0
 10
66.2911
 20
196.978
 30
0.0
 40
1
 41
1
  0
VERTEX
  8
0
 10
62.4001
 20
196.978
 30
0.0
 40
1
 41
1
  0
SEQEND
 8
0
  0
POLYLINE
  8
0
 62
     0
 66
     1
 10
0
 20
0
 30
0.0
 70
     1
 40
72
 41
72
  0
VERTEX
  8
0
 10
60.7093
 20
174.756
 30
0.0
 40
1
 41
1
  0
VERTEX
  8
0
 10
60.2783
 20
167.376
 30
0.0
 40
1
 41
1
  0
VERTEX
  8
0
 10
50.7883
 20
167.606
 30
0.0
 40
1
 41
1
  0
VERTEX
  8
0
 10
50.7883
 20
175.631
 30
0.0
 40
1
 41
1
  0
VERTEX
  8
0
 10
60.7093
 20
174.756
 30
0.0
 40
1
 41
1
  0
SEQEND
 8
0
  0
POLYLINE
  8
0
 62
     0
 66
     1
 10
0
 20
0
 30
0.0
 70
     1
 40
72
 41
72
  0
VERTEX
  8
0
 10
66.9964
 20
212.082
 30
0.0
 40
1
 41
1
  0
VERTEX
  8
0
 10
67.4274
 20
219.46
 30
0.0
 40
1
 41
1
  0
VERTEX
  8
0
 10
76.9174
 20
219.232
 30
0.0
 40
1
 41
1
  0
VERTEX
  8
0
 10
76.9174
 20
211.207
 30
0.0
 40
1
 41
1
  0
VERTEX
  8
0
 10
66.9964
 20
212.082
 30
0.0
 40
1
 41
1
  0
SEQEND
 8
0
  0
POLYLINE
  8
0
 62
     0
 66
     1
 10
0
 20
0
 30
0.0
 70
     1
 40
72
 41
72
  0
VERTEX
  8
0
 10
72.0875
 20
14.2056
 30
0.0
 40
1
 41
1
  0
VERTEX
  8
0
 10
72.5186
 20
21.5836
 30
0.0
 40
1
 41
1
  0
VERTEX
  8
0
 10
82.0075
 20
21.3565
 30
0.0
 40
1
 41
1
  0
VERTEX
  8
0
 10
82.0075
 20
13.3305
 30
0.0
 40
1
 41
1
  0
VERTEX
  8
0
 10
72.0875
 20
14.2056
 30
0.0
 40
1
 41
1
  0
SEQEND
 8
0
  0
POLYLINE
  8
0
 62
     0
 66
     1
 10
0
 20
0
 30
0.0
 70
     1
 40
72
 41
72
  0
VERTEX
  8
0
 10
120.198
 20
14.5321
 30
0.0
 40
1
 41
1
  0
VERTEX
  8
0
 10
119.767
 20
7.15408
 30
0.0
 40
1
 41
1
  0
VERTEX
  8
0
 10
110.278
 20
7.38206
 30
0.0
 40
1
 41
1
  0
VERTEX
  8
0
 10
110.278
 20
15.4071
 30
0.0
 40
1
 41
1
  0
VERTEX
  8
0
 10
120.198
 20
14.5321
 30
0.0
 40
1
 41
1
  0
SEQEND
 8
0
  0
POLYLINE
  8
0
 62
     0
 66
     1
 10
0
 20
0
 30
0.0
 70
     1
 40
72
 41
72
  0
VERTEX
  8
0
 10
113.473
 20
110.981
 30
0.0
 40
1
 41
1
  0
VERTEX
  8
0
 10
113.903
 20
118.359
 30
0.0
 40
1
 41
1
  0
VERTEX
  8
0
 10
123.393
 20
118.13
 30
0.0
 40
1
 41
1
  0
VERTEX
  8
0
 10
123.393
 20
110.105
 30
0.0
 40
1
 41
1
  0
VERTEX
  8
0
 10
113.473
 20
110.981
 30
0.0
 40
1
 41
1
  0
SEQEND
 8
0
  0
POLYLINE
  8
0
 62
     0
 66
     1
 10
0
 20
0
 30
0.0
 70
     1
 40
72
 41
72
  0
VERTEX
  8
0
 10
135.069
 20
91.4579
 30
0.0
 40
1
 41
1
  0
VERTEX
  8
0
 10
135.499
 20
98.8358
 30
0.0
 40
1
 41
1
  0
VERTEX
  8
0
 10
144.989
 20
98.6079
 30
0.0
 40
1
 41
1
  0
VERTEX
  8
0
 10
144.989
 20
90.5829
 30
0.0
 40
1
 41
1
  0
VERTEX
  8
0
 10
135.069
 20
91.4579
 30
0.0
 40
1
 41
1
  0
SEQEND
 8
0
  0
POLYLINE
  8
0
 62
     0
 66
     1
 10
0
 20
0
 30
0.0
 70
     1
 40
72
 41
72
  0
VERTEX
  8
0
 10
149.388
 20
138.213
 30
0.0
 40
1
 41
1
  0
VERTEX
  8
0
 10
149.817
 20
145.59
 30
0.0
 40
1
 41
1
  0
VERTEX
  8
0
 10
159.307
 20
145.362
 30
0.0
 40
1
 41
1
  0
VERTEX
  8
0
 10
159.307
 20
137.337
 30
0.0
 40
1
 41
1
  0
VERTEX
  8
0
 10
149.388
 20
138.213
 30
0.0
 40
1
 41
1
  0
SEQEND
 8
0
  0
POLYLINE
  8
0
 62
     0
 66
     1
 10
0
 20
0
 30
0.0
 70
     1
 40
72
 41
72
  0
VERTEX
  8
0
 10
184.571
 20
228.299
 30
0.0
 40
1
 41
1
  0
VERTEX
  8
0
 10
185.001
 20
235.678
 30
0.0
 40
1
 41
1
  0
VERTEX
  8
0
 10
194.49
 20
235.449
 30
0.0
 40
1
 41
1
  0
VERTEX
  8
0
 10
194.49
 20
227.424
 30
0.0
 40
1
 41
1
  0
VERTEX
  8
0
 10
184.571
 20
228.299
 30
0.0
 40
1
 41
1
  0
SEQEND
 8
0
  0
POLYLINE
  8
0
 62
     0
 66
     1
 10
0
 20
0
 30
0.0
 70
     1
 40
72
 41
72
  0
VERTEX
  8
0
 10
130.721
 20
107.623
 30
0.0
 40
1
 41
1
  0
VERTEX
  8
0
 10
123.343
 20
108.054
 30
0.0
 40
1
 41
1
  0
VERTEX
  8
0
 10
123.571
 20
117.543
 30
0.0
 40
1
 41
1
  0
VERTEX
  8
0
 10
131.596
 20
117.543
 30
0.0
 40
1
 41
1
  0
VERTEX
  8
0
 10
130.721
 20
107.623
 30
0.0
 40
1
 41
1
  0
SEQEND
 8
0
  0
POLYLINE
  8
0
 62
     0
 66
     1
 10
0
 20
0
 30
0.0
 70
     1
 40
72
 41
72
  0
VERTEX
  8
0
 10
126.257
 20
169.796
 30
0.0
 40
1
 41
1
  0
VERTEX
  8
0
 10
125.825
 20
162.418
 30
0.0
 40
1
 41
1
  0
VERTEX
  8
0
 10
116.337
 20
162.646
 30
0.0
 40
1
 41
1
  0
VERTEX
  8
0
 10
116.337
 20
170.671
 30
0.0
 40
1
 41
1
  0
VERTEX
  8
0
 10
126.257
 20
169.796
 30
0.0
 40
1
 41
1
  0
SEQEND
 8
0
  0
POLYLINE
  8
0
 62
     0
 66
     1
 10
0
 20
0
 30
0.0
 70
     1
 40
72
 41
72
  0
VERTEX
  8
0
 10
159.961
 20
209.585
 30
0.0
 40
1
 41
1
  0
VERTEX
  8
0
 10
152.583
 20
210.017
 30
0.0
 40
1
 41
1
  0
VERTEX
  8
0
 10
152.811
 20
219.506
 30
0.0
 40
1
 41
1
  0
VERTEX
  8
0
 10
160.836
 20
219.506
 30
0.0
 40
1
 41
1
  0
VERTEX
  8
0
 10
159.961
 20
209.585
 30
0.0
 40
1
 41
1
  0
SEQEND
 8
0
  0
POLYLINE
  8
0
 62
     0
 66
     1
 10
0
 20
0
 30
0.0
 40
72
 41
72
  0
VERTEX
  8
0
 10
197.221
 20
22.5594
 30
0.0
 40
1
 41
1
  0
VERTEX
  8
0
 10
187.729
 20
22.7914
 30
0.0
 40
1
 41
1
  0
VERTEX
  8
0
 10
187.301
 20
15.4135
 30
0.0
 40
1
 41
1
  0
VERTEX
  8
0
 10
197.221
 20
14.5385
 30
0.0
 40
1
 41
1
  0
SEQEND
 8
0
  0
POLYLINE
  8
0
 62
     0
 66
     1
 10
0
 20
0
 30
0.0
 70
     1
 40
72
 41
72
  0
VERTEX
  8
0
 10
195.865
 20
22.5929
 30
0.0
 40
1
 41
1
  0
VERTEX
  8
0
 10
188.487
 20
23.0208
 30
0.0
 40
1
 41
1
  0
VERTEX
  8
0
 10
188.719
 20
32.5119
 30
0.0
 40
1
 41
1
  0
VERTEX
  8
0
 10
196.74
 20
32.5119
 30
0.0
 40
1
 41
1
  0
VERTEX
  8
0
 10
195.865
 20
22.5929
 30
0.0
 40
1
 41
1
  0
SEQEND
 8
0
  0
POLYLINE
  8
0
 62
     0
 66
     1
 10
0
 20
0
 30
0.0
 70
     1
 40
72
 41
72
  0
VERTEX
  8
0
 10
195.049
 20
119.123
 30
0.0
 40
1
 41
1
  0
VERTEX
  8
0
 10
202.426
 20
118.694
 30
0.0
 40
1
 41
1
  0
VERTEX
  8
0
 10
202.193
 20
109.203
 30
0.0
 40
1
 41
1
  0
VERTEX
  8
0
 10
194.174
 20
109.203
 30
0.0
 40
1
 41
1
  0
VERTEX
  8
0
 10
195.049
 20
119.123
 30
0.0
 40
1
 41
1
  0
SEQEND
 8
0
  0
POLYLINE
  8
0
 62
     0
 66
     1
 10
0
 20
0
 30
0.0
 40
72
 41
72
  0
VERTEX
  8
0
 10
207.624
 20
61.5864
 30
0.0
 40
1
 41
1
  0
VERTEX
  8
0
 10
207.854
 20
71.0774
 30
0.0
 40
1
 41
1
  0
VERTEX
  8
0
 10
200.478
 20
71.5054
 30
0.0
 40
1
 41
1
  0
VERTEX
  8
0
 10
199.604
 20
61.5864
 30
0.0
 40
1
 41
1
  0
SEQEND
 8
0
  0
POLYLINE
  8
0
 62
     0
 66
     1
 10
0
 20
0
 30
0.0
 70
     1
 40
72
 41
72
  0
VERTEX
  8
0
 10
179.214
 20
197.796
 30
0.0
 40
1
 41
1
  0
VERTEX
  8
0
 10
178.786
 20
190.418
 30
0.0
 40
1
 41
1
  0
VERTEX
  8
0
 10
169.294
 20
190.65
 30
0.0
 40
1
 41
1
  0
VERTEX
  8
0
 10
169.294
 20
198.671
 30
0.0
 40
1
 41
1
  0
VERTEX
  8
0
 10
179.214
 20
197.796
 30
0.0
 40
1
 41
1
  0
SEQEND
 8
0
  0
POLYLINE
  8
0
 62
     0
 66
     1
 10
0
 20
0
 30
0.0
 40
72
 41
72
  0
VERTEX
  8
0
 10
220.872
 20
97.0422
 30
0.0
 40
1
 41
1
  0
VERTEX
  8
0
 10
230.792
 20
97.2332
 30
0.0
 40
1
 41
1
  0
VERTEX
  8
0
 10
230.792
 20
104.19
 30
0.0
 40
1
 41
1
  0
VERTEX
  8
0
 10
220.872
 20
105.066
 30
0.0
 40
1
 41
1
  0
SEQEND
 8
0
  0
POLYLINE
  8
0
 62
     0
 66
     1
 10
0
 20
0
 30
0.0
 70
     1
 40
72
 41
72
  0
VERTEX
  8
0
 10
150.914
 20
247.931
 30
0.0
 40
1
 41
1
  0
VERTEX
  8
0
 10
150.914
 20
254.886
 30
0.0
 40
1
 41
1
  0
VERTEX
  8
0
 10
160.833
 20
255.078
 30
0.0
 40
1
 41
1
  0
VERTEX
  8
0
 10
160.833
 20
247.054
 30
0.0
 40
1
 41
1
  0
VERTEX
  8
0
 10
150.914
 20
247.931
 30
0.0
 40
1
 41
1
  0
SEQEND
 8
0
  0
POLYLINE
  8
0
 62
     0
 66
     1
 10
0
 20
0
 30
0.0
 70
     1
 40
72
 41
72
  0
VERTEX
  8
0
 10
228.019
 20
87.1231
 30
0.0
 40
1
 41
1
  0
VERTEX
  8
0
 10
221.064
 20
87.1231
 30
0.0
 40
1
 41
1
  0
VERTEX
  8
0
 10
220.872
 20
97.0419
 30
0.0
 40
1
 41
1
  0
VERTEX
  8
0
 10
228.894
 20
97.0419
 30
0.0
 40
1
 41
1
  0
VERTEX
  8
0
 10
228.019
 20
87.1231
 30
0.0
 40
1
 41
1
  0
SEQEND
 8
0
  0
POLYLINE
  8
0
 62
     0
 66
     1
 10
0
 20
0
 30
0.0
 40
72
 41
72
  0
VERTEX
  8
0
 10
264.992
 20
4.36062
 30
0.0
 40
1
 41
1
  0
VERTEX
  8
0
 10
255.072
 20
4.16862
 30
0.0
 40
1
 41
1
  0
VERTEX
  8
0
 10
255.072
 20
12.1916
 30
0.0
 40
1
 41
1
  0
VERTEX
  8
0
 10
264.992
 20
11.3166
 30
0.0
 40
1
 41
1
  0
VERTEX
  8
0
 10
264.992
 20
2.90696
 30
0.0
 40
1
 41
1
  0
SEQEND
 8
0
  0
POLYLINE
  8
0
 62
     0
 66
     1
 10
0
 20
0
 30
0.0
 70
     1
 40
72
 41
72
  0
VERTEX
  8
0
 10
242.279
 20
86.6471
 30
0.0
 40
1
 41
1
  0
VERTEX
  8
0
 10
249.235
 20
86.6471
 30
0.0
 40
1
 41
1
  0
VERTEX
  8
0
 10
249.426
 20
76.7282
 30
0.0
 40
1
 41
1
  0
VERTEX
  8
0
 10
241.404
 20
76.7282
 30
0.0
 40
1
 41
1
  0
VERTEX
  8
0
 10
242.279
 20
86.6471
 30
0.0
 40
1
 41
1
  0
SEQEND
 8
0
  0
POLYLINE
  8
0
 62
     0
 66
     1
 10
0
 20
0
 30
0.0
 40
72
 41
72
  0
VERTEX
  8
0
 10
267.315
 20
147.299
 30
0.0
 40
1
 41
1
  0
VERTEX
  8
0
 10
267.506
 20
137.379
 30
0.0
 40
1
 41
1
  0
VERTEX
  8
0
 10
259.485
 20
137.379
 30
0.0
 40
1
 41
1
  0
VERTEX
  8
0
 10
260.36
 20
147.299
 30
0.0
 40
1
 41
1
  0
SEQEND
 8
0
  0
POLYLINE
  8
0
 62
     0
 66
     1
 10
0
 20
0
 30
0.0
 40
72
 41
72
  0
VERTEX
  8
0
 10
269.743
 20
51.9186
 30
0.0
 40
1
 41
1
  0
VERTEX
  8
0
 10
269.935
 20
41.999
 30
0.0
 40
1
 41
1
  0
VERTEX
  8
0
 10
276.89
 20
41.999
 30
0.0
 40
1
 41
1
  0
VERTEX
  8
0
 10
277.767
 20
51.9186
 30
0.0
 40
1
 41
1
  0
SEQEND
 8
0
  0
POLYLINE
  8
0
 62
     0
 66
     1
 10
0
 20
0
 30
0.0
 40
72
 41
72
  0
VERTEX
  8
0
 10
264.992
 20
2.90696
 30
0.0
 40
1
 41
1
  0
VERTEX
  8
0
 10
274.911
 20
3.09896
 30
0.0
 40
1
 41
1
  0
VERTEX
  8
0
 10
274.911
 20
10.0539
 30
0.0
 40
1
 41
1
  0
VERTEX
  8
0
 10
264.992
 20
10.93
 30
0.0
 40
1
 41
1
  0
SEQEND
 8
0
  0
POLYLINE
  8
0
 62
     0
 66
     1
 10
0
 20
0
 30
0.0
 40
72
 41
72
  0
VERTEX
  8
0
 10
283.519
 20
152.383
 30
0.0
 40
1
 41
1
  0
VERTEX
  8
0
 10
283.331
 20
162.303
 30
0.0
 40
1
 41
1
  0
VERTEX
  8
0
 10
276.372
 20
162.303
 30
0.0
 40
1
 41
1
  0
VERTEX
  8
0
 10
275.497
 20
152.383
 30
0.0
 40
1
 41
1
  0
SEQEND
 8
0
  0
POLYLINE
  8
0
 62
     0
 66
     1
 10
0
 20
0
 30
0.0
 70
     1
 40
72
 41
72
  0
VERTEX
  8
0
 10
297.965
 20
82.3369
 30
0.0
 40
1
 41
1
  0
VERTEX
  8
0
 10
297.965
 20
75.381
 30
0.0
 40
1
 41
1
  0
VERTEX
  8
0
 10
288.046
 20
75.189
 30
0.0
 40
1
 41
1
  0
VERTEX
  8
0
 10
288.046
 20
83.2119
 30
0.0
 40
1
 41
1
  0
VERTEX
  8
0
 10
297.965
 20
82.3369
 30
0.0
 40
1
 41
1
  0
SEQEND
 8
0
  0
POLYLINE
  8
0
 62
     0
 66
     1
 10
0
 20
0
 30
0.0
 40
72
 41
72
  0
VERTEX
  8
0
 10
278.499
 20
122.165
 30
0.0
 40
1
 41
1
  0
VERTEX
  8
0
 10
278.692
 20
112.246
 30
0.0
 40
1
 41
1
  0
VERTEX
  8
0
 10
285.646
 20
112.246
 30
0.0
 40
1
 41
1
  0
VERTEX
  8
0
 10
286.521
 20
122.165
 30
0.0
 40
1
 41
1
  0
SEQEND
 8
0
  0
POLYLINE
  8
0
 62
     0
 66
     1
 10
0
 20
0
 30
0.0
 40
72
 41
72
  0
VERTEX
  8
0
 10
252.314
 20
166
 30
0.0
 40
1
 41
1
  0
VERTEX
  8
0
 10
252.314
 20
132.45
 30
0.0
 40
1
 41
1
  0
VERTEX
  8
0
 10
167.103
 20
132.45
 30
0.0
 40
1
 41
1
  0
SEQEND
 8
0
  0
ENDSEC
  0
EOF
