<svg width="800" height="600" xmlns="http://www.w3.org/2000/svg">
 <g id="Layer_1">
  <title>Layer 1</title>
  <rect id="svg_1" height="113" width="172" y="187.33333" x="85" stroke="#000" fill="#fff"/>
  <ellipse ry="7" rx="6" id="svg_2" cy="289.33333" cx="242" stroke="#000" fill="#fff"/>
  <path id="svg_3" d="m220.895,290.90668l5.5,-6.00001l5.5,6.00001l-5.5,6.00001l-5.5,-6.00001z" stroke="#000" fill="#fff"/>
  <path id="svg_4" d="m199.00498,289.42165l0,0c0,-4.14214 3.134,-7.5 6.99999,-7.5l0,0c1.85651,0 3.63699,0.79018 4.94974,2.1967c1.31275,1.40652 2.05025,3.31418 2.05025,5.3033l0,0c0,4.14213 -3.134,7.5 -6.99999,7.5l0,0c-3.86599,0 -6.99999,-3.35787 -6.99999,-7.5zm3.5,0l0,0c0,2.07107 1.567,3.75 3.5,3.75c1.933,0 3.5,-1.67893 3.5,-3.75c0,-2.07107 -1.567,-3.75 -3.5,-3.75l0,0c-1.93299,0 -3.5,1.67893 -3.5,3.75z" stroke="#000" fill="#fff"/>
  <ellipse ry="31" rx="26.5" id="svg_5" cy="111.33333" cx="190.5" stroke="#000" fill="#fff"/>
  <rect id="svg_6" height="30" width="31" y="136.33333" x="269" stroke="#000" fill="#fff"/>
  <path id="svg_7" d="m285.56999,224.90306l7.92857,-17.5l21.14286,0l7.92857,17.5l-7.92857,17.5l-21.14286,0l-7.92857,-17.5z" stroke="#000" fill="#fff"/>
  <path id="svg_8" d="m292.53755,311.37235l27.99999,-36.4124l27.99999,36.4124l-13.99999,0l0,36.58761l-27.99998,0l0,-36.58761l-13.99999,0z" stroke="#000" fill="#fff"/>
  <path id="svg_10" d="m313.43001,330.3082l3.87918,-4.60653l4.12079,4.8934l4.12079,-4.8934l3.87921,4.60653l-4.12079,4.89344l4.12079,4.89344l-3.87921,4.60657l-4.12079,-4.89344l-4.12079,4.89344l-3.87918,-4.60657l4.12076,-4.89344l-4.12076,-4.89344z" stroke="#000" fill="#fff"/>
  <path id="svg_11" d="m442.55967,189.38663l0,0c7.60599,0 13.77187,6.61414 13.77187,14.7731c0,8.15896 -6.16587,14.7731 -13.77187,14.7731c-7.606,0 -13.77187,-6.61413 -13.77187,-14.7731c0,-8.15896 6.16587,-14.7731 13.77187,-14.7731zm0,96.00002c-7.606,0 -13.77187,-6.61414 -13.77187,-14.7731c0,-8.15895 6.16587,-14.7731 13.77187,-14.7731c7.60599,0 13.77187,6.61414 13.77187,14.7731c0,8.15896 -6.16587,14.7731 -13.77187,14.7731zm-40.49999,-62.77311l80.99998,0l0,29.5462l-80.99998,0l0,-29.5462z" stroke="#000" fill="#fff"/>
  <path id="svg_12" d="m338.30498,147.52605l18.50744,0l0,-19.8294l18.98512,0l0,19.8294l18.50744,0l0,20.3412l-18.50744,0l0,19.8294l-18.98512,0l0,-19.8294l-18.50744,0l0,-20.3412z" stroke="#000" fill="#fff"/>
 </g>
</svg>